<?xml version="1.0" standalone="no"?>
<!DOCTYPE svg PUBLIC "-//W3C//DTD SVG 20010904//EN"
 "http://www.w3.org/TR/2001/REC-SVG-20010904/DTD/svg10.dtd">
<svg version="1.0" xmlns="http://www.w3.org/2000/svg"
 width="800.000000pt" height="800.000000pt" viewBox="0 0 800.000000 800.000000"
 preserveAspectRatio="xMidYMid meet">
<metadata>
Created by potrace 1.11, written by Peter Selinger 2001-2013
</metadata>
<g transform="translate(0.000000,800.000000) scale(0.100000,-0.100000)"
fill="#000000" stroke="none">
<path d="M1018 5455 c-2 -1 -32 -5 -68 -9 -119 -11 -325 -73 -371 -113 -8 -7
-19 -13 -23 -13 -12 0 -112 -77 -147 -114 -108 -115 -151 -226 -155 -401 -5
-209 43 -341 171 -468 58 -58 195 -152 235 -162 3 -1 26 -11 52 -23 26 -11
103 -40 170 -63 68 -22 130 -43 138 -46 8 -3 99 -34 202 -69 163 -56 324 -126
366 -159 104 -80 167 -162 201 -261 16 -47 20 -79 17 -159 -3 -86 -7 -109 -33
-165 -74 -159 -245 -267 -486 -308 -23 -4 -103 -7 -177 -6 -165 1 -191 5 -330
49 -130 42 -307 136 -380 202 -24 23 -65 30 -85 15 -6 -4 -28 -28 -49 -55
l-39 -47 29 -22 c16 -13 39 -33 52 -45 13 -13 25 -23 28 -23 2 0 30 -17 62
-39 109 -74 304 -156 422 -177 8 -2 44 -8 80 -15 94 -18 404 -15 437 4 4 2 26
8 48 12 141 25 316 117 418 219 56 56 116 155 139 230 24 76 31 247 15 333
-26 137 -119 280 -248 378 -48 38 -224 135 -254 142 -5 1 -45 15 -87 31 -43
17 -78 28 -78 26 0 -2 -20 5 -45 16 -25 11 -45 17 -45 15 0 -2 -20 4 -45 15
-25 11 -47 20 -50 20 -32 4 -317 106 -377 135 -208 102 -307 238 -321 443 -2
29 0 55 4 58 4 2 6 12 4 22 -3 23 39 136 66 174 31 44 70 81 120 118 48 35
162 90 185 90 9 0 24 4 34 10 10 5 36 13 57 16 21 3 57 9 81 14 49 9 248 6
302 -4 191 -37 355 -114 496 -232 61 -51 88 -52 133 -3 49 55 49 63 -11 119
-64 61 -220 170 -242 170 -9 0 -16 4 -16 9 0 5 -10 12 -22 16 -13 4 -25 8 -28
9 -72 32 -214 70 -299 81 -57 7 -247 15 -253 10z"/>
<path d="M4418 5454 c-2 -1 -32 -5 -67 -8 -123 -12 -270 -58 -390 -122 -80
-43 -208 -134 -216 -152 -3 -7 10 -32 27 -55 18 -23 34 -44 35 -46 6 -9 83
-12 83 -3 0 6 33 31 73 55 116 73 258 126 402 153 49 9 241 10 275 1 14 -4 39
-10 55 -14 57 -13 69 -18 175 -71 74 -37 111 -63 171 -122 69 -69 126 -150
132 -189 1 -9 6 -22 10 -29 5 -7 10 -34 12 -60 2 -26 5 -47 5 -47 1 0 3 -24 4
-53 0 -28 -1 -52 -4 -52 -3 0 -6 -21 -6 -48 -3 -90 -70 -242 -151 -342 -52
-64 -292 -299 -702 -686 -51 -49 -119 -114 -151 -144 -32 -30 -133 -127 -225
-215 -93 -88 -195 -186 -228 -218 -50 -49 -61 -56 -75 -45 -12 10 -154 13
-678 13 -365 0 -666 3 -669 7 -4 4 -7 546 -7 1206 0 1177 0 1200 -19 1221 -27
29 -89 29 -115 0 -18 -20 -19 -62 -19 -1287 -1 -1249 -1 -1267 19 -1290 l19
-22 728 0 c633 0 730 2 743 15 18 18 28 19 44 3 10 -10 190 -13 828 -14 810 0
814 0 833 20 27 30 25 106 -3 126 -12 8 -24 15 -28 16 -5 1 -9 2 -10 3 -6 5
-78 6 -78 1 0 -7 -110 -4 -117 4 -3 3 -13 1 -23 -4 -10 -5 -20 -7 -24 -3 -7 7
-76 10 -76 3 0 -3 -26 -4 -57 -2 -32 2 -67 2 -78 2 -28 -2 -35 -1 -72 3 -18 2
-33 1 -33 -2 0 -8 -109 -5 -117 3 -3 3 -13 1 -23 -4 -10 -5 -20 -7 -24 -3 -7
7 -76 10 -76 3 0 -3 -26 -4 -57 -2 -32 2 -67 2 -78 2 -28 -2 -35 -1 -72 3 -18
2 -33 1 -33 -2 0 -8 -109 -5 -117 3 -3 3 -13 1 -23 -4 -10 -5 -20 -7 -24 -3
-7 7 -76 10 -76 3 0 -4 -61 -5 -105 -1 -5 1 22 31 60 67 39 36 130 123 204
193 74 69 155 146 182 171 70 66 262 245 342 320 156 144 395 389 445 455 94
124 163 287 178 420 32 282 -55 504 -268 677 -88 72 -257 150 -373 172 -16 4
-41 9 -55 12 -25 5 -238 13 -242 8z"/>
<path d="M6609 5456 c-2 -2 -29 -6 -59 -9 -218 -22 -524 -157 -698 -310 -85
-74 -194 -193 -241 -265 -28 -42 -54 -81 -59 -87 -4 -5 -20 -37 -37 -70 -16
-33 -34 -63 -40 -67 -5 -4 -7 -8 -2 -8 4 0 1 -12 -6 -27 -17 -34 -54 -139 -61
-173 -3 -14 -8 -38 -11 -55 -3 -16 -8 -36 -10 -43 -18 -50 -25 -300 -12 -402
13 -94 17 -115 37 -190 7 -25 12 -47 12 -50 0 -13 44 -114 83 -193 168 -333
452 -579 803 -697 48 -16 98 -31 112 -34 14 -2 45 -9 70 -15 59 -13 168 -24
250 -24 72 0 212 11 232 18 7 3 27 7 43 9 177 21 451 154 619 299 72 62 72 86
1 157 l-53 52 -48 -47 c-161 -155 -407 -273 -629 -301 -115 -14 -355 -4 -415
19 -16 6 -63 18 -92 23 -9 2 -42 15 -72 28 -31 14 -56 23 -56 21 0 -6 -139 74
-205 118 -33 23 -103 84 -155 136 -231 231 -351 515 -352 831 0 73 3 110 16
200 10 64 33 145 61 215 31 75 83 183 95 195 3 3 23 32 45 65 54 82 214 241
305 302 115 77 294 156 405 179 11 2 31 6 45 9 62 12 123 17 225 17 112 1 151
-4 240 -24 28 -7 53 -13 58 -14 4 -1 9 -3 12 -4 3 -1 8 -3 13 -4 58 -13 218
-89 290 -137 23 -16 46 -29 49 -29 3 0 43 -32 90 -71 l83 -70 47 48 c65 66 67
98 10 149 -24 22 -54 47 -69 56 -14 9 -31 23 -39 30 -44 42 -305 178 -343 178
-8 0 -18 5 -21 10 -4 6 -12 10 -18 9 -7 -1 -19 1 -27 4 -13 5 -86 21 -160 34
-33 7 -355 14 -361 9z"/>
</g>
</svg>
