<?xml version="1.0" encoding="iso-8859-1"?>
<!-- Generator: Adobe Illustrator 19.0.0, SVG Export Plug-In . SVG Version: 6.00 Build 0)  -->
<svg version="1.1" id="Layer_1" xmlns="http://www.w3.org/2000/svg" xmlns:xlink="http://www.w3.org/1999/xlink" x="0px" y="0px"
	 viewBox="0 0 512 512" style="enable-background:new 0 0 512 512;" xml:space="preserve">
<g>
	<path style="fill:#17376e;" d="M320.812,129.62h-129.62V37.59c0-20.728,16.864-37.59,37.59-37.59h54.44
		c20.726,0,37.59,16.862,37.59,37.59V129.62z M217.116,103.696h77.772V37.59c0-6.432-5.233-11.666-11.666-11.666h-54.44
		c-6.433,0-11.666,5.234-11.666,11.666V103.696z"/>
	<path style="fill:#17376e;" d="M397.287,512H114.715c-36.451,0-66.106-29.655-66.106-66.106v-122.47
		c0-27.153,14.52-51.98,37.631-65.422v-50.195c0-12.834,1.524-25.609,4.532-37.972c2.258-9.315,5.386-18.499,9.294-27.29
		c25.787-58.015,83.465-95.504,146.941-95.504h17.987c63.478,0,121.156,37.487,146.943,95.504
		c3.908,8.793,7.035,17.977,9.295,27.299c3.005,12.354,4.529,25.129,4.529,37.963v50.195c23.111,13.442,37.631,38.268,37.631,65.422
		v122.47C463.393,482.345,433.737,512,397.287,512z M247.009,72.965c-53.243,0-101.622,31.445-123.253,80.109
		c-3.276,7.369-5.896,15.066-7.79,22.877c-2.522,10.37-3.8,21.084-3.8,31.855v66.613l-7.771,3.396
		c-18.139,7.928-29.861,25.831-29.861,45.608v122.47c0,22.156,18.025,40.182,40.182,40.182h282.572
		c22.157,0,40.182-18.026,40.182-40.182v-122.47c0-19.777-11.722-37.681-29.861-45.608l-7.771-3.396v-66.613
		c0-10.771-1.277-21.486-3.798-31.846c-1.896-7.819-4.516-15.517-7.793-22.887c-21.631-48.663-70.011-80.109-123.253-80.109
		L247.009,72.965L247.009,72.965z"/>
</g>
<path style="fill:#5790f1;" d="M400.093,160.353c-22.993,59.121-74.838,100.351-135.098,100.351h-17.987
	c-60.26,0-112.105-41.23-135.098-100.351c22.993-59.121,74.838-100.351,135.098-100.351h17.987
	C325.257,60.001,377.1,101.232,400.093,160.353z"/>
<g>
	<path style="fill:#17376e;" d="M264.995,273.666h-17.987c-63.747,0-121.518-42.635-147.18-108.615l-1.826-4.699l1.826-4.699
		C125.49,89.673,183.26,47.039,247.008,47.039h17.987c63.747,0,121.518,42.633,147.18,108.614l1.826,4.699l-1.826,4.699
		C386.513,231.031,328.741,273.666,264.995,273.666z M125.9,160.352c22.582,53.261,69.632,87.389,121.109,87.389h17.987
		c51.477,0,98.527-34.129,121.109-87.389c-22.582-53.26-69.632-87.389-121.109-87.389h-17.987
		C195.532,72.965,148.482,107.092,125.9,160.352z"/>
	<path style="fill:#17376e;" d="M363.042,512H148.96V388.652c0-22.363,18.195-40.56,40.559-40.56h132.964
		c22.365,0,40.559,18.195,40.559,40.56V512H363.042z M174.884,486.076H337.12v-97.424c0-8.07-6.565-14.635-14.635-14.635H189.52
		c-8.07,0-14.635,6.565-14.635,14.635V486.076z"/>
</g>
<path style="fill:#5790f1;" d="M263.528,310.88h-15.053c-9.699,0-17.561-7.863-17.561-17.561v-52.684
	c0-9.699,7.863-17.561,17.561-17.561h15.053c9.699,0,17.561,7.863,17.561,17.561v52.684
	C281.089,303.017,273.227,310.88,263.528,310.88z"/>
<g>
	<path style="fill:#17376e;" d="M263.529,323.842h-15.053c-16.83,0-30.523-13.693-30.523-30.523v-52.685
		c0-16.83,13.692-30.523,30.523-30.523h15.053c16.83,0,30.523,13.693,30.523,30.523v52.685
		C294.051,310.149,280.359,323.842,263.529,323.842z M248.474,236.035c-2.535,0-4.599,2.064-4.599,4.599v52.685
		c0,2.537,2.064,4.599,4.599,4.599h15.053c2.535,0,4.599-2.064,4.599-4.599v-52.685c0-2.537-2.064-4.599-4.599-4.599H248.474z"/>
	<rect x="86.237" y="265.942" style="fill:#17376e;" width="25.924" height="145.291"/>
	<rect x="399.84" y="265.942" style="fill:#17376e;" width="25.924" height="145.291"/>
</g>
<g>
</g>
<g>
</g>
<g>
</g>
<g>
</g>
<g>
</g>
<g>
</g>
<g>
</g>
<g>
</g>
<g>
</g>
<g>
</g>
<g>
</g>
<g>
</g>
<g>
</g>
<g>
</g>
<g>
</g>
</svg>
