<?xml version="1.0" encoding="iso-8859-1"?>
<!-- Generator: Adobe Illustrator 19.0.0, SVG Export Plug-In . SVG Version: 6.00 Build 0)  -->
<svg version="1.1" id="Layer_1" xmlns="http://www.w3.org/2000/svg" xmlns:xlink="http://www.w3.org/1999/xlink" x="0px" y="0px"
	 viewBox="0 0 512 512" style="enable-background:new 0 0 512 512;" xml:space="preserve">
<g>
	<path style="fill:#507C5C;" d="M407.944,430.028H39.539C17.737,430.028,0,412.29,0,390.49V53.667
		c0-21.802,17.737-39.539,39.539-39.539H465.48c21.802,0,39.539,17.737,39.539,39.539v279.284L407.944,430.028z M39.539,43.836
		c-5.42,0-9.832,4.411-9.832,9.832v336.821c0,5.42,4.41,9.832,9.832,9.832h356.099l79.674-79.674V53.667
		c0-5.42-4.41-9.832-9.832-9.832C465.48,43.836,39.539,43.836,39.539,43.836z"/>
	<path style="fill:#507C5C;" d="M444.07,497.871c-2.537,0-5.006-0.526-7.335-1.56l-36.651-16.29l-36.65,16.288
		c-2.328,1.035-4.796,1.561-7.333,1.561c-4.712,0-9.173-1.809-12.566-5.093c-3.489-3.378-5.49-8.104-5.49-12.967V365.029h124.08
		v114.782C462.126,489.769,454.025,497.871,444.07,497.871z M400.085,449.217c2.544,0,5.013,0.526,7.338,1.56l24.995,11.109v-67.148
		h-64.666v67.148l25-11.109C395.073,449.742,397.542,449.217,400.085,449.217z"/>
</g>
<path style="fill:#CFF09E;" d="M497.148,327.236c0,9.754-14.504,17.096-17.362,25.897c-2.962,9.122,4.354,23.568-1.172,31.161
	c-5.58,7.669-21.618,5.148-29.287,10.729c-7.593,5.526-10.12,21.587-19.241,24.548c-8.802,2.858-20.247-8.557-30.001-8.557
	s-21.199,11.415-30,8.557c-9.122-2.962-11.648-19.023-19.241-24.548c-7.669-5.58-23.705-3.06-29.287-10.729
	c-5.526-7.593,1.79-22.038-1.172-31.16c-2.858-8.802-17.362-16.144-17.362-25.899c0-9.754,14.504-17.096,17.362-25.897
	c2.962-9.122-4.354-23.568,1.172-31.161c5.58-7.669,21.618-5.148,29.287-10.729c7.593-5.525,10.12-21.587,19.241-24.548
	c8.802-2.858,20.247,8.557,30.001,8.557c9.754,0,21.199-11.415,30-8.557c9.122,2.962,11.648,19.023,19.241,24.548
	c7.669,5.58,23.705,3.06,29.287,10.729c5.526,7.593-1.79,22.038,1.172,31.161C482.644,310.139,497.148,317.482,497.148,327.236z"/>
<g>
	<path style="fill:#507C5C;" d="M427.057,434.885c-7.532,0-13.999-3.155-19.705-5.937c-2.331-1.138-5.818-2.839-7.266-3.066
		c-1.448,0.227-4.934,1.93-7.266,3.066c-5.705,2.782-12.172,5.935-19.705,5.937c-2.632,0-5.194-0.4-7.617-1.185
		c-10.842-3.52-15.97-13.24-19.714-20.336c-1.11-2.103-2.754-5.22-3.713-6.314c-1.353-0.596-4.89-1.215-7.275-1.634
		c-7.852-1.374-18.605-3.254-25.248-12.38c-6.601-9.068-5.09-19.834-3.987-27.694c0.342-2.439,0.85-6.054,0.685-7.549
		c-0.746-1.218-3.127-3.666-4.735-5.319c-5.631-5.785-13.34-13.708-13.34-25.238c0-11.529,7.71-19.452,13.34-25.236
		c1.609-1.653,3.99-4.101,4.735-5.319c0.165-1.496-0.343-5.11-0.685-7.549c-1.104-7.86-2.614-18.623,3.987-27.694
		c6.644-9.127,17.396-11.008,25.249-12.382c2.384-0.416,5.921-1.035,7.274-1.632c0.961-1.096,2.605-4.212,3.713-6.314
		c3.745-7.096,8.872-16.814,19.714-20.334c2.421-0.787,4.985-1.187,7.618-1.187c7.532,0,13.999,3.155,19.706,5.938
		c2.331,1.136,5.817,2.836,7.265,3.064c1.448-0.229,4.934-1.929,7.265-3.066c5.707-2.784,12.174-5.938,19.706-5.938
		c2.632,0,5.194,0.4,7.615,1.185c10.842,3.522,15.969,13.24,19.714,20.337c1.11,2.102,2.752,5.218,3.713,6.314
		c1.353,0.596,4.89,1.215,7.274,1.632c7.853,1.374,18.607,3.254,25.248,12.382c6.601,9.07,5.09,19.834,3.987,27.693
		c-0.342,2.44-0.85,6.054-0.685,7.549c0.746,1.219,3.128,3.667,4.737,5.321c5.629,5.787,13.338,13.708,13.338,25.236
		c0,11.529-7.71,19.454-13.34,25.238c-1.609,1.653-3.99,4.101-4.735,5.319c-0.165,1.494,0.342,5.11,0.685,7.55
		c1.104,7.859,2.614,18.623-3.987,27.693c-6.641,9.126-17.395,11.006-25.248,12.38c-2.385,0.417-5.924,1.037-7.275,1.634
		c-0.961,1.095-2.604,4.211-3.713,6.314c-3.745,7.096-8.872,16.816-19.714,20.334C432.252,434.487,429.689,434.885,427.057,434.885z
		 M400.086,396.162c7.811,0,14.73,3.373,20.288,6.085c1.46,0.711,3.404,1.661,4.937,2.289c0.918-1.466,1.996-3.508,2.8-5.035
		c2.974-5.637,6.344-12.025,12.475-16.487c6.184-4.501,13.347-5.754,19.668-6.859c1.683-0.294,3.935-0.689,5.6-1.107
		c-0.117-1.69-0.429-3.914-0.662-5.576c-0.896-6.378-1.91-13.604,0.466-20.924c2.317-7.136,7.308-12.265,11.712-16.79
		c1.294-1.331,3.055-3.139,4.175-4.521c-1.12-1.381-2.88-3.189-4.174-4.518c-4.404-4.527-9.396-9.658-11.712-16.793
		c-2.377-7.318-1.362-14.546-0.466-20.923c0.233-1.664,0.545-3.886,0.662-5.577c-1.664-0.417-3.915-0.811-5.598-1.105
		c-6.32-1.105-13.486-2.359-19.671-6.861c-6.13-4.462-9.5-10.85-12.474-16.487c-0.805-1.525-1.882-3.568-2.801-5.035
		c-1.534,0.63-3.476,1.577-4.936,2.289c-5.56,2.711-12.477,6.087-20.288,6.087s-14.73-3.373-20.288-6.085
		c-1.46-0.713-3.404-1.661-4.937-2.289c-0.919,1.466-1.996,3.508-2.801,5.035c-2.972,5.635-6.344,12.024-12.474,16.486
		c-6.185,4.502-13.349,5.756-19.67,6.861c-1.683,0.294-3.935,0.688-5.598,1.105c0.119,1.692,0.431,3.914,0.664,5.577
		c0.896,6.377,1.91,13.604-0.466,20.924c-2.317,7.137-7.308,12.266-11.712,16.79c-1.294,1.331-3.054,3.139-4.175,4.52
		c1.12,1.383,2.88,3.191,4.175,4.521c4.403,4.526,9.395,9.655,11.712,16.789c2.377,7.321,1.362,14.549,0.466,20.926
		c-0.233,1.664-0.545,3.886-0.664,5.576c1.665,0.417,3.917,0.812,5.6,1.107c6.32,1.105,13.485,2.359,19.67,6.861
		c6.129,4.46,9.5,10.849,12.474,16.486c0.805,1.525,1.882,3.568,2.801,5.035c1.534-0.63,3.477-1.577,4.937-2.289
		C385.356,399.535,392.275,396.162,400.086,396.162z"/>
	<path style="fill:#507C5C;" d="M419.39,181.973h-29.707v-70.554c0-4.504-3.664-8.169-8.169-8.169H130.489
		c-4.505,0-8.169,3.666-8.169,8.169v70.554H92.613v-70.554c0-20.886,16.991-37.876,37.876-37.876h251.024
		c20.886,0,37.876,16.991,37.876,37.876V181.973z"/>
	<rect x="107.465" y="236.928" style="fill:#507C5C;" width="161.903" height="29.707"/>
	<rect x="107.465" y="307.482" style="fill:#507C5C;" width="118.828" height="29.707"/>
</g>
<g>
</g>
<g>
</g>
<g>
</g>
<g>
</g>
<g>
</g>
<g>
</g>
<g>
</g>
<g>
</g>
<g>
</g>
<g>
</g>
<g>
</g>
<g>
</g>
<g>
</g>
<g>
</g>
<g>
</g>
</svg>
