<?xml version="1.0" encoding="iso-8859-1"?>
<!-- Generator: Adobe Illustrator 19.0.0, SVG Export Plug-In . SVG Version: 6.00 Build 0)  -->
<svg version="1.1" id="Layer_1" xmlns="http://www.w3.org/2000/svg" xmlns:xlink="http://www.w3.org/1999/xlink" x="0px" y="0px"
	 viewBox="0 0 512.001 512.001" style="enable-background:new 0 0 512.001 512.001;" xml:space="preserve">
<circle style="fill:#CFF09E;" cx="367.49" cy="127.609" r="66.615"/>
<g>
	<path style="fill:#507C5C;" d="M439.936,69.106c-3.567,0-7.134-1.36-9.856-4.083c-5.443-5.443-5.444-14.269,0-19.712l8.975-8.976
		c5.443-5.443,14.269-5.444,19.712,0c5.443,5.444,5.444,14.269,0,19.712l-8.975,8.976C447.071,67.746,443.504,69.106,439.936,69.106
		z"/>
	<path style="fill:#507C5C;" d="M286.07,222.973c-3.567,0-7.135-1.36-9.856-4.083c-5.443-5.443-5.443-14.269,0-19.713l8.976-8.976
		c5.443-5.443,14.269-5.443,19.713,0c5.443,5.443,5.443,14.269,0,19.713l-8.976,8.976
		C293.203,221.612,289.637,222.973,286.07,222.973z"/>
	<path style="fill:#507C5C;" d="M455.761,113.675h-8.933c-2.813-16.212-10.501-31.147-22.374-43.021
		c-11.874-11.874-26.811-19.561-43.023-22.374v-8.933c0-7.698-6.24-13.939-13.939-13.939c-7.698,0-13.939,6.24-13.939,13.939v8.933
		c-16.212,2.813-31.147,10.5-43.021,22.374s-19.563,26.809-22.376,43.021h-8.933c-7.698,0-13.939,6.24-13.939,13.939
		c0,7.698,6.24,13.939,13.939,13.939h8.933c2.813,16.212,10.5,31.147,22.376,43.023c11.874,11.874,26.809,19.561,43.021,22.374
		v8.933c0,7.698,6.24,13.939,13.939,13.939c7.698,0,13.939-6.24,13.939-13.939v-8.933c16.212-2.813,31.147-10.5,43.023-22.374
		s19.561-26.811,22.376-43.023h8.933c7.698,0,13.939-6.24,13.939-13.939S463.459,113.675,455.761,113.675z M404.74,164.861
		c-9.949,9.949-23.177,15.429-37.248,15.429c-14.07,0-27.299-5.479-37.248-15.429c-9.949-9.949-15.429-23.177-15.429-37.248
		c0-14.071,5.479-27.299,15.429-37.248c9.949-9.949,23.177-15.429,37.248-15.429c14.071,0,27.299,5.479,37.249,15.429
		c9.949,9.949,15.429,23.177,15.429,37.248C420.17,141.684,414.689,154.912,404.74,164.861z"/>
	<path style="fill:#507C5C;" d="M448.913,222.973c-3.568,0-7.135-1.36-9.856-4.083l-8.975-8.976c-5.443-5.443-5.443-14.269,0-19.712
		c5.444-5.442,14.269-5.443,19.712,0l8.975,8.976c5.443,5.443,5.443,14.269,0,19.712
		C456.046,221.612,452.479,222.973,448.913,222.973z"/>
	<path style="fill:#507C5C;" d="M295.046,69.106c-3.567,0-7.135-1.36-9.856-4.083l-8.976-8.976c-5.443-5.443-5.443-14.269,0-19.713
		c5.443-5.443,14.269-5.443,19.713,0l8.976,8.976c5.443,5.443,5.443,14.269,0,19.713C302.18,67.746,298.613,69.106,295.046,69.106z"
		/>
</g>
<path style="fill:#CFF09E;" d="M106.205,283.161h65.768c6.572-21,13.06-45.674,15.935-77.388
	c0.976-10.768,1.533-22.348,1.533-34.872c0-13.716-1.05-26.207-2.852-37.556c-1.621-10.234-3.847-19.525-6.477-27.941
	c-12.486-40.1-40.795-66.242-41.023-66.059c-0.227-0.183-28.535,25.959-41.023,66.06c-2.63,8.416-4.856,17.706-6.477,27.941
	c-1.802,11.349-2.852,23.841-2.852,37.556c0,12.524,0.558,24.104,1.533,34.872C93.145,237.487,99.633,262.161,106.205,283.161z"/>
<path style="fill:#507C5C;" d="M474.491,364.194H353.677c-5.312,0-9.633-4.325-9.633-9.641c0-5.312,4.321-9.633,9.633-9.633h55.956
	c20.689,0,37.52-16.827,37.52-37.51c0-20.683-16.831-37.51-37.52-37.51H190.39c4.622-16.984,9.134-37.867,11.399-62.87
	c1.055-11.648,1.59-23.804,1.59-36.129c0-13.741-1.018-27.112-3.023-39.737c-1.643-10.372-3.978-20.438-6.936-29.904
	c-7.052-22.642-18.672-40.906-27.18-52.239c-4.938-6.579-9.342-11.534-12.166-14.532c-5.153-5.469-8.557-9.084-14.983-9.084
	c-0.003,0-0.004,0-0.007,0c-6.424,0-9.828,3.613-14.981,9.082c-2.824,2.998-7.229,7.953-12.166,14.532
	c-8.508,11.335-20.13,29.599-27.177,52.228c-2.962,9.48-5.297,19.545-6.94,29.911c-2.006,12.635-3.023,26.008-3.023,39.743
	c0,12.323,0.535,24.479,1.59,36.129c2.265,25.003,6.777,45.886,11.399,62.87H37.514C16.829,269.901,0,286.728,0,307.41
	s16.829,37.51,37.514,37.51h137.677c7.698,0,13.939-6.24,13.939-13.939c0-7.698-6.24-13.939-13.939-13.939H37.514
	c-5.315,0-9.637-4.321-9.637-9.633s4.324-9.633,9.637-9.633h372.119c5.316,0,9.643,4.321,9.643,9.633s-4.327,9.633-9.643,9.633
	h-55.956c-20.682,0-37.51,16.827-37.51,37.51c0,20.688,16.827,37.518,37.51,37.518h120.814c5.312,0,9.633,4.321,9.633,9.633
	c0,5.315-4.321,9.637-9.633,9.637H301.997c-7.698,0-13.939,6.24-13.939,13.939c0,7.698,6.24,13.939,13.939,13.939
	c0,0,55.489-0.042,56.336-0.042c5.312,0,9.944,4.594,9.944,9.906c0,5.315-4.321,9.637-9.633,9.637H83.631
	c-5.316,0-9.643-4.324-9.643-9.637c0-5.312,4.327-9.633,9.643-9.633h55.75c7.698,0,13.939-6.24,13.939-13.939
	c0-7.698-6.24-13.939-13.939-13.939c0,0-8.794-0.233-9.64-0.233c-5.316,0-9.643-4.324-9.643-9.637c0-5.312,4.327-9.633,9.643-9.633
	h141.592c7.698,0,13.939-6.24,13.939-13.939c0-7.698-6.24-13.939-13.939-13.939H129.742c-20.689,0-37.52,16.827-37.52,37.51
	c0,3.415,0.468,6.723,1.327,9.87h-9.917c-20.689,0-37.52,16.827-37.52,37.51c0,20.685,16.831,37.514,37.52,37.514h275.012
	c20.682,0,37.51-16.829,37.51-37.514c0-3.414-0.467-6.72-1.326-9.864h79.663c20.682,0,37.51-16.829,37.51-37.514
	C512,381.021,495.173,364.194,474.491,364.194z M105.356,135.525c1.431-9.038,3.455-17.773,6.019-25.977
	c6.951-22.321,19.336-39.829,27.715-49.885c8.38,10.054,20.763,27.565,27.718,49.897c2.559,8.19,4.583,16.926,6.016,25.97
	c1.777,11.19,2.679,23.089,2.679,35.369c0,11.488-0.496,22.797-1.476,33.614c-2.39,26.373-7.336,47.351-12.394,64.707h-8.604
	v-99.866c0-7.698-6.24-13.939-13.939-13.939s-13.939,6.24-13.939,13.939v99.867h-8.604c-5.06-17.356-10.004-38.332-12.394-64.706
	c-0.98-10.818-1.477-22.127-1.477-33.614C102.676,158.625,103.578,146.726,105.356,135.525z"/>
<g>
</g>
<g>
</g>
<g>
</g>
<g>
</g>
<g>
</g>
<g>
</g>
<g>
</g>
<g>
</g>
<g>
</g>
<g>
</g>
<g>
</g>
<g>
</g>
<g>
</g>
<g>
</g>
<g>
</g>
</svg>
