<?xml version="1.0" encoding="iso-8859-1"?>
<!-- Generator: Adobe Illustrator 19.0.0, SVG Export Plug-In . SVG Version: 6.00 Build 0)  -->
<svg version="1.1" id="Layer_1" xmlns="http://www.w3.org/2000/svg" xmlns:xlink="http://www.w3.org/1999/xlink" x="0px" y="0px"
	 viewBox="0 0 512 512" style="enable-background:new 0 0 512 512;" xml:space="preserve">
<path style="fill:#CFF09E;" d="M210.477,139.123c-14.486,0-26.229,11.743-26.229,26.229v25.038
	c0,20.345-15.069,37.233-34.632,40.101v-96.589c0-14.486-11.743-26.229-26.229-26.229s-26.229,11.743-26.229,26.229v135.01
	c-17.282-4.636-30.044-20.429-30.044-39.152v-25.038c0-14.486-11.743-26.229-26.229-26.229s-26.232,11.743-26.232,26.229v25.038
	c0,47.73,36.15,87.158,82.504,92.388v153.205h52.46V283.18c48.535-3.059,87.09-43.496,87.09-92.788v-25.038
	C236.706,150.866,224.963,139.123,210.477,139.123z"/>
<g>
	<path style="fill:#507C5C;" d="M509.18,466.711l-78.107-106.934c-14.826-20.298-37.747-31.94-62.883-31.94c-0.001,0,0,0,0,0
		c-25.135,0-48.057,11.642-62.883,31.94l-10.17,13.922c-29.354-17.797-67.933-14.464-93.831,10.004
		c-5.883,5.556-6.146,14.83-0.589,20.711c5.556,5.883,14.829,6.145,20.711,0.589c18.703-17.667,48.003-17.668,66.706,0
		c3.058,2.889,7.209,4.332,11.4,3.94c4.189-0.384,8.011-2.551,10.493-5.949l18.943-25.935c9.248-12.66,23.544-19.922,39.222-19.922
		c15.677,0,29.973,7.261,39.221,19.922l61.093,83.64H164.267V296.049c49.815-9.66,87.09-53.666,87.09-105.657v-25.038
		c0-22.541-18.339-40.881-40.881-40.881s-40.881,18.339-40.881,40.881v25.038c0,5.818-1.979,11.273-5.329,15.661v-72.15
		c0-22.541-18.339-40.881-40.881-40.881s-40.882,18.339-40.882,40.881v102.003c-0.486-1.979-0.741-4.039-0.741-6.145v-25.037
		c0-22.541-18.339-40.881-40.881-40.881S0,182.181,0,204.724v25.037c0,50.365,34.652,93.263,82.504,104.674v140.92
		c0,8.092,6.56,14.652,14.652,14.652h400.193c5.516,0,10.565-3.099,13.063-8.016C512.91,477.07,512.434,471.167,509.18,466.711z
		 M125.621,460.701h-13.813V322.149c0-7.456-5.6-13.723-13.008-14.559c-39.619-4.47-69.497-37.93-69.497-77.829v-25.037
		c0-6.384,5.194-11.578,11.578-11.578s11.578,5.194,11.578,11.578v25.037c0,24.925,16.819,46.844,40.901,53.304
		c4.401,1.181,9.1,0.246,12.713-2.526c3.615-2.774,5.735-7.069,5.735-11.626v-135.01c0-6.384,5.194-11.578,11.578-11.578
		c6.384,0,11.578,5.194,11.578,11.578v96.59c0,4.256,1.852,8.303,5.072,11.085c3.22,2.782,7.488,4.031,11.705,3.411
		c26.884-3.941,47.157-27.413,47.157-54.598v-25.038c0-6.384,5.194-11.578,11.578-11.578c6.384,0,11.578,5.194,11.578,11.578v25.038
		c0,41.238-32.225,75.573-73.36,78.166c-7.718,0.488-13.73,6.889-13.73,14.622v177.523h-9.342V460.701z"/>
	<path style="fill:#507C5C;" d="M379.248,193.353c-47.244,0-85.679-38.435-85.679-85.679s38.435-85.679,85.679-85.679
		s85.679,38.435,85.679,85.679c0,8.092-6.559,14.652-14.652,14.652s-14.652-6.56-14.652-14.652c0-31.086-25.29-56.376-56.376-56.376
		s-56.376,25.29-56.376,56.376s25.29,56.376,56.376,56.376c8.092,0,14.652,6.559,14.652,14.652S387.34,193.353,379.248,193.353z"/>
</g>
<g>
</g>
<g>
</g>
<g>
</g>
<g>
</g>
<g>
</g>
<g>
</g>
<g>
</g>
<g>
</g>
<g>
</g>
<g>
</g>
<g>
</g>
<g>
</g>
<g>
</g>
<g>
</g>
<g>
</g>
</svg>
