<?xml version="1.0" encoding="iso-8859-1"?>
<!-- Generator: Adobe Illustrator 19.0.0, SVG Export Plug-In . SVG Version: 6.00 Build 0)  -->
<svg version="1.1" id="Layer_1" xmlns="http://www.w3.org/2000/svg" xmlns:xlink="http://www.w3.org/1999/xlink" x="0px" y="0px"
	 viewBox="0 0 512.002 512.002" style="enable-background:new 0 0 512.002 512.002;" xml:space="preserve">
<g>
	<rect x="214.897" y="334.695" style="fill:#CFF09E;" width="83" height="106.68"/>
	<polygon style="fill:#CFF09E;" points="429.236,441.392 360.44,441.392 360.44,323.315 394.839,283.978 429.236,323.315 	"/>
	<polygon style="fill:#CFF09E;" points="151.56,441.392 82.765,441.392 82.765,323.315 117.162,283.978 151.56,323.315 	"/>
</g>
<path style="fill:#507C5C;" d="M498.03,427.421h-54.825v-98.859l20.426-23.36l23.88,27.31c5.08,5.809,13.906,6.4,19.713,1.32
	c5.809-5.078,6.4-13.905,1.322-19.713l-34.397-39.339c-2.653-3.034-6.488-4.774-10.517-4.774s-7.864,1.741-10.517,4.774
	l-23.88,27.31l-23.88-27.31c-2.653-3.034-6.488-4.774-10.517-4.774c-4.029,0-7.864,1.741-10.517,4.774l-9.909,11.333v-30.987h10.731
	c5.299,0,10.143-2.998,12.505-7.743c2.362-4.744,1.837-10.416-1.355-14.645L267.545,62.193c-2.64-3.497-6.769-5.553-11.15-5.553
	c-4.383,0-8.51,2.056-11.15,5.553L116.499,232.738c-3.194,4.229-3.719,9.901-1.355,14.645c2.362,4.744,7.206,7.743,12.505,7.743
	h10.731v31.891l-10.699-12.235c-2.653-3.034-6.487-4.774-10.517-4.774c-4.031,0-7.864,1.741-10.517,4.774l-23.88,27.311
	l-23.88-27.311c-2.653-3.034-6.487-4.774-10.517-4.774s-7.864,1.741-10.517,4.774L3.454,314.12
	c-5.08,5.809-4.487,14.634,1.32,19.713c5.809,5.08,14.636,4.487,19.713-1.32l23.88-27.31l20.426,23.36v98.859H13.971
	c-7.716,0-13.971,6.255-13.971,13.971c0,7.716,6.255,13.971,13.971,13.971l283.921-0.017c7.715,0,13.971-6.255,13.971-13.971
	v-106.68c0-7.716-6.256-13.971-13.971-13.971h-82.994c-7.716,0-13.971,6.255-13.971,13.971v92.708h-34.607V255.126h89.68
	c7.715,0,13.971-6.255,13.971-13.971c0-7.716-6.256-13.971-13.971-13.971H155.7L256.397,93.797l100.696,133.387h-17.266
	c-7.715,0-13.971,6.255-13.971,13.971c0,7.716,6.256,13.971,13.971,13.971h6.646v68.189v118.059v0.017
	c0,7.716,6.256,13.971,13.971,13.971h137.588c7.715,0,13.971-6.255,13.971-13.971S505.744,427.421,498.03,427.421z M228.869,348.666
	h55.053v78.737h-55.053L228.869,348.666L228.869,348.666z M137.59,427.421H96.736v-98.859l20.426-23.36l20.426,23.36v98.859H137.59z
	 M374.411,328.562l20.426-23.36l20.426,23.36v98.859h-40.853V328.562z"/>
<g>
</g>
<g>
</g>
<g>
</g>
<g>
</g>
<g>
</g>
<g>
</g>
<g>
</g>
<g>
</g>
<g>
</g>
<g>
</g>
<g>
</g>
<g>
</g>
<g>
</g>
<g>
</g>
<g>
</g>
</svg>
