<?xml version="1.0" encoding="iso-8859-1"?>
<!-- Generator: Adobe Illustrator 19.0.0, SVG Export Plug-In . SVG Version: 6.00 Build 0)  -->
<svg version="1.1" id="Layer_1" xmlns="http://www.w3.org/2000/svg" xmlns:xlink="http://www.w3.org/1999/xlink" x="0px" y="0px"
	 viewBox="0 0 512 512" style="enable-background:new 0 0 512 512;" xml:space="preserve">
<g>
	<rect x="340.997" y="344.658" style="fill:#CFF09E;" width="76.108" height="72.177"/>
	<path style="fill:#CFF09E;" d="M291.975,160.066c-15.68-73.957-102.583-85.473-138.397-30.659
		C117.765,74.594,30.861,86.11,15.181,160.066c-2.647,12.488,12.829,20.651,21.64,11.403c13.236-13.894,32.849-21.866,53.817-21.866
		c0.134,0,0.268,0.01,0.402,0.01c-44,20.126-61.12,78.581-21.74,122.941c8.446,9.516,24.247,2.013,22.025-10.638
		c-5.985-34.065,16.005-76.587,62.252-86.23c46.247,9.645,68.238,52.165,62.252,86.23c-2.221,12.65,13.581,20.154,22.025,10.638
		c39.379-44.361,22.261-102.816-21.74-122.941c0.134,0,0.268-0.01,0.402-0.01c20.967,0,40.582,7.973,53.817,21.866
		C279.144,180.718,294.622,172.554,291.975,160.066z"/>
</g>
<path style="fill:#507C5C;" d="M508.162,248.907L390.105,118.159c-2.823-3.126-6.838-4.91-11.05-4.91s-8.227,1.785-11.05,4.91
	l-93.326,103.358c0.339-7.46-0.249-14.96-1.81-22.366c-0.755-3.575-1.726-7.078-2.9-10.498c2.975,1.105,6.144,1.681,9.399,1.681
	c0.001,0,0.001,0,0.003,0c8.343,0,16.469-3.883,21.74-10.386c5.187-6.4,7.166-14.77,5.428-22.968
	c-11.235-52.991-53.374-76.711-90.149-76.711c-23.758,0-46.158,9.385-62.813,25.767c-16.654-16.384-39.053-25.768-62.811-25.768
	c-36.777,0-78.914,23.72-90.149,76.711c-1.737,8.194,0.24,16.564,5.427,22.965c5.27,6.506,13.399,10.389,21.743,10.389
	c3.258,0,6.424-0.576,9.4-1.681c-1.175,3.418-2.145,6.924-2.9,10.498c-6.109,28.954,2.595,59.313,23.878,83.287
	c5.325,5.998,12.598,9.304,20.48,9.304c8.172,0,16.186-3.734,21.439-9.99c5.174-6.159,7.325-14.325,5.906-22.41
	c-3.93-22.369,7.602-49.473,32.7-62.688v120.936c-27.101,2.34-52.954,11.037-75.506,25.548
	c-26.215,16.868-46.247,40.345-57.928,67.896c-1.95,4.597-1.462,9.868,1.294,14.032c2.759,4.164,7.419,6.668,12.414,6.668h398.146
	c8.221,0,14.888-6.665,14.888-14.888v-72.186c0-8.223-6.667-14.888-14.888-14.888h-76.103c-8.221,0-14.888,6.665-14.888,14.888
	v57.297h-27.58V273.771h80.158c8.221,0,14.888-6.665,14.888-14.888c0-8.223-6.667-14.888-14.888-14.888H294.5l84.555-93.645
	l84.554,93.645h-8.051c-8.221,0-14.888,6.665-14.888,14.888c0,8.223,6.667,14.888,14.888,14.888h4.017v143.072
	c0,8.223,6.667,14.888,14.888,14.888c8.221,0,14.888-6.665,14.888-14.888V273.771h7.761c5.884,0,11.215-3.466,13.606-8.842
	C513.106,259.553,512.104,253.273,508.162,248.907z M75.716,256.858c-11.671-15.799-16.03-33.864-12.296-51.562
	c3.901-18.49,16.541-34.244,33.811-42.144c6.366-2.912,9.844-9.866,8.354-16.707c-1.469-6.75-7.384-11.589-14.266-11.717
	c-0.226-0.007-0.456-0.013-0.682-0.013c-22.264,0-43.359,7.644-59.031,21.186c10.249-33.68,37.682-45.858,59.158-45.858
	c20.575,0,38.926,10.026,50.347,27.509c2.751,4.207,7.438,6.744,12.464,6.744c5.026,0,9.713-2.537,12.463-6.744
	c11.424-17.482,29.775-27.509,50.35-27.509c21.478,0,48.91,12.181,59.158,45.858c-15.674-13.544-36.769-21.187-59.031-21.187
	c-0.222,0-0.445,0.004-0.679,0.013c-6.884,0.127-12.799,4.965-14.269,11.717c-1.49,6.841,1.988,13.795,8.354,16.707
	c17.272,7.9,29.91,23.654,33.811,42.144c3.732,17.696-0.625,35.761-12.296,51.56c2.893-39.316-23.355-85.012-74.823-95.745
	c-2.004-0.417-4.072-0.417-6.079,0C99.067,171.844,72.82,217.542,75.716,256.858z M355.892,359.546h46.327v42.409h-46.327
	L355.892,359.546L355.892,359.546z M268.76,401.955H44.018c23.456-34.161,64.236-55.256,109.558-55.256
	c19.56,0,38.352,3.898,55.851,11.586c7.532,3.308,16.311-0.115,19.62-7.642c3.308-7.527-0.115-16.311-7.642-19.618
	c-16.803-7.382-34.555-11.879-52.941-13.456V196.652c25.1,13.215,36.632,40.318,32.7,62.691c-1.417,8.081,0.735,16.249,5.908,22.407
	c5.253,6.256,13.267,9.99,21.439,9.99c7.882,0,15.155-3.305,20.477-9.302c2.693-3.034,5.183-6.171,7.469-9.393
	c1.446,0.465,2.97,0.727,4.539,0.727h7.763V401.955L268.76,401.955z"/>
<g>
</g>
<g>
</g>
<g>
</g>
<g>
</g>
<g>
</g>
<g>
</g>
<g>
</g>
<g>
</g>
<g>
</g>
<g>
</g>
<g>
</g>
<g>
</g>
<g>
</g>
<g>
</g>
<g>
</g>
</svg>
