<?xml version="1.0" encoding="iso-8859-1"?>
<!-- Generator: Adobe Illustrator 19.0.0, SVG Export Plug-In . SVG Version: 6.00 Build 0)  -->
<svg version="1.1" id="Layer_1" xmlns="http://www.w3.org/2000/svg" xmlns:xlink="http://www.w3.org/1999/xlink" x="0px" y="0px"
	 viewBox="0 0 512 512" style="enable-background:new 0 0 512 512;" xml:space="preserve">
<polygon style="fill:#CFF09E;" points="361.049,252.999 258.078,252.999 206.911,340.009 300.9,485.338 497.68,485.338 "/>
<g>
	<path style="fill:#507C5C;" d="M510.024,478.079L373.392,245.741c0-0.001-0.001-0.003-0.003-0.004l-51.482-87.546
		c-2.573-4.375-7.269-7.061-12.344-7.061s-9.77,2.686-12.344,7.061l-51.482,87.546c-0.001,0.001-0.003,0.003-0.003,0.004
		l-39.402,67.002l-36.697-56.743c-2.639-4.08-7.167-6.543-12.024-6.543s-9.387,2.463-12.023,6.543L65.955,379.133
		c-4.296,6.641-2.394,15.507,4.247,19.801c6.644,4.297,15.505,2.391,19.801-4.247l53.289-82.398v158.73H14.32
		c-7.907,0-14.32,6.411-14.32,14.32s6.412,14.32,14.32,14.32H497.68c5.136,0,9.879-2.751,12.431-7.21
		C512.66,487.99,512.627,482.507,510.024,478.079z M309.564,193.698l26.453,44.981h-52.904L309.564,193.698z M171.93,312.287
		l22.953,35.49c0.001,0.003,0.003,0.004,0.004,0.007l79.698,123.234H171.93L171.93,312.287L171.93,312.287z M323.883,471.018
		V324.171c0-7.909-6.412-14.32-14.32-14.32s-14.32,6.411-14.32,14.32v126.051l-71.51-110.571l42.535-72.332h86.587l119.79,203.699
		H323.883z"/>
	<path style="fill:#507C5C;" d="M247.913,102.644h-18.146c-1.869-9.52-5.599-18.525-11.009-26.577l12.83-12.83
		c5.592-5.592,5.592-14.659,0-20.252c-5.593-5.592-14.658-5.592-20.252,0L189.39,64.93c-0.009,0.01-0.02,0.017-0.029,0.026
		c-4.893,4.893-5.504,12.448-1.834,18.006c0.524,0.795,1.137,1.548,1.836,2.247c0.001,0.001,0.003,0.003,0.004,0.004
		c8.479,8.482,13.15,19.757,13.15,31.75c0,7.909,6.412,14.32,14.32,14.32h31.077c7.907,0,14.32-6.411,14.32-14.32
		S255.82,102.644,247.913,102.644z"/>
	<path style="fill:#507C5C;" d="M209.615,148.717c-0.349-0.349-0.713-0.677-1.088-0.982c-5.625-4.588-13.92-4.26-19.164,0.982
		c-0.001,0.001-0.003,0.003-0.004,0.004c-8.482,8.479-19.755,13.148-31.748,13.148c-24.762,0-44.907-20.145-44.907-44.907
		s20.145-44.907,44.907-44.907c7.907,0,14.32-6.411,14.32-14.32V26.662c0-7.909-6.412-14.32-14.32-14.32
		c-7.907,0-14.32,6.411-14.32,14.32v18.166c-9.657,1.913-18.641,5.719-26.544,11.02l-12.865-12.865
		c-5.593-5.592-14.658-5.592-20.252,0c-5.592,5.592-5.592,14.659,0,20.252l12.865,12.865c-5.301,7.903-9.107,16.886-11.02,26.543
		H67.307c-7.907,0-14.32,6.411-14.32,14.32s6.412,14.32,14.32,14.32h18.167c1.913,9.657,5.719,18.64,11.02,26.543L83.63,170.691
		c-5.592,5.592-5.592,14.659,0,20.252c2.797,2.797,6.461,4.194,10.125,4.194s7.329-1.398,10.125-4.194l12.865-12.865
		c7.903,5.301,16.886,9.107,26.544,11.02v18.167c0,7.909,6.412,14.32,14.32,14.32s14.32-6.411,14.32-14.32V189.12
		c9.52-1.869,18.524-5.599,26.577-11.009l12.83,12.83c2.797,2.797,6.461,4.194,10.125,4.194c3.664,0,7.329-1.398,10.125-4.194
		c5.592-5.592,5.592-14.659,0-20.252L209.615,148.717z"/>
</g>
<g>
</g>
<g>
</g>
<g>
</g>
<g>
</g>
<g>
</g>
<g>
</g>
<g>
</g>
<g>
</g>
<g>
</g>
<g>
</g>
<g>
</g>
<g>
</g>
<g>
</g>
<g>
</g>
<g>
</g>
</svg>
