<?xml version="1.0" encoding="iso-8859-1"?>
<!-- Generator: Adobe Illustrator 19.0.0, SVG Export Plug-In . SVG Version: 6.00 Build 0)  -->
<svg version="1.1" id="Layer_1" xmlns="http://www.w3.org/2000/svg" xmlns:xlink="http://www.w3.org/1999/xlink" x="0px" y="0px"
	 viewBox="0 0 512 512" style="enable-background:new 0 0 512 512;" xml:space="preserve">
<path style="fill:#507C5C;" d="M255.985,512c-2.488,0-5.01-0.634-7.321-1.967c-7.017-4.051-9.421-13.023-5.369-20.04l50.339-87.19
	c3.32-5.751,10.09-8.551,16.501-6.835l117.247,31.417l-31.415-117.247c-2.098-7.827,2.547-15.871,10.374-17.968
	c7.822-2.099,15.869,2.548,17.967,10.374L462.3,444.334c1.357,5.063-0.091,10.464-3.797,14.172
	c-3.706,3.706-9.105,5.155-14.17,3.797l-130.918-35.079l-44.71,77.44C265.988,509.368,261.055,512,255.985,512z M63.872,462.802
	c-3.841,0-7.588-1.51-10.375-4.297c-3.706-3.706-5.154-9.107-3.797-14.172l35.079-130.917l-77.44-44.711
	c-7.017-4.051-9.421-13.023-5.369-20.04s13.022-9.42,20.04-5.369l87.19,50.339c5.751,3.32,8.554,10.087,6.835,16.503L84.619,427.385
	l117.247-31.417c7.822-2.098,15.869,2.547,17.967,10.374c2.098,7.827-2.547,15.871-10.374,17.968L67.669,462.302
	C66.411,462.638,65.136,462.802,63.872,462.802z M497.313,270.673c-2.488,0-5.01-0.634-7.321-1.967l-87.191-50.339
	c-5.751-3.32-8.554-10.087-6.835-16.503l31.415-117.247l-117.247,31.417c-7.821,2.098-15.869-2.547-17.967-10.374
	c-2.098-7.827,2.547-15.871,10.374-17.968l141.791-37.992c5.067-1.358,10.464,0.092,14.17,3.797
	c3.706,3.706,5.154,9.107,3.797,14.172L427.22,198.585l77.441,44.711c7.017,4.051,9.421,13.023,5.369,20.04
	C507.316,268.042,502.383,270.673,497.313,270.673z M101.855,220.335c-6.479,0-12.405-4.322-14.161-10.877L49.702,67.668
	c-1.357-5.063,0.091-10.464,3.797-14.172c3.706-3.706,9.105-5.155,14.17-3.797l130.918,35.079l44.71-77.44
	c4.049-7.015,13.02-9.423,20.04-5.369c7.017,4.051,9.421,13.023,5.369,20.04l-50.339,87.19c-3.32,5.751-10.089,8.554-16.501,6.835
	L84.619,84.617l31.415,117.247c2.098,7.827-2.547,15.871-10.374,17.968C104.389,220.172,103.111,220.335,101.855,220.335z"/>
<circle style="fill:#CFF09E;" cx="256.001" cy="256.001" r="110.205"/>
<path style="fill:#507C5C;" d="M256,380.882c-68.861,0-124.881-56.022-124.881-124.881S187.141,131.119,256,131.119
	s124.881,56.022,124.881,124.881S324.859,380.882,256,380.882z M256,160.46c-52.68,0-95.54,42.858-95.54,95.54
	s42.86,95.54,95.54,95.54s95.54-42.858,95.54-95.54S308.68,160.46,256,160.46z"/>
<g>
</g>
<g>
</g>
<g>
</g>
<g>
</g>
<g>
</g>
<g>
</g>
<g>
</g>
<g>
</g>
<g>
</g>
<g>
</g>
<g>
</g>
<g>
</g>
<g>
</g>
<g>
</g>
<g>
</g>
</svg>
