<?xml version="1.0" encoding="iso-8859-1"?>
<!-- Generator: Adobe Illustrator 19.0.0, SVG Export Plug-In . SVG Version: 6.00 Build 0)  -->
<svg version="1.1" id="Layer_1" xmlns="http://www.w3.org/2000/svg" xmlns:xlink="http://www.w3.org/1999/xlink" x="0px" y="0px"
	 viewBox="0 0 512 512" style="enable-background:new 0 0 512 512;" xml:space="preserve">
<polygon style="fill:#CFF09E;" points="361.049,236.575 258.078,236.575 206.911,323.584 300.9,468.914 497.68,468.914 "/>
<g>
	<path style="fill:#507C5C;" d="M510.024,461.655L373.392,229.316c-0.001-0.001-0.001-0.003-0.003-0.004l-51.482-87.546
		c-2.573-4.375-7.269-7.061-12.344-7.061s-9.77,2.686-12.344,7.061l-51.482,87.546c-0.001,0.001-0.003,0.003-0.003,0.004
		l-39.402,67.003l-36.697-56.745c-2.639-4.08-7.166-6.543-12.024-6.543s-9.385,2.463-12.024,6.543L65.954,362.709
		c-4.294,6.641-2.393,15.507,4.247,19.801c6.639,4.294,15.505,2.393,19.801-4.247l53.289-82.398v158.73H14.32
		c-7.909,0-14.32,6.411-14.32,14.32s6.411,14.32,14.32,14.32H497.68c5.136,0,9.879-2.751,12.431-7.21
		C512.66,471.566,512.627,466.083,510.024,461.655z M309.564,177.274l26.453,44.981h-52.904L309.564,177.274z M171.93,295.863
		l47.805,73.917l54.85,84.814H171.93V295.863z M323.883,454.594V307.747c0-7.909-6.412-14.32-14.32-14.32s-14.32,6.411-14.32,14.32
		v126.052l-71.51-110.573l42.537-72.332h86.587l119.79,203.699H323.883z"/>
	<path style="fill:#507C5C;" d="M177.152,200.972c-23.331,0-45.267-9.086-61.767-25.585c-34.058-34.058-34.058-89.474,0-123.532
		c10.841-10.841,24.389-18.659,39.18-22.605c4.939-1.315,10.203,0.096,13.817,3.71c3.613,3.613,5.028,8.88,3.71,13.817
		c-5.397,20.222,0.422,41.954,15.185,56.716c11.078,11.078,25.811,17.179,41.487,17.179c5.146,0,10.27-0.672,15.229-1.995
		c4.94-1.317,10.204,0.096,13.817,3.71c3.614,3.613,5.029,8.88,3.71,13.817c-3.947,14.791-11.764,28.339-22.605,39.179
		C222.42,191.884,200.485,200.97,177.152,200.972z M141.623,66.881c-2.105,1.6-4.107,3.344-5.987,5.224
		c-22.892,22.892-22.892,60.139,0,83.029c11.089,11.089,25.833,17.197,41.514,17.197c15.683,0,30.427-6.107,41.514-17.197
		c1.872-1.872,3.609-3.862,5.201-5.957c-21.484-1.18-41.514-10.105-56.842-25.433C151.689,108.408,142.838,88.022,141.623,66.881z"
		/>
</g>
<g>
</g>
<g>
</g>
<g>
</g>
<g>
</g>
<g>
</g>
<g>
</g>
<g>
</g>
<g>
</g>
<g>
</g>
<g>
</g>
<g>
</g>
<g>
</g>
<g>
</g>
<g>
</g>
<g>
</g>
</svg>
