<?xml version="1.0" encoding="iso-8859-1"?>
<!-- Generator: Adobe Illustrator 19.0.0, SVG Export Plug-In . SVG Version: 6.00 Build 0)  -->
<svg version="1.1" id="Layer_1" xmlns="http://www.w3.org/2000/svg" xmlns:xlink="http://www.w3.org/1999/xlink" x="0px" y="0px"
	 viewBox="0 0 512.001 512.001" style="enable-background:new 0 0 512.001 512.001;" xml:space="preserve">
<path style="fill:#507C5C;" d="M414.61,320.908c-6.979,0-12.877-5.238-13.67-12.207c-8.393-73.696-70.704-129.27-144.94-129.27
	s-136.547,55.574-144.939,129.27c-0.805,7.076-6.884,12.317-13.993,12.203c-0.284-0.007-0.564-0.019-0.846-0.034l0.123-0.001
	c-7.602,0-13.763-6.162-13.763-13.763c0-2.491,0.662-4.827,1.818-6.843C96.713,215.314,169.555,151.906,256,151.906
	s159.287,63.41,171.601,148.359c1.156,2.015,1.818,4.351,1.818,6.842c0,7.54-6.061,13.663-13.578,13.762
	c-0.372,0.019-0.639,0.03-0.908,0.037C414.826,320.907,414.717,320.908,414.61,320.908z"/>
<path style="fill:#CFF09E;" d="M378.464,325.325c8.426-10.819,21.452-17.859,36.15-18.18C405.56,227.64,337.887,165.669,256,165.669
	S106.44,227.64,97.386,307.145c14.699,0.321,27.724,7.359,36.15,18.18h17.862c0-57.678,46.924-104.602,104.602-104.602
	s104.602,46.924,104.602,104.602H378.464z"/>
<path style="fill:#507C5C;" d="M467.087,321.595c-9.096-14.351-23.768-24.207-40.455-27.246
	C411.871,212.386,340.428,151.906,256,151.906S100.129,212.386,85.369,294.349c-11.135,2.027-21.357,7.102-29.637,14.515
	C64.134,205.732,150.74,124.379,256,124.379c78.614,0,150.451,46.255,183.014,117.841c3.148,6.919,11.305,9.976,18.227,6.829
	c6.919-3.148,9.977-11.308,6.829-18.227C427.051,149.438,345.378,96.852,256,96.852c-125.981,0-228.473,102.492-228.473,228.473
	c0,0.128,0.015,0.253,0.019,0.381C11.318,333.059,0,349.407,0,368.352c0,25.804,20.992,46.796,46.796,46.796
	c8.16,0,16.073-2.111,23.046-6.063c8.215,3.987,17.221,6.063,26.503,6.063c7.602,0,13.763-6.162,13.763-13.763
	s-6.162-13.763-13.763-13.763c-6.948,0-13.612-2.122-19.273-6.138c-5.289-3.755-12.482-3.305-17.265,1.079
	c-3.559,3.263-8.18,5.059-13.011,5.059c-10.625,0-19.269-8.643-19.269-19.269c0-10.625,8.643-19.269,19.269-19.269
	c1.175,0,2.38,0.114,3.581,0.339c6.366,1.195,12.687-2.208,15.209-8.166c5.24-12.386,17.313-20.388,30.759-20.388
	c0.169,0,0.337,0.017,0.506,0.019c0.078,0.003,0.157,0.015,0.235,0.018c10.062,0.22,19.389,4.912,25.59,12.876
	c0.065,0.083,0.14,0.154,0.206,0.237c1.674,2.198,3.108,4.613,4.22,7.24c2.52,5.958,8.849,9.356,15.209,8.166
	c1.202-0.224,2.407-0.339,3.581-0.339c10.625,0,19.269,8.643,19.269,19.269c0,10.625-8.643,19.269-19.269,19.269
	c-7.602,0-13.763,6.162-13.763,13.763s6.162,13.763,13.763,13.763c25.804,0,46.796-20.992,46.796-46.796
	c0-18.945-11.318-35.294-27.546-42.647c0.004-0.128,0.019-0.252,0.019-0.381c0-50.089,40.749-90.839,90.839-90.839
	s90.839,40.749,90.839,90.839c0,0.128,0.015,0.253,0.019,0.381c-16.228,7.352-27.546,23.701-27.546,42.646
	c0,25.804,20.992,46.796,46.796,46.796c8.16,0,16.073-2.111,23.046-6.063c8.215,3.987,17.221,6.063,26.503,6.063
	c7.602,0,13.763-6.162,13.763-13.763s-6.162-13.763-13.763-13.763c-6.948,0-13.612-2.122-19.273-6.138
	c-5.291-3.755-12.482-3.305-17.265,1.079c-3.559,3.263-8.18,5.059-13.011,5.059c-10.625,0-19.269-8.643-19.269-19.269
	c0-10.625,8.643-19.269,19.269-19.269c1.175,0,2.38,0.114,3.581,0.339c6.367,1.195,12.687-2.208,15.209-8.166
	c1.111-2.627,2.546-5.042,4.22-7.24c0.066-0.081,0.142-0.153,0.206-0.235c6.202-7.964,15.529-12.655,25.592-12.876
	c0.08-0.001,0.157-0.014,0.237-0.018c0.169-0.003,0.336-0.019,0.505-0.019c13.447,0,25.52,8.002,30.759,20.388
	c2.52,5.958,8.849,9.356,15.209,8.166c1.202-0.224,2.407-0.339,3.581-0.339c10.625,0,19.269,8.643,19.269,19.269
	c0,10.625-8.643,19.269-19.269,19.269c-7.602,0-13.763,6.162-13.763,13.763s6.162,13.763,13.763,13.763
	c25.804,0,46.796-20.992,46.796-46.796C512,343.179,492.021,322.585,467.087,321.595z M256,206.959
	c-60.196,0-110.041,45.173-117.423,103.396c-5.344-5.146-11.587-9.261-18.418-12.159c-0.023-0.01-0.047-0.021-0.072-0.032
	c-1.089-0.46-2.191-0.886-3.307-1.283c-0.061-0.022-0.121-0.044-0.182-0.066c-1.097-0.385-2.206-0.738-3.328-1.061
	c-0.047-0.014-0.094-0.032-0.14-0.045c13.803-67.138,73.065-116.279,142.87-116.279s129.067,49.142,142.87,116.279
	c-0.047,0.014-0.091,0.03-0.138,0.044c-1.123,0.323-2.232,0.676-3.331,1.063c-0.061,0.022-0.121,0.044-0.182,0.066
	c-1.116,0.396-2.219,0.822-3.306,1.281c-0.025,0.011-0.05,0.022-0.076,0.033c-6.829,2.897-13.071,7.012-18.415,12.157
	C366.041,252.132,316.196,206.959,256,206.959z"/>
<g>
</g>
<g>
</g>
<g>
</g>
<g>
</g>
<g>
</g>
<g>
</g>
<g>
</g>
<g>
</g>
<g>
</g>
<g>
</g>
<g>
</g>
<g>
</g>
<g>
</g>
<g>
</g>
<g>
</g>
</svg>
