<?xml version="1.0" encoding="iso-8859-1"?>
<!-- Generator: Adobe Illustrator 19.0.0, SVG Export Plug-In . SVG Version: 6.00 Build 0)  -->
<svg version="1.1" id="Layer_1" xmlns="http://www.w3.org/2000/svg" xmlns:xlink="http://www.w3.org/1999/xlink" x="0px" y="0px"
	 viewBox="0 0 512.001 512.001" style="enable-background:new 0 0 512.001 512.001;" xml:space="preserve">
<g>
	<path style="fill:#507C5C;" d="M147.907,441.011c-8.229,0-14.9-6.671-14.9-14.9v-31.786c0-8.229,6.671-14.9,14.9-14.9
		c8.229,0,14.9,6.671,14.9,14.9v31.786C162.807,434.34,156.137,441.011,147.907,441.011z"/>
	<path style="fill:#507C5C;" d="M147.907,338.2c-8.229,0-14.9-6.671-14.9-14.9v-31.786c0-8.229,6.671-14.9,14.9-14.9
		c8.229,0,14.9,6.671,14.9,14.9V323.3C162.807,331.53,156.137,338.2,147.907,338.2z"/>
	<path style="fill:#507C5C;" d="M147.907,235.39c-8.229,0-14.9-6.671-14.9-14.9v-31.786c0-8.229,6.671-14.9,14.9-14.9
		c8.229,0,14.9,6.671,14.9,14.9v31.786C162.807,228.719,156.137,235.39,147.907,235.39z"/>
	<path style="fill:#507C5C;" d="M147.907,132.58c-8.229,0-14.9-6.671-14.9-14.9V85.893c0-8.229,6.671-14.9,14.9-14.9
		c8.229,0,14.9,6.671,14.9,14.9v31.786C162.807,125.909,156.137,132.58,147.907,132.58z"/>
</g>
<g>
	<polygon style="fill:#CFF09E;" points="497.101,402.044 443.767,320.813 477.656,320.813 416.831,228.175 356.007,320.813 
		389.896,320.813 336.563,402.044 	"/>
	<polygon style="fill:#CFF09E;" points="410.12,173.577 365.324,105.351 393.788,105.351 342.702,27.545 291.617,105.351 
		320.079,105.351 275.285,173.577 	"/>
</g>
<g>
	<path style="fill:#507C5C;" d="M221.073,25.146c-1.325-8.121-8.98-13.628-17.105-12.306c-8.122,1.326-13.631,8.983-12.306,17.105
		l71.724,439.614H32.429l71.724-439.614c1.325-8.122-4.185-15.779-12.306-17.105c-8.124-1.323-15.781,4.185-17.105,12.306
		L0.194,482.059c-0.703,4.315,0.523,8.719,3.353,12.05c2.831,3.33,6.982,5.249,11.352,5.249h266.014
		c4.372,0,8.521-1.919,11.352-5.249c2.831-3.33,4.057-7.735,3.353-12.05L221.073,25.146z"/>
	<path style="fill:#507C5C;" d="M509.557,393.867l-38.181-58.153h6.28c0.012,0,0.021,0,0.03,0c8.229,0,14.9-6.671,14.9-14.9
		c0-3.335-1.095-6.414-2.947-8.897l-60.351-91.918c-2.755-4.196-7.437-6.723-12.455-6.723c-5.018,0-9.7,2.527-12.455,6.723
		l-60.824,92.638c-3.005,4.577-3.259,10.435-0.657,15.255c2.602,4.82,7.636,7.823,13.112,7.823h6.28l-38.181,58.153
		c-3.005,4.577-3.259,10.434-0.657,15.255s7.636,7.823,13.112,7.823h40.039v40.941c0,8.229,6.671,14.9,14.9,14.9h50.66
		c8.229,0,14.9-6.671,14.9-14.9v-40.941h40.039c5.476,0,10.512-3.004,13.112-7.823S512.562,398.444,509.557,393.867z
		 M427.263,442.985h-20.86v-26.041h20.86V442.985z M442.163,387.144h-50.66h-27.331l38.181-58.153
		c3.005-4.577,3.259-10.435,0.657-15.255c-2.602-4.82-7.636-7.823-13.112-7.823h-6.28l33.215-50.59l33.215,50.59h-6.28
		c-5.476,0-10.512,3.004-13.112,7.823c-2.6,4.819-2.348,10.677,0.657,15.255l38.181,58.153H442.163z"/>
	<path style="fill:#507C5C;" d="M378.876,220.476v-32.001h31.242c5.476,0,10.512-3.004,13.112-7.823
		c2.6-4.819,2.348-10.677-0.657-15.255l-29.644-45.147h0.855c0.012,0,0.021,0,0.03,0c8.229,0,14.9-6.671,14.9-14.9
		c0-3.335-1.095-6.414-2.947-8.897l-50.613-77.087c-2.755-4.196-7.437-6.723-12.455-6.723s-9.701,2.527-12.455,6.723l-51.086,77.807
		c-3.005,4.577-3.259,10.435-0.657,15.255c2.602,4.82,7.636,7.823,13.112,7.823h0.855l-29.644,45.147
		c-3.005,4.577-3.259,10.435-0.657,15.255c2.602,4.82,7.636,7.823,13.112,7.823h31.242v32.001c0,8.229,6.671,14.9,14.9,14.9h42.55
		C372.205,235.377,378.876,228.706,378.876,220.476z M333.191,98.274c-2.602-4.819-7.636-7.823-13.112-7.823h-0.855l23.478-35.759
		l23.478,35.759h-0.855c-5.476,0-10.512,3.004-13.112,7.823c-2.602,4.819-2.348,10.677,0.657,15.255l29.644,45.147h-18.536h-42.55
		h-18.536l29.644-45.147C335.539,108.951,335.793,103.094,333.191,98.274z M349.076,205.576h-12.75v-17.101h12.75V205.576z"/>
</g>
<g>
</g>
<g>
</g>
<g>
</g>
<g>
</g>
<g>
</g>
<g>
</g>
<g>
</g>
<g>
</g>
<g>
</g>
<g>
</g>
<g>
</g>
<g>
</g>
<g>
</g>
<g>
</g>
<g>
</g>
</svg>
