<?xml version="1.0" encoding="iso-8859-1"?>
<!-- Generator: Adobe Illustrator 19.0.0, SVG Export Plug-In . SVG Version: 6.00 Build 0)  -->
<svg version="1.1" id="Layer_1" xmlns="http://www.w3.org/2000/svg" xmlns:xlink="http://www.w3.org/1999/xlink" x="0px" y="0px"
	 viewBox="0 0 512.002 512.002" style="enable-background:new 0 0 512.002 512.002;" xml:space="preserve">
<path style="fill:#CFF09E;" d="M81.409,95.689c8.129-45.919,48.206-80.804,96.459-80.804c32.669,0,61.585,16.001,79.39,40.579
	c-8.49,11.726-14.465,25.394-17.091,40.225c-35.495,2.407-63.545,31.94-63.545,68.045c0,37.678,30.544,68.222,68.222,68.222H86.086
	c-37.678,0-68.222-30.544-68.222-68.222C17.863,127.629,45.914,98.095,81.409,95.689z"/>
<g>
	<path style="fill:#507C5C;" d="M494.14,157.532c-8.221,0-14.885,6.664-14.885,14.885c0,24.615-20.026,44.647-44.635,44.655H244.875
		h-0.015h-0.015c-29.411,0-53.337-23.928-53.337-53.337c0-27.941,21.817-51.307,49.667-53.194c1.28-0.086,2.519-0.335,3.693-0.726
		c5.089-1.692,8.989-6.057,9.958-11.53c0.252-1.419,0.546-2.821,0.868-4.215c0.095-0.411,0.202-0.816,0.302-1.224
		c0.253-1.023,0.519-2.041,0.81-3.05c0.112-0.39,0.226-0.778,0.344-1.167c0.366-1.204,0.753-2.401,1.174-3.586
		c0.043-0.124,0.083-0.249,0.128-0.371c2.612-7.244,6.243-14.098,10.863-20.479c0.244-0.338,0.472-0.685,0.685-1.037
		C285.252,42.7,309.593,29.77,336.626,29.77c45.826,0,83.107,37.281,83.107,83.107c0,8.221,6.664,14.885,14.885,14.885
		c8.221,0,14.885-6.664,14.885-14.885C449.503,50.637,398.867,0,336.626,0c-30.739,0-58.919,12.316-79.444,32.631
		C236.212,11.953,207.685,0,177.868,0c-51.13,0-95.216,34.042-108.681,82.372C31.269,90.238,2.978,124.02,2.978,163.734
		c0,45.826,37.282,83.107,83.107,83.107h158.758h0.03h189.749c41.026-0.013,74.401-33.399,74.401-74.425
		C509.025,164.196,502.361,157.532,494.14,157.532z M86.086,217.071c-29.41,0-53.337-23.928-53.337-53.337
		c0-27.941,21.817-51.307,49.667-53.194c6.826-0.463,12.457-5.519,13.649-12.256c7.029-39.7,41.432-68.514,81.803-68.514
		c23.186,0,45.322,9.818,60.96,26.665c-4.628,8.036-8.315,16.725-10.881,25.937c-0.844,0.176-1.676,0.378-2.51,0.579
		c-0.333,0.08-0.671,0.147-1.002,0.231c-0.835,0.211-1.66,0.451-2.484,0.688c-0.326,0.094-0.656,0.174-0.981,0.272
		c-0.746,0.225-1.48,0.475-2.216,0.719c-0.396,0.131-0.796,0.249-1.189,0.387c-0.686,0.24-1.359,0.503-2.036,0.761
		c-0.432,0.164-0.871,0.314-1.299,0.485c-0.607,0.243-1.204,0.508-1.804,0.764c-0.488,0.208-0.982,0.403-1.465,0.621
		c-0.481,0.216-0.951,0.453-1.426,0.677c-0.591,0.278-1.186,0.548-1.768,0.841c-0.378,0.191-0.746,0.397-1.121,0.592
		c-0.668,0.348-1.338,0.689-1.996,1.055c-0.32,0.179-0.63,0.371-0.948,0.554c-0.7,0.402-1.402,0.799-2.088,1.221
		c-0.278,0.17-0.546,0.354-0.822,0.528c-0.714,0.45-1.43,0.898-2.13,1.368c-0.25,0.168-0.49,0.348-0.738,0.519
		c-0.714,0.491-1.429,0.982-2.127,1.496c-0.222,0.162-0.433,0.336-0.653,0.502c-0.713,0.536-1.426,1.072-2.121,1.63
		c-0.188,0.15-0.366,0.31-0.552,0.461c-0.716,0.585-1.43,1.171-2.127,1.78c-0.191,0.167-0.372,0.342-0.561,0.511
		c-0.682,0.606-1.36,1.212-2.021,1.84c-0.171,0.162-0.335,0.335-0.505,0.5c-0.667,0.643-1.332,1.291-1.978,1.956
		c-0.103,0.106-0.199,0.217-0.302,0.324c-0.703,0.732-1.399,1.472-2.075,2.23c-0.116,0.129-0.223,0.265-0.338,0.394
		c-0.655,0.743-1.304,1.491-1.932,2.257c-0.054,0.065-0.103,0.132-0.156,0.198c-1.419,1.739-2.772,3.532-4.047,5.381
		c-0.077,0.112-0.147,0.228-0.223,0.339c-0.581,0.851-1.154,1.709-1.703,2.583c-0.046,0.073-0.088,0.149-0.134,0.222
		c-0.573,0.915-1.133,1.841-1.67,2.779c-0.112,0.196-0.214,0.397-0.324,0.595c-0.463,0.823-0.921,1.648-1.356,2.487
		c-0.095,0.183-0.18,0.372-0.274,0.557c-0.438,0.86-0.869,1.724-1.279,2.599c-0.098,0.21-0.185,0.426-0.28,0.636
		c-0.391,0.859-0.778,1.719-1.142,2.593c-0.031,0.074-0.058,0.152-0.088,0.226c-0.865,2.102-1.651,4.245-2.343,6.426
		c-0.174,0.546-0.323,1.101-0.485,1.652c-0.174,0.589-0.359,1.174-0.519,1.77c-0.085,0.314-0.153,0.636-0.235,0.951
		c-0.216,0.84-0.435,1.678-0.625,2.526c-0.024,0.103-0.04,0.208-0.063,0.311c-0.235,1.066-0.455,2.137-0.649,3.218
		c-0.345,1.931-0.604,3.888-0.813,5.859c-0.304,2.87-0.476,5.774-0.476,8.717c0,1.356,0.039,2.705,0.103,4.046
		c0.021,0.438,0.061,0.871,0.088,1.307c0.058,0.901,0.119,1.8,0.205,2.693c0.049,0.515,0.115,1.024,0.173,1.536
		c0.094,0.808,0.192,1.617,0.308,2.417c0.077,0.534,0.165,1.064,0.252,1.594c0.128,0.774,0.265,1.547,0.414,2.313
		c0.104,0.533,0.211,1.063,0.324,1.591c0.164,0.764,0.342,1.523,0.527,2.279c0.125,0.512,0.249,1.024,0.384,1.532
		c0.208,0.783,0.435,1.558,0.664,2.332c0.138,0.467,0.271,0.936,0.418,1.401c0.275,0.871,0.575,1.73,0.877,2.587
		c0.125,0.354,0.24,0.713,0.369,1.066c0.444,1.201,0.911,2.391,1.408,3.565c0.094,0.222,0.199,0.438,0.295,0.658
		c0.412,0.951,0.835,1.898,1.282,2.831c0.195,0.409,0.406,0.81,0.607,1.215c0.366,0.734,0.735,1.466,1.122,2.188
		c0.24,0.448,0.491,0.889,0.74,1.332c0.374,0.668,0.753,1.332,1.145,1.989c0.269,0.451,0.545,0.898,0.822,1.343
		c0.397,0.637,0.802,1.27,1.216,1.895c0.289,0.438,0.581,0.874,0.878,1.305c0.43,0.625,0.872,1.243,1.32,1.855
		c0.301,0.411,0.598,0.825,0.905,1.23c0.484,0.639,0.984,1.265,1.486,1.889c0.289,0.359,0.572,0.723,0.866,1.078
		c0.074,0.089,0.144,0.183,0.219,0.272H86.086V217.071z"/>
	<path style="fill:#507C5C;" d="M358.862,379.369h-10.823v-2.233c0-8.221-6.664-14.885-14.885-14.885s-14.885,6.664-14.885,14.885
		v2.233h-26.333l24.706-24.706c5.813-5.813,5.813-15.238,0-21.052s-15.238-5.813-21.052,0l-24.706,24.706v-26.333h2.233
		c8.221,0,14.885-6.664,14.885-14.885c0-8.221-6.664-14.885-14.885-14.885h-2.233v-10.823c0-8.221-6.664-14.885-14.885-14.885
		s-14.885,6.664-14.885,14.885v10.823h-2.233c-8.221,0-14.885,6.664-14.885,14.885c0,8.221,6.664,14.885,14.885,14.885h2.233v26.333
		l-24.706-24.706c-5.813-5.813-15.238-5.813-21.052,0c-5.814,5.813-5.813,15.238,0,21.052l24.706,24.706H193.73v-2.233
		c0-8.221-6.664-14.885-14.885-14.885c-8.221,0-14.885,6.664-14.885,14.885v2.233h-10.823c-8.221,0-14.885,6.664-14.885,14.885
		c0,8.221,6.664,14.885,14.885,14.885h10.823v2.233c0,8.221,6.664,14.885,14.885,14.885c8.221,0,14.885-6.664,14.885-14.885v-2.233
		h26.333l-24.706,24.706c-5.813,5.813-5.813,15.238,0,21.052c2.907,2.907,6.716,4.36,10.525,4.36c3.809,0,7.62-1.453,10.525-4.36
		l24.706-24.706v26.333h-2.233c-8.221,0-14.885,6.664-14.885,14.885c0,8.221,6.664,14.885,14.885,14.885h2.233v10.823
		c0,8.221,6.664,14.885,14.885,14.885s14.885-6.664,14.885-14.885v-10.823h2.233c8.221,0,14.885-6.664,14.885-14.885
		c0-8.221-6.664-14.885-14.885-14.885h-2.233v-26.334l24.706,24.706c2.907,2.907,6.716,4.36,10.525,4.36s7.62-1.453,10.525-4.36
		c5.813-5.813,5.813-15.238,0-21.052l-24.706-24.706h26.333v2.233c0,8.221,6.664,14.885,14.885,14.885s14.885-6.664,14.885-14.885
		v-2.233h10.823c8.221,0,14.885-6.664,14.885-14.885C373.744,386.032,367.083,379.369,358.862,379.369z"/>
</g>
<g>
</g>
<g>
</g>
<g>
</g>
<g>
</g>
<g>
</g>
<g>
</g>
<g>
</g>
<g>
</g>
<g>
</g>
<g>
</g>
<g>
</g>
<g>
</g>
<g>
</g>
<g>
</g>
<g>
</g>
</svg>
