<?xml version="1.0" encoding="iso-8859-1"?>
<!-- Generator: Adobe Illustrator 19.0.0, SVG Export Plug-In . SVG Version: 6.00 Build 0)  -->
<svg version="1.1" id="Layer_1" xmlns="http://www.w3.org/2000/svg" xmlns:xlink="http://www.w3.org/1999/xlink" x="0px" y="0px"
	 viewBox="0 0 512 512" style="enable-background:new 0 0 512 512;" xml:space="preserve">
<circle style="fill:#CFF09E;" cx="255.996" cy="157.073" r="90.237"/>
<g>
	<path style="fill:#507C5C;" d="M354.133,72.873c3.567,0,7.134-1.362,9.856-4.083l12.16-12.159c5.443-5.443,5.443-14.269,0-19.712
		c-5.443-5.443-14.266-5.443-19.713,0l-12.16,12.159c-5.443,5.443-5.443,14.269,0,19.712
		C346.999,71.513,350.566,72.873,354.133,72.873z"/>
	<path style="fill:#507C5C;" d="M148.01,245.346l-12.159,12.159c-5.443,5.443-5.443,14.269,0,19.713
		c2.722,2.722,6.289,4.083,9.856,4.083s7.135-1.36,9.856-4.083l12.159-12.159c5.443-5.443,5.443-14.269,0-19.713
		C162.278,239.903,153.453,239.903,148.01,245.346z"/>
	<path style="fill:#507C5C;" d="M375.568,143.13H359.23c-2.997-22.54-13.218-43.374-29.568-59.724
		c-16.35-16.351-37.184-26.571-59.725-29.568V37.5c0-7.698-6.242-13.939-13.939-13.939c-7.698,0-13.939,6.24-13.939,13.939v16.339
		c-22.54,2.997-43.375,13.218-59.724,29.567c-16.35,16.35-26.571,37.184-29.568,59.725h-16.337c-7.698,0-13.939,6.24-13.939,13.939
		s6.24,13.939,13.939,13.939h16.339c2.997,22.54,13.217,43.374,29.566,59.724c16.35,16.35,37.184,26.571,59.725,29.568v16.337
		c0,7.698,6.24,13.939,13.939,13.939c7.697,0,13.939-6.24,13.939-13.939v-16.337c22.541-2.997,43.374-13.218,59.725-29.568
		c16.35-16.35,26.571-37.184,29.568-59.725h16.337c7.697,0,13.939-6.24,13.939-13.939
		C389.508,149.369,383.266,143.13,375.568,143.13z M309.951,211.02c-14.408,14.41-33.565,22.345-53.941,22.348
		c-0.003,0-0.006,0-0.01,0c-0.004,0-0.006,0-0.01,0c-20.377-0.003-39.533-7.938-53.941-22.348
		c-14.411-14.411-22.348-33.571-22.348-53.951s7.935-39.54,22.348-53.951C216.46,88.707,235.62,80.771,256,80.771
		s39.54,7.935,53.951,22.348c14.411,14.411,22.348,33.571,22.348,53.951S324.362,196.608,309.951,211.02z"/>
	<path style="fill:#507C5C;" d="M363.991,245.346c-5.444-5.443-14.27-5.443-19.713,0c-5.443,5.443-5.443,14.269,0,19.712
		l12.16,12.159c2.722,2.722,6.289,4.083,9.856,4.083c3.567,0,7.135-1.362,9.856-4.083c5.443-5.443,5.443-14.269,0-19.712
		L363.991,245.346z"/>
	<path style="fill:#507C5C;" d="M148.01,68.79c2.722,2.722,6.289,4.083,9.856,4.083s7.135-1.36,9.856-4.083
		c5.443-5.443,5.443-14.269,0-19.713l-12.159-12.159c-5.443-5.443-14.269-5.443-19.713,0c-5.443,5.443-5.443,14.269,0,19.713
		L148.01,68.79z"/>
	<path style="fill:#507C5C;" d="M474.49,413.415H353.676c-5.312,0-9.632-4.327-9.632-9.643c0-5.312,4.321-9.633,9.632-9.633h55.958
		c20.689,0,37.52-16.827,37.52-37.51c0-20.683-16.831-37.51-37.52-37.51H37.514C16.829,319.12,0,335.947,0,356.629
		s16.829,37.51,37.514,37.51h137.677c7.698,0,13.939-6.24,13.939-13.939c0-7.698-6.24-13.939-13.939-13.939H37.514
		c-5.315,0-9.637-4.321-9.637-9.633s4.324-9.633,9.637-9.633h372.119c5.316,0,9.643,4.321,9.643,9.633s-4.327,9.633-9.643,9.633
		h-55.958c-20.682,0-37.509,16.827-37.509,37.51c0,20.689,16.827,37.52,37.509,37.52H474.49c5.312,0,9.633,4.321,9.633,9.633
		c0,5.315-4.322,9.637-9.633,9.637H129.742c-5.316,0-9.643-4.324-9.643-9.637c0-5.312,4.327-9.633,9.643-9.633h140.19
		c7.697,0,13.939-6.24,13.939-13.939c0-7.698-6.242-13.939-13.939-13.939h-140.19c-20.689,0-37.52,16.827-37.52,37.51
		c0,20.685,16.831,37.514,37.52,37.514H474.49c20.683,0,37.51-16.829,37.51-37.514C512,430.241,495.173,413.415,474.49,413.415z"/>
</g>
<g>
</g>
<g>
</g>
<g>
</g>
<g>
</g>
<g>
</g>
<g>
</g>
<g>
</g>
<g>
</g>
<g>
</g>
<g>
</g>
<g>
</g>
<g>
</g>
<g>
</g>
<g>
</g>
<g>
</g>
</svg>
