<?xml version="1.0" encoding="iso-8859-1"?>
<!-- Generator: Adobe Illustrator 19.0.0, SVG Export Plug-In . SVG Version: 6.00 Build 0)  -->
<svg version="1.1" id="Layer_1" xmlns="http://www.w3.org/2000/svg" xmlns:xlink="http://www.w3.org/1999/xlink" x="0px" y="0px"
	 viewBox="0 0 512 512" style="enable-background:new 0 0 512 512;" xml:space="preserve">
<g>
	<path style="fill:#507C5C;" d="M347.975,96.389c-3.568,0-7.134-1.36-9.855-4.083c-5.444-5.443-5.444-14.268-0.001-19.712
		l12.159-12.16c5.442-5.443,14.269-5.444,19.712,0c5.444,5.443,5.444,14.268,0.001,19.712l-12.159,12.16
		C355.112,95.028,351.543,96.389,347.975,96.389z"/>
	<path style="fill:#507C5C;" d="M151.707,96.389c-3.568,0-7.134-1.36-9.856-4.083l-12.16-12.16c-5.443-5.443-5.443-14.269,0-19.713
		c5.444-5.443,14.268-5.443,19.713,0l12.16,12.16c5.443,5.443,5.443,14.269,0,19.713C158.841,95.029,155.274,96.389,151.707,96.389z
		"/>
</g>
<path style="fill:#CFF09E;" d="M211.25,262.165h77.182c9.12-4.314,17.673-10.23,25.216-17.773c35.239-35.24,35.239-92.375,0-127.615
	s-92.375-35.239-127.615,0s-35.24,92.375,0,127.615C193.577,251.936,202.129,257.851,211.25,262.165z"/>
<path style="fill:#507C5C;" d="M474.49,342.52H353.676c-5.312,0-9.632-4.327-9.632-9.643c0-5.312,4.321-9.633,9.632-9.633h55.958
	c20.689,0,37.52-16.827,37.52-37.509s-16.831-37.51-37.52-37.51h-80.596c13.12-15.313,21.393-33.837,24.034-53.704h16.339
	c7.697,0,13.939-6.24,13.939-13.939c0-7.698-6.242-13.939-13.939-13.939h-16.339c-2.997-22.54-13.218-43.374-29.568-59.725
	c-16.35-16.35-37.184-26.57-59.725-29.566V61.015c0-7.698-6.242-13.939-13.939-13.939c-7.697,0-13.939,6.24-13.939,13.939v16.339
	c-22.541,2.997-43.374,13.218-59.725,29.567c-16.35,16.35-26.571,37.184-29.568,59.725h-16.336c-7.697,0-13.939,6.24-13.939,13.939
	s6.242,13.939,13.939,13.939h16.337c2.641,19.867,10.914,38.391,24.033,53.704H37.514C16.828,248.226,0,265.053,0,285.737
	c0,20.683,16.828,37.509,37.514,37.509H175.19c7.697,0,13.939-6.24,13.939-13.939s-6.242-13.939-13.939-13.939H37.514
	c-5.315,0-9.637-4.321-9.637-9.632c0-5.312,4.324-9.633,9.637-9.633H211.25h77.182h121.201c5.316,0,9.643,4.321,9.643,9.633
	c0,5.311-4.327,9.632-9.643,9.632h-55.958c-20.682,0-37.509,16.827-37.509,37.51c0,20.689,16.827,37.52,37.509,37.52H474.49
	c5.312,0,9.633,4.321,9.633,9.633c0,5.315-4.322,9.637-9.633,9.637H301.997c-7.697,0-13.939,6.24-13.939,13.939
	c0,7.698,6.242,13.939,13.939,13.939c0,0,55.601,0.032,56.446,0.032c5.312,0,9.831,4.52,9.831,9.832
	c0,5.315-4.321,9.637-9.632,9.637H83.63c-5.316,0-9.643-4.324-9.643-9.637c0-5.312,4.327-9.633,9.643-9.633h55.75
	c7.697,0,13.939-6.24,13.939-13.939c0-7.698-6.242-13.939-13.939-13.939c0,0-8.792-0.233-9.639-0.233
	c-5.316,0-9.643-4.324-9.643-9.637c0-5.312,4.327-9.633,9.643-9.633h141.591c7.697,0,13.939-6.24,13.939-13.939
	c0-7.698-6.242-13.939-13.939-13.939H129.742c-20.689,0-37.52,16.827-37.52,37.51c0,3.415,0.467,6.723,1.327,9.87H83.63
	c-20.689,0-37.52,16.827-37.52,37.51c0,20.685,16.831,37.514,37.52,37.514h275.014c20.682,0,37.509-16.829,37.509-37.514
	c0-3.414-0.467-6.72-1.326-9.866h79.663c20.683,0,37.51-16.829,37.51-37.514C512,359.348,495.173,342.52,474.49,342.52z
	 M214.517,248.226c-6.861-3.582-13.115-8.178-18.628-13.692c-14.407-14.406-22.344-33.559-22.348-53.933
	c0-0.006,0.001-0.013,0.001-0.018c0-0.006-0.001-0.013-0.001-0.018c0.004-20.373,7.941-39.526,22.348-53.933
	c14.411-14.411,33.571-22.348,53.951-22.348s39.54,7.937,53.951,22.348s22.348,33.571,22.348,53.951
	c0,20.381-7.937,39.541-22.348,53.951c-5.514,5.514-11.768,10.11-18.628,13.692H214.517z"/>
<g>
</g>
<g>
</g>
<g>
</g>
<g>
</g>
<g>
</g>
<g>
</g>
<g>
</g>
<g>
</g>
<g>
</g>
<g>
</g>
<g>
</g>
<g>
</g>
<g>
</g>
<g>
</g>
<g>
</g>
</svg>
