<?xml version="1.0" encoding="iso-8859-1"?>
<!-- Generator: Adobe Illustrator 19.0.0, SVG Export Plug-In . SVG Version: 6.00 Build 0)  -->
<svg version="1.1" id="Layer_1" xmlns="http://www.w3.org/2000/svg" xmlns:xlink="http://www.w3.org/1999/xlink" x="0px" y="0px"
	 viewBox="0 0 512.002 512.002" style="enable-background:new 0 0 512.002 512.002;" xml:space="preserve">
<g>
	<path style="fill:#CFF09E;" d="M156.886,322.771V15.151H99.804c-25.254,0-45.727,20.473-45.727,45.727v376.951h17.958
		c0.505-30.745,24.898-55.672,55.433-57.018C130.687,358.212,141.354,338.02,156.886,322.771
		C156.886,322.77,156.886,322.77,156.886,322.771z"/>
	<path style="fill:#CFF09E;" d="M412.195,15.151h-57.083V342.8c-0.003,0-0.005,0.002-0.008,0.003
		c6.457-2.167,13.363-3.356,20.55-3.35c34.739,0.032,63.576,28.256,64.317,62.987c0.279,13.008-3.315,25.154-9.689,35.389h27.638
		V60.876C457.923,35.623,437.45,15.151,412.195,15.151z"/>
</g>
<g>
	<path style="fill:#507C5C;" d="M412.195,0h-57.081h-198.23h-57.08C66.236,0,38.927,27.309,38.927,60.878v376.951
		c0,8.368,6.784,15.151,15.151,15.151h4.174c6.624,33.599,36.299,59.022,71.81,59.022h26.288c8.366,0,15.151-6.783,15.151-15.151
		S164.717,481.7,156.35,481.7h-26.288c-23.655,0-42.9-19.246-42.9-42.902c0-0.205,0.012-0.406,0.015-0.609
		c0.002-0.038,0.006-0.073,0.008-0.111c0.359-21.921,17.252-39.975,38.844-41.987c0.697-0.064,1.4-0.114,2.106-0.144
		c7.283-0.32,13.304-5.781,14.332-12.999c0.176-1.233,0.383-2.457,0.611-3.674c0.106-0.561,0.23-1.118,0.347-1.676
		c0.132-0.629,0.259-1.259,0.405-1.883c0.17-0.726,0.356-1.447,0.544-2.167c0.112-0.432,0.223-0.864,0.341-1.294
		c0.227-0.818,0.47-1.63,0.72-2.441c0.097-0.315,0.194-0.629,0.295-0.941c0.28-0.87,0.574-1.735,0.882-2.594
		c0.088-0.247,0.179-0.494,0.27-0.739c0.327-0.888,0.665-1.77,1.021-2.647c0.092-0.229,0.189-0.454,0.285-0.682
		c0.361-0.867,0.73-1.727,1.118-2.582c0.132-0.289,0.27-0.573,0.405-0.861c0.361-0.77,0.724-1.538,1.106-2.297
		c0.305-0.6,0.623-1.192,0.941-1.785c0.227-0.426,0.447-0.856,0.682-1.279c13.655-24.473,38.846-41.522,67.585-44.214
		c0.298-0.027,0.6-0.041,0.898-0.065c1.008-0.083,2.015-0.164,3.03-0.212c1.351-0.062,2.707-0.098,4.068-0.098
		c3.235,0,6.441,0.18,9.605,0.532c2.11,0.235,4.201,0.545,6.271,0.932c2.07,0.387,4.118,0.845,6.141,1.379
		c2.023,0.532,4.021,1.136,5.99,1.81c0.985,0.336,1.962,0.691,2.932,1.064c2.91,1.115,5.751,2.383,8.513,3.8
		c0.921,0.473,1.832,0.961,2.735,1.465c16.243,9.08,29.474,23.355,37.184,41.178c0.158,0.367,0.329,0.723,0.512,1.07
		c-3.471,5.619-6.237,11.686-8.228,18.062c-0.029,0.094-0.058,0.188-0.086,0.282c-0.342,1.114-0.664,2.236-0.959,3.368
		c-0.029,0.112-0.061,0.223-0.089,0.335c-0.3,1.171-0.573,2.351-0.82,3.541c-0.045,0.218-0.085,0.438-0.127,0.656
		c-0.192,0.97-0.367,1.944-0.523,2.923c-0.047,0.291-0.095,0.58-0.139,0.873c-0.173,1.164-0.326,2.332-0.447,3.507
		c-0.02,0.189-0.032,0.382-0.05,0.571c-0.099,1.017-0.174,2.038-0.233,3.062c-0.018,0.329-0.038,0.658-0.052,0.986
		c-0.055,1.206-0.092,2.415-0.092,3.632c0,8.368,6.784,15.151,15.151,15.151s15.151-6.783,15.151-15.151
		c0-1.183,0.058-2.356,0.139-3.521c0.018-0.259,0.036-0.518,0.059-0.776c0.098-1.141,0.229-2.273,0.406-3.394
		c0.024-0.155,0.058-0.306,0.083-0.461c0.167-1,0.368-1.991,0.595-2.971c0.059-0.253,0.112-0.506,0.174-0.758
		c0.258-1.038,0.55-2.064,0.873-3.077c0.099-0.311,0.208-0.617,0.314-0.924c0.259-0.762,0.541-1.517,0.836-2.264
		c0.132-0.33,0.255-0.665,0.392-0.994c0.359-0.851,0.751-1.685,1.156-2.512c0.236-0.482,0.482-0.959,0.735-1.432
		c0.226-0.426,0.465-0.844,0.703-1.262c0.521-0.912,1.068-1.807,1.644-2.683c0.153-0.232,0.303-0.464,0.459-0.694
		c1.268-1.854,2.657-3.621,4.16-5.281c0.056-0.062,0.111-0.123,0.167-0.183c1.547-1.692,3.209-3.277,4.974-4.741
		c0.095-0.079,0.192-0.155,0.288-0.232c0.962-0.786,1.959-1.53,2.98-2.244c0.324-0.226,0.648-0.451,0.979-0.668
		c0.485-0.321,0.973-0.638,1.468-0.942c0.785-0.479,1.58-0.941,2.395-1.376c0.329-0.177,0.664-0.342,0.995-0.511
		c0.87-0.441,1.751-0.867,2.653-1.258c0.112-0.048,0.221-0.103,0.335-0.151c1.108-0.47,2.241-0.897,3.394-1.291
		c0.132-0.045,0.264-0.091,0.395-0.135c1.195-0.395,2.4-0.751,3.615-1.053c0.041-0.011,0.082-0.018,0.123-0.029
		c1.217-0.3,2.444-0.55,3.679-0.754c0.068-0.011,0.135-0.026,0.203-0.036c1.2-0.194,2.41-0.336,3.627-0.441
		c0.205-0.018,0.411-0.032,0.617-0.047c1.211-0.089,2.427-0.147,3.65-0.147c0.462,0,0.918,0.021,1.377,0.035
		c22.612,0.65,41.715,16.916,46.615,38.352c0.011,0.048,0.023,0.097,0.033,0.145c0.144,0.642,0.271,1.292,0.389,1.944
		c0.038,0.206,0.077,0.414,0.111,0.621c0.088,0.523,0.164,1.048,0.235,1.577c0.044,0.326,0.088,0.653,0.126,0.98
		c0.05,0.442,0.091,0.888,0.13,1.335c0.033,0.398,0.067,0.798,0.091,1.2c0.026,0.412,0.042,0.826,0.058,1.239
		c0.014,0.373,0.023,0.745,0.029,1.121c0.029,2.151-0.079,4.291-0.324,6.404c-0.03,0.256-0.064,0.512-0.098,0.768
		c-0.121,0.912-0.265,1.82-0.435,2.723c-0.03,0.159-0.053,0.32-0.085,0.477c-0.205,1.024-0.447,2.039-0.717,3.047
		c-0.068,0.256-0.145,0.511-0.218,0.765c-0.224,0.789-0.471,1.574-0.735,2.351c-0.089,0.265-0.174,0.532-0.268,0.792
		c-0.332,0.926-0.694,1.841-1.083,2.745c-0.132,0.306-0.274,0.608-0.412,0.911c-0.295,0.65-0.604,1.294-0.929,1.932
		c-0.17,0.333-0.336,0.67-0.512,1c-0.439,0.818-0.901,1.626-1.389,2.421c-8.663,14.138-24.254,23.594-42.015,23.594
		c-8.366,0-15.151,6.783-15.151,15.151s6.784,15.151,15.151,15.151c25.324,0,47.904-11.91,62.482-30.407h19.843
		c8.366,0,15.151-6.783,15.151-15.151V60.878C473.073,27.309,445.763,0,412.195,0z M442.772,60.878V361.33
		c-12.326-19.406-32.813-33.127-56.602-36.302c-0.221-0.03-0.444-0.056-0.667-0.085c-0.967-0.121-1.938-0.229-2.915-0.314
		c-0.756-0.068-1.514-0.127-2.274-0.174c-0.423-0.024-0.847-0.045-1.271-0.064c-1.142-0.05-2.288-0.086-3.441-0.088
		c-0.002,0-0.002,0-0.003,0l0,0l0,0c-1.2,0-2.398,0.038-3.595,0.091c-0.318,0.014-0.638,0.03-0.956,0.047
		c-0.259,0.015-0.52,0.021-0.78,0.039V30.301h41.931C429.055,30.301,442.772,44.017,442.772,60.878z M99.804,30.301h41.931v286.345
		c-13.082,14.361-22.388,31.751-27.039,50.565c-18.962,4.021-35.095,15.317-45.468,30.792V60.878
		C69.228,44.017,82.946,30.301,99.804,30.301z M223.229,278.626c-0.359,0.015-0.718,0.032-1.077,0.05
		c-17.753,0.877-34.813,5.716-50.116,14.111V30.301h167.928v302.424c-3.451,1.727-6.745,3.686-9.865,5.859
		c-0.129-0.232-0.267-0.456-0.397-0.686c-0.285-0.504-0.577-1.004-0.868-1.504c-0.403-0.691-0.811-1.379-1.227-2.059
		c-0.308-0.501-0.618-1-0.932-1.495c-0.421-0.667-0.85-1.329-1.285-1.986c-0.324-0.489-0.65-0.979-0.982-1.464
		c-0.444-0.65-0.897-1.292-1.353-1.933c-0.338-0.474-0.676-0.948-1.021-1.417c-0.473-0.642-0.954-1.274-1.439-1.904
		c-0.344-0.448-0.686-0.898-1.036-1.341c-0.512-0.647-1.038-1.283-1.562-1.918c-0.339-0.411-0.673-0.826-1.018-1.23
		c-0.589-0.692-1.192-1.371-1.797-2.048c-0.294-0.33-0.582-0.668-0.88-0.995c-0.909-0.997-1.832-1.979-2.773-2.941
		c-0.039-0.039-0.079-0.077-0.118-0.117c-0.903-0.921-1.821-1.827-2.754-2.718c-0.336-0.321-0.683-0.632-1.024-0.948
		c-0.642-0.6-1.286-1.198-1.941-1.783c-0.408-0.362-0.823-0.714-1.235-1.071c-0.245-0.212-0.489-0.427-0.736-0.638V195.26
		c0-8.368-6.784-15.151-15.151-15.151s-15.151,6.783-15.151,15.151v92.441c-1.145-0.483-2.298-0.95-3.459-1.397
		c-0.433-0.167-0.873-0.32-1.307-0.48c-0.829-0.308-1.657-0.615-2.494-0.904c-0.514-0.177-1.032-0.341-1.547-0.512
		c-0.768-0.253-1.536-0.506-2.31-0.744c-0.55-0.168-1.103-0.326-1.654-0.486c-0.75-0.218-1.5-0.433-2.256-0.638
		c-0.57-0.153-1.142-0.298-1.715-0.442c-0.748-0.189-1.497-0.374-2.248-0.548c-0.58-0.135-1.164-0.264-1.747-0.389
		c-0.754-0.162-1.51-0.318-2.268-0.465c-0.588-0.115-1.176-0.226-1.767-0.332c-0.764-0.136-1.532-0.264-2.3-0.385
		c-0.588-0.092-1.174-0.186-1.764-0.27c-0.788-0.112-1.58-0.212-2.373-0.308c-0.574-0.07-1.148-0.144-1.724-0.205
		c-0.829-0.089-1.66-0.161-2.494-0.232c-0.545-0.047-1.089-0.1-1.636-0.139c-0.924-0.065-1.851-0.111-2.78-0.155
		c-0.459-0.021-0.915-0.053-1.376-0.07c-1.391-0.05-2.785-0.077-4.183-0.077C226.417,278.517,224.821,278.562,223.229,278.626z"/>
	<path style="fill:#507C5C;" d="M238.576,241.649v-134.76c0-8.368-6.784-15.151-15.151-15.151c-8.366,0-15.151,6.783-15.151,15.151
		V241.65c0,8.368,6.784,15.151,15.151,15.151C231.792,256.8,238.576,250.017,238.576,241.649z"/>
	<path style="fill:#507C5C;" d="M288.573,152.322c8.366,0,15.151-6.783,15.151-15.151V83.055c0-8.368-6.784-15.151-15.151-15.151
		c-8.366,0-15.151,6.783-15.151,15.151v54.116C273.423,145.539,280.207,152.322,288.573,152.322z"/>
	<path style="fill:#507C5C;" d="M290.975,481.699h-49.03c-14.482,0-26.263-11.783-26.263-26.263c0-14.09,11.016-25.612,25.08-26.232
		c8.36-0.368,14.837-7.443,14.469-15.802s-7.389-14.829-15.804-14.469c-30.306,1.335-54.046,26.154-54.046,56.504
		c0,31.19,25.374,56.565,56.564,56.565h49.03c8.366,0,15.151-6.783,15.151-15.151C306.125,488.483,299.342,481.699,290.975,481.699z
		"/>
</g>
<g>
</g>
<g>
</g>
<g>
</g>
<g>
</g>
<g>
</g>
<g>
</g>
<g>
</g>
<g>
</g>
<g>
</g>
<g>
</g>
<g>
</g>
<g>
</g>
<g>
</g>
<g>
</g>
<g>
</g>
</svg>
