<?xml version="1.0" encoding="iso-8859-1"?>
<!-- Generator: Adobe Illustrator 19.0.0, SVG Export Plug-In . SVG Version: 6.00 Build 0)  -->
<svg version="1.1" id="Layer_1" xmlns="http://www.w3.org/2000/svg" xmlns:xlink="http://www.w3.org/1999/xlink" x="0px" y="0px"
	 viewBox="0 0 511.998 511.998" style="enable-background:new 0 0 511.998 511.998;" xml:space="preserve">
<g>
	<polygon style="fill:#CFF09E;" points="228.428,181.451 169.855,139.565 126.383,178.802 126.383,254.424 	"/>
	<polygon style="fill:#CFF09E;" points="385.615,254.424 385.615,178.802 342.144,139.565 283.572,181.451 	"/>
	<polygon style="fill:#CFF09E;" points="255.999,153.879 296.012,97.926 255.999,61.811 215.986,97.926 	"/>
	<polygon style="fill:#CFF09E;" points="354.4,346.62 255.999,209.023 157.6,346.62 126.383,315.405 126.383,495.715 
		218.605,495.715 218.605,393.556 293.394,393.556 293.394,495.715 385.615,495.715 385.615,315.405 	"/>
</g>
<path style="fill:#507C5C;" d="M427.837,363.826c-9.349,0-18.167,2.297-25.941,6.333v-48.011l30.785-30.785
	c3.383-3.383,5.108-8.084,4.714-12.853c-0.392-4.767-2.864-9.123-6.755-11.905l-28.742-20.554v-67.251
	c0-4.608-1.952-8.999-5.373-12.086l-28.45-25.678l62.565-44.742c7.315-5.231,9.004-15.401,3.772-22.714
	c-5.231-7.314-15.401-9.004-22.713-3.772l-78.998,56.494c-0.01,0.007-0.02,0.013-0.031,0.02l-49.102,35.114l-6.605-4.723
	c-0.077-0.055-0.158-0.099-0.236-0.153c-0.225-0.155-0.453-0.3-0.682-0.443c-0.205-0.127-0.412-0.249-0.62-0.366
	c-0.179-0.099-0.355-0.202-0.536-0.295l92.753-129.702c5.231-7.314,3.543-17.483-3.772-22.714
	c-7.314-5.23-17.485-3.541-22.713,3.772l-47.775,66.808l-26.472-23.893c-6.198-5.594-15.62-5.594-21.817,0l-40.013,36.116
	c-6.145,5.547-7.151,14.823-2.335,21.557l33.24,46.484l-3.15,4.404l-4.406,3.15l-49.102-35.114c-0.01-0.007-0.02-0.013-0.031-0.02
	l-63.371-45.323l53.188-53.188c6.358-6.358,6.358-16.667,0-23.025c-6.36-6.358-16.666-6.358-23.027,0L79.315,71.539
	c-3.383,3.383-5.108,8.082-4.714,12.851c0.392,4.767,2.864,9.123,6.755,11.905l62.565,44.742l-28.449,25.678
	c-3.421,3.087-5.373,7.478-5.373,12.086v67.251l-28.743,20.555c-3.893,2.783-6.363,7.138-6.755,11.905
	c-0.394,4.769,1.329,9.468,4.713,12.853l30.787,30.787v48.011c-7.774-4.038-16.592-6.335-25.943-6.335
	c-31.148,0-56.489,25.341-56.489,56.49v75.4c0,8.992,7.291,16.282,16.282,16.282h174.653c8.991,0,16.282-7.289,16.282-16.282
	v-85.878h42.226v85.878c0,8.992,7.291,16.282,16.282,16.282h174.652c8.991,0,16.282-7.289,16.282-16.282v-75.4
	C484.328,389.167,458.986,363.826,427.837,363.826z M255.999,83.742l18.317,16.534l-18.317,25.612l-18.317-25.612L255.999,83.742z
	 M374.102,303.892l-17.633,17.633l-80.453-112.504l3.149-4.404l4.406-3.15l112.504,80.453l-21.97,21.969
	C374.103,303.891,374.103,303.891,374.102,303.892z M137.898,303.892c-0.002-0.003-0.005-0.005-0.008-0.007l-21.965-21.965
	l19.911-14.238c0.007-0.005,0.015-0.01,0.021-0.015l92.572-66.201l4.406,3.15l3.149,4.404l-80.453,112.504L137.898,303.892z
	 M369.335,222.765l-57.772-41.314l29.398-21.023l28.375,25.611v36.726H369.335z M142.667,186.039l28.374-25.609l29.398,21.023
	l-57.77,41.314v-36.728H142.667z M108.088,479.435H60.235v-59.118c0-13.195,10.734-23.927,23.926-23.927
	s23.926,10.733,23.926,23.927v59.118H108.088z M309.676,479.435v-85.878c0-8.992-7.291-16.282-16.282-16.282h-74.789
	c-8.991,0-16.282,7.289-16.282,16.282v85.878h-59.657V354.714l3.421,3.421c0.405,0.405,0.83,0.781,1.27,1.138
	c0.147,0.119,0.304,0.221,0.454,0.335c0.298,0.225,0.596,0.448,0.907,0.65c0.197,0.129,0.402,0.241,0.602,0.36
	c0.278,0.164,0.558,0.329,0.845,0.477c0.223,0.114,0.451,0.217,0.679,0.321c0.28,0.127,0.56,0.251,0.845,0.363
	c0.239,0.093,0.482,0.177,0.726,0.259c0.288,0.096,0.576,0.186,0.868,0.267c0.246,0.068,0.493,0.13,0.744,0.187
	c0.303,0.068,0.606,0.124,0.912,0.176c0.246,0.041,0.49,0.08,0.739,0.109c0.322,0.039,0.646,0.06,0.972,0.08
	c0.238,0.015,0.472,0.033,0.711,0.036c0.078,0.002,0.156,0.011,0.236,0.011c0.444,0,0.892-0.018,1.34-0.055
	c4.769-0.394,9.123-2.864,11.905-6.755l85.157-119.078l85.157,119.078c2.783,3.891,7.136,6.363,11.905,6.755
	c0.448,0.036,0.895,0.055,1.34,0.055c0.081,0,0.161-0.011,0.241-0.011c0.233-0.003,0.462-0.021,0.694-0.034
	c0.332-0.02,0.661-0.042,0.99-0.081c0.246-0.029,0.488-0.068,0.731-0.109c0.306-0.05,0.611-0.107,0.913-0.176
	c0.252-0.057,0.501-0.119,0.751-0.187c0.288-0.08,0.571-0.168,0.853-0.262c0.251-0.085,0.498-0.169,0.746-0.265
	c0.275-0.107,0.545-0.228,0.816-0.35c0.238-0.107,0.475-0.213,0.708-0.334c0.275-0.142,0.542-0.3,0.811-0.458
	c0.212-0.125,0.428-0.244,0.635-0.379c0.298-0.194,0.581-0.407,0.866-0.622c0.163-0.122,0.332-0.234,0.492-0.363
	c0.438-0.355,0.863-0.733,1.267-1.135l3.422-3.422v124.723h-59.662V479.435z M451.765,479.435h-47.853v-59.118
	c0-13.195,10.734-23.927,23.926-23.927c13.193,0,23.926,10.733,23.926,23.927v59.118H451.765z"/>
<g>
</g>
<g>
</g>
<g>
</g>
<g>
</g>
<g>
</g>
<g>
</g>
<g>
</g>
<g>
</g>
<g>
</g>
<g>
</g>
<g>
</g>
<g>
</g>
<g>
</g>
<g>
</g>
<g>
</g>
</svg>
