<?xml version="1.0" encoding="iso-8859-1"?>
<!-- Generator: Adobe Illustrator 19.0.0, SVG Export Plug-In . SVG Version: 6.00 Build 0)  -->
<svg version="1.1" id="Layer_1" xmlns="http://www.w3.org/2000/svg" xmlns:xlink="http://www.w3.org/1999/xlink" x="0px" y="0px"
	 viewBox="0 0 512 512" style="enable-background:new 0 0 512 512;" xml:space="preserve">
<g>
	<path style="fill:#CEE8FA;" d="M353.706,219.948v-50.859c0-14.243-11.547-25.79-25.79-25.79c-14.243,0-25.79,11.547-25.79,25.79
		v9.794v12.397v132.862l180.388,47.245v-48.892L353.706,219.948z"/>
	<path style="fill:#CEE8FA;" d="M158.297,219.948v-50.859c0-14.243,11.547-25.79,25.79-25.79c14.243,0,25.79,11.547,25.79,25.79
		v9.794v12.397v132.862L29.49,371.388v-48.892L158.297,219.948z"/>
</g>
<path style="fill:#2D527C;" d="M491.108,311.699l-123.602-98.404v-44.206c0-21.831-17.761-39.59-39.59-39.59
	c-21.829,0-39.59,17.761-39.59,39.59v155.053v48.268l-24.632-16.533c-4.652-3.123-10.73-3.122-15.382,0l-24.632,16.533v-48.268
	V169.089V59.923c0-17.823,14.5-32.323,32.323-32.323s32.323,14.5,32.323,32.323v25.415c0,7.622,6.178,13.8,13.8,13.8
	s13.8-6.178,13.8-13.8V59.923C315.925,26.881,289.043,0,256.001,0s-59.923,26.881-59.923,59.923v71.437
	c-3.784-1.205-7.812-1.862-11.99-1.862c-21.831,0-39.59,17.761-39.59,39.59v44.206L20.895,311.699
	c-3.289,2.618-5.204,6.592-5.204,10.796v48.892c0,4.277,1.983,8.312,5.368,10.926c2.441,1.884,5.412,2.875,8.432,2.875
	c1.168,0,2.342-0.148,3.496-0.45l163.091-42.715v48.914l-44.481,29.855c-3.819,2.563-6.109,6.86-6.109,11.458v51.723
	c0,4.55,2.243,8.809,5.996,11.382c3.752,2.572,8.534,3.131,12.778,1.492l50.641-19.567C218.232,496.959,235.388,512,256,512
	s37.768-15.04,41.097-34.72l50.641,19.567c1.635,0.632,3.316,0.931,4.971,0.931c5.537,0,10.761-3.356,12.877-8.831
	c2.746-7.109-0.789-15.099-7.899-17.846l-96.713-37.37c-3.199-1.236-6.748-1.236-9.947,0l-77.94,30.115v-24.239l44.477-29.854
	c0.017-0.011,0.035-0.023,0.051-0.034l38.384-25.764l38.392,25.771c0.011,0.007,0.021,0.014,0.032,0.021l0.01,0.007
	c0.028,0.018,0.057,0.033,0.086,0.051c0.353,0.233,0.716,0.453,1.09,0.654c0.135,0.073,0.275,0.13,0.411,0.197
	c0.268,0.133,0.534,0.266,0.811,0.381c0.206,0.086,0.414,0.153,0.622,0.228c0.214,0.077,0.424,0.16,0.642,0.226
	c0.27,0.083,0.545,0.145,0.818,0.211c0.161,0.039,0.32,0.086,0.484,0.119c0.362,0.073,0.725,0.123,1.087,0.166
	c0.084,0.01,0.164,0.028,0.248,0.036c0.93,0.094,1.862,0.094,2.785,0c0.098-0.01,0.193-0.03,0.291-0.043
	c0.345-0.043,0.69-0.09,1.032-0.157c0.213-0.043,0.418-0.102,0.627-0.155c0.225-0.057,0.451-0.106,0.673-0.173
	c0.208-0.063,0.409-0.142,0.613-0.215c0.221-0.079,0.444-0.152,0.661-0.241c0.167-0.069,0.327-0.152,0.49-0.226
	c0.248-0.115,0.498-0.228,0.741-0.357c0.112-0.061,0.218-0.13,0.327-0.192c0.284-0.163,0.567-0.327,0.84-0.511
	c0.057-0.039,0.109-0.081,0.164-0.12c0.313-0.217,0.621-0.442,0.918-0.686c0.012-0.01,0.023-0.021,0.034-0.03
	c0.995-0.825,1.895-1.8,2.652-2.927c0.126-0.188,0.229-0.384,0.345-0.575c0.116-0.19,0.237-0.377,0.344-0.573
	c0.128-0.237,0.235-0.479,0.348-0.72c0.079-0.168,0.164-0.331,0.236-0.502c0.119-0.284,0.217-0.574,0.316-0.864
	c0.046-0.135,0.101-0.265,0.142-0.402c0.106-0.344,0.189-0.69,0.266-1.036c0.021-0.091,0.047-0.178,0.066-0.269
	c0.088-0.433,0.155-0.869,0.199-1.306c0.001-0.012,0.004-0.023,0.006-0.036c0.051-0.505,0.076-1.01,0.072-1.514v-56.166
	l163.091,42.714c1.154,0.302,2.328,0.45,3.496,0.45c3.019,0,5.991-0.991,8.432-2.875c3.387-2.614,5.368-6.648,5.368-10.926v-48.892
	C496.313,318.293,494.396,314.317,491.108,311.699z M241.91,466.846l14.091-5.444l14.091,5.444v3.462
	c0,7.77-6.322,14.091-14.091,14.091c-7.77,0-14.091-6.322-14.091-14.091V466.846z M196.078,313.492L43.29,353.507v-24.359
	l123.602-98.404c3.289-2.618,5.204-6.592,5.204-10.796v-50.859c0-6.612,5.378-11.99,11.99-11.99s11.99,5.378,11.99,11.99v144.403
	H196.078z M468.713,353.507L315.925,313.49V178.883v-9.795c0-6.612,5.378-11.99,11.99-11.99s11.99,5.378,11.99,11.99v50.859
	c0,4.204,1.915,8.178,5.204,10.796l123.602,98.404v24.36H468.713z"/>
<g>
</g>
<g>
</g>
<g>
</g>
<g>
</g>
<g>
</g>
<g>
</g>
<g>
</g>
<g>
</g>
<g>
</g>
<g>
</g>
<g>
</g>
<g>
</g>
<g>
</g>
<g>
</g>
<g>
</g>
</svg>
