<?xml version="1.0" encoding="iso-8859-1"?>
<!-- Generator: Adobe Illustrator 19.0.0, SVG Export Plug-In . SVG Version: 6.00 Build 0)  -->
<svg version="1.1" id="Layer_1" xmlns="http://www.w3.org/2000/svg" xmlns:xlink="http://www.w3.org/1999/xlink" x="0px" y="0px"
	 viewBox="0 0 512.001 512.001" style="enable-background:new 0 0 512.001 512.001;" xml:space="preserve">
<g>
	<polygon style="fill:#CEE8FA;" points="191.476,167.894 54.655,250.288 54.655,321.46 199.62,270.588 	"/>
	<path style="fill:#CEE8FA;" d="M143.693,196.669V177.16c0-14.284-11.579-25.863-25.863-25.863s-25.863,11.579-25.863,25.863v50.661
		L143.693,196.669z"/>
	<polygon style="fill:#CEE8FA;" points="320.523,167.894 312.38,270.588 457.345,321.46 457.345,250.288 	"/>
	<path style="fill:#CEE8FA;" d="M420.034,227.819v-50.661c0-14.284-11.579-25.863-25.863-25.863s-25.863,11.579-25.863,25.863
		v19.509L420.034,227.819z"/>
</g>
<g>
	<path style="fill:#2D527C;" d="M464.485,238.432l-30.611-18.434V177.16c0-21.893-17.811-39.702-39.704-39.702
		c-20.266,0-37.023,15.269-39.401,34.904l-20.255-12.198l6.118-70.766c0.015-0.173,0.028-0.347,0.035-0.52
		c1.135-23.396-7.137-45.619-23.293-62.578C301.217,9.34,279.422,0,256,0s-45.217,9.34-61.374,26.298
		c-16.156,16.959-24.428,39.184-23.293,62.578c0.007,0.141,0.017,0.282,0.028,0.423l5.642,71.157l-19.771,11.906
		c-2.378-19.637-19.134-34.904-39.401-34.904c-21.893,0-39.704,17.811-39.704,39.702v42.839l-30.611,18.434
		c-4.157,2.504-6.7,7.003-6.7,11.855v71.173c0,4.487,2.176,8.695,5.836,11.29c2.371,1.68,5.173,2.549,8.005,2.549
		c1.54,0,3.089-0.257,4.582-0.781l128.008-44.921l8.931,112.615l-40.302,20.163c-4.687,2.344-7.646,7.137-7.646,12.377v63.407
		c0,4.797,2.484,9.252,6.565,11.773c2.221,1.373,4.744,2.066,7.274,2.066c2.116,0,4.239-0.486,6.193-1.463l93.935-46.997
		c6.835-3.42,9.603-11.733,6.185-18.568c-3.423-6.837-11.734-9.602-18.57-6.185L175.91,475.76v-32.456l40.996-20.51
		c5.042-2.523,8.049-7.851,7.603-13.471l-11.087-139.811c0-0.006,0-0.012,0-0.018l-8.144-102.694c0-0.001,0-0.003,0-0.004
		l-6.301-79.463c-0.707-15.681,4.863-30.571,15.697-41.943c10.874-11.42,25.553-17.71,41.326-17.71s30.452,6.29,41.333,17.71
		c10.822,11.361,16.393,26.233,15.699,41.896l-20.143,232.984c-0.659,7.614,4.982,14.322,12.597,14.98
		c7.617,0.659,14.324-4.981,14.98-12.597l2.899-33.543l129.397,45.409c1.492,0.523,3.04,0.781,4.582,0.781
		c2.832,0,5.634-0.868,8.005-2.549c3.66-2.595,5.836-6.803,5.836-11.29v-71.173C471.185,245.435,468.642,240.936,464.485,238.432z
		 M382.146,177.16c0-6.63,5.393-12.024,12.024-12.024s12.025,5.393,12.025,12.024v26.17l-24.049-14.482L382.146,177.16
		L382.146,177.16z M105.805,177.16c0-6.63,5.395-12.024,12.025-12.024c6.629,0,12.024,5.393,12.024,12.024v11.689l-24.049,14.482
		L105.805,177.16L105.805,177.16z M68.494,301.937v-43.828l110.955-66.817l5.533,69.767L68.494,301.937z M443.506,301.937
		l-116.489-40.879l5.533-69.767l110.956,66.817V301.937z"/>
	<path style="fill:#2D527C;" d="M356.128,422.377l-42.447-21.237l1.641-18.984c0.659-7.614-4.982-14.322-12.597-14.98
		c-7.596-0.659-14.322,4.981-14.98,12.597l-2.451,28.347c-0.489,5.652,2.522,11.03,7.595,13.57l43.205,21.616v32.456l-22.161-11.088
		c-6.835-3.418-15.147-0.65-18.57,6.185c-3.42,6.835-0.652,15.15,6.185,18.568l42.192,21.111c1.954,0.977,4.076,1.463,6.193,1.463
		c2.528,0,5.051-0.693,7.274-2.066c4.081-2.522,6.565-6.976,6.565-11.773v-63.407C363.774,429.513,360.814,424.723,356.128,422.377z
		"/>
</g>
<g>
</g>
<g>
</g>
<g>
</g>
<g>
</g>
<g>
</g>
<g>
</g>
<g>
</g>
<g>
</g>
<g>
</g>
<g>
</g>
<g>
</g>
<g>
</g>
<g>
</g>
<g>
</g>
<g>
</g>
</svg>
