<?xml version="1.0" encoding="iso-8859-1"?>
<!-- Generator: Adobe Illustrator 19.0.0, SVG Export Plug-In . SVG Version: 6.00 Build 0)  -->
<svg version="1.1" id="Layer_1" xmlns="http://www.w3.org/2000/svg" xmlns:xlink="http://www.w3.org/1999/xlink" x="0px" y="0px"
	 viewBox="0 0 512 512" style="enable-background:new 0 0 512 512;" xml:space="preserve">
<rect x="47.326" y="64.86" style="fill:#CFF09E;" width="417.346" height="141.022"/>
<path style="fill:#507C5C;" d="M497.555,255.081h-49.442v-34.756h16.561c7.976,0,14.445-6.468,14.445-14.445V64.86
	c0-7.976-6.468-14.445-14.445-14.445H47.328c-7.976,0-14.445,6.468-14.445,14.445V205.88c0,7.976,6.468,14.445,14.445,14.445h16.561
	v34.756H14.445C6.468,255.081,0,261.55,0,269.526v79.838c0,7.976,6.468,14.445,14.445,14.445h49.442v68.887h-9.028
	c-7.976,0-14.445,6.468-14.445,14.445s6.468,14.445,14.445,14.445h46.945c7.976,0,14.445-6.468,14.445-14.445
	s-6.468-14.445-14.445-14.445h-9.028v-68.888h268.687c7.976,0,14.445-6.468,14.445-14.445s-6.468-14.445-14.445-14.445H80.956
	c-0.852-0.156-1.726-0.25-2.625-0.25s-1.772,0.092-2.625,0.25H28.889V283.97h454.222v50.949h-49.442
	c-7.976,0-14.445,6.468-14.445,14.445v83.332h-9.028c-7.976,0-14.445,6.468-14.445,14.445s6.468,14.445,14.445,14.445h46.945
	c7.976,0,14.445-6.468,14.445-14.445s-6.468-14.445-14.445-14.445h-9.028v-68.888h49.442c7.976,0,14.445-6.468,14.445-14.445
	v-79.838C512,261.548,505.532,255.081,497.555,255.081z M61.772,149.815h316.285c7.976,0,14.445-6.468,14.445-14.445
	s-6.468-14.445-14.445-14.445H61.772V79.304h388.457v112.132H61.772V149.815z M92.776,220.325h326.447v34.756H92.776L92.776,220.325
	L92.776,220.325z"/>
<g>
</g>
<g>
</g>
<g>
</g>
<g>
</g>
<g>
</g>
<g>
</g>
<g>
</g>
<g>
</g>
<g>
</g>
<g>
</g>
<g>
</g>
<g>
</g>
<g>
</g>
<g>
</g>
<g>
</g>
</svg>
