<?xml version="1.0" encoding="iso-8859-1"?>
<!-- Generator: Adobe Illustrator 19.0.0, SVG Export Plug-In . SVG Version: 6.00 Build 0)  -->
<svg version="1.1" id="Layer_1" xmlns="http://www.w3.org/2000/svg" xmlns:xlink="http://www.w3.org/1999/xlink" x="0px" y="0px"
	 viewBox="0 0 512 512" style="enable-background:new 0 0 512 512;" xml:space="preserve">
<g>
	<polygon style="fill:#CFF09E;" points="280.679,173.715 280.679,314.18 141.474,314.18 141.474,173.328 210.172,122.741 	"/>
	<path style="fill:#CFF09E;" d="M450.582,272.743c2.608-6.256,4.055-13.119,4.055-20.32c0-29.187-23.66-52.846-52.846-52.846
		s-52.846,23.66-52.846,52.846c0,7.201,1.446,14.064,4.055,20.32c-26.626,2.727-47.398,25.222-47.398,52.567
		c0,29.187,23.66,52.846,52.846,52.846c17.946,0,33.792-8.954,43.343-22.628c9.552,13.674,25.398,22.628,43.343,22.628
		c29.187,0,52.846-23.66,52.846-52.846C497.979,297.964,477.207,275.471,450.582,272.743z"/>
</g>
<g>
	<path style="fill:#507C5C;" d="M98.445,356.277c-7.744,0-14.021,6.277-14.021,14.021v93.92c0,7.744,6.277,14.021,14.021,14.021
		s14.021-6.277,14.021-14.021v-93.92C112.466,362.554,106.189,356.277,98.445,356.277z"/>
	<path style="fill:#507C5C;" d="M467.917,262.4c0.492-3.282,0.739-6.612,0.739-9.977c0-36.87-29.997-66.867-66.867-66.867
		s-66.865,29.997-66.865,66.867c0,3.364,0.248,6.693,0.739,9.976c-17.979,6.455-32.177,20.296-39.224,37.76h-1.739V201.07
		l9.063,6.608c6.253,4.561,15.026,3.19,19.59-3.068c4.562-6.256,3.188-15.027-3.068-19.59l-100.947-73.608
		c-2.59-1.887-5.663-2.772-8.712-2.674c-3.071-0.098-6.166,0.799-8.766,2.713l-68.699,50.588c-0.491,0.362-0.948,0.757-1.381,1.172
		l-29.909,21.809c-6.257,4.562-7.63,13.332-3.068,19.59c2.745,3.765,7.012,5.761,11.34,5.761c2.864,0,5.757-0.876,8.248-2.692
		l9.063-6.608v99.089H28.041V61.802h55.098c0,0.003,0,0.006,0,0.008v25.731H69.119c-7.744,0-14.021,6.277-14.021,14.021
		s6.277,14.021,14.021,14.021h56.082c7.744,0,14.021-6.277,14.021-14.021s-6.277-14.021-14.021-14.021H111.18V61.81
		c0-0.003,0-0.006,0-0.008h199.793c0,0.003,0,0.006,0,0.008v25.731h-14.021c-7.742,0-14.021,6.277-14.021,14.021
		s6.278,14.021,14.021,14.021h56.082c7.742,0,14.021-6.277,14.021-14.021s-6.278-14.021-14.021-14.021h-14.021V61.81
		c0-0.003,0-0.006,0-0.008h55.098v63.115c0,7.744,6.278,14.021,14.021,14.021s14.021-6.277,14.021-14.021V47.781
		c0-7.744-6.278-14.021-14.021-14.021H14.021C6.277,33.761,0,40.038,0,47.781V314.18c0,7.744,6.277,14.021,14.021,14.021h127.454
		H280.68h10.973c0.707,16.518,7.434,31.492,18.037,42.801v93.217c0,7.744,6.278,14.021,14.021,14.021s14.021-6.277,14.021-14.021
		v-75.341c6.527,2.133,13.486,3.3,20.715,3.3c10.304,0,20.309-2.397,29.323-6.804v78.843c0,7.744,6.278,14.021,14.021,14.021
		s14.021-6.277,14.021-14.021v-78.843c9.014,4.407,19.019,6.804,29.323,6.804c36.871,0,66.867-29.996,66.867-66.865
		C512,296.478,493.901,271.73,467.917,262.4z M155.495,300.16V180.623l55.167-40.228l55.997,40.484v119.28H155.495z
		 M445.132,364.136c-12.666,0-24.572-6.22-31.849-16.635c-2.623-3.755-6.915-5.992-11.494-5.992s-8.871,2.238-11.494,5.992
		c-7.275,10.417-19.183,16.635-31.849,16.635c-21.409,0-38.826-17.416-38.826-38.824c0-19.985,14.964-36.588,34.806-38.621
		c4.412-0.451,8.352-2.965,10.621-6.776c2.267-3.812,2.599-8.471,0.892-12.565c-1.973-4.733-2.974-9.756-2.974-14.925
		c0-21.409,17.416-38.826,38.824-38.826c21.408,0,38.826,17.416,38.826,38.826l-0.447,5.897c-0.471,3.096-1.314,6.116-2.528,9.025
		c-1.708,4.094-1.377,8.756,0.892,12.567c2.269,3.812,6.207,6.326,10.621,6.778c19.842,2.033,34.806,18.636,34.806,38.621
		C483.959,346.719,466.541,364.136,445.132,364.136z"/>
</g>
<g>
</g>
<g>
</g>
<g>
</g>
<g>
</g>
<g>
</g>
<g>
</g>
<g>
</g>
<g>
</g>
<g>
</g>
<g>
</g>
<g>
</g>
<g>
</g>
<g>
</g>
<g>
</g>
<g>
</g>
</svg>
