<?xml version="1.0" encoding="iso-8859-1"?>
<!-- Generator: Adobe Illustrator 19.0.0, SVG Export Plug-In . SVG Version: 6.00 Build 0)  -->
<svg version="1.1" id="Layer_1" xmlns="http://www.w3.org/2000/svg" xmlns:xlink="http://www.w3.org/1999/xlink" x="0px" y="0px"
	 viewBox="0 0 511.999 511.999" style="enable-background:new 0 0 511.999 511.999;" xml:space="preserve">
<g>
	<rect x="32.511" y="133.38" style="fill:#CFF09E;" width="87.594" height="91.304"/>
	<rect x="13.045" y="353.807" style="fill:#CFF09E;" width="126.532" height="106.979"/>
	<rect x="391.885" y="133.38" style="fill:#CFF09E;" width="87.594" height="91.304"/>
	<rect x="372.423" y="353.807" style="fill:#CFF09E;" width="126.532" height="106.979"/>
</g>
<path style="fill:#507C5C;" d="M498.955,340.76H480.42V237.686c6.768-0.479,12.113-6.107,12.113-12.998v-91.304
	c0-6.89-5.346-12.519-12.113-12.998V68.153c0-4.812-2.649-9.234-6.894-11.503L441.84,39.708c-3.843-2.055-8.458-2.055-12.302,0
	L397.851,56.65c-4.243,2.268-6.894,6.691-6.894,11.503v52.233c-6.768,0.479-12.113,6.107-12.113,12.998v11.732H133.155v-11.732
	c0-6.89-5.346-12.519-12.113-12.998V68.153c0-4.812-2.649-9.234-6.894-11.503L82.461,39.708c-3.843-2.055-8.458-2.055-12.302,0
	L38.474,56.65c-4.243,2.268-6.894,6.691-6.894,11.503v52.233c-6.768,0.479-12.113,6.107-12.113,12.998v91.304
	c0,6.89,5.346,12.519,12.113,12.998V340.76H13.045C5.84,340.76,0,346.6,0,353.805v106.983c0,7.205,5.84,13.045,13.045,13.045
	h126.532h0.001h0.001c0.421,0,0.841-0.023,1.26-0.064c0.158-0.016,0.31-0.043,0.466-0.064c0.257-0.034,0.514-0.068,0.77-0.117
	c0.184-0.035,0.361-0.082,0.543-0.125c0.223-0.053,0.446-0.106,0.667-0.171c0.185-0.055,0.365-0.119,0.547-0.181
	c0.211-0.073,0.423-0.146,0.63-0.231c0.177-0.072,0.351-0.151,0.524-0.231c0.203-0.093,0.406-0.188,0.605-0.292
	c0.171-0.089,0.338-0.184,0.505-0.28c0.19-0.111,0.38-0.223,0.566-0.344c0.17-0.11,0.334-0.226,0.497-0.342
	c0.171-0.123,0.342-0.248,0.507-0.381c0.168-0.133,0.331-0.273,0.493-0.415c0.093-0.082,0.192-0.153,0.283-0.237l107.598-99.704
	l106.792,98.958c2.143,2.328,5.115,3.877,8.455,4.165c0.143,0.013,0.286,0.013,0.429,0.022c0.235,0.013,0.467,0.035,0.704,0.035
	h126.533c7.205,0,13.045-5.84,13.045-13.045V353.805C512,346.6,506.16,340.76,498.955,340.76z M417.047,340.76V237.733h37.284
	V340.76H417.047z M466.444,146.428v65.215h-61.51v-53.483v-11.732C404.934,146.428,466.444,146.428,466.444,146.428z
	 M435.689,66.003l18.642,9.967v44.369h-37.284V75.971L435.689,66.003z M378.845,171.205v53.483c0,6.89,5.346,12.519,12.113,12.998
	V340.76h-18.535c-7.205,0-13.045,5.84-13.045,13.045v77.035l-69.057-63.99h15.557c7.204,0,13.045-5.84,13.045-13.045
	c0-7.205-5.84-13.045-13.045-13.045H121.042V237.733h184.837c7.204,0,13.045-5.84,13.045-13.045c0-7.205-5.84-13.045-13.045-13.045
	H133.155v-40.438H378.845z M45.556,211.643v-65.215h61.51v65.215H45.556z M152.622,366.849h69.139l-69.139,64.066V366.849z
	 M76.311,66.003l18.642,9.967v44.369H57.669V75.971L76.311,66.003z M57.669,237.733h37.284V340.76H57.669V237.733z M126.532,447.743
	H26.089v-80.893h100.443V447.743z M485.911,447.743H385.468v-80.893h100.443V447.743z"/>
<g>
</g>
<g>
</g>
<g>
</g>
<g>
</g>
<g>
</g>
<g>
</g>
<g>
</g>
<g>
</g>
<g>
</g>
<g>
</g>
<g>
</g>
<g>
</g>
<g>
</g>
<g>
</g>
<g>
</g>
</svg>
