<?xml version="1.0" encoding="iso-8859-1"?>
<!-- Generator: Adobe Illustrator 19.0.0, SVG Export Plug-In . SVG Version: 6.00 Build 0)  -->
<svg version="1.1" id="Layer_1" xmlns="http://www.w3.org/2000/svg" xmlns:xlink="http://www.w3.org/1999/xlink" x="0px" y="0px"
	 viewBox="0 0 512 512" style="enable-background:new 0 0 512 512;" xml:space="preserve">
<g>
	<polygon style="fill:#CFF09E;" points="345.764,117.365 61.499,117.365 34.726,216.46 345.764,216.46 	"/>
	<polygon style="fill:#CFF09E;" points="477.273,140.736 411.519,90.253 345.764,140.736 345.764,65.825 411.519,14.848 
		477.273,65.825 	"/>
	<rect x="73.795" y="315.384" style="fill:#CFF09E;" width="86.964" height="181.768"/>
</g>
<path style="fill:#507C5C;" d="M360.612,148.056l50.908-39.084l56.713,43.541c2.644,2.03,5.832,3.071,9.044,3.071
	c2.235,0,4.483-0.505,6.563-1.531c5.072-2.5,8.282-7.663,8.282-13.317V65.825c0-4.589-2.123-8.922-5.751-11.734L420.617,3.114
	c-5.354-4.151-12.839-4.151-18.195,0l-65.755,50.977c-3.627,2.812-5.751,7.145-5.751,11.734v36.692H61.499
	c-6.71,0-12.584,4.499-14.334,10.976l-26.774,99.095c-1.206,4.462-0.264,9.229,2.545,12.9c2.811,3.67,7.167,5.822,11.789,5.822
	h24.221v265.843c0,8.201,6.647,14.848,14.848,14.848h403.48c8.201,0,14.848-6.647,14.848-14.848V293.12v-6.949
	c0-8.201-6.647-14.848-14.848-14.848s-14.848,6.647-14.848,14.848v6.949v189.184h-36.06V285.696c0-8.2-6.647-14.848-14.848-14.848
	s-14.848,6.647-14.848,14.848v196.608h-36.06V216.46L360.612,148.056L360.612,148.056z M360.612,73.102l50.908-39.466l50.908,39.466
	v37.515l-41.865-32.141c-2.667-2.046-5.855-3.071-9.042-3.071c-3.188,0-6.376,1.023-9.042,3.071l-41.865,32.141v-2.098V73.102z
	 M72.867,132.213h258.049v8.523v60.876H54.117L72.867,132.213z M88.643,482.304V330.239h57.267v152.065H88.643z M175.606,482.304
	V315.392c0-8.2-6.647-14.848-14.848-14.848H88.643v-69.236h242.273v69.236h-87.007c-8.2,0-14.848,6.647-14.848,14.848v100.966
	c0,8.201,6.647,14.848,14.848,14.848h87.007v51.099H175.606z M330.027,330.239v71.27h-71.27v-71.27L330.027,330.239L330.027,330.239
	z"/>
<g>
</g>
<g>
</g>
<g>
</g>
<g>
</g>
<g>
</g>
<g>
</g>
<g>
</g>
<g>
</g>
<g>
</g>
<g>
</g>
<g>
</g>
<g>
</g>
<g>
</g>
<g>
</g>
<g>
</g>
</svg>
