<?xml version="1.0" encoding="iso-8859-1"?>
<!-- Generator: Adobe Illustrator 19.0.0, SVG Export Plug-In . SVG Version: 6.00 Build 0)  -->
<svg version="1.1" id="Layer_1" xmlns="http://www.w3.org/2000/svg" xmlns:xlink="http://www.w3.org/1999/xlink" x="0px" y="0px"
	 viewBox="0 0 512.001 512.001" style="enable-background:new 0 0 512.001 512.001;" xml:space="preserve">
<g>
	<rect x="281.244" y="295.488" style="fill:#CFF09E;" width="87.59" height="121.925"/>
	<path style="fill:#CFF09E;" d="M198.509,185.212c3.33-7.984,5.175-16.743,5.175-25.933c0-37.249-30.196-67.445-67.445-67.445
		s-67.445,30.196-67.445,67.445c0,9.192,1.845,17.949,5.175,25.933c-33.982,3.479-60.492,32.187-60.492,67.088
		c0,37.249,30.196,67.445,67.445,67.445c22.904,0,43.128-11.427,55.318-28.879c12.19,17.453,32.414,28.879,55.318,28.879
		c37.249,0,67.445-30.196,67.445-67.445C259.002,217.4,232.49,188.692,198.509,185.212z"/>
</g>
<path style="fill:#507C5C;" d="M198.509,185.211c4.468,0.458,8.802,1.362,12.969,2.649c-0.04-6.08-4.106-11.195-9.665-12.831
	C200.971,178.535,199.872,181.942,198.509,185.211z"/>
<path style="fill:#CFF09E;" d="M203.683,159.278c0,6.713-0.994,13.191-2.822,19.309l43.323-31.922V98.49h-46.177v33.702
	C201.648,140.485,203.683,149.641,203.683,159.278z"/>
<path style="fill:#507C5C;" d="M506.463,210.647L328.59,80.944c-4.73-3.45-11.148-3.45-15.878,0l-55.052,40.143V98.49
	c0-7.442-6.033-13.475-13.475-13.475h-46.177c-6.16,0-11.342,4.137-12.95,9.78c-13.58-10.307-30.495-16.437-48.818-16.437
	c-44.62,0-80.921,36.3-80.921,80.921c0,5.324,0.512,10.577,1.527,15.722C23.54,185.266,0,216.126,0,252.302
	c0,44.62,36.3,80.921,80.921,80.921c14.951,0,29.379-4.169,41.842-11.709v98.654c0,7.442,6.033,13.475,13.475,13.475
	s13.475-6.033,13.475-13.475v-98.654c10.499,6.35,22.391,10.302,34.818,11.388v87.266c0,7.442,6.033,13.475,13.475,13.475h245.288
	c7.441,0,13.475-6.033,13.475-13.475v-166.24c0-7.442-6.034-13.475-13.475-13.475c-7.441,0-13.475,6.033-13.475,13.475v152.765
	h-47.513V295.495c0-7.442-6.034-13.475-13.475-13.475h-87.59c-7.441,0-13.475,6.033-13.475,13.475v111.199h-56.284v-75.959
	c35.016-8.9,60.995-40.686,60.995-78.432c0-32.772-19.32-61.181-47.716-73.869l95.891-69.922l169.934,123.914
	c2.395,1.746,5.175,2.587,7.929,2.587c4.159,0,8.26-1.919,10.899-5.536C513.798,223.462,512.477,215.032,506.463,210.647z
	 M294.717,308.97h60.639v94.981h-60.639L294.717,308.97L294.717,308.97z M230.709,111.966v27.89l-14.071,10.368
	c-0.807-7.215-2.574-14.141-5.157-20.659v-17.599H230.709z M245.526,252.302c0,29.759-24.211,53.97-53.97,53.97
	c-17.608,0-34.159-8.643-44.271-23.121c-2.521-3.609-6.646-5.759-11.047-5.759c-4.401,0-8.527,2.151-11.047,5.759
	c-10.112,14.478-26.662,23.121-44.271,23.121c-29.759-0.001-53.97-24.211-53.97-53.97c0-27.779,20.803-50.859,48.39-53.684
	c4.241-0.434,8.026-2.85,10.206-6.513c2.18-3.663,2.498-8.142,0.858-12.077c-2.745-6.584-4.137-13.564-4.137-20.748
	c0-29.759,24.211-53.97,53.97-53.97s53.97,24.211,53.97,53.97c0,7.185-1.392,14.165-4.137,20.747
	c-1.64,3.935-1.322,8.414,0.858,12.078s5.966,6.079,10.206,6.513C224.723,201.442,245.526,224.521,245.526,252.302z"/>
<g>
</g>
<g>
</g>
<g>
</g>
<g>
</g>
<g>
</g>
<g>
</g>
<g>
</g>
<g>
</g>
<g>
</g>
<g>
</g>
<g>
</g>
<g>
</g>
<g>
</g>
<g>
</g>
<g>
</g>
</svg>
