<?xml version="1.0" encoding="iso-8859-1"?>
<!-- Generator: Adobe Illustrator 19.0.0, SVG Export Plug-In . SVG Version: 6.00 Build 0)  -->
<svg version="1.1" id="Layer_1" xmlns="http://www.w3.org/2000/svg" xmlns:xlink="http://www.w3.org/1999/xlink" x="0px" y="0px"
	 viewBox="0 0 511.999 511.999" style="enable-background:new 0 0 511.999 511.999;" xml:space="preserve">
<g>
	<polygon style="fill:#CFF09E;" points="321.755,136.278 255.999,85.795 190.244,136.278 190.244,65.825 255.999,14.847 
		321.755,65.825 	"/>
	<polygon style="fill:#CFF09E;" points="321.755,204.97 496.808,204.97 470.035,105.875 321.755,105.875 	"/>
	<polygon style="fill:#CFF09E;" points="190.244,105.875 41.964,105.875 15.19,204.97 190.244,204.97 	"/>
	<rect x="190.245" y="362.392" style="fill:#CFF09E;" width="131.508" height="134.76"/>
	<rect x="54.259" y="286.178" style="fill:#CFF09E;" width="82.957" height="97.001"/>
	<rect x="374.775" y="286.178" style="fill:#CFF09E;" width="82.957" height="97.001"/>
</g>
<path style="fill:#507C5C;" d="M511.143,201.098l-26.774-99.095c-1.751-6.477-7.626-10.976-14.334-10.976H336.601V65.825
	c0-4.589-2.123-8.922-5.751-11.734L265.097,3.113c-5.356-4.151-12.84-4.15-18.195,0L181.147,54.09
	c-3.627,2.812-5.751,7.145-5.751,11.734v25.203H41.965c-6.71,0-12.585,4.499-14.334,10.976L0.858,201.098
	c-1.206,4.462-0.264,9.229,2.546,12.9c2.809,3.67,7.167,5.822,11.788,5.822h24.221v66.352v97.006v113.974
	c0,8.201,6.649,14.848,14.848,14.848h135.984h131.508h135.986c8.199,0,14.848-6.647,14.848-14.848V383.178v-97.006
	c0-8.2-6.649-14.848-14.848-14.848h-82.957c-8.199,0-14.848,6.647-14.848,14.848v97.006c0,8.201,6.649,14.848,14.848,14.848h68.109
	v84.278h-106.29V362.391V219.82h160.206c4.621,0,8.98-2.151,11.788-5.822C511.407,210.327,512.347,205.56,511.143,201.098z
	 M389.63,368.33v-67.31h53.261v67.31H389.63z M205.092,204.97v-61.372l50.907-39.084l50.906,39.084v61.374v142.571H205.092V204.97z
	 M205.092,73.1l50.907-39.466L306.905,73.1v32.775v0.284l-41.864-32.143c-5.33-4.094-12.748-4.094-18.085,0l-41.865,32.141v-0.284
	L205.092,73.1L205.092,73.1z M53.333,120.723h122.063v15.555v53.846H34.583L53.333,120.723z M69.107,301.018h53.261v67.31H69.107
	V301.018z M69.107,398.026h68.109c8.199,0,14.848-6.647,14.848-14.848v-97.006c0-8.201-6.649-14.848-14.848-14.848H69.107V219.82
	h106.289v142.571v119.913H69.107V398.026z M205.092,482.304V377.238h101.813v105.065H205.092z M336.601,190.122v-53.844v-15.555
	h122.065l18.75,69.399H336.601z"/>
<g>
</g>
<g>
</g>
<g>
</g>
<g>
</g>
<g>
</g>
<g>
</g>
<g>
</g>
<g>
</g>
<g>
</g>
<g>
</g>
<g>
</g>
<g>
</g>
<g>
</g>
<g>
</g>
<g>
</g>
</svg>
