<?xml version="1.0" encoding="iso-8859-1"?>
<!-- Generator: Adobe Illustrator 19.0.0, SVG Export Plug-In . SVG Version: 6.00 Build 0)  -->
<svg version="1.1" id="Layer_1" xmlns="http://www.w3.org/2000/svg" xmlns:xlink="http://www.w3.org/1999/xlink" x="0px" y="0px"
	 viewBox="0 0 512.001 512.001" style="enable-background:new 0 0 512.001 512.001;" xml:space="preserve">
<g>
	<polygon style="fill:#CFF09E;" points="456.205,204.255 256,103.682 55.795,204.255 55.795,115.81 256,14.84 456.205,115.81 	"/>
	<rect x="184.959" y="197.232" style="fill:#CFF09E;" width="142.085" height="62.954"/>
</g>
<g>
	<path style="fill:#507C5C;" d="M456.203,219.095c2.707,0,5.411-0.742,7.79-2.21c4.382-2.702,7.051-7.483,7.051-12.631V115.81
		c0-5.602-3.155-10.728-8.158-13.251L262.683,1.591c-4.203-2.121-9.163-2.121-13.366,0L49.114,102.561
		c-5.003,2.523-8.158,7.647-8.158,13.251V497.16c0,8.197,6.646,14.841,14.841,14.841h400.409c8.195,0,14.841-6.644,14.841-14.841
		V299.024c0-8.197-6.646-14.841-14.841-14.841c-8.195,0-14.841,6.644-14.841,14.841V482.32H70.637V213.407L256,120.291
		l193.542,97.226C451.643,218.571,453.925,219.095,456.203,219.095z M441.363,180.191l-178.701-89.77
		c-2.095-1.052-4.379-1.579-6.662-1.579s-4.566,0.525-6.662,1.579l-178.701,89.77v-29.966v-25.277L256,31.462l185.363,93.486
		V180.191z"/>
	<path style="fill:#507C5C;" d="M327.044,275.031c8.195,0,14.841-6.644,14.841-14.841v-62.953c0-8.197-6.646-14.841-14.841-14.841
		H184.956c-8.195,0-14.841,6.644-14.841,14.841v62.953c0,8.196,6.646,14.841,14.841,14.841H327.044z M199.797,212.08h112.406v33.271
		H199.797L199.797,212.08L199.797,212.08z"/>
	<path style="fill:#507C5C;" d="M359.763,308.454H152.237c-8.195,0-14.841,6.644-14.841,14.841c0,8.197,6.646,14.841,14.841,14.841
		h207.526c8.195,0,14.841-6.644,14.841-14.841C374.603,315.098,367.959,308.454,359.763,308.454z"/>
	<path style="fill:#507C5C;" d="M359.763,362.438H152.237c-8.195,0-14.841,6.644-14.841,14.841c0,8.196,6.646,14.841,14.841,14.841
		h207.526c8.195,0,14.841-6.644,14.841-14.841C374.603,369.083,367.959,362.438,359.763,362.438z"/>
	<path style="fill:#507C5C;" d="M359.763,416.423H152.237c-8.195,0-14.841,6.644-14.841,14.841s6.646,14.841,14.841,14.841h207.526
		c8.195,0,14.841-6.644,14.841-14.841S367.959,416.423,359.763,416.423z"/>
</g>
<g>
</g>
<g>
</g>
<g>
</g>
<g>
</g>
<g>
</g>
<g>
</g>
<g>
</g>
<g>
</g>
<g>
</g>
<g>
</g>
<g>
</g>
<g>
</g>
<g>
</g>
<g>
</g>
<g>
</g>
</svg>
