<?xml version="1.0" encoding="iso-8859-1"?>
<!-- Generator: Adobe Illustrator 19.0.0, SVG Export Plug-In . SVG Version: 6.00 Build 0)  -->
<svg version="1.1" id="Layer_1" xmlns="http://www.w3.org/2000/svg" xmlns:xlink="http://www.w3.org/1999/xlink" x="0px" y="0px"
	 viewBox="0 0 512 512" style="enable-background:new 0 0 512 512;" xml:space="preserve">
<g>
	<rect x="14.588" y="189.204" style="fill:#CFF09E;" width="364.711" height="69.486"/>
	<rect x="102.115" y="320.67" style="fill:#CFF09E;" width="189.642" height="54.704"/>
</g>
<g>
	<path style="fill:#507C5C;" d="M379.294,174.618H276.969c-4.242-40.413-38.51-72.016-80.027-72.016s-75.787,31.605-80.029,72.016
		H14.588C6.532,174.618,0,181.149,0,189.206v69.486c0,8.057,6.532,14.588,14.588,14.588h7.3v213.451
		c0,8.057,6.532,14.588,14.588,14.588s14.588-6.531,14.588-14.588V273.28h328.231c8.055,0,14.588-6.531,14.588-14.588v-69.486
		C393.882,181.149,387.35,174.618,379.294,174.618z M196.942,131.778c25.405,0,46.543,18.566,50.589,42.84h-101.18
		C150.398,150.344,171.536,131.778,196.942,131.778z M364.706,244.104H29.176v-40.311h335.531V244.104z"/>
	<path style="fill:#507C5C;" d="M357.408,331.137c-8.055,0-14.588,6.531-14.588,14.588v141.006c0,8.057,6.532,14.588,14.588,14.588
		s14.588-6.531,14.588-14.588V345.725C371.996,337.668,365.464,331.137,357.408,331.137z"/>
	<path style="fill:#507C5C;" d="M300.505,411.118h-26.492v-21.152h17.749c8.055,0,14.588-6.531,14.588-14.588v-54.704
		c0-8.057-6.532-14.588-14.588-14.588H102.121c-8.055,0-14.588,6.531-14.588,14.588v54.704c0,8.057,6.532,14.588,14.588,14.588
		h17.748v21.152H93.377c-8.055,0-14.588,6.531-14.588,14.588s6.532,14.588,14.588,14.588h26.492v46.438
		c0,8.057,6.532,14.588,14.588,14.588c8.055,0,14.588-6.531,14.588-14.588v-46.438h95.794v46.438
		c0,8.057,6.532,14.588,14.588,14.588s14.588-6.531,14.588-14.588v-46.438h26.492c8.055,0,14.588-6.531,14.588-14.588
		S308.562,411.118,300.505,411.118z M116.709,335.261h160.466v25.529H116.709V335.261z M149.044,411.118v-21.152h95.794v21.152
		H149.044z"/>
	<path style="fill:#507C5C;" d="M512,84.121c0-40.494-32.945-73.44-73.44-73.44s-73.44,32.944-73.44,73.44
		c0,8.057,6.532,14.588,14.588,14.588s14.588-6.531,14.588-14.588c0-24.407,19.855-44.264,44.264-44.264
		s44.264,19.857,44.264,44.264s-19.855,44.262-44.264,44.262c-8.055,0-14.588,6.531-14.588,14.588v343.76
		c0,8.057,6.532,14.588,14.588,14.588s14.588-6.531,14.588-14.588V156.099C486.677,149.314,512,119.62,512,84.121z"/>
</g>
<g>
</g>
<g>
</g>
<g>
</g>
<g>
</g>
<g>
</g>
<g>
</g>
<g>
</g>
<g>
</g>
<g>
</g>
<g>
</g>
<g>
</g>
<g>
</g>
<g>
</g>
<g>
</g>
<g>
</g>
</svg>
