<?xml version="1.0" encoding="iso-8859-1"?>
<!-- Generator: Adobe Illustrator 19.0.0, SVG Export Plug-In . SVG Version: 6.00 Build 0)  -->
<svg version="1.1" id="Layer_1" xmlns="http://www.w3.org/2000/svg" xmlns:xlink="http://www.w3.org/1999/xlink" x="0px" y="0px"
	 viewBox="0 0 512 512" style="enable-background:new 0 0 512 512;" xml:space="preserve">
<g>
	<rect x="348.299" y="277.374" style="fill:#CFF09E;" width="148.735" height="175.893"/>
	<rect x="168.71" y="314.827" style="fill:#CFF09E;" width="97.261" height="135.387"/>
	<polygon style="fill:#CFF09E;" points="127.569,119.62 76.291,157.402 76.291,66.125 127.569,66.125 	"/>
</g>
<path style="fill:#507C5C;" d="M497.037,262.417H363.627v-23.69c0-8.264-6.699-14.963-14.963-14.963s-14.963,6.699-14.963,14.963
	v35.402c-0.232,1.047-0.365,2.134-0.365,3.251v160.924h-52.394V314.827c0-8.264-6.699-14.963-14.963-14.963h-97.261
	c-8.264,0-14.963,6.699-14.963,14.963v123.477h-62.5V165.647l121.223-88.395l188.697,137.596c2.66,1.939,5.746,2.873,8.804,2.873
	c4.618,0,9.174-2.131,12.102-6.147c4.869-6.678,3.403-16.038-3.274-20.907L221.293,46.643c-5.254-3.831-12.378-3.831-17.631,0
	l-61.131,44.575V66.126c0-8.264-6.699-14.963-14.963-14.963H76.291c-8.264,0-14.963,6.699-14.963,14.963v84.304l-55.18,40.236
	c-6.678,4.869-8.143,14.229-3.274,20.907c4.869,6.677,14.229,8.143,20.907,3.274l37.547-27.38v265.799
	c0,8.264,6.699,14.963,14.963,14.963h272.008h0.365h148.372c8.264,0,14.963-6.699,14.963-14.963V277.38
	C512,269.116,505.301,262.417,497.037,262.417z M183.681,329.792h67.335v108.51h-67.335V329.792L183.681,329.792z M91.255,81.089
	h21.351v30.969l-21.351,15.732V81.089z M482.073,438.304H363.627v-145.96h118.446V438.304z"/>
<g>
</g>
<g>
</g>
<g>
</g>
<g>
</g>
<g>
</g>
<g>
</g>
<g>
</g>
<g>
</g>
<g>
</g>
<g>
</g>
<g>
</g>
<g>
</g>
<g>
</g>
<g>
</g>
<g>
</g>
</svg>
