<?xml version="1.0" encoding="iso-8859-1"?>
<!-- Generator: Adobe Illustrator 19.0.0, SVG Export Plug-In . SVG Version: 6.00 Build 0)  -->
<svg version="1.1" id="Layer_1" xmlns="http://www.w3.org/2000/svg" xmlns:xlink="http://www.w3.org/1999/xlink" x="0px" y="0px"
	 viewBox="0 0 511.999 511.999" style="enable-background:new 0 0 511.999 511.999;" xml:space="preserve">
<g>
	<path style="fill:#CFF09E;" d="M360.56,233.74H151.437v-13.7c0-57.747,46.814-104.561,104.561-104.561l0,0
		c57.747,0,104.561,46.814,104.561,104.561V233.74z"/>
</g>
<path style="fill:#507C5C;" d="M480.565,482.546H457.35V305.832c0-8.134-6.595-14.727-14.727-14.727
	c-8.132,0-14.727,6.593-14.727,14.727v176.715h-87.709V344.603c0-8.134-6.595-14.727-14.727-14.727H186.534
	c-8.132,0-14.727,6.593-14.727,14.727v137.943H84.1V249.379h396.466c8.132,0,14.727-6.593,14.727-14.727
	s-6.595-14.727-14.727-14.727H375.284c-0.059-60.734-45.749-110.951-104.558-118.229V29.454h58.927v23.073h-21.373
	c-8.132,0-14.727,6.593-14.727,14.727c0,8.134,6.595,14.727,14.727,14.727h36.1c8.132,0,14.727-6.593,14.727-14.727V14.727
	C359.106,6.593,352.512,0,344.379,0h-88.381c-8.132,0-14.727,6.593-14.727,14.727v86.967
	c-58.809,7.278-104.499,57.497-104.558,118.229H31.432c-8.132,0-14.727,6.593-14.727,14.727s6.595,14.727,14.727,14.727h23.216
	v233.167H31.432c-8.132,0-14.727,6.593-14.727,14.727c0,8.134,6.595,14.727,14.727,14.727h449.135
	c8.132,0,14.727-6.593,14.727-14.727C495.294,489.138,488.699,482.546,480.565,482.546z M255.999,130.207
	c49.192,0,89.278,39.742,89.828,88.806H166.17C166.721,169.949,206.806,130.207,255.999,130.207z M201.263,482.546V359.33h40.009
	v70.689c0,8.134,6.595,14.727,14.727,14.727s14.727-6.593,14.727-14.727V359.33h40.009v123.216H201.263z"/>
<g>
</g>
<g>
</g>
<g>
</g>
<g>
</g>
<g>
</g>
<g>
</g>
<g>
</g>
<g>
</g>
<g>
</g>
<g>
</g>
<g>
</g>
<g>
</g>
<g>
</g>
<g>
</g>
<g>
</g>
</svg>
