<?xml version="1.0" encoding="iso-8859-1"?>
<!-- Generator: Adobe Illustrator 19.0.0, SVG Export Plug-In . SVG Version: 6.00 Build 0)  -->
<svg version="1.1" id="Layer_1" xmlns="http://www.w3.org/2000/svg" xmlns:xlink="http://www.w3.org/1999/xlink" x="0px" y="0px"
	 viewBox="0 0 512 512" style="enable-background:new 0 0 512 512;" xml:space="preserve">
<g>
	<rect x="37.835" y="41.996" style="fill:#CFF09E;" width="116.539" height="443.767"/>
	<path style="fill:#CFF09E;" d="M403.223,85.632c-1.979,0-3.912,0.195-5.786,0.557c0.238-2.05,0.373-4.132,0.373-6.245
		c0-29.663-24.047-53.708-53.71-53.708s-53.71,24.047-53.71,53.708c0,2.114,0.136,4.195,0.373,6.245
		c-1.874-0.362-3.807-0.557-5.786-0.557c-16.794,0-30.407,13.613-30.407,30.407s13.613,30.407,30.407,30.407h118.244
		c16.794,0,30.407-13.613,30.407-30.407S420.017,85.632,403.223,85.632z"/>
</g>
<g>
	<path style="fill:#507C5C;" d="M496.538,302.388c8.538,0,15.462-6.922,15.462-15.462v-75.454c0-5.302-2.717-10.233-7.196-13.067
		c-4.479-2.834-10.098-3.176-14.89-0.903l-148.994,70.644v-56.674c0-5.302-2.717-10.233-7.196-13.067
		c-4.478-2.834-10.098-3.176-14.89-0.903l-148.996,70.644V57.451h6.91c8.54,0,15.462-6.922,15.462-15.462
		s-6.922-15.462-15.462-15.462h-22.374H37.835H15.462C6.922,26.526,0,33.449,0,41.989s6.922,15.462,15.462,15.462h6.91V485.76
		c0,8.54,6.922,15.462,15.462,15.462l458.703,0.005c8.538,0,15.462-6.922,15.462-15.462V374.249c0-8.54-6.924-15.462-15.462-15.462
		s-15.462,6.922-15.462,15.462v96.053H340.918v-81.95h87.06c8.538,0,15.462-6.922,15.462-15.462s-6.924-15.462-15.462-15.462h-87.06
		v-55.06l140.158-66.454v51.01C481.076,295.466,487.998,302.388,496.538,302.388z M138.911,292.588v177.711H53.297V57.451h85.616
		v235.138H138.911z M309.993,470.304H169.836v-81.95h140.158V470.304z M309.993,292.588v64.841H169.836v-55.06l140.158-66.454
		V292.588z"/>
	<path style="fill:#507C5C;" d="M284.979,161.908h118.246c25.29,0,45.867-20.577,45.867-45.869
		c0-22.038-15.623-40.496-36.373-44.881c-4.329-34.009-33.451-60.385-68.617-60.385s-64.286,26.376-68.615,60.385
		c-20.752,4.384-36.375,22.842-36.375,44.881C239.11,141.33,259.685,161.908,284.979,161.908z M284.979,101.095
		c0.943,0,1.905,0.094,2.864,0.277c4.838,0.935,9.826-0.496,13.438-3.847c3.61-3.351,5.41-8.22,4.844-13.112
		c-0.181-1.574-0.271-3.035-0.271-4.469c0-21.089,17.158-38.246,38.246-38.246c21.091,0,38.247,17.157,38.247,38.246
		c0,1.432-0.09,2.895-0.271,4.469c-0.566,4.894,1.234,9.763,4.844,13.112c3.612,3.351,8.602,4.781,13.438,3.847
		c0.957-0.184,1.919-0.277,2.864-0.277c8.24,0,14.943,6.704,14.943,14.944s-6.703,14.944-14.943,14.944H284.977
		c-8.24,0-14.944-6.703-14.944-14.944S276.739,101.095,284.979,101.095z"/>
</g>
<g>
</g>
<g>
</g>
<g>
</g>
<g>
</g>
<g>
</g>
<g>
</g>
<g>
</g>
<g>
</g>
<g>
</g>
<g>
</g>
<g>
</g>
<g>
</g>
<g>
</g>
<g>
</g>
<g>
</g>
</svg>
