<?xml version="1.0" encoding="iso-8859-1"?>
<!-- Generator: Adobe Illustrator 19.0.0, SVG Export Plug-In . SVG Version: 6.00 Build 0)  -->
<svg version="1.1" id="Layer_1" xmlns="http://www.w3.org/2000/svg" xmlns:xlink="http://www.w3.org/1999/xlink" x="0px" y="0px"
	 viewBox="0 0 512.001 512.001" style="enable-background:new 0 0 512.001 512.001;" xml:space="preserve">
<g>
	<circle style="fill:#CFF09E;" cx="255.999" cy="45.891" r="31.416"/>
	<circle style="fill:#CFF09E;" cx="255.999" cy="370.209" r="31.416"/>
	<circle style="fill:#CFF09E;" cx="418.152" cy="208.041" r="31.416"/>
	<circle style="fill:#CFF09E;" cx="93.845" cy="208.041" r="31.416"/>
	<circle style="fill:#CFF09E;" cx="370.658" cy="93.381" r="31.416"/>
</g>
<path style="fill:#507C5C;" d="M370.663,139.278c-12.258,0-23.783-4.774-32.451-13.442c-17.892-17.893-17.893-47.007,0-64.901
	c8.668-8.668,20.193-13.442,32.451-13.442s23.783,4.773,32.451,13.44c17.893,17.895,17.893,47.009,0,64.902
	C394.446,134.504,382.921,139.278,370.663,139.278z M370.663,76.446c-4.525,0-8.779,1.762-11.978,4.962
	c-6.605,6.605-6.605,17.353,0,23.958c3.199,3.199,7.453,4.962,11.978,4.962c4.525,0,8.779-1.763,11.978-4.962
	c6.605-6.605,6.605-17.353,0-23.958C379.442,78.208,375.188,76.446,370.663,76.446z"/>
<g>
	<circle style="fill:#CFF09E;" cx="141.339" cy="322.715" r="31.416"/>
	<circle style="fill:#CFF09E;" cx="370.658" cy="322.715" r="31.416"/>
	<circle style="fill:#CFF09E;" cx="141.339" cy="93.381" r="31.416"/>
	<circle style="fill:#CFF09E;" cx="255.999" cy="208.041" r="31.416"/>
</g>
<path style="fill:#507C5C;" d="M438.855,483.049h-75.239l-46.945-143.162c3.326-1.537,6.591-3.186,9.777-4.962
	c2.035,7.416,5.948,14.419,11.763,20.235c8.668,8.668,20.193,13.442,32.451,13.442s23.783-4.774,32.451-13.442
	c17.893-17.893,17.893-47.008,0-64.901c-5.703-5.703-12.649-9.709-20.222-11.79c5.325-9.558,9.609-19.773,12.682-30.497
	c6.673,3.79,14.377,5.965,22.585,5.965c25.304,0,45.891-20.587,45.891-45.893c0-25.304-20.587-45.891-45.891-45.891
	c-24.756,0-44.984,19.707-45.851,44.254c-0.061,0.538-0.098,1.083-0.098,1.637c0,45.561-26.368,85.059-64.633,104.096
	l-22.501-68.616c10.262-8.423,16.819-21.199,16.819-35.479c0-25.304-20.587-45.891-45.893-45.891s-45.893,20.587-45.893,45.891
	c0,14.28,6.559,27.056,16.819,35.479l-22.501,68.616c-38.266-19.037-64.633-58.536-64.633-104.096
	c0-64.077,52.13-116.207,116.207-116.207c0.554,0,1.099-0.038,1.637-0.098c24.549-0.867,44.254-21.095,44.254-45.849
	C301.893,20.587,281.306,0,256.001,0s-45.893,20.587-45.893,45.893c0,8.206,2.176,15.91,5.965,22.583
	c-10.732,3.075-20.956,7.362-30.521,12.695c-2.035-7.416-5.948-14.42-11.763-20.235c-8.668-8.668-20.193-13.44-32.451-13.44
	c-12.258,0-23.783,4.773-32.451,13.442c-17.893,17.893-17.892,47.009,0,64.901c5.703,5.703,12.649,9.709,20.222,11.789
	c-5.326,9.558-9.609,19.773-12.68,30.495c-6.673-3.79-14.377-5.965-22.585-5.965c-25.304,0-45.891,20.587-45.891,45.891
	s20.587,45.893,45.891,45.893c8.208,0,15.911-2.176,22.585-5.965c3.072,10.723,7.355,20.939,12.682,30.497
	c-7.574,2.082-14.519,6.085-20.222,11.789c-17.893,17.893-17.893,47.008,0,64.901c8.668,8.668,20.193,13.442,32.451,13.442
	c12.258,0,23.783-4.774,32.451-13.442c5.815-5.816,9.727-12.819,11.763-20.235c3.186,1.776,6.45,3.425,9.777,4.962l-46.945,143.162
	H73.146c-7.995,0-14.475,6.481-14.475,14.475c0,7.995,6.481,14.475,14.475,14.475h365.71c7.995,0,14.475-6.481,14.475-14.475
	C453.332,489.531,446.85,483.049,438.855,483.049z M418.158,191.107c9.341,0,16.941,7.6,16.941,16.941
	c0,9.342-7.6,16.942-16.941,16.942c-9.342,0-16.942-7.6-16.942-16.942C401.216,198.707,408.816,191.107,418.158,191.107z
	 M358.684,310.731c3.199-3.199,7.453-4.962,11.978-4.962c4.525,0,8.779,1.762,11.978,4.962c6.605,6.605,6.605,17.352,0,23.958
	c-3.199,3.199-7.453,4.962-11.978,4.962s-8.779-1.762-11.978-4.962C352.078,328.084,352.078,317.337,358.684,310.731z
	 M256.001,28.951c9.342,0,16.942,7.6,16.942,16.942c0,9.341-7.6,16.941-16.942,16.941c-9.342,0-16.942-7.6-16.942-16.941
	C239.059,36.55,246.659,28.951,256.001,28.951z M93.845,224.99c-9.341,0-16.941-7.6-16.941-16.942c0-9.341,7.6-16.941,16.941-16.941
	c9.342,0,16.942,7.6,16.942,16.941C110.785,217.39,103.186,224.99,93.845,224.99z M129.36,81.407
	c3.199-3.199,7.453-4.962,11.978-4.962c4.525,0,8.779,1.762,11.978,4.961c6.605,6.605,6.605,17.353,0,23.958
	c-3.199,3.199-7.453,4.962-11.978,4.962c-4.525,0-8.779-1.76-11.978-4.961C122.754,98.76,122.755,88.012,129.36,81.407z
	 M153.319,334.689c-3.199,3.199-7.453,4.962-11.978,4.962s-8.779-1.762-11.978-4.962c-6.605-6.605-6.605-17.352,0-23.958
	c3.199-3.199,7.453-4.962,11.978-4.962s8.779,1.762,11.978,4.962C159.924,317.337,159.924,328.084,153.319,334.689z
	 M256.001,191.107c9.342,0,16.942,7.6,16.942,16.941c0,9.342-7.6,16.942-16.942,16.942c-9.342,0-16.942-7.6-16.942-16.942
	C239.059,198.707,246.659,191.107,256.001,191.107z M256.001,253.941c0.672,0,1.339-0.022,2.003-0.051l22.234,67.804
	c-7.823,1.666-15.926,2.562-24.238,2.562s-16.417-0.895-24.238-2.562l22.234-67.804
	C254.662,253.919,255.328,253.941,256.001,253.941z M272.942,370.205c0,9.342-7.6,16.942-16.942,16.942
	c-9.342,0-16.942-7.6-16.942-16.942c0-9.341,7.6-16.941,16.942-16.941C265.342,353.264,272.942,360.864,272.942,370.205z
	 M178.852,483.049l32.956-100.503c5.405,19.328,23.164,33.55,44.193,33.55s38.787-14.222,44.193-33.55l32.956,100.503H178.852z"/>
<g>
</g>
<g>
</g>
<g>
</g>
<g>
</g>
<g>
</g>
<g>
</g>
<g>
</g>
<g>
</g>
<g>
</g>
<g>
</g>
<g>
</g>
<g>
</g>
<g>
</g>
<g>
</g>
<g>
</g>
</svg>
