<?xml version="1.0" encoding="iso-8859-1"?>
<!-- Generator: Adobe Illustrator 19.0.0, SVG Export Plug-In . SVG Version: 6.00 Build 0)  -->
<svg version="1.1" id="Layer_1" xmlns="http://www.w3.org/2000/svg" xmlns:xlink="http://www.w3.org/1999/xlink" x="0px" y="0px"
	 viewBox="0 0 512 512" style="enable-background:new 0 0 512 512;" xml:space="preserve">
<g>
	<path style="fill:#CFF09E;" d="M307.44,98.884c4.111-7.952,6.447-16.97,6.447-26.539c0-31.97-25.917-57.886-57.887-57.886
		s-57.887,25.916-57.887,57.887c0,9.569,2.337,18.587,6.447,26.539h102.88V98.884z"/>
	<rect x="117.291" y="99.853" style="fill:#CFF09E;" width="277.436" height="67.284"/>
	<rect x="117.291" y="443.712" style="fill:#CFF09E;" width="277.436" height="53.83"/>
</g>
<path style="fill:#507C5C;" d="M421.567,233.483H365.38c-7.984,0-14.459,6.475-14.459,14.459v91.111v90.196h-39.494V271.665
	c0-7.984-6.475-14.459-14.459-14.459c-7.984,0-14.459,6.475-14.459,14.459v157.582h-53.016V271.665
	c0-7.984-6.473-14.459-14.459-14.459c-7.986,0-14.459,6.475-14.459,14.459v157.582h-39.494v-90.196v-91.111v-66.347H365.38h29.337
	c7.984,0,14.459-6.475,14.459-14.459V99.853c0-7.984-6.475-14.459-14.459-14.459h-67.57c0.791-4.3,1.199-8.671,1.199-13.048
	C328.346,32.453,295.892,0,256,0s-72.346,32.453-72.346,72.345c0,4.377,0.409,8.749,1.2,13.048h-67.569
	c-7.986,0-14.459,6.475-14.459,14.459v67.284c0,7.984,6.473,14.459,14.459,14.459h14.878v51.888H90.435
	c-7.986,0-14.459,6.475-14.459,14.459v91.111c0,7.984,6.473,14.459,14.459,14.459h41.728v75.737h-14.878
	c-7.986,0-14.459,6.475-14.459,14.459v53.835c0,7.984,6.473,14.459,14.459,14.459h277.43c7.984,0,14.459-6.475,14.459-14.459
	v-53.835c0-7.984-6.475-14.459-14.459-14.459h-14.878v-75.737h41.728c7.984,0,14.459-6.475,14.459-14.459v-91.111
	C436.025,239.957,429.552,233.483,421.567,233.483z M256,28.918c23.947,0,43.427,19.482,43.427,43.427
	c0,4.148-0.571,8.188-1.702,12.08h-83.452c-1.132-3.894-1.702-7.934-1.702-12.08C212.573,48.399,232.055,28.918,256,28.918z
	 M131.744,114.311h248.513v38.367h-14.878H146.622h-14.878V114.311z M104.894,324.593V262.4h27.269v62.193H104.894z
	 M380.258,483.082H131.744v-24.917h14.878H365.38h14.878V483.082z M407.108,324.593h-27.269V262.4h27.269V324.593z"/>
<g>
</g>
<g>
</g>
<g>
</g>
<g>
</g>
<g>
</g>
<g>
</g>
<g>
</g>
<g>
</g>
<g>
</g>
<g>
</g>
<g>
</g>
<g>
</g>
<g>
</g>
<g>
</g>
<g>
</g>
</svg>
