<?xml version="1.0" encoding="iso-8859-1"?>
<!-- Generator: Adobe Illustrator 19.0.0, SVG Export Plug-In . SVG Version: 6.00 Build 0)  -->
<svg version="1.1" id="Layer_1" xmlns="http://www.w3.org/2000/svg" xmlns:xlink="http://www.w3.org/1999/xlink" x="0px" y="0px"
	 viewBox="0 0 512 512" style="enable-background:new 0 0 512 512;" xml:space="preserve">
<rect x="69.302" y="384.903" style="fill:#CFF09E;" width="373.401" height="111.868"/>
<path style="fill:#507C5C;" d="M481.855,369.669h-39.152H412.49v-81.393h23.915c8.413,0,15.235-6.822,15.235-15.235
	c0-8.413-6.822-15.235-15.235-15.235h-39.15h-57.262c28.893-24.106,47.316-60.358,47.316-100.84v-12.939
	c0-8.413-6.822-15.235-15.235-15.235h-43.71c-8.413,0-15.235,6.822-15.235,15.235c0,8.413,6.822,15.235,15.235,15.235h28.451
	c-1.225,54.549-45.98,98.545-100.815,98.545s-99.59-43.996-100.815-98.545H256c8.413,0,15.235-6.822,15.235-15.235
	c0-0.227-0.024-0.448-0.034-0.672c0.009-0.224,0.034-0.445,0.034-0.672v-7.622V69.828c0-21.702,17.655-39.357,39.356-39.357
	c21.702,0,39.357,17.655,39.357,39.357v9.392c0,8.413,6.822,15.235,15.235,15.235c8.413,0,15.235-6.822,15.235-15.235v-9.394
	C380.417,31.325,349.093,0,310.59,0c-22.08,0-41.786,10.314-54.59,26.364C243.195,10.314,223.491,0,201.41,0
	c-38.501,0-69.826,31.324-69.826,69.826v9.394c0,8.413,6.822,15.235,15.235,15.235s15.235-6.822,15.235-15.235v-9.394
	c0-21.702,17.655-39.357,39.357-39.357c21.7,0,39.356,17.655,39.356,39.357v58.967h-100.84c-8.413,0-15.235,6.822-15.235,15.235
	v12.939c0,40.483,18.423,76.734,47.316,100.84h-57.262h-39.15c-8.413,0-15.235,6.822-15.235,15.235
	c0,8.413,6.822,15.235,15.235,15.235H99.51v81.393H69.296H30.145c-8.413,0-15.235,6.822-15.235,15.235
	c0,8.413,6.822,15.235,15.235,15.235h23.917v96.627c0,8.413,6.822,15.235,15.235,15.235h373.407c8.413,0,15.235-6.822,15.235-15.235
	v-96.627h23.917c8.413,0,15.235-6.822,15.235-15.235C497.09,376.491,490.269,369.669,481.855,369.669z M129.979,288.278H382.02
	v81.393H129.979V288.278z M427.469,481.531H84.531v-81.393h30.213h282.51h30.213v81.393H427.469z"/>
<g>
</g>
<g>
</g>
<g>
</g>
<g>
</g>
<g>
</g>
<g>
</g>
<g>
</g>
<g>
</g>
<g>
</g>
<g>
</g>
<g>
</g>
<g>
</g>
<g>
</g>
<g>
</g>
<g>
</g>
</svg>
