<?xml version="1.0" encoding="iso-8859-1"?>
<!-- Generator: Adobe Illustrator 19.0.0, SVG Export Plug-In . SVG Version: 6.00 Build 0)  -->
<svg version="1.1" id="Layer_1" xmlns="http://www.w3.org/2000/svg" xmlns:xlink="http://www.w3.org/1999/xlink" x="0px" y="0px"
	 viewBox="0 0 512 512" style="enable-background:new 0 0 512 512;" xml:space="preserve">
<g>
	<polygon style="fill:#CFF09E;" points="324.005,150.882 282.638,150.882 282.638,109.515 229.364,109.515 229.364,150.882 
		187.997,150.882 187.997,204.156 229.364,204.156 229.364,245.524 282.638,245.524 282.638,204.156 324.005,204.156 	"/>
	<rect x="202.514" y="333.626" style="fill:#CFF09E;" width="106.977" height="144.342"/>
</g>
<g>
	<path style="fill:#507C5C;" d="M229.364,260.323h53.274c8.173,0,14.798-6.625,14.798-14.798v-26.57h26.569
		c8.173,0,14.798-6.625,14.798-14.798v-53.274c0-8.173-6.625-14.798-14.798-14.798h-26.569v-26.569
		c0-8.173-6.625-14.798-14.798-14.798h-53.274c-8.173,0-14.798,6.625-14.798,14.798v26.569h-26.569
		c-8.173,0-14.798,6.625-14.798,14.798v53.274c0,8.173,6.625,14.798,14.798,14.798h26.569v26.569
		C214.566,253.697,221.191,260.323,229.364,260.323z M202.795,189.358V165.68h26.569c8.173,0,14.798-6.625,14.798-14.798v-26.569
		h23.677v26.569c0,8.173,6.625,14.798,14.798,14.798h26.569v23.677h-26.569c-8.173,0-14.798,6.625-14.798,14.798v26.569h-23.677
		v-26.569c0-8.173-6.625-14.798-14.798-14.798L202.795,189.358L202.795,189.358z"/>
	<path style="fill:#507C5C;" d="M497.202,248.601h-87.689V122.816c0-8.173-6.625-14.798-14.798-14.798s-14.798,6.625-14.798,14.798
		v140.583v199.776h-55.633V333.633c0-8.173-6.625-14.798-14.798-14.798H202.514c-8.173,0-14.798,6.625-14.798,14.798v129.542
		h-55.633V263.399V48.825h286.679c8.173,0,14.798-6.625,14.798-14.798s-6.625-14.798-14.798-14.798H93.238
		c-8.173,0-14.798,6.625-14.798,14.798s6.625,14.798,14.798,14.798h9.249v199.776H14.798C6.625,248.601,0,255.226,0,263.399v214.575
		c0,8.173,6.625,14.798,14.798,14.798h102.487h85.229h106.972h85.229h102.487c8.173,0,14.798-6.625,14.798-14.798V263.399
		C512,255.226,505.375,248.601,497.202,248.601z M29.596,278.197h72.89v184.978h-72.89V278.197z M217.312,463.175V348.431h77.376
		v114.744H217.312z M482.404,463.175h-72.89V278.197h72.89V463.175z"/>
</g>
<g>
</g>
<g>
</g>
<g>
</g>
<g>
</g>
<g>
</g>
<g>
</g>
<g>
</g>
<g>
</g>
<g>
</g>
<g>
</g>
<g>
</g>
<g>
</g>
<g>
</g>
<g>
</g>
<g>
</g>
</svg>
