<?xml version="1.0" encoding="iso-8859-1"?>
<!-- Generator: Adobe Illustrator 19.0.0, SVG Export Plug-In . SVG Version: 6.00 Build 0)  -->
<svg version="1.1" id="Layer_1" xmlns="http://www.w3.org/2000/svg" xmlns:xlink="http://www.w3.org/1999/xlink" x="0px" y="0px"
	 viewBox="0 0 511.998 511.998" style="enable-background:new 0 0 511.998 511.998;" xml:space="preserve">
<g>
	<path style="fill:#CFF09E;" d="M159.951,158.207L159.951,158.207c-26.524,0-48.025-21.501-48.025-48.025V32.928h96.048v77.254
		C207.976,136.705,186.474,158.207,159.951,158.207z"/>
	<path style="fill:#CFF09E;" d="M352.049,158.207L352.049,158.207c-26.524,0-48.025-21.501-48.025-48.025V32.928h96.048v77.254
		C400.072,136.705,378.573,158.207,352.049,158.207z"/>
	<circle style="fill:#CFF09E;" cx="141.977" cy="420.073" r="59.001"/>
	<circle style="fill:#CFF09E;" cx="370.011" cy="420.073" r="59.001"/>
</g>
<path style="fill:#507C5C;" d="M459.302,17.05h-59.23h-96.048h-96.05h-96.048h-59.23C23.64,17.05,0,40.69,0,69.746v40.435
	c0,30.326,21.241,55.767,49.624,62.274v98.438v150.105c0,8.769,7.11,15.878,15.878,15.878h3.531
	c7.648,33.219,37.439,58.072,72.948,58.072s65.3-24.853,72.948-58.072h82.141c7.648,33.219,37.441,58.072,72.948,58.072
	s65.298-24.853,72.948-58.072h3.531c8.768,0,15.878-7.108,15.878-15.878V270.893v-33.41c0-8.769-7.11-15.878-15.878-15.878
	c-8.768,0-15.878,7.108-15.878,15.878v17.532H383.02c-8.768,0-15.878,7.108-15.878,15.878c0,8.769,7.11,15.878,15.878,15.878h47.599
	v89.415c-13.62-18.753-35.704-30.979-60.602-30.979c-36.164,0-66.421,25.772-73.369,59.916h-81.3
	c-6.95-34.142-37.206-59.916-73.369-59.916c-24.898,0-46.982,12.227-60.602,30.98v-89.415h206.375
	c8.768,0,15.878-7.108,15.878-15.878s-7.11-15.878-15.878-15.878H81.379v-96.81c0-8.769-7.11-15.878-15.878-15.878
	c-0.27,0-0.532,0.027-0.799,0.04c-0.267-0.013-0.529-0.04-0.799-0.04c-17.727,0-32.149-14.422-32.149-32.147V69.746
	c0-11.546,9.395-20.941,20.941-20.941h43.352v61.376c0,35.236,28.667,63.903,63.903,63.903c19.125,0,36.303-8.458,48.023-21.816
	c11.721,13.358,28.899,21.816,48.025,21.816s36.304-8.458,48.025-21.816c11.721,13.358,28.899,21.816,48.023,21.816
	c19.126,0,36.304-8.458,48.025-21.816c11.721,13.358,28.899,21.816,48.023,21.816c8.768,0,15.878-7.108,15.878-15.878
	s-7.11-15.878-15.878-15.878c-17.726,0-32.146-14.422-32.146-32.147V48.805h43.352c11.546,0,20.941,9.395,20.941,20.941v40.435
	c0,8.769,7.11,15.878,15.878,15.878c8.768,0,15.878-7.108,15.878-15.878V69.746C512,40.69,488.36,17.05,459.302,17.05z
	 M370.019,376.96c23.775,0,43.116,19.342,43.116,43.116c0,23.774-19.342,43.116-43.116,43.116s-43.117-19.342-43.117-43.116
	S346.244,376.96,370.019,376.96z M141.981,376.96c23.775,0,43.117,19.342,43.117,43.116c0,23.774-19.344,43.116-43.117,43.116
	s-43.116-19.342-43.116-43.116S118.205,376.96,141.981,376.96z M192.097,110.182c0,17.726-14.42,32.147-32.146,32.147
	s-32.147-14.422-32.147-32.147V48.805h64.293V110.182L192.097,110.182z M288.147,110.182c0,17.726-14.422,32.147-32.147,32.147
	s-32.147-14.422-32.147-32.147V48.805h64.295L288.147,110.182L288.147,110.182z M384.196,110.182
	c0,17.726-14.422,32.147-32.147,32.147c-17.726,0-32.146-14.422-32.146-32.147V48.805h64.293V110.182z"/>
<g>
</g>
<g>
</g>
<g>
</g>
<g>
</g>
<g>
</g>
<g>
</g>
<g>
</g>
<g>
</g>
<g>
</g>
<g>
</g>
<g>
</g>
<g>
</g>
<g>
</g>
<g>
</g>
<g>
</g>
</svg>
