<?xml version="1.0" encoding="iso-8859-1"?>
<!-- Generator: Adobe Illustrator 19.0.0, SVG Export Plug-In . SVG Version: 6.00 Build 0)  -->
<svg version="1.1" id="Layer_1" xmlns="http://www.w3.org/2000/svg" xmlns:xlink="http://www.w3.org/1999/xlink" x="0px" y="0px"
	 viewBox="0 0 512 512" style="enable-background:new 0 0 512 512;" xml:space="preserve">
<g>
	<polygon style="fill:#CFF09E;" points="493.107,203.378 18.863,203.378 77.629,85.92 434.342,85.92 	"/>
	<rect x="212.912" y="355.871" style="fill:#CFF09E;" width="86.14" height="141.163"/>
</g>
<path style="fill:#507C5C;" d="M506.074,195.86L448.602,80.989V14.96c0-8.262-6.698-14.96-14.96-14.96h-70.405
	c-8.262,0-14.96,6.698-14.96,14.96v56H77.628c-5.665,0-10.845,3.2-13.379,8.267L5.484,196.683
	c-2.32,4.638-2.073,10.146,0.652,14.558c2.726,4.412,7.541,7.097,12.727,7.097h33.6V497.04c0,8.262,6.698,14.96,14.96,14.96h145.493
	h86.136h145.493c8.262,0,14.96-6.698,14.96-14.96V276.798v-1.478c0-8.262-6.698-14.96-14.96-14.96h-92.078
	c-8.262,0-14.96,6.698-14.96,14.96v104.041c0,8.262,6.698,14.96,14.96,14.96h77.118v87.757H314.012V355.871
	c0-8.262-6.698-14.96-14.96-14.96h-86.136c-8.262,0-14.96,6.698-14.96,14.96V482.08H82.385v-87.757h77.118
	c8.262,0,14.96-6.698,14.96-14.96V275.321c0-8.262-6.698-14.96-14.96-14.96H82.385v-42.023h410.722c0.009,0,0.018,0,0.03,0
	c8.262,0,14.96-6.698,14.96-14.96C508.097,200.637,507.361,198.069,506.074,195.86z M367.427,364.402v-74.121h62.158v74.121H367.427
	z M227.878,370.831h56.216V482.08h-56.216V370.831z M144.543,290.281v74.121H82.385v-74.121H144.543z M378.197,29.92h40.485v41.04
	h-40.485V29.92z M43.076,188.418l43.796-87.537h338.227l43.796,87.537H43.076z"/>
<g>
</g>
<g>
</g>
<g>
</g>
<g>
</g>
<g>
</g>
<g>
</g>
<g>
</g>
<g>
</g>
<g>
</g>
<g>
</g>
<g>
</g>
<g>
</g>
<g>
</g>
<g>
</g>
<g>
</g>
</svg>
