<?xml version="1.0" encoding="iso-8859-1"?>
<!-- Generator: Adobe Illustrator 19.0.0, SVG Export Plug-In . SVG Version: 6.00 Build 0)  -->
<svg version="1.1" id="Layer_1" xmlns="http://www.w3.org/2000/svg" xmlns:xlink="http://www.w3.org/1999/xlink" x="0px" y="0px"
	 viewBox="0 0 512 512" style="enable-background:new 0 0 512 512;" xml:space="preserve">
<g>
	<circle style="fill:#CFF09E;" cx="255.996" cy="203.425" r="82.28"/>
	<polygon style="fill:#CFF09E;" points="344.517,83.231 167.483,83.231 196.205,14.352 315.796,14.352 	"/>
</g>
<g>
	<path style="fill:#507C5C;" d="M397.359,83.231V31.205c0-7.925-6.427-14.352-14.352-14.352c-7.925,0-14.352,6.427-14.352,14.352
		v37.674h-14.574l-25.04-60.051C326.813,3.482,321.587,0,315.794,0H196.205c-5.792,0-11.018,3.482-13.245,8.828l-25.041,60.051
		h-14.574V31.205c0-7.925-6.427-14.352-14.352-14.352c-7.925,0-14.352,6.427-14.352,14.352v52.026v240.395
		c0,7.925,6.427,14.352,14.352,14.352h14.516v159.67c0,7.925,6.427,14.352,14.352,14.352h196.28c7.925,0,14.352-6.427,14.352-14.352
		v-159.67h14.516c7.925,0,14.352-6.427,14.352-14.352V166.55c0-7.925-6.427-14.352-14.352-14.352
		c-7.925,0-14.352,6.427-14.352,14.352v142.724H354.14H157.86h-14.516V97.583h24.139h177.034h0.029h38.463
		C390.934,97.583,397.359,91.158,397.359,83.231z M339.788,337.978v145.318h-69.436V398.62c0-7.925-6.427-14.352-14.352-14.352
		s-14.352,6.427-14.352,14.352v84.676h-69.436V337.978H339.788z M189.018,68.879l16.753-40.175h100.458l16.753,40.175H189.018z"/>
	<path style="fill:#507C5C;" d="M256,106.793c-53.286,0-96.636,43.35-96.636,96.636s43.35,96.636,96.636,96.636
		s96.636-43.35,96.636-96.636S309.286,106.793,256,106.793z M256,271.361c-37.459,0-67.932-30.473-67.932-67.932
		s30.473-67.932,67.932-67.932s67.932,30.473,67.932,67.932S293.459,271.361,256,271.361z"/>
	<path style="fill:#507C5C;" d="M289.556,191.837h-20.585v-26.56c0-7.925-6.427-14.352-14.352-14.352
		c-7.925,0-14.352,6.427-14.352,14.352v40.912c0,7.925,6.427,14.352,14.352,14.352h34.937c7.925,0,14.352-6.427,14.352-14.352
		C303.908,198.264,297.481,191.837,289.556,191.837z"/>
</g>
<g>
</g>
<g>
</g>
<g>
</g>
<g>
</g>
<g>
</g>
<g>
</g>
<g>
</g>
<g>
</g>
<g>
</g>
<g>
</g>
<g>
</g>
<g>
</g>
<g>
</g>
<g>
</g>
<g>
</g>
</svg>
