<?xml version="1.0" encoding="iso-8859-1"?>
<!-- Generator: Adobe Illustrator 19.0.0, SVG Export Plug-In . SVG Version: 6.00 Build 0)  -->
<svg version="1.1" id="Layer_1" xmlns="http://www.w3.org/2000/svg" xmlns:xlink="http://www.w3.org/1999/xlink" x="0px" y="0px"
	 viewBox="0 0 512 512" style="enable-background:new 0 0 512 512;" xml:space="preserve">
<path style="fill:#CFF09E;" d="M124.07,113.451v383.594h263.86V113.451H124.07z M328.107,437.222H183.893V173.273h144.215V437.222z"
	/>
<g>
	<path style="fill:#507C5C;" d="M328.107,158.318H183.893c-8.259,0-14.956,6.696-14.956,14.956v263.948
		c0,8.26,6.697,14.956,14.956,14.956h144.215c8.259,0,14.956-6.696,14.956-14.956V173.273
		C343.063,165.013,336.367,158.318,328.107,158.318z M198.848,267.983h42.196v74.529h-42.196V267.983z M270.956,267.983h42.196
		v74.529h-42.196V267.983z M313.152,188.229v49.843h-42.196V221.87c0-8.26-6.697-14.956-14.956-14.956
		c-8.259,0-14.956,6.696-14.956,14.956v16.201h-42.196v-49.843H313.152z M198.848,422.266v-49.843h42.196v16.202
		c0,8.26,6.697,14.956,14.956,14.956c8.259,0,14.956-6.696,14.956-14.956v-16.202h42.196v49.843H198.848z"/>
	<path style="fill:#507C5C;" d="M415.278,482.089h-12.392V113.451c0-8.26-6.697-14.956-14.956-14.956H165.912
		C176.835,59,213.077,29.911,256,29.911c29.771,0,58.03,14.384,75.592,38.479c4.865,6.675,14.221,8.14,20.896,3.277
		c6.675-4.865,8.14-14.22,3.275-20.895C332.591,18.98,295.298,0,256,0c-59.501,0-109.236,42.359-120.785,98.495H124.07
		c-8.259,0-14.956,6.696-14.956,14.956v368.638H96.722c-8.259,0-14.956,6.696-14.956,14.956c0,8.26,6.697,14.956,14.956,14.956
		h27.348h263.86h27.348c8.259,0,14.956-6.696,14.956-14.956C430.234,488.784,423.538,482.089,415.278,482.089z M139.026,482.089
		V128.406h233.949v353.682H139.026z"/>
</g>
<g>
</g>
<g>
</g>
<g>
</g>
<g>
</g>
<g>
</g>
<g>
</g>
<g>
</g>
<g>
</g>
<g>
</g>
<g>
</g>
<g>
</g>
<g>
</g>
<g>
</g>
<g>
</g>
<g>
</g>
</svg>
