<?xml version="1.0" encoding="iso-8859-1"?>
<!-- Generator: Adobe Illustrator 19.0.0, SVG Export Plug-In . SVG Version: 6.00 Build 0)  -->
<svg version="1.1" id="Layer_1" xmlns="http://www.w3.org/2000/svg" xmlns:xlink="http://www.w3.org/1999/xlink" x="0px" y="0px"
	 viewBox="0 0 512 512" style="enable-background:new 0 0 512 512;" xml:space="preserve">
<rect x="15.059" y="358.142" style="fill:#CFF09E;" width="481.886" height="131.785"/>
<g>
	<path style="fill:#507C5C;" d="M496.941,343.09H286.038c35.611-35.933,105.497-117.087,105.497-200.551
		c0-74.734-60.801-135.535-135.535-135.535S120.466,67.806,120.466,142.539c0,83.143,69.995,164.547,105.569,200.551H15.059
		C6.742,343.09,0,349.834,0,358.149v131.786c0,8.316,6.742,15.059,15.059,15.059h481.881c8.317,0,15.059-6.744,15.059-15.059
		V358.149C512,349.832,505.258,343.09,496.941,343.09z M256.001,37.124c58.126,0,105.416,47.29,105.416,105.416
		c0,78.929-77.461,160.792-105.395,187.743c-27.925-27.039-105.437-109.184-105.437-187.743
		C150.585,84.413,197.874,37.124,256.001,37.124z M481.881,474.875H30.119V373.207h451.762V474.875z"/>
	<path style="fill:#507C5C;" d="M90.402,439.101h20.571c8.317,0,15.059-6.744,15.059-15.059s-6.742-15.059-15.059-15.059H90.402
		c-8.317,0-15.059,6.744-15.059,15.059S82.084,439.101,90.402,439.101z"/>
	<path style="fill:#507C5C;" d="M193.944,439.101h20.571c8.317,0,15.059-6.744,15.059-15.059s-6.742-15.059-15.059-15.059h-20.571
		c-8.317,0-15.059,6.744-15.059,15.059S185.627,439.101,193.944,439.101z"/>
	<path style="fill:#507C5C;" d="M297.486,439.101h20.571c8.317,0,15.059-6.744,15.059-15.059s-6.742-15.059-15.059-15.059h-20.571
		c-8.317,0-15.059,6.744-15.059,15.059S289.169,439.101,297.486,439.101z"/>
	<path style="fill:#507C5C;" d="M401.027,439.101h20.571c8.317,0,15.059-6.744,15.059-15.059s-6.742-15.059-15.059-15.059h-20.571
		c-8.317,0-15.059,6.744-15.059,15.059S392.71,439.101,401.027,439.101z"/>
	<path style="fill:#507C5C;" d="M271.06,189.496c0-8.316-6.742-15.059-15.059-15.059c-21.457,0-38.913-17.457-38.913-38.913
		s17.457-38.913,38.913-38.913s38.913,17.457,38.913,38.913c0,8.316,6.742,15.059,15.059,15.059c8.317,0,15.059-6.744,15.059-15.059
		c0-38.064-30.967-69.032-69.032-69.032s-69.032,30.967-69.032,69.032s30.967,69.032,69.032,69.032
		C264.318,204.556,271.06,197.814,271.06,189.496z"/>
</g>
<g>
</g>
<g>
</g>
<g>
</g>
<g>
</g>
<g>
</g>
<g>
</g>
<g>
</g>
<g>
</g>
<g>
</g>
<g>
</g>
<g>
</g>
<g>
</g>
<g>
</g>
<g>
</g>
<g>
</g>
</svg>
