<?xml version="1.0" encoding="iso-8859-1"?>
<!-- Generator: Adobe Illustrator 19.0.0, SVG Export Plug-In . SVG Version: 6.00 Build 0)  -->
<svg version="1.1" id="Layer_1" xmlns="http://www.w3.org/2000/svg" xmlns:xlink="http://www.w3.org/1999/xlink" x="0px" y="0px"
	 viewBox="0 0 512 512" style="enable-background:new 0 0 512 512;" xml:space="preserve">
<g>
	<rect x="148.148" y="343.365" style="fill:#CFF09E;" width="78.508" height="82.043"/>
	<rect x="285.342" y="201.051" style="fill:#CFF09E;" width="78.508" height="82.043"/>
</g>
<g>
	<path style="fill:#507C5C;" d="M449.727,481.614h-18.991V126.556c0-8.391-6.803-15.193-15.193-15.193H398.07H129.123V30.386
		h253.754v31.391c0,8.391,6.803,15.193,15.193,15.193c8.39,0,15.193-6.802,15.193-15.193V15.193C413.264,6.802,406.46,0,398.07,0
		H113.93c-8.391,0-15.193,6.802-15.193,15.193v96.17h-2.279c-8.391,0-15.193,6.802-15.193,15.193v257.829
		c0,8.391,6.802,15.193,15.193,15.193s15.193-6.802,15.193-15.193V141.749h2.279H398.07h2.279v339.865H96.458H62.273
		c-8.391,0-15.193,6.802-15.193,15.193c0,8.391,6.802,15.193,15.193,15.193h34.185h319.085h34.185
		c8.39,0,15.193-6.802,15.193-15.193C464.92,488.416,458.117,481.614,449.727,481.614z"/>
	<path style="fill:#507C5C;" d="M148.146,298.292h78.508c8.391,0,15.193-6.802,15.193-15.193v-82.043
		c0-8.391-6.802-15.193-15.193-15.193h-78.508c-8.391,0-15.193,6.802-15.193,15.193v82.043
		C132.953,291.49,139.755,298.292,148.146,298.292z M163.339,216.249h48.121v51.657h-48.121V216.249z"/>
	<path style="fill:#507C5C;" d="M132.953,425.408c0,8.391,6.802,15.193,15.193,15.193h78.508c8.391,0,15.193-6.802,15.193-15.193
		v-82.043c0-8.391-6.802-15.193-15.193-15.193h-78.508c-8.391,0-15.193,6.802-15.193,15.193V425.408z M163.339,358.558h48.121
		v51.657h-48.121V358.558z"/>
	<path style="fill:#507C5C;" d="M285.345,298.292h78.508c8.39,0,15.193-6.802,15.193-15.193v-82.043
		c0-8.391-6.803-15.193-15.193-15.193h-78.508c-8.39,0-15.193,6.802-15.193,15.193v82.043
		C270.152,291.49,276.955,298.292,285.345,298.292z M300.538,216.249h48.121v51.657h-48.121V216.249z"/>
	<path style="fill:#507C5C;" d="M270.152,425.408c0,8.391,6.803,15.193,15.193,15.193h78.508c8.39,0,15.193-6.802,15.193-15.193
		v-82.043c0-8.391-6.803-15.193-15.193-15.193h-78.508c-8.39,0-15.193,6.802-15.193,15.193V425.408z M300.538,358.558h48.121v51.657
		h-48.121V358.558z"/>
	<path style="fill:#507C5C;" d="M167.014,51.534c-2.426,0-4.257,1.545-4.257,3.595v38.349c0,2.51,2.832,3.654,5.463,3.654
		s5.463-1.144,5.463-3.654V81.213h5.21c10.056,0,15.594-5.239,15.594-14.75v-0.301c0-9.433-5.324-14.628-14.991-14.628h-12.483
		V51.534z M183.561,66.525v0.664c0,3.497-1.571,5.271-4.667,5.271h-5.21V61.256h5.21C181.99,61.254,183.561,63.027,183.561,66.525z"
		/>
	<path style="fill:#507C5C;" d="M198.11,66.525v15.979c0,9.667,5.517,14.991,15.533,14.991c10.056,0,15.594-5.324,15.594-14.991
		V66.525c0-9.667-5.538-14.991-15.594-14.991C203.625,51.534,198.11,56.857,198.11,66.525z M218.31,66.525v15.979
		c0,3.546-1.527,5.271-4.667,5.271c-3.101,0-4.607-1.724-4.607-5.271V66.525c0-3.546,1.507-5.271,4.607-5.271
		C216.784,61.254,218.31,62.979,218.31,66.525z"/>
	<path style="fill:#507C5C;" d="M240.736,51.534c-3.318,0-5.463,1.411-5.463,3.595v38.349c0,2.51,2.519,3.654,4.859,3.654h19.055
		c2.385,0,3.472-2.519,3.472-4.86c0-2.341-1.086-4.86-3.472-4.86h-12.989V55.128C246.2,52.945,244.054,51.534,240.736,51.534z"/>
	<path style="fill:#507C5C;" d="M266.464,55.128v38.349c0,2.51,2.832,3.654,5.463,3.654c2.631,0,5.463-1.144,5.463-3.654V55.128
		c0-2.183-2.144-3.595-5.463-3.595C268.608,51.534,266.464,52.945,266.464,55.128z"/>
	<path style="fill:#507C5C;" d="M299.016,61.254c4.423,0,4.549,3.172,4.61,4.708c0.088,1.62,1.108,3.552,5.462,3.552
		c3.279,0,5.463-0.887,5.463-5.222c0-7.632-6.389-12.759-15.897-12.759c-9.68,0-15.231,5.463-15.231,14.991v15.979
		c0,9.528,5.552,14.991,15.231,14.991c9.508,0,15.897-5.369,15.897-13.362c0-4.335-2.209-5.222-5.526-5.222
		c-3.391,0-5.208,1.188-5.398,3.535c-0.225,2.916-0.723,5.328-4.549,5.328c-3.183,0-4.73-1.724-4.73-5.271V66.525
		C294.348,62.979,295.875,61.254,299.016,61.254z"/>
	<path style="fill:#507C5C;" d="M345.646,61.254c2.116,0,3.593-2.024,3.593-4.921c0-2.311-1.124-4.8-3.593-4.8H324.18
		c-2.341,0-4.86,1.144-4.86,3.654v38.29c0,2.51,2.519,3.654,4.86,3.654h21.466c2.469,0,3.593-2.489,3.593-4.8
		c0-2.897-1.478-4.92-3.593-4.92h-15.401v-8.732h8.285c2.359,0,3.593-2.173,3.593-4.318c0-2.571-1.512-4.438-3.593-4.438h-8.285
		v-8.671C330.245,61.254,345.646,61.254,345.646,61.254z"/>
</g>
<g>
</g>
<g>
</g>
<g>
</g>
<g>
</g>
<g>
</g>
<g>
</g>
<g>
</g>
<g>
</g>
<g>
</g>
<g>
</g>
<g>
</g>
<g>
</g>
<g>
</g>
<g>
</g>
<g>
</g>
</svg>
