<?xml version="1.0" encoding="iso-8859-1"?>
<!-- Generator: Adobe Illustrator 19.0.0, SVG Export Plug-In . SVG Version: 6.00 Build 0)  -->
<svg version="1.1" id="Layer_1" xmlns="http://www.w3.org/2000/svg" xmlns:xlink="http://www.w3.org/1999/xlink" x="0px" y="0px"
	 viewBox="0 0 512 512" style="enable-background:new 0 0 512 512;" xml:space="preserve">
<path style="fill:#507C5C;" d="M421.894,294.172c-7.983,0-14.457-6.472-14.457-14.457v-48.613c0-7.985,6.474-14.457,14.457-14.457
	s14.457,6.472,14.457,14.457v48.613C436.351,287.7,429.877,294.172,421.894,294.172z"/>
<path style="fill:#CFF09E;" d="M410.827,170.286c0-15.832,7.992-30.264,21.116-41.181H80.056
	c13.124,10.916,21.116,25.349,21.116,41.181c0,30.62-29.874,56.012-69.022,60.816h447.701
	C440.701,226.298,410.827,200.904,410.827,170.286z"/>
<path style="fill:#507C5C;" d="M497.543,245.559H14.457C6.472,245.559,0,239.087,0,231.102v-29.755
	c0-7.985,6.472-14.457,14.457-14.457s14.457,6.472,14.457,14.457v15.298h454.172v-15.298c0-7.985,6.474-14.457,14.457-14.457
	S512,193.362,512,201.347v29.755C512,239.087,505.526,245.559,497.543,245.559z"/>
<g>
	<path style="fill:#CFF09E;" d="M459.718,320.221L459.718,320.221c-20.89,0-37.824-16.935-37.824-37.824v-51.295h75.649v51.295
		C497.543,303.286,480.608,320.221,459.718,320.221z"/>
	<path style="fill:#CFF09E;" d="M256,320.221L256,320.221c-20.89,0-37.824-16.935-37.824-37.824v-51.295h75.649v51.295
		C293.824,303.286,276.889,320.221,256,320.221z"/>
	<path style="fill:#CFF09E;" d="M52.281,320.221L52.281,320.221c-20.89,0-37.824-16.935-37.824-37.824v-51.295h75.649v51.295
		C90.105,303.286,73.171,320.221,52.281,320.221z"/>
</g>
<path style="fill:#507C5C;" d="M497.543,216.645h-16.704c-31.724-4.164-55.555-23.991-55.555-46.359
	c0-9.641,4.463-19.138,12.643-27.118h19.155c7.983,0,14.457-6.472,14.457-14.457V98.955c0-7.985-6.474-14.457-14.457-14.457
	s-14.457,6.472-14.457,14.457v15.298h-16.104c-26.331-3.497-46.093-19.742-46.093-38.023c0-8.77,4.62-17.442,13.011-24.422
	c4.68-3.893,6.419-10.303,4.35-16.03c-2.072-5.726-7.506-9.542-13.595-9.542H127.806c-6.089,0-11.525,3.815-13.595,9.542
	c-2.07,5.726-0.331,12.137,4.35,16.03c8.391,6.98,13.011,15.653,13.011,24.424c0,18.281-19.763,34.526-46.095,38.023H69.373v-15.3
	c0-7.985-6.472-14.457-14.457-14.457s-14.457,6.472-14.457,14.457v29.755c0,7.985,6.472,14.457,14.457,14.457h19.156
	c8.18,7.98,12.643,17.477,12.643,27.118c0,22.368-23.831,42.196-55.555,46.359H14.457C6.472,216.645,0,223.118,0,231.102v51.293
	c0,28.829,23.454,52.282,52.281,52.282c8.397,0,16.329-2.001,23.368-5.534v142.163c0,7.985,6.472,14.457,14.457,14.457h331.788
	c7.983,0,14.457-6.472,14.457-14.457V385.26c0-7.985-6.474-14.457-14.457-14.457s-14.457,6.472-14.457,14.457v71.59H104.563V282.396
	v-36.836h99.155v36.836c0,28.829,23.454,52.282,52.282,52.282s52.281-23.454,52.281-52.282v-36.836h99.156v36.836
	c0,28.829,23.454,52.282,52.281,52.282c28.829,0,52.282-23.454,52.282-52.282v-51.293C512,223.118,505.526,216.645,497.543,216.645z
	 M293.824,216.645h-75.649H95.815c12.51-12.865,19.813-28.962,19.813-46.359c0-9.257-2.086-18.285-6.076-26.724h292.894
	c-3.99,8.437-6.076,17.467-6.076,26.724c0,17.398,7.304,33.494,19.813,46.359H293.824z M156.302,55.151h199.397
	c-2.751,6.718-4.184,13.819-4.184,21.08c0,14.062,5.33,27.166,14.597,38.023H145.888c9.267-10.857,14.596-23.961,14.596-38.023
	C160.484,68.967,159.054,61.87,156.302,55.151z M75.649,282.396c0,12.886-10.483,23.368-23.368,23.368
	c-12.884,0-23.367-10.483-23.367-23.368v-36.836h3.235h43.5C75.649,245.559,75.649,282.396,75.649,282.396z M279.367,282.396
	c0,12.886-10.483,23.368-23.367,23.368c-12.885,0-23.368-10.483-23.368-23.368v-36.836h46.735V282.396z M483.086,282.396
	c0,12.886-10.483,23.368-23.368,23.368c-12.884,0-23.367-10.483-23.367-23.368v-36.836h43.5h3.235V282.396z"/>
<g>
</g>
<g>
</g>
<g>
</g>
<g>
</g>
<g>
</g>
<g>
</g>
<g>
</g>
<g>
</g>
<g>
</g>
<g>
</g>
<g>
</g>
<g>
</g>
<g>
</g>
<g>
</g>
<g>
</g>
</svg>
