<?xml version="1.0" encoding="iso-8859-1"?>
<!-- Generator: Adobe Illustrator 19.0.0, SVG Export Plug-In . SVG Version: 6.00 Build 0)  -->
<svg version="1.1" id="Layer_1" xmlns="http://www.w3.org/2000/svg" xmlns:xlink="http://www.w3.org/1999/xlink" x="0px" y="0px"
	 viewBox="0 0 512.005 512.005" style="enable-background:new 0 0 512.005 512.005;" xml:space="preserve">
<g>
	<path style="fill:#CFF09E;" d="M159.669,238.344L159.669,238.344c-26.601,0-48.166-21.564-48.166-48.166V21.609h96.331v168.57
		C207.835,216.779,186.269,238.344,159.669,238.344z"/>
	<path style="fill:#CFF09E;" d="M352.331,238.344L352.331,238.344c-26.601,0-48.166-21.564-48.166-48.166V21.609h96.331v168.57
		C400.496,216.779,378.932,238.344,352.331,238.344z"/>
	<rect x="191.378" y="312.192" style="fill:#CFF09E;" width="129.249" height="178.209"/>
</g>
<path style="fill:#507C5C;" d="M496.828,104.985c8.379,0,15.172-6.792,15.172-15.172V58.537c0-28.728-23.372-52.099-52.099-52.099
	h-59.404h-96.332h-96.331h-96.332H52.099C23.372,6.437,0,29.809,0,58.537V190.18c0,20.106,9.428,38.04,24.084,49.651v250.563
	c0,8.379,6.792,15.172,15.172,15.172h152.122h129.244h152.124c8.379,0,15.172-6.792,15.172-15.172V312.189
	c0-8.379-6.792-15.172-15.172-15.172c-8.379,0-15.172,6.792-15.172,15.172v163.032h-121.78V312.189
	c0-8.379-6.792-15.172-15.172-15.172H191.378c-8.379,0-15.172,6.792-15.172,15.172v163.032H54.428V252.878
	c2.913,0.413,5.885,0.639,8.91,0.639c19.267,0,36.54-8.659,48.166-22.275c11.626,13.617,28.899,22.275,48.166,22.275
	s36.54-8.659,48.166-22.275c11.626,13.617,28.899,22.275,48.166,22.275s36.54-8.659,48.166-22.275
	c11.626,13.617,28.899,22.275,48.166,22.275c19.267,0,36.54-8.659,48.166-22.275c11.626,13.617,28.899,22.275,48.166,22.275
	c34.924,0,63.338-28.414,63.338-63.338v-26.232c0-8.379-6.792-15.172-15.172-15.172s-15.172,6.792-15.172,15.172v26.232
	c0,18.193-14.8,32.994-32.994,32.994s-32.994-14.8-32.994-32.994V36.78h44.232c11.996,0,21.755,9.76,21.755,21.755v31.277
	C481.656,98.193,488.449,104.985,496.828,104.985z M206.55,327.361h98.901v147.86H206.55V327.361z M63.338,223.173
	c-18.194,0-32.994-14.802-32.994-32.994V58.537c0-11.996,9.76-21.755,21.755-21.755h44.232V190.18
	C96.331,208.371,81.531,223.173,63.338,223.173z M159.669,223.173c-18.193,0-32.994-14.8-32.994-32.994V36.78h65.988v153.398
	C192.663,208.371,177.861,223.173,159.669,223.173z M255.999,223.173c-18.193,0-32.994-14.8-32.994-32.994V36.78h65.987v153.398
	C288.993,208.371,274.193,223.173,255.999,223.173z M352.331,223.173c-18.193,0-32.994-14.8-32.994-32.994V36.78h65.988v153.398
	C385.326,208.371,370.524,223.173,352.331,223.173z"/>
<g>
</g>
<g>
</g>
<g>
</g>
<g>
</g>
<g>
</g>
<g>
</g>
<g>
</g>
<g>
</g>
<g>
</g>
<g>
</g>
<g>
</g>
<g>
</g>
<g>
</g>
<g>
</g>
<g>
</g>
</svg>
