<?xml version="1.0" encoding="iso-8859-1"?>
<!-- Generator: Adobe Illustrator 19.0.0, SVG Export Plug-In . SVG Version: 6.00 Build 0)  -->
<svg version="1.1" id="Layer_1" xmlns="http://www.w3.org/2000/svg" xmlns:xlink="http://www.w3.org/1999/xlink" x="0px" y="0px"
	 viewBox="0 0 511.999 511.999" style="enable-background:new 0 0 511.999 511.999;" xml:space="preserve">
<g>
	<polygon style="fill:#CFF09E;" points="201.429,195.329 105.365,195.329 131.521,36.932 214.507,36.932 	"/>
	<polygon style="fill:#CFF09E;" points="406.635,195.329 310.57,195.329 297.492,36.932 380.479,36.932 	"/>
	<path style="fill:#CFF09E;" d="M189.923,292.385c7.709-7.245,16.499-10.766,26.873-10.766c9.579,0,18.789,3.057,26.914,5.755
		c4.431,1.47,8.677,2.879,12.289,3.533c3.612-0.654,7.859-2.063,12.289-3.533c8.125-2.698,17.335-5.755,26.914-5.755
		c10.374,0,19.163,3.521,26.873,10.766c24.388,22.923,15.939,48.427,10.889,63.664l-0.26,0.791
		c-4.636,14.019-22.042,59.762-51.377,59.762c-15.633,0-20.903-2.551-24.75-4.415c-0.207-0.1-0.399-0.192-0.58-0.28
		c-0.182,0.086-0.374,0.18-0.58,0.28c-3.847,1.865-9.115,4.415-24.75,4.415c-29.335,0-46.739-45.743-51.377-59.762l-0.26-0.791
		C173.986,340.812,165.536,315.308,189.923,292.385z"/>
</g>
<g>
	<path style="fill:#507C5C;" d="M511.057,170.235l-6.41-25.879c-1.879-7.584-9.551-12.214-17.134-10.331
		c-7.584,1.879-12.209,9.55-10.331,17.134l6.41,25.88c0.324,1.304-0.154,2.275-0.611,2.859c-0.457,0.586-1.286,1.282-2.63,1.282
		h-61.714l-14.204-86.017l-7.28-44.084h52.626c1.538,0,2.872,1.043,3.243,2.537l6.642,26.818
		c1.879,7.584,9.551,12.212,17.134,10.331c7.584-1.879,12.209-9.55,10.331-17.134l-6.642-26.818
		c-3.504-14.148-16.131-24.028-30.707-24.028h-69.302h-82.987h-82.985h-82.985H62.219c-14.575,0-27.203,9.881-30.707,24.028
		l-30.57,123.42c-2.356,9.509-0.245,19.386,5.792,27.101c6.037,7.715,15.118,12.14,24.914,12.14h8.092v265.591
		c0,7.814,6.334,14.148,14.148,14.148H458.11c7.814,0,14.148-6.334,14.148-14.148V280.582c0-7.814-6.334-14.148-14.148-14.148
		s-14.147,6.334-14.147,14.148v180.337H68.036V209.475h37.328h96.064h109.142c0.01,0,0.018,0,0.028,0h96.036h0.028h73.687
		c9.796,0,18.877-4.425,24.914-12.14C511.302,189.62,513.413,179.742,511.057,170.235z M227.534,51.079h56.93l10.742,130.101
		h-78.414L227.534,51.079z M29.018,179.898c-0.457-0.584-0.935-1.555-0.611-2.861L58.978,53.616
		c0.371-1.494,1.703-2.537,3.243-2.537h52.626l-5.3,32.098l-16.183,98.004H31.648C30.304,181.181,29.475,180.484,29.018,179.898z
		 M127.34,149.083l16.183-98.004h55.62L188.401,181.18h-66.362L127.34,149.083z M323.599,181.181l-8.375-101.438l-2.367-28.663
		h55.62l16.183,98.004l5.3,32.098h-66.36V181.181z"/>
	<path style="fill:#507C5C;" d="M255.999,242.757c-7.814,0-14.148,6.334-14.148,14.148v14.995
		c-7.402-2.298-15.915-4.428-25.055-4.428c-13.947,0-26.248,4.913-36.563,14.606c-30.969,29.108-19.932,62.416-14.637,78.401
		l0.266,0.804c6.907,20.887,27.049,69.467,64.808,69.467c12.56,0,19.914-1.497,25.328-3.441c5.407,1.942,12.762,3.441,25.331,3.441
		c37.76,0,57.902-48.58,64.813-69.481l0.253-0.768c5.304-16.007,16.339-49.313-14.631-78.424
		c-10.314-9.691-22.613-14.604-36.561-14.604c-9.141,0-17.653,2.131-25.055,4.428v-14.995
		C270.146,249.091,263.813,242.757,255.999,242.757z M295.203,295.765c6.785,0,12.085,2.136,17.184,6.928
		c16.468,15.479,12.98,31.306,7.143,48.926l-0.256,0.777c-8.24,24.915-23.167,50.055-37.944,50.055
		c-12.392,0-15.823-1.662-18.557-2.988l-0.681-0.328c-1.927-0.92-4.008-1.379-6.092-1.379c-2.09,0-4.179,0.463-6.11,1.388
		l-0.641,0.308c-2.756,1.336-6.187,2.999-18.579,2.999c-14.777,0-29.704-25.14-37.939-50.043l-0.267-0.812
		c-5.832-17.6-9.318-33.426,7.149-48.904c5.099-4.793,10.4-6.929,17.184-6.929c7.292,0,15.002,2.559,22.462,5.037
		c4.732,1.569,9.626,3.193,14.222,4.025c1.667,0.301,3.373,0.301,5.039,0c4.596-0.832,9.49-2.456,14.228-4.028
		C280.201,298.324,287.912,295.765,295.203,295.765z"/>
</g>
<g>
</g>
<g>
</g>
<g>
</g>
<g>
</g>
<g>
</g>
<g>
</g>
<g>
</g>
<g>
</g>
<g>
</g>
<g>
</g>
<g>
</g>
<g>
</g>
<g>
</g>
<g>
</g>
<g>
</g>
</svg>
