<?xml version="1.0" encoding="iso-8859-1"?>
<!-- Generator: Adobe Illustrator 19.0.0, SVG Export Plug-In . SVG Version: 6.00 Build 0)  -->
<svg version="1.1" id="Layer_1" xmlns="http://www.w3.org/2000/svg" xmlns:xlink="http://www.w3.org/1999/xlink" x="0px" y="0px"
	 viewBox="0 0 512 512" style="enable-background:new 0 0 512 512;" xml:space="preserve">
<path style="fill:#CFF09E;" d="M451.809,417.13c0.203,0,0.403,0.013,0.604,0.016V267.234c-0.201,0.003-0.401,0.016-0.604,0.016
	c-26.703,0-48.35-21.647-48.35-48.35H107.937c0,26.704-21.647,48.35-48.35,48.35v149.88c26.703,0,48.35,21.647,48.35,48.35h295.521
	C403.458,438.777,425.105,417.13,451.809,417.13z"/>
<path style="fill:#507C5C;" d="M497.507,32.028H14.493C6.489,32.028,0,38.518,0,46.521v71.016c0,8.003,6.489,14.493,14.493,14.493
	h319.78v72.376H177.729v-26.714c0-8.003-6.489-14.493-14.493-14.493s-14.493,6.49-14.493,14.493v26.714h-40.805
	c-8.005,0-14.493,6.49-14.493,14.493c0,18.67-15.187,33.857-33.857,33.857c-8.005,0-14.493,6.49-14.493,14.493v149.88
	c0,8.003,6.489,14.493,14.493,14.493c18.669,0,33.857,15.187,33.857,33.856c0,8.003,6.489,14.493,14.493,14.493h295.521
	c8.005,0,14.493-6.49,14.493-14.493c0-18.628,15.121-33.789,33.733-33.856l0.526,0.014c3.875,0.072,7.616-1.448,10.379-4.173
	c2.762-2.723,4.318-6.439,4.318-10.319V267.234c0-3.88-1.555-7.596-4.318-10.319c-2.761-2.725-6.496-4.271-10.379-4.173
	l-0.513,0.014c-18.619-0.059-33.747-15.225-33.747-33.857c0-8.003-6.489-14.493-14.493-14.493h-40.201v-86.869
	c0-8.003-6.489-14.493-14.493-14.493l0,0l0,0H28.986v-42.03h454.028v42.03h-55.997c-8.005,0-14.493,6.49-14.493,14.493
	s6.489,14.493,14.493,14.493h70.49c8.005,0,14.493-6.49,14.493-14.493V46.521C512,38.518,505.511,32.028,497.507,32.028z
	 M390.652,233.392c5.506,23.234,23.948,41.523,47.268,46.804v123.988c-23.319,5.281-41.762,23.569-47.268,46.803H120.745
	c-5.458-23.032-23.631-41.205-46.663-46.662V280.057c23.032-5.458,41.205-23.631,46.663-46.663h27.998v44.544
	c0,8.003,6.489,14.493,14.493,14.493s14.493-6.49,14.493-14.493v-44.544h156.544v44.544c0,8.003,6.489,14.493,14.493,14.493
	s14.493-6.49,14.493-14.493v-44.544h27.393V233.392z"/>
<g>
</g>
<g>
</g>
<g>
</g>
<g>
</g>
<g>
</g>
<g>
</g>
<g>
</g>
<g>
</g>
<g>
</g>
<g>
</g>
<g>
</g>
<g>
</g>
<g>
</g>
<g>
</g>
<g>
</g>
</svg>
