<?xml version="1.0" encoding="iso-8859-1"?>
<!-- Generator: Adobe Illustrator 19.0.0, SVG Export Plug-In . SVG Version: 6.00 Build 0)  -->
<svg version="1.1" id="Layer_1" xmlns="http://www.w3.org/2000/svg" xmlns:xlink="http://www.w3.org/1999/xlink" x="0px" y="0px"
	 viewBox="0 0 512 512" style="enable-background:new 0 0 512 512;" xml:space="preserve">
<g>
	<rect x="310.892" y="207.278" style="fill:#CFF09E;" width="65.881" height="290.999"/>
	<rect x="135.227" y="207.278" style="fill:#CFF09E;" width="65.881" height="290.999"/>
</g>
<path style="fill:#507C5C;" d="M403.568,484.546h-13.069V207.278c0-7.581-6.146-13.727-13.727-13.727H310.89
	c-7.581,0-13.727,6.146-13.727,13.727v48.96h-82.324v-48.96c0-7.581-6.146-13.727-13.727-13.727h-33.878V127.63h39.807h97.919
	h39.807v24.499c0,7.581,6.146,13.727,13.727,13.727c7.581,0,13.727-6.146,13.727-13.727v-38.226c0-7.581-6.146-13.727-13.727-13.727
	h-39.806V69.551c0-7.581-6.146-13.727-13.727-13.727h-35.233V13.727C269.728,6.146,263.583,0,256.001,0s-13.727,6.146-13.727,13.727
	v42.097h-35.233c-7.581,0-13.727,6.146-13.727,13.727v30.626h-39.807c-7.581,0-13.727,6.146-13.727,13.727v79.647h-4.549
	c-7.581,0-13.727,6.146-13.727,13.727v277.268h-13.069c-7.581,0-13.727,6.146-13.727,13.727S100.853,512,108.435,512h295.131
	c7.581,0,13.727-6.146,13.727-13.727S411.15,484.546,403.568,484.546z M220.77,83.278h70.465v16.899H220.77V83.278z
	 M187.387,484.546h-38.427V221.005h38.427V484.546z M297.163,484.546H214.84v-48.027h82.324V484.546z M297.163,409.065H214.84
	v-48.96h41.162c7.581,0,13.727-6.146,13.727-13.727s-6.146-13.727-13.727-13.727H214.84v-48.96h82.324L297.163,409.065
	L297.163,409.065z M363.045,484.546h-38.427V221.005h38.427V484.546z"/>
<g>
</g>
<g>
</g>
<g>
</g>
<g>
</g>
<g>
</g>
<g>
</g>
<g>
</g>
<g>
</g>
<g>
</g>
<g>
</g>
<g>
</g>
<g>
</g>
<g>
</g>
<g>
</g>
<g>
</g>
</svg>
