<?xml version="1.0" encoding="iso-8859-1"?>
<!-- Generator: Adobe Illustrator 19.0.0, SVG Export Plug-In . SVG Version: 6.00 Build 0)  -->
<svg version="1.1" id="Layer_1" xmlns="http://www.w3.org/2000/svg" xmlns:xlink="http://www.w3.org/1999/xlink" x="0px" y="0px"
	 viewBox="0 0 512 512" style="enable-background:new 0 0 512 512;" xml:space="preserve">
<g>
	<path style="fill:#507C5C;" d="M211.517,262.273h-65.959c-7.776,0-14.079-6.303-14.079-14.079s6.303-14.079,14.079-14.079h65.959
		c7.776,0,14.079,6.303,14.079,14.079S219.293,262.273,211.517,262.273z"/>
	<path style="fill:#507C5C;" d="M211.517,326.096h-65.959c-7.776,0-14.079-6.303-14.079-14.079s6.303-14.079,14.079-14.079h65.959
		c7.776,0,14.079,6.303,14.079,14.079S219.293,326.096,211.517,326.096z"/>
	<path style="fill:#507C5C;" d="M211.517,389.92h-65.959c-7.776,0-14.079-6.303-14.079-14.079c0-7.776,6.303-14.079,14.079-14.079
		h65.959c7.776,0,14.079,6.303,14.079,14.079C225.596,383.617,219.293,389.92,211.517,389.92z"/>
	<path style="fill:#507C5C;" d="M211.517,453.745h-65.959c-7.776,0-14.079-6.303-14.079-14.079c0-7.776,6.303-14.079,14.079-14.079
		h65.959c7.776,0,14.079,6.303,14.079,14.079C225.596,447.442,219.293,453.745,211.517,453.745z"/>
</g>
<rect x="256.206" y="129.103" style="fill:#CFF09E;" width="154.515" height="368.823"/>
<g>
	<path style="fill:#507C5C;" d="M366.442,262.273h-65.959c-7.776,0-14.079-6.303-14.079-14.079s6.303-14.079,14.079-14.079h65.959
		c7.776,0,14.079,6.303,14.079,14.079S374.218,262.273,366.442,262.273z"/>
	<path style="fill:#507C5C;" d="M366.442,326.096h-65.959c-7.776,0-14.079-6.303-14.079-14.079s6.303-14.079,14.079-14.079h65.959
		c7.776,0,14.079,6.303,14.079,14.079S374.218,326.096,366.442,326.096z"/>
	<path style="fill:#507C5C;" d="M366.442,389.92h-65.959c-7.776,0-14.079-6.303-14.079-14.079c0-7.776,6.303-14.079,14.079-14.079
		h65.959c7.776,0,14.079,6.303,14.079,14.079C380.521,383.617,374.218,389.92,366.442,389.92z"/>
	<path style="fill:#507C5C;" d="M366.442,453.745h-65.959c-7.776,0-14.079-6.303-14.079-14.079c0-7.776,6.303-14.079,14.079-14.079
		h65.959c7.776,0,14.079,6.303,14.079,14.079C380.521,447.442,374.218,453.745,366.442,453.745z"/>
	<path style="fill:#507C5C;" d="M472.344,483.842h-47.546v-354.74c0-7.776-6.303-14.079-14.079-14.079h-24.155h-92.128V73.807
		h92.128c7.776,0,14.079-6.303,14.079-14.079s-6.303-14.079-14.079-14.079h-39.024v-31.57C347.541,6.303,341.238,0,333.462,0
		s-14.079,6.303-14.079,14.079v31.57H280.36c-7.776,0-14.079,6.303-14.079,14.079v55.296h-10.076
		c-7.776,0-14.079,6.303-14.079,14.079v46.756H101.28c-7.776,0-14.079,6.303-14.079,14.079v52.687
		c0,7.776,6.303,14.079,14.079,14.079s14.079-6.303,14.079-14.079v-38.608h126.357v279.826H115.359V313.511
		c0-7.776-6.303-14.079-14.079-14.079s-14.079,6.303-14.079,14.079v170.331H39.656c-7.776,0-14.079,6.303-14.079,14.079
		S31.88,512,39.656,512h61.624h154.515h0.408h154.515h61.626c7.776,0,14.079-6.303,14.079-14.079S480.12,483.842,472.344,483.842z
		 M270.284,483.842V143.182h10.076h106.206h10.076v340.661H270.284z"/>
</g>
<g>
</g>
<g>
</g>
<g>
</g>
<g>
</g>
<g>
</g>
<g>
</g>
<g>
</g>
<g>
</g>
<g>
</g>
<g>
</g>
<g>
</g>
<g>
</g>
<g>
</g>
<g>
</g>
<g>
</g>
</svg>
