<?xml version="1.0" encoding="iso-8859-1"?>
<!-- Generator: Adobe Illustrator 19.0.0, SVG Export Plug-In . SVG Version: 6.00 Build 0)  -->
<svg version="1.1" id="Layer_1" xmlns="http://www.w3.org/2000/svg" xmlns:xlink="http://www.w3.org/1999/xlink" x="0px" y="0px"
	 viewBox="0 0 512.003 512.003" style="enable-background:new 0 0 512.003 512.003;" xml:space="preserve">
<g>
	<polygon style="fill:#CFF09E;" points="352.044,148.07 159.96,148.07 208.235,80.783 303.768,80.783 	"/>
	<circle style="fill:#CFF09E;" cx="256.001" cy="47.287" r="33.548"/>
	<rect x="222.451" y="429.579" style="fill:#CFF09E;" width="67.095" height="68.687"/>
</g>
<g>
	<path style="fill:#507C5C;" d="M314.931,72.774c-2.58-3.597-6.736-5.731-11.163-5.731h-4.821
		c2.779-6.016,4.342-12.706,4.342-19.757C303.289,21.212,282.077,0,256.001,0c-26.074,0-47.286,21.212-47.286,47.287
		c0,7.051,1.562,13.74,4.342,19.757h-4.822c-4.427,0-8.583,2.134-11.163,5.731l-48.275,67.287c-3.003,4.185-3.413,9.7-1.059,14.283
		c2.353,4.583,7.071,7.466,12.222,7.466h1.003l27.636,101.519c1.628,5.981,7.059,10.13,13.257,10.13h40.408v142.379h-19.808
		c-7.588,0-13.739,6.152-13.739,13.739v68.686c0,7.587,6.151,13.739,13.739,13.739h67.095c7.587,0,13.739-6.152,13.739-13.739
		v-68.686c0-7.587-6.152-13.739-13.739-13.739h-19.81V273.457h40.408c6.199,0,11.629-4.151,13.255-10.13l15.197-55.825
		c1.994-7.322-2.326-14.873-9.646-16.865c-7.324-1.996-14.873,2.326-16.865,9.646l-12.439,45.695h-29.91v-33.033
		c0-7.587-6.152-13.739-13.739-13.739c-7.588,0-13.739,6.152-13.739,13.739v33.033h-29.91l-22.913-84.171h162.603
		c0.008,0,0.018,0,0.027,0c7.588,0,13.739-6.152,13.739-13.739c0-3.273-1.144-6.279-3.054-8.639L314.931,72.774z M275.81,484.522
		h-39.617v-41.208h39.617V484.522L275.81,484.522z M236.194,47.287c0-10.923,8.886-19.809,19.808-19.809
		c10.923,0,19.809,8.886,19.809,19.809c0,10.582-8.349,19.228-18.803,19.757h-2.013C244.542,66.515,236.194,57.869,236.194,47.287z
		 M186.726,134.33l28.561-39.809h38.704c0.668,0.029,1.335,0.051,2.01,0.051c0.675,0,1.342-0.023,2.01-0.051h38.704l28.561,39.809
		H186.726z"/>
	<path style="fill:#507C5C;" d="M421.185,181.608l-31.59-13.749c-6.956-3.031-15.053,0.155-18.079,7.115
		c-3.028,6.956,0.157,15.053,7.115,18.079l31.59,13.749c1.786,0.778,3.644,1.146,5.475,1.146c5.302,0,10.354-3.089,12.604-8.261
		C431.327,192.73,428.142,184.635,421.185,181.608z"/>
	<path style="fill:#507C5C;" d="M384.118,135.768c1.83,0,3.692-0.37,5.475-1.146l31.59-13.747
		c6.957-3.027,10.144-11.122,7.115-18.079c-3.027-6.957-11.127-10.144-18.079-7.115l-31.59,13.747
		c-6.957,3.027-10.144,11.122-7.115,18.079C373.764,132.68,378.816,135.768,384.118,135.768z"/>
	<path style="fill:#507C5C;" d="M122.41,167.86l-31.592,13.749c-6.957,3.027-10.142,11.123-7.115,18.079
		c2.252,5.173,7.302,8.261,12.604,8.261c1.831,0,3.69-0.37,5.476-1.146l31.59-13.749c6.957-3.027,10.144-11.123,7.115-18.079
		C137.462,168.016,129.364,164.83,122.41,167.86z"/>
	<path style="fill:#507C5C;" d="M90.819,120.875l31.592,13.747c1.785,0.778,3.645,1.146,5.475,1.146
		c5.302,0,10.354-3.089,12.604-8.261c3.028-6.957-0.158-15.053-7.115-18.079l-31.592-13.746c-6.953-3.029-15.053,0.157-18.081,7.115
		C80.676,109.755,83.862,117.848,90.819,120.875z"/>
</g>
<g>
</g>
<g>
</g>
<g>
</g>
<g>
</g>
<g>
</g>
<g>
</g>
<g>
</g>
<g>
</g>
<g>
</g>
<g>
</g>
<g>
</g>
<g>
</g>
<g>
</g>
<g>
</g>
<g>
</g>
</svg>
