<?xml version="1.0" encoding="iso-8859-1"?>
<!-- Generator: Adobe Illustrator 19.0.0, SVG Export Plug-In . SVG Version: 6.00 Build 0)  -->
<svg version="1.1" id="Layer_1" xmlns="http://www.w3.org/2000/svg" xmlns:xlink="http://www.w3.org/1999/xlink" x="0px" y="0px"
	 viewBox="0 0 512 512" style="enable-background:new 0 0 512 512;" xml:space="preserve">
<path style="fill:#CFF09E;" d="M162.135,395.253L88.471,267.662c-4.167-7.218-4.167-16.108,0-23.326l73.664-127.591
	c4.167-7.218,11.866-11.663,20.201-11.663h147.329c8.333,0,16.034,4.445,20.201,11.663l73.664,127.591
	c4.167,7.218,4.167,16.108,0,23.326l-73.664,127.591c-4.167,7.218-11.866,11.663-20.201,11.663H182.336
	C174.002,406.916,166.302,402.471,162.135,395.253z"/>
<g>
	<path style="fill:#507C5C;" d="M506.855,236.741l-69.12-119.72c-4.194-7.266-13.487-9.758-20.752-5.56
		c-7.266,4.196-9.756,13.486-5.56,20.752l69.12,119.72c1.448,2.508,1.448,5.624,0,8.134L371.794,448.426
		c-1.448,2.508-4.147,4.067-7.045,4.067H147.252c-2.897,0-5.597-1.557-7.045-4.067L31.458,260.067c-1.448-2.508-1.448-5.624,0-8.134
		L140.207,63.574c1.448-2.508,4.147-4.067,7.045-4.067h154.334c8.391,0,15.192-6.803,15.192-15.192s-6.801-15.192-15.192-15.192
		H147.252c-13.717,0-26.498,7.379-33.357,19.259L5.144,236.741c-6.859,11.879-6.859,26.638,0,38.518l108.75,188.359
		c6.859,11.879,19.64,19.259,33.357,19.259h217.497c13.717,0,26.498-7.379,33.357-19.259l108.749-188.359
		C513.716,263.379,513.716,248.62,506.855,236.741z"/>
	<path style="fill:#507C5C;" d="M148.979,109.151l-73.664,127.59c-6.859,11.879-6.859,26.638,0,38.518l73.663,127.59
		c6.859,11.879,19.64,19.26,33.359,19.26h147.33c13.717,0,26.499-7.38,33.357-19.26l73.664-127.59
		c6.859-11.879,6.859-26.638,0-38.518l-73.663-127.59c-6.859-11.879-19.64-19.26-33.359-19.26h-147.33
		C168.618,89.891,155.837,97.271,148.979,109.151z M336.709,124.343l73.664,127.59c1.448,2.508,1.448,5.624,0,8.134l-73.664,127.59
		c-1.448,2.508-4.147,4.068-7.043,4.068h-147.33c-2.896,0-5.595-1.559-7.045-4.068l-73.664-127.59c-1.448-2.508-1.448-5.624,0-8.134
		l73.664-127.59c1.448-2.508,4.147-4.068,7.043-4.068h147.33C332.56,120.275,335.26,121.834,336.709,124.343z"/>
	<path style="fill:#507C5C;" d="M142.331,238.368c0,24.78,33.568,22.556,33.568,35.37c0,5.082-5.401,6.988-10.271,6.988
		c-9.849,0-13.026-7.836-18.002-7.836c-4.024,0-7.201,5.294-7.201,8.893c0,6.99,11.648,13.767,25.521,13.767
		c15.355,0,26.474-8.26,26.474-23.508c0-26.683-33.568-24.673-33.568-35.262c0-3.283,3.07-6.353,10.589-6.353
		c8.684,0,10.695,4.024,14.508,4.024c4.659,0,6.566-5.823,6.566-8.682c0-8.261-15.461-9.319-21.073-9.319
		C156.203,216.449,142.331,222.485,142.331,238.368z"/>
	<path style="fill:#507C5C;" d="M200.673,231.91h14.613v57.499c0,3.389,4.129,5.083,8.26,5.083c4.129,0,8.26-1.694,8.26-5.083
		V231.91h14.613c3.177,0,4.977-3.496,4.977-7.52c0-3.494-1.483-7.306-4.977-7.306h-45.746c-3.494,0-4.977,3.812-4.977,7.306
		C195.696,228.415,197.496,231.91,200.673,231.91z"/>
	<path style="fill:#507C5C;" d="M281.889,295.129c14.613,0,26.05-6.777,26.05-24.991v-28.061c0-18.215-11.437-24.992-26.05-24.992
		c-14.613,0-25.943,6.777-25.943,24.992v28.061C255.946,288.35,267.276,295.129,281.889,295.129z M272.465,242.075
		c0-7.307,3.494-10.59,9.424-10.59c5.931,0,9.531,3.283,9.531,10.59v28.061c0,7.307-3.6,10.589-9.531,10.589
		c-5.929,0-9.424-3.283-9.424-10.589V242.075z"/>
	<path style="fill:#507C5C;" d="M326.783,294.492c4.131,0,8.26-1.694,8.26-5.083v-22.872h10.484c14.613,0,26.05-6.777,26.05-24.568
		v-0.529c0-17.79-11.013-24.356-24.991-24.356h-21.921c-3.707,0-6.142,2.33-6.142,4.978v67.348
		C318.523,292.8,322.654,294.492,326.783,294.492z M335.043,231.485h10.484c5.931,0,9.53,3.388,9.53,10.59v1.165
		c0,7.201-3.6,10.589-9.53,10.589h-10.484V231.485z"/>
</g>
<g>
</g>
<g>
</g>
<g>
</g>
<g>
</g>
<g>
</g>
<g>
</g>
<g>
</g>
<g>
</g>
<g>
</g>
<g>
</g>
<g>
</g>
<g>
</g>
<g>
</g>
<g>
</g>
<g>
</g>
</svg>
