<?xml version="1.0" encoding="iso-8859-1"?>
<!-- Generator: Adobe Illustrator 19.0.0, SVG Export Plug-In . SVG Version: 6.00 Build 0)  -->
<svg version="1.1" id="Layer_1" xmlns="http://www.w3.org/2000/svg" xmlns:xlink="http://www.w3.org/1999/xlink" x="0px" y="0px"
	 viewBox="0 0 512 512" style="enable-background:new 0 0 512 512;" xml:space="preserve">
<g>
	<path style="fill:#507C5C;" d="M377.902,512H104.666c-33.032,0-59.907-26.875-59.907-59.908V59.907
		C44.759,26.875,71.634,0,104.666,0h273.236c33.032,0,59.907,26.875,59.907,59.907v392.186C437.809,485.125,410.935,512,377.902,512
		z M104.666,28.714c-17.2,0-31.193,13.992-31.193,31.193v392.186c0,17.2,13.994,31.195,31.193,31.195h273.236
		c17.2,0,31.193-13.994,31.193-31.195V59.907c0-17.201-13.994-31.193-31.193-31.193H104.666z"/>
	<path style="fill:#507C5C;" d="M342.955,454.571H139.614c-20.638,0-37.427-16.789-37.427-37.426V94.853
		c0-20.638,16.789-37.427,37.427-37.427h203.341c20.638,0,37.427,16.789,37.427,37.427v60.487h-28.714V94.853
		c0-4.805-3.909-8.713-8.713-8.713H139.614c-4.804,0-8.713,3.909-8.713,8.713v322.291c0,4.804,3.909,8.712,8.713,8.712h203.341
		c4.804,0,8.713-3.909,8.713-8.712V239.568h28.714v177.578C380.382,437.782,363.591,454.571,342.955,454.571z"/>
	<rect x="16.674" y="83.246" style="fill:#507C5C;" width="99.867" height="28.714"/>
	<rect x="16.674" y="162.448" style="fill:#507C5C;" width="89.731" height="28.714"/>
	<rect x="16.674" y="241.641" style="fill:#507C5C;" width="89.731" height="28.714"/>
	<rect x="16.674" y="320.848" style="fill:#507C5C;" width="89.731" height="28.714"/>
	<rect x="16.674" y="400.041" style="fill:#507C5C;" width="99.867" height="28.714"/>
</g>
<path style="fill:#CFF09E;" d="M456.684,140.702h-33.232V56.278h33.232c13.412,0,24.285,10.872,24.285,24.285v35.853
	C480.969,129.829,470.097,140.702,456.684,140.702z"/>
<g>
	<path style="fill:#507C5C;" d="M456.684,155.059h-47.589V41.921h47.589c21.307,0,38.642,17.335,38.642,38.642v35.855
		C495.326,137.724,477.991,155.059,456.684,155.059z M437.809,126.345h18.875c5.474,0,9.928-4.455,9.928-9.928V80.562
		c0-5.474-4.453-9.928-9.928-9.928h-18.875V126.345z"/>
	<path style="fill:#507C5C;" d="M456.684,238.414h-47.589V125.275h47.589c21.307,0,38.642,17.335,38.642,38.642v35.855
		C495.326,221.078,477.991,238.414,456.684,238.414z M437.809,209.7h18.875c5.474,0,9.928-4.455,9.928-9.928v-35.855
		c0-5.474-4.453-9.928-9.928-9.928h-18.875V209.7z"/>
</g>
<path style="fill:#CFF09E;" d="M456.684,308.481h-33.232v-84.424h33.232c13.412,0,24.285,10.872,24.285,24.285v35.853
	C480.969,297.608,470.097,308.481,456.684,308.481z"/>
<path style="fill:#507C5C;" d="M456.684,322.838h-47.589v-113.14h47.589c21.307,0,38.642,17.335,38.642,38.643v35.854
	C495.326,305.503,477.991,322.838,456.684,322.838z M437.809,294.124h18.875c5.474,0,9.928-4.455,9.928-9.929v-35.853
	c0-5.474-4.453-9.929-9.928-9.929h-18.875V294.124z"/>
<g>
</g>
<g>
</g>
<g>
</g>
<g>
</g>
<g>
</g>
<g>
</g>
<g>
</g>
<g>
</g>
<g>
</g>
<g>
</g>
<g>
</g>
<g>
</g>
<g>
</g>
<g>
</g>
<g>
</g>
</svg>
