<?xml version="1.0" encoding="iso-8859-1"?>
<!-- Generator: Adobe Illustrator 19.0.0, SVG Export Plug-In . SVG Version: 6.00 Build 0)  -->
<svg version="1.1" id="Layer_1" xmlns="http://www.w3.org/2000/svg" xmlns:xlink="http://www.w3.org/1999/xlink" x="0px" y="0px"
	 viewBox="0 0 512 512" style="enable-background:new 0 0 512 512;" xml:space="preserve">
<g>
	<path style="fill:#507C5C;" d="M318.225,512c-9.727,0-19.035-0.641-27.668-1.903l-0.177-0.027
		c-2.177-0.322-4.334-0.686-6.406-1.081l-0.232-0.046c-9.7-1.876-19.997-6.005-26.938-9.145c-0.097-0.01-0.195,0-0.332,0.069
		C245.314,505.4,225.373,512,193.751,512c-41.657,0-71.751-21.38-92.003-65.364c-17.326-37.638-26.171-88.834-34.422-142.398
		c-5.84-37.916,2.694-71.507,24.681-97.141c27.221-31.734,70.745-45.938,101.805-45.938c9.756,0,17.978,1.378,24.438,4.096
		c13.532,5.694,30.108,10.153,37.735,10.153s24.203-4.46,37.738-10.153c7.309-3.076,16.862-4.452,28.392-4.019
		c2.055,0.078,4.192,0.217,6.354,0.415c3.56,0.326,7.256,0.827,10.99,1.487c0.774,0.136,1.559,0.282,2.348,0.436
		c1.24,0.24,2.489,0.499,3.75,0.779c0.894,0.198,1.787,0.406,2.688,0.621c4.344,1.048,8.702,2.306,12.961,3.744
		c6.493,2.192,12.816,4.813,18.791,7.789l0.286,0.142c4.186,2.097,8.314,4.433,12.272,6.946c0.478,0.304,0.943,0.602,1.405,0.904
		c2.743,1.79,5.456,3.708,8.049,5.695c0.461,0.353,0.91,0.702,1.36,1.056c15.627,12.319,27.212,27.393,34.442,44.806
		c1.232,2.968,2.374,6.138,3.393,9.421c0.843,2.708,1.545,5.282,2.147,7.861c1.426,6.132,2.372,12.554,2.814,19.092
		c0.111,1.664,0.192,3.338,0.241,5.033c0.048,1.707,0.064,3.42,0.048,5.155l-0.008,0.316c-0.081,6.896-0.687,14.065-1.805,21.308
		c-11.33,73.554-23.227,137.451-54.127,174.445c-0.783,0.939-1.581,1.861-2.39,2.764C370.005,501.718,346.482,512,318.225,512z
		 M294.99,480.474c7.166,1.044,14.987,1.574,23.236,1.574c19.914,0,35.036-6.537,47.587-20.573c0.587-0.656,1.158-1.318,1.722-1.993
		c25.957-31.077,36.874-90.76,47.512-159.808c0.909-5.902,1.402-11.699,1.46-17.229l0.004-0.283c0.01-1.298-0.003-2.582-0.037-3.849
		c-0.037-1.301-0.1-2.601-0.186-3.885c-0.334-4.925-1.039-9.743-2.103-14.312c-0.431-1.858-0.948-3.741-1.574-5.754
		c-0.75-2.417-1.575-4.711-2.456-6.83c-5.244-12.632-13.761-23.655-25.316-32.765c-0.343-0.271-0.695-0.542-1.045-0.812
		c-1.987-1.521-4.076-2.998-6.198-4.383c-0.368-0.241-0.731-0.472-1.093-0.704c-3.089-1.96-6.324-3.79-9.601-5.433l-0.267-0.133
		c-4.756-2.368-9.803-4.458-15.005-6.213c-3.42-1.155-6.914-2.164-10.387-3.001c-0.714-0.172-1.435-0.338-2.153-0.499
		c-0.999-0.22-1.993-0.428-2.979-0.618c-0.62-0.121-1.235-0.235-1.848-0.343c-2.929-0.518-5.795-0.906-8.527-1.158
		c-1.625-0.15-3.22-0.253-4.738-0.31c-0.964-0.036-1.911-0.055-2.838-0.055c-8.034,0-11.844,1.34-12.82,1.751
		c-14.788,6.219-35.782,12.495-49.351,12.495c-13.572,0-34.565-6.276-49.35-12.495c-0.976-0.412-4.789-1.752-12.823-1.752
		c-23.424,0-58.158,11.106-79.073,35.487c-16.353,19.065-22.346,43.653-17.813,73.081c16.45,106.785,33.027,182.373,96.822,182.373
		c27.179,0,42.623-5.649,49.41-9.015c4.217-2.091,8.915-3.197,13.587-3.197c4.31,0,8.481,0.899,12.398,2.672
		c7.769,3.515,14.996,6.016,20.347,7.041l0.205,0.04c1.652,0.313,3.377,0.602,5.131,0.861L294.99,480.474z"/>
	<path style="fill:#507C5C;" d="M123.698,314.545c-4.588-29.788,4.988-55.639,26.968-72.792
		c22.76-17.764,54.933-22.59,70.697-15.962L209.748,253.4l0.019,0.007c-4.069-1.568-24.901-0.755-41.278,12.437
		c-12.981,10.456-18.09,25.307-15.188,44.143L123.698,314.545z"/>
</g>
<path style="fill:#CFF09E;" d="M379.382,20.095c-32.574-11.281-70.172-3.922-96.184,22.09
	c-26.012,26.012-33.373,63.609-22.09,96.184c32.574,11.281,70.172,3.922,96.184-22.09C383.304,90.267,390.665,52.67,379.382,20.095z
	"/>
<g>
	<path style="fill:#507C5C;" d="M291.598,158.466c-0.003,0-0.002,0-0.003,0c-12.093,0-23.998-2.001-35.388-5.945l-6.871-2.38
		l-2.38-6.871c-13.443-38.813-3.374-82.647,25.653-111.674C292.987,11.221,320.078,0,348.896,0c12.091,0,23.998,1.999,35.388,5.945
		l6.871,2.38l2.38,6.871c13.443,38.813,3.374,82.649-25.651,111.674C347.506,147.244,320.412,158.466,291.598,158.466z
		 M273.147,126.317c6.022,1.462,12.199,2.198,18.448,2.198c20.817,0,40.389-8.106,55.108-22.825
		c19.522-19.52,27.113-47.133,20.641-73.541c-6.02-1.462-12.197-2.198-18.448-2.198c-20.816,0-40.389,8.106-55.106,22.825
		C274.267,72.297,266.673,99.91,273.147,126.317z"/>
	<rect x="241.013" y="109.184" style="fill:#507C5C;" width="29.951" height="89.852"/>
</g>
<g>
</g>
<g>
</g>
<g>
</g>
<g>
</g>
<g>
</g>
<g>
</g>
<g>
</g>
<g>
</g>
<g>
</g>
<g>
</g>
<g>
</g>
<g>
</g>
<g>
</g>
<g>
</g>
<g>
</g>
</svg>
