<?xml version="1.0" encoding="iso-8859-1"?>
<!-- Generator: Adobe Illustrator 19.0.0, SVG Export Plug-In . SVG Version: 6.00 Build 0)  -->
<svg version="1.1" id="Layer_1" xmlns="http://www.w3.org/2000/svg" xmlns:xlink="http://www.w3.org/1999/xlink" x="0px" y="0px"
	 viewBox="0 0 512 512" style="enable-background:new 0 0 512 512;" xml:space="preserve">
<g>
	<path style="fill:#507C5C;" d="M318.75,222.774H193.248c-25.582,0-46.395-20.813-46.395-46.395V46.395
		C146.853,20.813,167.666,0,193.248,0H318.75c25.582,0,46.395,20.813,46.395,46.395v129.984
		C365.144,201.961,344.331,222.774,318.75,222.774z M193.248,28.47c-9.883,0-17.925,8.04-17.925,17.925v129.984
		c0,9.883,8.04,17.925,17.925,17.925H318.75c9.883,0,17.925-8.04,17.925-17.925V46.395c0-9.883-8.04-17.925-17.925-17.925H193.248z"
		/>
	<path style="fill:#507C5C;" d="M279.37,165.834h-46.742c-15.899,0-28.834-12.935-28.834-28.834V85.775
		c0-15.899,12.935-28.834,28.834-28.834h46.742v28.47h-46.742c-0.201,0-0.364,0.164-0.364,0.364v51.225
		c0,0.201,0.164,0.364,0.364,0.364h46.742V165.834z"/>
	<rect x="241.768" y="196.315" style="fill:#507C5C;" width="28.47" height="133.937"/>
</g>
<path style="fill:#CFF09E;" d="M264.98,274.837l28.08,68.486l73.811,5.543c8.656,0.651,12.172,11.468,5.55,17.082l-56.456,47.87
	l17.538,71.911c2.057,8.434-7.146,15.12-14.531,10.558L256,457.386l-62.974,38.9c-7.385,4.562-16.588-2.124-14.531-10.558
	l17.538-71.911l-56.456-47.87c-6.621-5.614-3.106-16.433,5.55-17.082l73.812-5.543l28.08-68.486
	C250.31,266.804,261.686,266.804,264.98,274.837z"/>
<path style="fill:#507C5C;" d="M324.061,512c-4.409,0-8.755-1.246-12.572-3.603l-55.49-34.281l-55.49,34.281
	c-3.818,2.357-8.164,3.603-12.571,3.603c-7.29,0-14.353-3.452-18.893-9.231c-4.538-5.779-6.134-13.219-4.377-20.414l15.454-63.367
	l-49.75-42.183c-7.441-6.308-10.3-16.379-7.287-25.656s11.247-15.747,20.977-16.477l65.041-4.885l24.746-60.349
	c3.701-9.026,12.394-14.859,22.151-14.859c9.757,0,18.45,5.832,22.153,14.859l24.745,60.349l65.041,4.885
	c9.73,0.732,17.963,7.2,20.977,16.477c3.014,9.277,0.152,19.35-7.287,25.657l-49.75,42.181l15.454,63.369
	c1.755,7.194,0.159,14.634-4.377,20.412C338.412,508.548,331.349,512,324.061,512z M157.208,362.233l54.739,46.413l-17.004,69.722
	L256,440.651l61.057,37.717l-17.004-69.722l54.739-46.413l-71.565-5.372l-27.226-66.401l-27.226,66.401L157.208,362.233z"/>
<g>
</g>
<g>
</g>
<g>
</g>
<g>
</g>
<g>
</g>
<g>
</g>
<g>
</g>
<g>
</g>
<g>
</g>
<g>
</g>
<g>
</g>
<g>
</g>
<g>
</g>
<g>
</g>
<g>
</g>
</svg>
