<?xml version="1.0" encoding="iso-8859-1"?>
<!-- Generator: Adobe Illustrator 19.0.0, SVG Export Plug-In . SVG Version: 6.00 Build 0)  -->
<svg version="1.1" id="Layer_1" xmlns="http://www.w3.org/2000/svg" xmlns:xlink="http://www.w3.org/1999/xlink" x="0px" y="0px"
	 viewBox="0 0 512 512" style="enable-background:new 0 0 512 512;" xml:space="preserve">
<path style="fill:#CFF09E;" d="M186.397,203.49c20.935-10.523,44.573-16.456,69.602-16.456c11.696,0,23.087,1.303,34.043,3.755
	L139.616,19.684c-3.388-3.265-8.094-5.114-13.016-5.114H56.051c-15.761,0-23.866,17.251-13.016,27.707l138.15,161.214h5.212V203.49
	L186.397,203.49z"/>
<path style="fill:#507C5C;" d="M189.853,218.06h-15.372L32.359,52.21c-8.653-8.745-11.213-21.061-6.666-32.334
	C30.564,7.801,42.479,0,56.05,0h70.549c8.634,0,17.063,3.351,23.126,9.192l0.833,0.873l179.984,204.724l-43.682-9.78
	c-10.086-2.258-20.468-3.404-30.861-3.404c-22.17,0-43.386,5.014-63.059,14.904L189.853,218.06z M56.05,29.141
	c-2.545,0-3.223,1.364-3.334,1.636c-0.115,0.286-0.173,0.428,0.428,1.008l0.953,1.01l132.405,154.509
	c21.434-9.653,44.282-14.639,68.035-14.835L129.241,29.951c-0.675-0.511-1.635-0.81-2.642-0.81H56.05z"/>
<path style="fill:#CFF09E;" d="M455.949,14.57H385.4c-4.922,0-9.628,1.85-13.016,5.114L221.956,190.789
	c10.957-2.452,22.348-3.755,34.044-3.755c25.027,0,48.668,5.933,69.602,16.456h5.213l138.15-161.214
	C479.815,31.822,471.71,14.57,455.949,14.57z"/>
<path style="fill:#507C5C;" d="M337.517,218.06h-15.372l-3.087-1.552c-19.671-9.889-40.887-14.904-63.057-14.904
	c-10.392,0-20.774,1.145-30.861,3.404l-43.68,9.78L361.84,9.609l0.437-0.42C368.339,3.35,376.768,0,385.4,0h70.549
	c13.571,0,25.488,7.801,30.359,19.875c4.547,11.273,1.986,23.589-6.666,32.336L337.517,218.06z M257.461,172.47
	c23.755,0.197,46.602,5.181,68.035,14.835L458.353,32.269l0.501-0.482c0.602-0.58,0.543-0.723,0.43-1.007
	c-0.111-0.274-0.79-1.638-3.335-1.638H385.4c-1.005,0-1.967,0.299-2.642,0.812L257.461,172.47z"/>
<path id="SVGCleanerId_0" style="fill:#507C5C;" d="M255.999,512c-93.611,0-169.769-76.159-169.769-169.769
	s76.159-169.767,169.769-169.767s169.769,76.159,169.769,169.769S349.609,512,255.999,512z M255.999,201.605
	c-77.542,0-140.628,63.085-140.628,140.628s63.086,140.627,140.628,140.627c77.543,0,140.628-63.085,140.628-140.628
	S333.543,201.605,255.999,201.605z"/>
<path style="fill:#507C5C;" d="M255.999,452.262c-60.671,0-110.03-49.36-110.03-110.03s49.358-110.03,110.03-110.03v29.141
	c-44.603,0-80.89,36.286-80.89,80.89s36.287,80.89,80.89,80.89s80.89-36.286,80.89-80.89h29.141
	C366.03,402.902,316.67,452.262,255.999,452.262z"/>
<g>
	<path id="SVGCleanerId_0_1_" style="fill:#507C5C;" d="M255.999,512c-93.611,0-169.769-76.159-169.769-169.769
		s76.159-169.767,169.769-169.767s169.769,76.159,169.769,169.769S349.609,512,255.999,512z M255.999,201.605
		c-77.542,0-140.628,63.085-140.628,140.628s63.086,140.627,140.628,140.627c77.543,0,140.628-63.085,140.628-140.628
		S333.543,201.605,255.999,201.605z"/>
</g>
<g>
</g>
<g>
</g>
<g>
</g>
<g>
</g>
<g>
</g>
<g>
</g>
<g>
</g>
<g>
</g>
<g>
</g>
<g>
</g>
<g>
</g>
<g>
</g>
<g>
</g>
<g>
</g>
<g>
</g>
</svg>
