<?xml version="1.0" encoding="iso-8859-1"?>
<!-- Generator: Adobe Illustrator 19.0.0, SVG Export Plug-In . SVG Version: 6.00 Build 0)  -->
<svg version="1.1" id="Layer_1" xmlns="http://www.w3.org/2000/svg" xmlns:xlink="http://www.w3.org/1999/xlink" x="0px" y="0px"
	 viewBox="0 0 512 512" style="enable-background:new 0 0 512 512;" xml:space="preserve">
<g>
	<path style="fill:#507C5C;" d="M113.454,508.932c-8.217,0-15.431-4.952-18.377-12.615l-22.906-59.553l-59.554-22.904
		c-6.242-2.401-10.796-7.739-12.184-14.281c-1.388-6.542,0.607-13.271,5.336-17.998l117.007-117.007l121.585,121.585
		L127.353,503.168C123.635,506.885,118.7,508.932,113.454,508.932z M37.67,391.68l49.318,18.968
		c5.186,1.993,9.31,6.114,11.304,11.305l18.965,49.314l85.107-85.107l-79.587-79.59L37.67,391.68z"/>
	<path style="fill:#507C5C;" d="M398.533,508.935c-5.158,0-10.144-2.03-13.884-5.767l-25.988-25.987l20.999-20.999l15.085,15.085
		l18.968-49.318c1.994-5.188,6.116-9.31,11.307-11.304l49.312-18.966l-95.607-95.607l20.999-20.998l106.509,106.509
		c4.727,4.728,6.722,11.455,5.335,17.995c-1.388,6.542-5.942,11.881-12.184,14.282l-59.553,22.906l-22.906,59.553
		c-2.399,6.24-7.739,10.796-14.279,12.184C401.278,508.793,399.899,508.935,398.533,508.935z"/>
</g>
<path style="fill:#CFF09E;" d="M434.165,283.239c6.387-19.675,38.81-36.087,38.81-57.891c0-21.805-32.423-38.218-38.81-57.893
	c-6.621-20.39,9.731-52.683-2.621-69.657c-12.477-17.143-48.323-11.507-65.467-23.984c-16.974-12.352-22.622-48.254-43.012-54.874
	c-19.675-6.387-45.259,19.128-67.063,19.128c-21.805,0-47.388-25.517-67.063-19.128c-20.392,6.621-26.038,42.522-43.012,54.874
	c-17.143,12.477-52.99,6.84-65.467,23.984c-12.353,16.972,4,49.265-2.621,69.657c-6.387,19.675-38.81,36.087-38.81,57.893
	s32.423,38.218,38.81,57.893c6.621,20.392-9.731,52.683,2.621,69.657c12.477,17.143,48.323,11.507,65.467,23.984
	c16.974,12.353,22.622,48.255,43.012,54.876c19.675,6.388,45.259-19.128,67.063-19.128c21.805,0,47.388,25.517,67.063,19.128
	c20.392-6.621,26.038-42.522,43.012-54.874c17.143-12.477,52.99-6.84,65.467-23.982C443.896,335.924,427.544,303.63,434.165,283.239
	z M256.001,344.129c-65.602,0-118.782-53.18-118.782-118.782s53.18-118.782,118.782-118.782c27.311,0,52.469,9.217,72.534,24.711
	c28.13,21.722,46.248,55.781,46.248,94.071C374.783,290.948,321.603,344.129,256.001,344.129z"/>
<g>
	<path style="fill:#507C5C;" d="M316.293,447.628c-12.601,0-24.499-5.802-36.004-11.415c-8.811-4.297-17.918-8.741-24.286-8.741
		s-15.477,4.444-24.286,8.741c-11.505,5.612-23.403,11.415-36.003,11.415c-3.955,0-7.776-0.589-11.359-1.752
		c-17.146-5.568-25.834-22.035-33.501-36.565c-4.414-8.365-8.977-17.015-13.663-20.426c-4.811-3.501-14.552-5.206-23.973-6.854
		c-16.068-2.812-34.282-5.998-44.761-20.396c-10.387-14.273-7.831-32.485-5.577-48.554c1.341-9.556,2.729-19.436,0.837-25.256
		c-1.721-5.302-8.429-12.196-14.918-18.863C37.261,257.103,24.18,243.66,24.18,225.347s13.081-31.755,24.619-43.615
		c6.488-6.667,13.197-13.56,14.919-18.864c1.889-5.819,0.502-15.698-0.839-25.254c-2.255-16.068-4.811-34.28,5.575-48.554
		C78.936,74.66,97.15,71.474,113.218,68.662c9.421-1.648,19.16-3.351,23.973-6.854c4.686-3.409,9.249-12.059,13.661-20.425
		c7.666-14.53,16.355-30.999,33.501-36.567c3.583-1.163,7.403-1.752,11.359-1.752c12.6,0,24.499,5.802,36.004,11.415
		c8.811,4.297,17.918,8.741,24.286,8.741c6.367,0,15.477-4.444,24.286-8.741c11.505-5.612,23.403-11.415,36.003-11.415
		c3.955,0,7.777,0.589,11.359,1.752c17.146,5.568,25.834,22.037,33.501,36.567c4.413,8.365,8.977,17.014,13.661,20.425
		c4.814,3.503,14.554,5.206,23.973,6.854c16.068,2.812,34.283,5.998,44.761,20.396c10.387,14.273,7.831,32.485,5.577,48.554
		c-1.341,9.556-2.729,19.436-0.837,25.255c1.721,5.304,8.431,12.197,14.917,18.866c11.54,11.859,24.619,25.301,24.619,43.614
		s-13.081,31.755-24.619,43.614c-6.488,6.667-13.197,13.56-14.919,18.864c-1.889,5.819-0.502,15.7,0.839,25.254
		c2.255,16.068,4.811,34.28-5.575,48.554c-10.482,14.399-28.695,17.586-44.763,20.398c-9.421,1.647-19.161,3.351-23.973,6.854
		c-4.684,3.409-9.249,12.059-13.66,20.425c-7.666,14.53-16.355,30.999-33.501,36.567
		C324.07,447.038,320.248,447.628,316.293,447.628z M256.001,397.778c13.223,0,25.465,5.972,37.305,11.746
		c8.477,4.134,17.241,8.41,22.986,8.41c0.848,0,1.565-0.098,2.189-0.301c5.678-1.844,11.378-12.647,16.407-22.18
		c5.994-11.361,12.193-23.112,22.451-30.579c10.383-7.556,23.574-9.863,36.331-12.095c10.526-1.841,22.456-3.929,25.871-8.621
		c3.32-4.563,1.65-16.457,0.178-26.952c-1.81-12.889-3.681-26.218,0.325-38.552c3.859-11.883,13.02-21.298,21.878-30.404
		c7.596-7.807,16.206-16.655,16.206-22.904c0-6.249-8.61-15.097-16.206-22.904c-8.86-9.105-18.021-18.52-21.878-30.404
		c-4.004-12.334-2.135-25.663-0.325-38.552c1.471-10.494,3.142-22.389-0.18-26.952c-3.413-4.692-15.344-6.778-25.869-8.619
		c-12.757-2.232-25.948-4.539-36.331-12.095c-10.26-7.467-16.459-19.216-22.453-30.579c-5.029-9.531-10.729-20.334-16.408-22.18
		c-0.622-0.202-1.338-0.301-2.187-0.301c-5.745,0-14.508,4.275-22.984,8.41c-11.84,5.774-24.082,11.746-37.305,11.746
		c-13.223,0-25.465-5.97-37.306-11.746c-8.475-4.134-17.24-8.41-22.984-8.41c-0.848,0-1.565,0.098-2.189,0.301
		c-5.678,1.844-11.378,12.649-16.407,22.18c-5.994,11.363-12.193,23.112-22.451,30.579c-10.383,7.556-23.574,9.863-36.331,12.095
		c-10.526,1.841-22.456,3.929-25.871,8.621c-3.32,4.563-1.65,16.457-0.178,26.952c1.81,12.889,3.681,26.218-0.325,38.552
		c-3.859,11.883-13.02,21.298-21.878,30.402c-7.596,7.807-16.206,16.655-16.206,22.906c0,6.251,8.61,15.099,16.206,22.906
		c8.86,9.105,18.021,18.52,21.878,30.402c4.004,12.335,2.135,25.663,0.325,38.554c-1.471,10.494-3.142,22.389,0.18,26.952
		c3.413,4.692,15.344,6.778,25.869,8.619c12.757,2.232,25.948,4.539,36.329,12.095c10.261,7.467,16.46,19.216,22.454,30.579
		c5.029,9.531,10.729,20.335,16.407,22.18c0.624,0.202,1.339,0.301,2.189,0.301c5.743,0,14.508-4.275,22.983-8.41
		C230.536,403.75,242.777,397.778,256.001,397.778z"/>
	<path style="fill:#507C5C;" d="M256.001,358.976c-73.683,0-133.63-59.946-133.63-133.63s59.946-133.63,133.63-133.63
		c29.832,0,58.052,9.615,81.609,27.808c33.06,25.528,52.02,64.099,52.02,105.821C389.63,299.03,329.684,358.976,256.001,358.976z
		 M256.001,121.413c-57.309,0-103.934,46.625-103.934,103.934s46.625,103.934,103.934,103.934s103.934-46.625,103.934-103.934
		c0-32.453-14.753-62.455-40.475-82.319C301.15,128.888,279.205,121.413,256.001,121.413z"/>
</g>
<g>
</g>
<g>
</g>
<g>
</g>
<g>
</g>
<g>
</g>
<g>
</g>
<g>
</g>
<g>
</g>
<g>
</g>
<g>
</g>
<g>
</g>
<g>
</g>
<g>
</g>
<g>
</g>
<g>
</g>
</svg>
