<?xml version="1.0" encoding="iso-8859-1"?>
<!-- Generator: Adobe Illustrator 19.0.0, SVG Export Plug-In . SVG Version: 6.00 Build 0)  -->
<svg version="1.1" id="Layer_1" xmlns="http://www.w3.org/2000/svg" xmlns:xlink="http://www.w3.org/1999/xlink" x="0px" y="0px"
	 viewBox="0 0 512 512" style="enable-background:new 0 0 512 512;" xml:space="preserve">
<g>
	<path style="fill:#507C5C;" d="M374.843,148.882h-29.711V88.565c0-22.536-18.335-40.87-40.87-40.87h-96.524
		c-22.536,0-40.87,18.335-40.87,40.87v60.317h-29.711V88.565c0-38.918,31.663-70.581,70.581-70.581h96.524
		c38.918,0,70.581,31.663,70.581,70.581V148.882z"/>
	<path style="fill:#507C5C;" d="M450.677,494.016H61.322C27.509,494.016,0,466.507,0,432.694V166.862
		c0-33.812,27.509-61.322,61.322-61.322h389.357c33.812,0,61.322,27.509,61.322,61.322v265.833
		C511.999,466.507,484.491,494.016,450.677,494.016z M61.322,135.251c-17.431,0-31.611,14.181-31.611,31.611v265.833
		c0,17.43,14.179,31.611,31.611,31.611h389.357c17.43,0,31.611-14.179,31.611-31.611V166.862c0-17.43-14.18-31.611-31.611-31.611
		H61.322z"/>
</g>
<path style="fill:#CFF09E;" d="M61.538,120.122c-26.924,0-46.91,25.223-40.454,51.361
	c23.188,93.888,108.386,164.042,209.174,164.042h51.481c100.788,0,185.987-70.155,209.174-164.042
	c6.456-26.138-13.53-51.361-40.454-51.361C450.46,120.122,61.538,120.122,61.538,120.122z"/>
<path style="fill:#507C5C;" d="M281.74,350.381h-51.481c-51.611,0-102.373-17.771-142.936-50.043
	c-39.9-31.743-68.546-76.239-80.662-125.292c-4.161-16.85-0.394-34.374,10.338-48.078c10.8-13.792,27.034-21.701,44.538-21.701
	h388.925c17.506,0,33.738,7.909,44.538,21.701c10.732,13.704,14.499,31.228,10.338,48.077
	c-12.116,49.054-40.762,93.55-80.662,125.293C384.113,332.608,333.351,350.381,281.74,350.381z M61.537,134.978
	c-8.309,0-16.017,3.757-21.147,10.307c-5.061,6.464-6.842,14.714-4.886,22.637c22.215,89.936,102.3,152.749,194.754,152.749h51.481
	c92.454,0,172.539-62.813,194.753-152.749c1.956-7.922,0.177-16.172-4.886-22.635c-5.13-6.551-12.838-10.307-21.147-10.307
	L61.537,134.978L61.537,134.978z"/>
<path style="fill:#CFF09E;" d="M160.637,378.645h-17.252c-11.116,0-20.126-9.011-20.126-20.126v-60.38
	c0-11.116,9.011-20.126,20.126-20.126h17.252c11.116,0,20.126,9.011,20.126,20.126v60.38
	C180.763,369.633,171.754,378.645,160.637,378.645z"/>
<path style="fill:#507C5C;" d="M160.637,393.5h-17.252c-19.288,0-34.981-15.693-34.981-34.981v-60.381
	c0-19.288,15.693-34.981,34.981-34.981h17.252c19.288,0,34.981,15.693,34.981,34.981v60.381
	C195.62,377.807,179.927,393.5,160.637,393.5z M143.386,292.867c-2.907,0-5.271,2.365-5.271,5.271v60.381
	c0,2.907,2.365,5.271,5.271,5.271h17.252c2.907,0,5.271-2.365,5.271-5.271v-60.381c0-2.907-2.365-5.271-5.271-5.271H143.386z"/>
<path style="fill:#CFF09E;" d="M368.613,378.645h-17.252c-11.116,0-20.126-9.011-20.126-20.126v-60.38
	c0-11.116,9.011-20.126,20.126-20.126h17.252c11.116,0,20.126,9.011,20.126,20.126v60.38
	C388.739,369.633,379.729,378.645,368.613,378.645z"/>
<path style="fill:#507C5C;" d="M368.613,393.5h-17.252c-19.288,0-34.981-15.693-34.981-34.981v-60.381
	c0-19.288,15.693-34.981,34.981-34.981h17.252c19.288,0,34.981,15.693,34.981,34.981v60.381
	C403.596,377.807,387.902,393.5,368.613,393.5z M351.361,292.867c-2.907,0-5.271,2.365-5.271,5.271v60.381
	c0,2.907,2.365,5.271,5.271,5.271h17.252c2.907,0,5.271-2.365,5.271-5.271v-60.381c0-2.907-2.365-5.271-5.271-5.271H351.361z"/>
<g>
</g>
<g>
</g>
<g>
</g>
<g>
</g>
<g>
</g>
<g>
</g>
<g>
</g>
<g>
</g>
<g>
</g>
<g>
</g>
<g>
</g>
<g>
</g>
<g>
</g>
<g>
</g>
<g>
</g>
</svg>
