<?xml version="1.0" encoding="iso-8859-1"?>
<!-- Generator: Adobe Illustrator 19.0.0, SVG Export Plug-In . SVG Version: 6.00 Build 0)  -->
<svg version="1.1" id="Layer_1" xmlns="http://www.w3.org/2000/svg" xmlns:xlink="http://www.w3.org/1999/xlink" x="0px" y="0px"
	 viewBox="0 0 512 512" style="enable-background:new 0 0 512 512;" xml:space="preserve">
<path style="fill:#507C5C;" d="M425.732,396.006H86.268V254.115c0-98.542,76.142-178.714,169.732-178.714
	s169.732,80.172,169.732,178.714V396.006z M114.557,367.718h282.887V254.116c0-82.945-63.45-150.427-141.444-150.427
	c-77.992,0-141.443,67.48-141.443,150.425V367.718z"/>
<path style="fill:#CFF09E;" d="M317.019,434.246H256l0,0h-61.044c-2.045,0-2.545,2.45-2.475,3.661
	c1.897,33.427,29.604,59.949,63.507,59.949c19.115,0,36.26-8.431,47.921-21.778c0.059-0.069,0.116-0.141,0.175-0.211
	c0.584-0.675,1.16-1.358,1.716-2.058c0.106-0.133,0.204-0.273,0.308-0.407c0.502-0.642,1-1.287,1.478-1.949
	c0.058-0.081,0.112-0.165,0.17-0.248c1.091-1.523,2.119-3.093,3.074-4.713c0.024-0.042,0.047-0.086,0.071-0.127
	c0.477-0.812,0.938-1.634,1.378-2.47c0.013-0.024,0.024-0.05,0.037-0.075c0.912-1.733,1.747-3.512,2.499-5.334
	c0.014-0.033,0.025-0.066,0.038-0.1c1.126-2.741,2.068-5.579,2.805-8.495c0.13-0.518,0.238-1.044,0.356-1.566
	c0.106-0.471,0.225-0.939,0.321-1.414c0.054-0.269,0.093-0.545,0.144-0.815c0.257-1.366,0.468-2.748,0.637-4.144
	c0.143-1.181,0.257-2.371,0.334-3.571c0.016-0.236,0.042-0.468,0.055-0.704c0.007-0.141,0.016-0.303,0.018-0.474
	C319.546,436.004,319.324,434.246,317.019,434.246z"/>
<g>
	<path style="fill:#507C5C;" d="M255.987,512c-41.198,0-75.296-32.194-77.628-73.293c-0.286-4.999,1.499-10.054,4.772-13.519
		c3.098-3.28,7.298-5.086,11.825-5.086h122.063c4.604,0,8.839,1.73,11.924,4.873c2.218,2.26,4.839,6.26,4.724,12.491
		c-0.004,0.296-0.018,0.603-0.03,0.878c-0.021,0.379-0.042,0.678-0.071,0.973c-0.091,1.402-0.228,2.873-0.407,4.345
		c-0.208,1.723-0.471,3.431-0.779,5.064c-0.062,0.369-0.115,0.67-0.174,0.966c-0.098,0.485-0.201,0.929-0.306,1.373l-0.173,0.761
		c-0.11,0.505-0.222,1.011-0.348,1.511c-0.878,3.47-2.003,6.893-3.351,10.205l-0.15,0.375c-0.873,2.119-1.877,4.266-2.972,6.355
		l-0.117,0.228c-0.509,0.967-1.042,1.921-1.594,2.863l-0.178,0.313c-1.11,1.885-2.344,3.781-3.666,5.637
		c-0.092,0.136-0.181,0.263-0.27,0.388c-0.591,0.819-1.18,1.586-1.772,2.345c-0.161,0.216-0.306,0.405-0.453,0.59
		c-0.639,0.803-1.321,1.617-2.013,2.417l-0.209,0.25C299.781,502.3,278.433,512,255.987,512z M208.568,448.39
		c6.1,20.511,25.125,35.321,47.419,35.321c14.222,0,27.757-6.126,37.157-16.812l0.171-0.204c0.501-0.578,0.926-1.082,1.335-1.593
		c0.117-0.156,0.219-0.291,0.324-0.424c0.359-0.461,0.73-0.936,1.085-1.424l0.173-0.25c0.853-1.192,1.624-2.371,2.315-3.529
		c0.058-0.103,0.116-0.207,0.177-0.308c0.304-0.518,0.618-1.074,0.921-1.639l0.246-0.471c0.644-1.235,1.236-2.498,1.762-3.758
		l0.141-0.347c0.603-1.468,1.144-3.003,1.61-4.562H208.568z"/>
	<path style="fill:#507C5C;" d="M420.371,446.249h-37.072V417.96h37.072c2.956,0,5.361-2.405,5.361-5.361v-11.315
		c0-2.956-2.405-5.362-5.361-5.362H91.63c-2.956,0-5.362,2.405-5.362,5.362v11.315c0,2.956,2.406,5.361,5.362,5.361h249.236v28.289
		H91.63c-18.555,0-33.651-15.095-33.651-33.649v-11.315c0-18.555,15.095-33.651,33.651-33.651h328.742
		c18.555,0,33.649,15.095,33.649,33.651v11.315C454.021,431.154,438.926,446.249,420.371,446.249z"/>
</g>
<path style="fill:#CFF09E;" d="M256,89.545c14.683,0,28.922,2.184,42.433,6.26V56.577c0-23.338-19.095-42.433-42.433-42.433
	c-23.338,0-42.433,19.095-42.433,42.433v39.228C227.079,91.729,241.317,89.545,256,89.545z"/>
<g>
	<path style="fill:#507C5C;" d="M199.423,114.849V56.577C199.423,25.381,224.803,0,256,0s56.577,25.381,56.577,56.577v58.272
		l-18.231-5.502c-24.884-7.511-51.814-7.511-76.693,0L199.423,114.849z M256,75.401c9.506,0,18.968,0.839,28.289,2.502V56.577
		c0-15.598-12.69-28.289-28.289-28.289s-28.289,12.69-28.289,28.289v21.325C237.032,76.239,246.495,75.401,256,75.401z"/>
	<path style="fill:#507C5C;" d="M165.005,247.242h-28.289c0-64.446,49.915-116.876,111.269-116.876v28.289
		C202.23,158.654,165.005,198.394,165.005,247.242z"/>
</g>
<g>
</g>
<g>
</g>
<g>
</g>
<g>
</g>
<g>
</g>
<g>
</g>
<g>
</g>
<g>
</g>
<g>
</g>
<g>
</g>
<g>
</g>
<g>
</g>
<g>
</g>
<g>
</g>
<g>
</g>
</svg>
