<?xml version="1.0" encoding="iso-8859-1"?>
<!-- Generator: Adobe Illustrator 19.0.0, SVG Export Plug-In . SVG Version: 6.00 Build 0)  -->
<svg version="1.1" id="Layer_1" xmlns="http://www.w3.org/2000/svg" xmlns:xlink="http://www.w3.org/1999/xlink" x="0px" y="0px"
	 viewBox="0 0 512 512" style="enable-background:new 0 0 512 512;" xml:space="preserve">
<path style="fill:#507C5C;" d="M426.582,512H85.418c-32.787,0-59.46-26.674-59.46-59.46V59.46C25.959,26.674,52.633,0,85.418,0
	h341.164c32.787,0,59.46,26.674,59.46,59.46V452.54C486.042,485.326,459.369,512,426.582,512z M85.418,28.499
	c-17.071,0-30.961,13.889-30.961,30.961V452.54c0,17.071,13.889,30.961,30.961,30.961h341.164c17.071,0,30.961-13.889,30.961-30.961
	V59.46c0-17.071-13.889-30.961-30.961-30.961H85.418z"/>
<path style="fill:#CFF09E;" d="M426.582,14.249H85.418c-24.968,0-45.209,20.241-45.209,45.209V452.54
	c0,24.968,20.241,45.209,45.209,45.209h341.164c24.968,0,45.209-20.241,45.209-45.209V59.459
	C471.791,34.491,451.552,14.249,426.582,14.249z M413.977,407.366c0,17.989-14.582,32.57-32.57,32.57H130.594
	c-17.989,0-32.57-14.582-32.57-32.57V104.634c0-17.989,14.582-32.57,32.57-32.57h250.812c17.989,0,32.57,14.582,32.57,32.57V407.366
	z"/>
<g>
	<path style="fill:#507C5C;" d="M426.582,512H85.418c-32.785,0-59.459-26.674-59.459-59.46V59.46C25.96,26.674,52.634,0,85.418,0
		h341.164c32.785,0,59.459,26.674,59.459,59.46V452.54C486.041,485.326,459.367,512,426.582,512z M85.418,28.499
		c-17.071,0-30.96,13.889-30.96,30.961V452.54c0,17.071,13.888,30.961,30.96,30.961h341.164c17.071,0,30.96-13.889,30.96-30.961
		V59.46c0-17.071-13.888-30.961-30.96-30.961H85.418z M381.407,454.184H130.593c-25.816,0-46.818-21.002-46.818-46.818V104.634
		c0-25.816,21.002-46.818,46.818-46.818h250.814c25.816,0,46.818,21.002,46.818,46.818v302.732
		C428.227,433.182,407.223,454.184,381.407,454.184z M130.593,86.313c-10.101,0-18.319,8.219-18.319,18.319v302.732
		c0,10.101,8.219,18.319,18.319,18.319h250.814c10.101,0,18.319-8.219,18.319-18.319v-302.73c0-10.101-8.219-18.319-18.319-18.319
		L130.593,86.313L130.593,86.313z"/>
	<path style="fill:#507C5C;" d="M155.182,309.556c-3.763,0-7.262-0.604-10.493-1.81c-3.233-1.206-6.006-2.894-8.323-5.067
		c-2.316-2.17-4.151-4.727-5.5-7.671c-1.352-2.943-2.025-6.151-2.025-9.626c0-3.763,0.795-7.189,2.387-10.277
		c1.593-3.088,3.836-5.741,6.731-7.961c2.894-2.219,6.32-3.957,10.277-5.212c3.957-1.253,8.347-1.881,13.174-1.881
		c3.183,0,6.271,0.268,9.264,0.797c2.99,0.532,5.596,1.327,7.816,2.39v-3.474c0-8.781-5.067-13.174-15.199-13.174
		c-4.151,0-8.107,0.701-11.87,2.1s-7.72,3.497-11.87,6.295l-6.803-14.473c5.016-3.28,10.227-5.741,15.632-7.383
		c5.403-1.642,11.146-2.461,17.225-2.461c11.484,0,20.36,2.702,26.634,8.105c6.271,5.406,9.409,13.316,9.409,23.738v19.542
		c0,2.316,0.362,3.933,1.087,4.848c0.722,0.918,2.002,1.472,3.835,1.664v19.542c-2.025,0.483-3.86,0.797-5.499,0.942
		c-1.643,0.144-3.136,0.217-4.487,0.217c-4.343,0-7.623-0.846-9.842-2.534c-2.221-1.686-3.619-4.075-4.199-7.165l-0.435-3.474
		c-3.379,4.343-7.407,7.672-12.086,9.987C165.336,308.398,160.394,309.556,155.182,309.556z M161.986,292.911
		c2.508,0,4.943-0.435,7.309-1.304c2.364-0.868,4.319-2.026,5.864-3.474c2.219-1.736,3.329-3.57,3.329-5.5v-7.237
		c-2.026-0.771-4.222-1.375-6.586-1.81c-2.365-0.435-4.558-0.651-6.586-0.651c-4.246,0-7.745,0.966-10.493,2.894
		c-2.752,1.932-4.127,4.44-4.127,7.528c0,2.8,1.062,5.091,3.185,6.877C156.001,292.019,158.704,292.911,161.986,292.911z"/>
	<path style="fill:#507C5C;" d="M264.034,309.556c-5.791,0-10.857-1.23-15.2-3.691c-4.342-2.461-7.767-5.909-10.277-10.351v12.594
		h-20.119V202.443h23.16v42.12c2.509-4.342,5.864-7.743,10.06-10.203c4.199-2.461,9.141-3.691,14.838-3.691
		c4.825,0,9.264,1.036,13.316,3.112c4.054,2.075,7.528,4.898,10.422,8.467c2.894,3.571,5.161,7.794,6.803,12.666
		c1.639,4.875,2.461,10.06,2.461,15.56s-0.893,10.639-2.677,15.415c-1.787,4.778-4.271,8.929-7.454,12.448
		c-3.185,3.524-6.948,6.274-11.291,8.252C273.731,308.567,269.05,309.556,264.034,309.556z M257.518,290.016
		c2.702,0,5.161-0.507,7.383-1.52c2.219-1.013,4.125-2.39,5.718-4.125c1.593-1.738,2.844-3.786,3.763-6.151
		c0.916-2.364,1.375-4.945,1.375-7.745c0-2.702-0.435-5.284-1.302-7.745c-0.869-2.461-2.052-4.607-3.548-6.441
		c-1.496-1.832-3.306-3.28-5.428-4.342c-2.123-1.062-4.392-1.593-6.803-1.593c-3.669,0-7.022,1.255-10.062,3.763
		c-3.038,2.511-5.381,5.646-7.019,9.409v15.922c1.542,3.282,3.786,5.864,6.731,7.745
		C251.271,289.075,254.333,290.016,257.518,290.016z"/>
	<path style="fill:#507C5C;" d="M306.59,270.041c0-5.212,0.916-10.206,2.75-14.98c1.832-4.778,4.487-8.974,7.961-12.594
		c3.474-3.619,7.745-6.489,12.812-8.612c5.067-2.122,10.831-3.183,17.296-3.183c8.781,0,16.163,1.858,22.148,5.573
		c5.982,3.716,10.469,8.564,13.461,14.547l-22.583,6.803c-2.991-4.825-7.383-7.237-13.171-7.237c-4.826,0-8.855,1.787-12.086,5.355
		c-3.236,3.571-4.849,8.347-4.849,14.331c0,2.991,0.435,5.718,1.302,8.178c0.869,2.461,2.075,4.558,3.619,6.297
		c1.542,1.736,3.352,3.088,5.429,4.051c2.073,0.966,4.269,1.449,6.586,1.449c2.894,0,5.547-0.7,7.961-2.1
		c2.411-1.396,4.197-3.206,5.355-5.428l22.58,6.948c-2.8,5.886-7.262,10.711-13.389,14.473c-6.13,3.765-13.584,5.646-22.365,5.646
		c-6.368,0-12.086-1.084-17.151-3.257c-5.067-2.17-9.362-5.067-12.883-8.684c-3.524-3.619-6.201-7.816-8.035-12.594
		C307.505,280.245,306.59,275.25,306.59,270.041z"/>
</g>
<g>
</g>
<g>
</g>
<g>
</g>
<g>
</g>
<g>
</g>
<g>
</g>
<g>
</g>
<g>
</g>
<g>
</g>
<g>
</g>
<g>
</g>
<g>
</g>
<g>
</g>
<g>
</g>
<g>
</g>
</svg>
