<?xml version="1.0" encoding="iso-8859-1"?>
<!-- Generator: Adobe Illustrator 19.0.0, SVG Export Plug-In . SVG Version: 6.00 Build 0)  -->
<svg version="1.1" id="Layer_1" xmlns="http://www.w3.org/2000/svg" xmlns:xlink="http://www.w3.org/1999/xlink" x="0px" y="0px"
	 viewBox="0 0 512.001 512.001" style="enable-background:new 0 0 512.001 512.001;" xml:space="preserve">
<g>
	<path style="fill:#507C5C;" d="M142.064,249.558c-4.253,0-8.207-0.683-11.86-2.045c-3.654-1.363-6.788-3.272-9.407-5.726
		c-2.616-2.453-4.69-5.34-6.216-8.669c-1.529-3.326-2.288-6.953-2.288-10.879c0-4.253,0.899-8.124,2.698-11.614
		s4.335-6.488,7.607-8.997c3.272-2.507,7.143-4.471,11.614-5.889c4.471-1.415,9.432-2.126,14.887-2.126
		c3.598,0,7.087,0.302,10.469,0.9c3.378,0.6,6.324,1.5,8.833,2.7v-3.926c0-9.923-5.726-14.887-17.176-14.887
		c-4.69,0-9.161,0.792-13.414,2.373c-4.253,1.581-8.725,3.952-13.414,7.114l-7.688-16.357c5.669-3.708,11.557-6.488,17.667-8.342
		c6.107-1.855,12.596-2.781,19.467-2.781c12.978,0,23.008,3.052,30.098,9.16c7.087,6.109,10.633,15.049,10.633,26.828v22.084
		c0,2.616,0.409,4.444,1.228,5.479c0.816,1.038,2.263,1.664,4.334,1.881v22.084c-2.288,0.545-4.362,0.9-6.214,1.065
		c-1.857,0.162-3.544,0.246-5.072,0.246c-4.909,0-8.616-0.957-11.123-2.865c-2.511-1.905-4.091-4.605-4.745-8.097l-0.491-3.926
		c-3.818,4.909-8.371,8.672-13.66,11.288C153.541,248.248,147.955,249.558,142.064,249.558z M149.755,230.746
		c2.833,0,5.586-0.491,8.26-1.473c2.671-0.981,4.88-2.291,6.626-3.926c2.507-1.962,3.762-4.034,3.762-6.216v-8.179
		c-2.291-0.872-4.771-1.554-7.442-2.045c-2.673-0.491-5.153-0.735-7.442-0.735c-4.799,0-8.752,1.093-11.86,3.272
		c-3.109,2.183-4.664,5.018-4.664,8.507c0,3.164,1.199,5.755,3.6,7.772C142.991,229.74,146.046,230.746,149.755,230.746z"/>
	<path style="fill:#507C5C;" d="M265.078,249.558c-6.545,0-12.268-1.391-17.177-4.172c-4.907-2.781-8.778-6.679-11.614-11.696
		v14.233H213.55V128.509h26.172v47.6c2.836-4.907,6.626-8.75,11.368-11.53c4.745-2.781,10.331-4.172,16.768-4.172
		c5.452,0,10.469,1.171,15.049,3.516c4.581,2.345,8.507,5.536,11.779,9.569c3.272,4.036,5.833,8.809,7.688,14.314
		c1.852,5.509,2.781,11.369,2.781,17.584s-1.009,12.023-3.026,17.421c-2.018,5.4-4.826,10.09-8.423,14.068
		c-3.6,3.983-7.852,7.09-12.761,9.326C276.038,248.44,270.748,249.558,265.078,249.558z M257.717,227.476
		c3.052,0,5.833-0.573,8.342-1.719c2.507-1.146,4.661-2.7,6.461-4.662c1.8-1.965,3.215-4.278,4.253-6.953
		c1.036-2.671,1.554-5.588,1.554-8.752c0-3.052-0.491-5.972-1.472-8.752c-0.984-2.781-2.319-5.207-4.009-7.279
		c-1.691-2.071-3.736-3.708-6.134-4.907c-2.4-1.199-4.964-1.8-7.688-1.8c-4.146,0-7.935,1.419-11.37,4.253
		c-3.434,2.838-6.081,6.38-7.933,10.633v17.995c1.743,3.709,4.278,6.626,7.607,8.752
		C250.655,226.411,254.117,227.476,257.717,227.476z"/>
	<path style="fill:#507C5C;" d="M313.171,204.901c0-5.889,1.036-11.533,3.107-16.93c2.071-5.4,5.072-10.142,8.997-14.233
		c3.925-4.091,8.752-7.333,14.477-9.733c5.726-2.397,12.24-3.598,19.547-3.598c9.923,0,18.266,2.099,25.029,6.297
		c6.759,4.2,11.831,9.678,15.214,16.44l-25.521,7.688c-3.381-5.452-8.342-8.179-14.884-8.179c-5.454,0-10.007,2.018-13.66,6.053
		c-3.657,4.036-5.481,9.432-5.481,16.195c0,3.381,0.491,6.461,1.472,9.242c0.984,2.781,2.345,5.153,4.089,7.116
		c1.743,1.962,3.789,3.49,6.135,4.579c2.344,1.093,4.823,1.638,7.442,1.638c3.272,0,6.27-0.791,8.997-2.373
		c2.724-1.578,4.742-3.624,6.053-6.133l25.518,7.852c-3.164,6.652-8.207,12.104-15.13,16.356c-6.928,4.254-15.352,6.38-25.275,6.38
		c-7.197,0-13.66-1.226-19.383-3.681c-5.726-2.453-10.581-5.726-14.559-9.814c-3.983-4.089-7.009-8.833-9.08-14.233
		C314.207,216.434,313.171,210.789,313.171,204.901z"/>
	<path style="fill:#507C5C;" d="M478.543,383.643H33.457V64.629c0-27.783,22.605-50.388,50.39-50.388h344.307
		c27.785,0,50.39,22.605,50.39,50.388V383.643z M61.846,355.253h388.308V64.629c0-12.131-9.87-21.999-22-21.999H83.846
		c-12.131,0-22,9.868-22,21.999V355.253z"/>
</g>
<path style="fill:#CFF09E;" d="M110.494,368.967l-60.681,92.187c-7.12,10.158,2.581,22.412,17.743,22.412h38.24
	c7.431,0,14.254-3.11,17.743-8.088l70.63-106.511H110.494z"/>
<path style="fill:#507C5C;" d="M105.797,497.761h-38.24c-13.752,0-25.752-6.642-31.313-17.335
	c-4.571-8.786-3.892-18.944,1.807-27.22l64.793-98.434h117.772l-85.45,128.851C128.961,492.476,117.982,497.761,105.797,497.761z
	 M62.271,468.046c0.94,0.608,2.657,1.326,5.286,1.326h38.24c3.221,0,5.489-1.256,6.072-1.98l55.856-84.23h-49.582L62.271,468.046z"
	/>
<path style="fill:#CFF09E;" d="M401.506,368.967H317.83l70.63,106.511c3.489,4.978,10.314,8.088,17.743,8.088h38.24
	c15.163,0,24.865-12.254,17.743-22.412L401.506,368.967z"/>
<g>
	<path style="fill:#507C5C;" d="M444.443,497.761h-38.24c-12.185,0-23.163-5.285-29.366-14.136l-0.207-0.302l-85.245-128.55h117.772
		l64.793,98.434c5.701,8.275,6.378,18.432,1.807,27.22C470.195,491.119,458.197,497.761,444.443,497.761z M400.13,467.391
		c0.583,0.724,2.853,1.98,6.073,1.98h38.24c2.629,0,4.346-0.718,5.286-1.326l-55.873-84.884h-49.582L400.13,467.391z"/>
	<rect y="355.25" style="fill:#507C5C;" width="512.001" height="28.389"/>
</g>
<g>
</g>
<g>
</g>
<g>
</g>
<g>
</g>
<g>
</g>
<g>
</g>
<g>
</g>
<g>
</g>
<g>
</g>
<g>
</g>
<g>
</g>
<g>
</g>
<g>
</g>
<g>
</g>
<g>
</g>
</svg>
