<?xml version="1.0" encoding="iso-8859-1"?>
<!-- Generator: Adobe Illustrator 19.0.0, SVG Export Plug-In . SVG Version: 6.00 Build 0)  -->
<svg version="1.1" id="Layer_1" xmlns="http://www.w3.org/2000/svg" xmlns:xlink="http://www.w3.org/1999/xlink" x="0px" y="0px"
	 viewBox="0 0 512 512" style="enable-background:new 0 0 512 512;" xml:space="preserve">
<path style="fill:#CFF09E;" d="M294.894,15.059h102.918v164.31c0,3.528-4.293,5.921-8.194,4.569l-40.993-14.225
	c-1.455-0.504-3.089-0.504-4.543,0l-40.993,14.225c-3.9,1.354-8.193-1.041-8.193-4.569L294.894,15.059L294.894,15.059z"/>
<g>
	<path style="fill:#507C5C;" d="M391.897,199.379c-2.464,0-4.891-0.408-7.218-1.218l-38.325-13.297l-38.329,13.298
		c-2.322,0.807-4.751,1.217-7.213,1.217c-11.565,0-20.975-8.977-20.975-20.01V0h133.036v179.369
		C412.871,190.402,403.462,199.379,391.897,199.379z M346.353,154.276c2.468,0,4.893,0.407,7.207,1.209l29.193,10.13V30.118h-72.8
		v135.498l29.192-10.129C341.46,154.683,343.885,154.276,346.353,154.276z"/>
	<path style="fill:#507C5C;" d="M418.635,512H112.941c-37.365,0-67.765-30.399-67.765-67.765V67.765
		C45.176,30.399,75.576,0,112.941,0h305.694c26.571,0,48.188,21.617,48.188,48.188v415.624C466.824,490.383,445.207,512,418.635,512
		z M112.941,30.118c-20.759,0-37.647,16.888-37.647,37.647v376.471c0,20.759,16.888,37.647,37.647,37.647h305.694
		c9.964,0,18.071-8.106,18.071-18.071V48.188c0-9.964-8.106-18.071-18.071-18.071H112.941z"/>
	<path style="fill:#507C5C;" d="M347.52,428.675H230.737c-15.238,0-27.636-12.398-27.636-27.637v-36.587h30.118v34.105h111.819
		v-31.624h-83.015v-30.118h85.496c15.238,0,27.636,12.396,27.636,27.636v36.587C375.156,416.277,362.76,428.675,347.52,428.675z"/>
	<rect x="117.459" y="15.059" style="fill:#507C5C;" width="30.118" height="481.882"/>
</g>
<g>
</g>
<g>
</g>
<g>
</g>
<g>
</g>
<g>
</g>
<g>
</g>
<g>
</g>
<g>
</g>
<g>
</g>
<g>
</g>
<g>
</g>
<g>
</g>
<g>
</g>
<g>
</g>
<g>
</g>
</svg>
