<?xml version="1.0" encoding="iso-8859-1"?>
<!-- Generator: Adobe Illustrator 19.0.0, SVG Export Plug-In . SVG Version: 6.00 Build 0)  -->
<svg version="1.1" id="Layer_1" xmlns="http://www.w3.org/2000/svg" xmlns:xlink="http://www.w3.org/1999/xlink" x="0px" y="0px"
	 viewBox="0 0 512 512" style="enable-background:new 0 0 512 512;" xml:space="preserve">
<path style="fill:#CFF09E;" d="M124.555,445.194h77.595v49.608c0,2.66-3.238,4.464-6.178,3.445l-30.908-10.724
	c-1.096-0.381-2.329-0.381-3.425,0l-30.906,10.724c-2.94,1.02-6.178-0.785-6.178-3.445
	C124.555,494.803,124.555,445.194,124.555,445.194z"/>
<g>
	<path style="fill:#507C5C;" d="M197.688,512c-2.092,0-4.153-0.347-6.13-1.033l-28.207-9.789l-28.206,9.787
		c-1.978,0.685-4.039,1.034-6.13,1.034c-9.884,0-17.924-7.714-17.924-17.196v-63.071h104.52v63.071
		C215.612,504.285,207.571,511.999,197.688,512z M163.352,473.774c2.097,0,4.159,0.346,6.128,1.03l19.207,6.665v-22.812h-50.669
		v22.812l19.208-6.665C159.194,474.122,161.255,473.774,163.352,473.774z"/>
	<path style="fill:#507C5C;" d="M401.396,457.729H128.105c-33.405,0-60.582-27.177-60.582-60.582V60.582
		C67.523,27.177,94.7,0,128.105,0h273.291c23.755,0,43.08,19.326,43.08,43.08v371.569
		C444.477,438.404,425.15,457.729,401.396,457.729z M128.105,26.925c-18.558,0-33.657,15.098-33.657,33.657v336.566
		c0,18.558,15.098,33.657,33.657,33.657h273.291c8.908,0,16.155-7.247,16.155-16.155V43.08c0-8.908-7.247-16.155-16.155-16.155
		H128.105z"/>
</g>
<path style="fill:#CFF09E;" d="M344.055,215.402H167.944c-9.225,0-16.704-7.478-16.704-16.704v-75.638
	c0-9.225,7.478-16.704,16.704-16.704h176.111c9.225,0,16.704,7.478,16.704,16.704v75.64
	C360.759,207.924,353.281,215.402,344.055,215.402z"/>
<g>
	<path style="fill:#507C5C;" d="M344.055,228.865h-176.11c-16.633,0-30.167-13.533-30.167-30.166v-75.64
		c-0.001-16.634,13.533-30.167,30.167-30.167h176.11c16.633,0,30.167,13.533,30.167,30.167v75.64
		C374.222,215.332,360.688,228.865,344.055,228.865z M167.945,119.817c-1.788,0-3.242,1.454-3.242,3.242v75.64
		c0,1.786,1.454,3.24,3.242,3.24h176.11c1.788,0,3.242-1.454,3.242-3.24v-75.64c0-1.788-1.454-3.242-3.242-3.242H167.945z"/>
	<path style="fill:#507C5C;" d="M308.201,383.237H203.797c-13.623,0-24.707-11.084-24.707-24.707v-32.709h26.925v30.49h99.965
		V328.04h-74.215v-26.925H308.2c13.623,0,24.707,11.082,24.707,24.707v32.709C332.908,372.153,321.824,383.237,308.201,383.237z"/>
</g>
<g>
</g>
<g>
</g>
<g>
</g>
<g>
</g>
<g>
</g>
<g>
</g>
<g>
</g>
<g>
</g>
<g>
</g>
<g>
</g>
<g>
</g>
<g>
</g>
<g>
</g>
<g>
</g>
<g>
</g>
</svg>
