<?xml version="1.0" encoding="iso-8859-1"?>
<!-- Generator: Adobe Illustrator 19.0.0, SVG Export Plug-In . SVG Version: 6.00 Build 0)  -->
<svg version="1.1" id="Layer_1" xmlns="http://www.w3.org/2000/svg" xmlns:xlink="http://www.w3.org/1999/xlink" x="0px" y="0px"
	 viewBox="0 0 512 512" style="enable-background:new 0 0 512 512;" xml:space="preserve">
<path style="fill:#CFF09E;" d="M95.474,428.14h90.138v63.883c0,3.09-3.761,5.186-7.177,4.002l-35.902-12.458
	c-1.273-0.443-2.706-0.443-3.979,0l-35.902,12.458c-3.416,1.185-7.177-0.912-7.177-4.002L95.474,428.14L95.474,428.14z"/>
<g>
	<path style="fill:#507C5C;" d="M180.431,512c-2.429,0-4.825-0.403-7.12-1.201l-32.767-11.371l-32.767,11.371
		c-2.296,0.798-4.692,1.201-7.12,1.201c-11.481,0-20.822-8.961-20.822-19.976v-79.524h121.416v79.524
		C201.251,503.037,191.911,511.998,180.431,512z M140.544,467.595c2.433,0,4.826,0.402,7.111,1.193l22.32,7.746v-32.756h-58.86
		v32.756l22.314-7.743C135.719,467.997,138.11,467.595,140.544,467.595z"/>
	<path style="fill:#507C5C;" d="M374.121,442.701H93.281c-35.322,0-64.058-28.736-64.058-64.06V64.06
		C29.224,28.736,57.961,0,93.281,0H374.12c25.405,0,46.074,20.67,46.074,46.075v350.55
		C420.197,422.031,399.527,442.701,374.121,442.701z M93.281,31.278c-18.075,0-32.781,14.705-32.781,32.782v314.581
		c0,18.077,14.705,32.782,32.781,32.782H374.12c8.159,0,14.796-6.637,14.796-14.798V46.075c0-8.16-6.637-14.798-14.796-14.798
		H93.281z"/>
	<path style="fill:#507C5C;" d="M285.583,441.594c-35.827,0-69.51-13.951-94.844-39.285c-25.333-25.333-39.285-59.015-39.285-94.844
		s13.951-69.51,39.285-94.844c25.333-25.332,59.016-39.283,94.844-39.283s69.51,13.951,94.844,39.283
		c25.333,25.333,39.286,59.016,39.286,94.844s-13.951,69.509-39.286,94.844C355.095,427.642,321.41,441.594,285.583,441.594z
		 M285.583,204.616c-27.473,0-53.3,10.697-72.727,30.124c-19.425,19.427-30.124,45.254-30.124,72.727
		c0,27.471,10.699,53.3,30.124,72.726c19.427,19.427,45.254,30.125,72.727,30.125s53.3-10.699,72.726-30.125
		c19.427-19.425,30.125-45.254,30.125-72.725c0-27.473-10.699-53.3-30.125-72.727C338.884,215.313,313.056,204.616,285.583,204.616z
		"/>
</g>
<path style="fill:#CFF09E;" d="M369.369,391.251c-10.264,10.264-21.944,18.246-34.412,23.957l61.747,61.747
	c16.052,16.052,42.317,16.052,58.367,0c16.052-16.052,16.052-42.317,0-58.367l-61.747-61.747
	C387.616,369.306,379.632,380.987,369.369,391.251z"/>
<g>
	<path style="fill:#507C5C;" d="M425.891,504.633c-15.234,0-29.525-5.901-40.242-16.618l-77.655-77.655l20.454-9.369
		c11.102-5.086,21.15-12.084,29.866-20.798c8.712-8.711,15.709-18.759,20.798-29.866l9.369-20.451l77.655,77.653
		c22.188,22.19,22.188,58.294,0,80.486C455.415,498.73,441.125,504.633,425.891,504.633z M360.569,418.701l47.195,47.195
		c4.809,4.809,11.246,7.458,18.125,7.458c6.88,0,13.317-2.648,18.125-7.458s7.458-11.246,7.458-18.125
		c0-6.88-2.649-13.317-7.458-18.125l-47.193-47.195c-4.79,7.094-10.267,13.731-16.394,19.857
		C374.3,408.436,367.661,413.914,360.569,418.701z"/>
	<rect x="123.062" y="98.025" style="fill:#507C5C;" width="203.822" height="31.278"/>
</g>
<g>
</g>
<g>
</g>
<g>
</g>
<g>
</g>
<g>
</g>
<g>
</g>
<g>
</g>
<g>
</g>
<g>
</g>
<g>
</g>
<g>
</g>
<g>
</g>
<g>
</g>
<g>
</g>
<g>
</g>
</svg>
