<?xml version="1.0" encoding="iso-8859-1"?>
<!-- Generator: Adobe Illustrator 19.0.0, SVG Export Plug-In . SVG Version: 6.00 Build 0)  -->
<svg version="1.1" id="Layer_1" xmlns="http://www.w3.org/2000/svg" xmlns:xlink="http://www.w3.org/1999/xlink" x="0px" y="0px"
	 viewBox="0 0 512 512" style="enable-background:new 0 0 512 512;" xml:space="preserve">
<path style="fill:#CFF09E;" d="M370.347,105.681c0.009-0.943,0-1.872-0.026-2.791c-0.026-0.919-0.07-1.825-0.13-2.721
	c-0.242-3.58-0.752-6.975-1.499-10.188c-0.331-1.423-0.714-2.803-1.136-4.156c-0.53-1.704-1.121-3.358-1.783-4.952
	c-4.097-9.869-10.621-17.662-18.22-23.652c-0.243-0.192-0.487-0.381-0.733-0.569c-1.417-1.086-2.869-2.112-4.349-3.077
	c-0.25-0.164-0.502-0.325-0.755-0.486c-2.197-1.395-4.448-2.664-6.731-3.806c-0.019-0.01-0.038-0.019-0.057-0.028
	c-3.422-1.708-6.906-3.131-10.361-4.298c-2.398-0.809-4.778-1.492-7.116-2.055c-0.495-0.12-0.988-0.233-1.48-0.343
	c-0.689-0.152-1.373-0.294-2.052-0.426c-0.43-0.083-0.858-0.162-1.282-0.239c-2.045-0.362-4.036-0.629-5.947-0.805
	c-1.158-0.107-2.288-0.18-3.383-0.221c-5.576-0.208-10.279,0.416-13.433,1.743c-8.237,3.465-19.854,6.906-26.555,6.906l0,0l0,0
	c-6.703,0-18.318-3.441-26.555-6.906c-18.438-7.757-89.718,8.467-79.476,74.953c10.244,66.486,21.099,118.965,68.074,118.965
	c18.173,0,29.004-3.876,34.193-6.45c2.522-1.252,5.459-1.342,8.025-0.182c3.743,1.694,9.368,3.968,14.454,4.943
	c0.022,0.004,0.042,0.009,0.066,0.013c1.136,0.217,2.33,0.419,3.58,0.603c0.016,0.003,0.029,0.004,0.045,0.007
	c4.437,0.65,9.6,1.066,15.551,1.066c15.414,0,26.94-5.65,35.829-15.591c0.423-0.473,0.84-0.956,1.252-1.449
	c17.285-20.694,24.271-58.293,30.993-101.925c0.635-4.126,0.956-8.057,0.995-11.803
	C370.346,105.736,370.347,105.708,370.347,105.681z"/>
<g>
	<path style="fill:#507C5C;" d="M301.275,251.168c-6.059,0-11.876-0.392-17.301-1.167l-0.209-0.031
		c-0.054-0.007-0.107-0.015-0.16-0.023l-0.274-0.041c-1.388-0.208-2.715-0.433-3.982-0.675l-0.154-0.031
		c-4.513-0.867-9.693-2.535-15.368-4.964c-7.626,3.374-20.039,6.928-38.463,6.928c-27.392,0-47.953-14.489-61.109-43.067
		c-10.866-23.602-16.339-55.24-21.433-88.308c-3.815-24.759,1.827-46.774,16.314-63.664c17.738-20.681,46.063-29.936,66.266-29.936
		c6.687,0,12.419,0.985,17.039,2.928c8.191,3.446,17.409,5.762,20.88,5.762c3.471,0,12.688-2.314,20.88-5.762
		c5.204-2.188,11.785-3.165,19.657-2.878c1.331,0.048,2.736,0.141,4.167,0.272c2.332,0.214,4.74,0.539,7.165,0.969
		c0.479,0.083,0.99,0.179,1.503,0.277c0.821,0.158,1.634,0.329,2.452,0.511c0.581,0.129,1.17,0.263,1.759,0.405
		c2.777,0.67,5.592,1.483,8.347,2.411c4.21,1.423,8.311,3.124,12.192,5.056l0.255,0.129c2.686,1.35,5.333,2.849,7.868,4.459
		c0.312,0.198,0.624,0.397,0.935,0.602c1.776,1.158,3.544,2.409,5.23,3.7l0.89,0.691c10.274,8.099,17.902,18.037,22.677,29.537
		c0.814,1.96,1.568,4.053,2.241,6.22c0.561,1.802,1.023,3.501,1.416,5.191c0.937,4.028,1.557,8.24,1.844,12.516
		c0.073,1.076,0.126,2.178,0.157,3.292c0.031,1.091,0.041,2.207,0.031,3.335l-0.009,0.284c-0.056,4.443-0.446,9.052-1.164,13.7
		c-7.039,45.688-14.474,85.432-34.225,109.08c-0.509,0.612-1.038,1.224-1.575,1.822
		C335.867,244.281,320.142,251.168,301.275,251.168z M288.083,221.015c4.065,0.581,8.502,0.877,13.192,0.877
		c10.465,0,18.384-3.403,24.92-10.711c0.309-0.347,0.615-0.701,0.916-1.064c14.912-17.851,21.645-55.02,27.771-94.781
		c0.515-3.342,0.793-6.615,0.826-9.727l0.004-0.218c0.004-0.701-0.003-1.395-0.023-2.082c-0.021-0.732-0.054-1.445-0.102-2.149
		c-0.183-2.718-0.571-5.362-1.152-7.866c-0.23-0.991-0.509-2.011-0.855-3.125c-0.407-1.31-0.853-2.548-1.323-3.683
		c-2.834-6.826-7.465-12.804-13.764-17.771l-0.591-0.458c-1.083-0.83-2.24-1.648-3.424-2.421l-0.605-0.389
		c-1.733-1.099-3.541-2.123-5.378-3.043l-0.284-0.142c-2.641-1.306-5.439-2.462-8.325-3.436c-1.932-0.651-3.905-1.222-5.863-1.694
		c-0.422-0.101-0.82-0.193-1.216-0.28c-0.564-0.126-1.118-0.242-1.67-0.348c-0.332-0.064-0.676-0.129-1.019-0.189
		c-1.657-0.293-3.251-0.509-4.768-0.648c-0.877-0.081-1.74-0.138-2.578-0.168c-0.531-0.02-1.042-0.031-1.54-0.031
		c-3.37,0-5.243,0.46-5.681,0.638c-8.828,3.714-22.567,8.051-32.233,8.051c-9.665,0-23.403-4.337-32.233-8.051
		c-0.435-0.177-2.313-0.638-5.685-0.638c-13.066,0-32.422,6.171-44.044,19.72c-8.879,10.353-12.109,23.86-9.601,40.148
		c11.123,72.196,21.982,106.556,53.607,106.556c16.026,0,24.702-3.446,27.689-4.926c3.327-1.65,7.038-2.522,10.733-2.522
		c3.417,0,6.723,0.711,9.829,2.118c4.353,1.97,8.322,3.355,11.176,3.902l0.148,0.029c0.742,0.142,1.588,0.287,2.478,0.423
		L288.083,221.015z"/>
	<rect x="248.686" style="fill:#507C5C;" width="29.276" height="54.799"/>
	<path style="fill:#507C5C;" d="M472.954,382.667H113.972c-41.314,0-74.926-33.612-74.926-74.926v-8.623
		c0-41.316,33.612-74.928,74.926-74.928h358.981v29.276c-25.172,0-45.65,20.479-45.65,45.652v8.623
		c0,25.17,20.479,45.65,45.65,45.65V382.667z M113.972,253.468c-25.172,0-45.65,20.479-45.65,45.652v8.623
		c0,25.17,20.479,45.65,45.65,45.65h299.604c-9.746-12.647-15.55-28.486-15.55-45.65v-8.623c0-17.167,5.801-33.003,15.55-45.652
		H113.972z"/>
	<path style="fill:#507C5C;" d="M504.497,512H82.429c-41.314,0-74.926-33.612-74.926-74.928v-8.622
		c0-41.316,33.612-74.928,74.926-74.928h422.068v29.276c-25.172,0-45.65,20.479-45.65,45.652v8.622
		c0,25.172,20.479,45.652,45.65,45.652V512L504.497,512z M82.429,382.802c-25.172,0-45.65,20.479-45.65,45.652v8.622
		c0,25.172,20.479,45.652,45.65,45.652h362.692c-9.747-12.649-15.55-28.484-15.55-45.652v-8.622c0-17.167,5.801-33.003,15.55-45.652
		H82.429z"/>
	<rect x="185.757" y="271.521" style="fill:#507C5C;" width="234.252" height="29.276"/>
	<rect x="121.95" y="406.015" style="fill:#507C5C;" width="323.134" height="29.276"/>
</g>
<g>
</g>
<g>
</g>
<g>
</g>
<g>
</g>
<g>
</g>
<g>
</g>
<g>
</g>
<g>
</g>
<g>
</g>
<g>
</g>
<g>
</g>
<g>
</g>
<g>
</g>
<g>
</g>
<g>
</g>
</svg>
