<?xml version="1.0" encoding="iso-8859-1"?>
<!-- Generator: Adobe Illustrator 19.0.0, SVG Export Plug-In . SVG Version: 6.00 Build 0)  -->
<svg version="1.1" id="Layer_1" xmlns="http://www.w3.org/2000/svg" xmlns:xlink="http://www.w3.org/1999/xlink" x="0px" y="0px"
	 viewBox="0 0 512 512" style="enable-background:new 0 0 512 512;" xml:space="preserve">
<path style="fill:#CFF09E;" d="M475.396,60.633H283.837c-0.585,0-1.161,0.136-1.684,0.397l-24.468,12.234
	c-1.06,0.531-2.308,0.531-3.368,0L229.848,61.03c-0.523-0.261-1.099-0.397-1.684-0.397H36.604c-12.774,0-23.13,10.356-23.13,23.13
	v344.478c0,12.772,10.356,23.128,23.13,23.128h438.793c12.774,0,23.13-10.356,23.13-23.13V83.763
	C498.526,70.989,488.17,60.633,475.396,60.633z M444.632,391.809c0,3.13-2.537,5.666-5.666,5.666H76.8
	c-5.209,0-9.432-4.223-9.432-9.432V123.959c0-5.209,4.223-9.432,9.432-9.432h138.64c0.585,0,1.161,0.136,1.684,0.397l37.191,18.596
	c1.06,0.53,2.308,0.53,3.368,0l0,0l37.191-18.596c0.523-0.261,1.099-0.397,1.684-0.397h142.406c3.129,0,5.666,2.537,5.666,5.666
	L444.632,391.809L444.632,391.809z"/>
<path style="fill:#507C5C;" d="M475.396,464.842H36.604C16.42,464.842,0,448.422,0,428.241V83.762
	C0,63.58,16.42,47.159,36.604,47.159h191.559c2.657,0,5.318,0.628,7.698,1.814L256,59.042l20.127-10.063
	c2.392-1.192,5.053-1.82,7.71-1.82h191.559C495.58,47.159,512,63.58,512,83.762v344.479C512,448.422,495.58,464.842,475.396,464.842
	z M36.604,74.107c-5.325,0-9.657,4.332-9.657,9.655v344.479c0,5.323,4.332,9.655,9.657,9.655h438.793
	c5.325,0,9.657-4.332,9.657-9.655V83.762c0-5.323-4.332-9.655-9.657-9.655H286.129L263.71,85.315
	c-4.763,2.382-10.656,2.382-15.419,0l-22.419-11.209H36.604z M438.966,410.947H76.8c-12.63,0-22.905-10.275-22.905-22.905V123.958
	c0-12.63,10.275-22.905,22.905-22.905h138.64c2.654,0,5.314,0.627,7.692,1.811L256,119.299l32.849-16.424
	c2.396-1.194,5.055-1.82,7.71-1.82h142.406c10.554,0,19.141,8.585,19.141,19.139v271.616
	C458.105,402.362,449.519,410.947,438.966,410.947z M80.842,384h350.316V128H298.85l-35.141,17.571
	c-4.764,2.382-10.656,2.382-15.419,0L213.15,128H80.842V384z"/>
<path style="fill:#CFF09E;" d="M110.285,115.426h64.873V226.96c0,4.631-4.709,7.774-8.986,5.997l-20.96-8.707
	c-1.595-0.663-3.387-0.663-4.983,0l-20.96,8.707c-4.277,1.777-8.986-1.366-8.986-5.997
	C110.285,226.96,110.285,115.426,110.285,115.426z"/>
<g>
	<path style="fill:#507C5C;" d="M168.669,246.934c-2.634,0-5.213-0.517-7.664-1.535l-18.284-7.595l-18.282,7.595
		c-2.451,1.017-5.03,1.535-7.664,1.535c-11.008,0-19.963-8.96-19.963-19.975V101.953h91.819v125.006
		C188.632,237.972,179.677,246.934,168.669,246.934z M123.758,128.9v87.603l11.303-4.696c4.884-2.025,10.437-2.026,15.316-0.001
		l11.307,4.697V128.9H123.758z"/>
	<rect x="240.842" y="133.524" style="fill:#507C5C;" width="26.947" height="263.949"/>
</g>
<g>
</g>
<g>
</g>
<g>
</g>
<g>
</g>
<g>
</g>
<g>
</g>
<g>
</g>
<g>
</g>
<g>
</g>
<g>
</g>
<g>
</g>
<g>
</g>
<g>
</g>
<g>
</g>
<g>
</g>
</svg>
