<?xml version="1.0" encoding="iso-8859-1"?>
<!-- Generator: Adobe Illustrator 19.0.0, SVG Export Plug-In . SVG Version: 6.00 Build 0)  -->
<svg version="1.1" id="Layer_1" xmlns="http://www.w3.org/2000/svg" xmlns:xlink="http://www.w3.org/1999/xlink" x="0px" y="0px"
	 viewBox="0 0 512 512" style="enable-background:new 0 0 512 512;" xml:space="preserve">
<path style="fill:#507C5C;" d="M478.169,230.741H33.83c-14.943,0-27.558-9.191-32.137-23.416
	c-4.578-14.224,0.307-29.046,12.443-37.762L236.306,9.992c5.774-4.148,12.585-6.34,19.694-6.34c7.109,0,13.92,2.192,19.694,6.34
	l222.171,159.572c12.134,8.716,17.02,23.538,12.441,37.762C505.728,221.55,493.112,230.741,478.169,230.741z M256,30.933
	c-0.951,0-2.379,0.211-3.78,1.218L30.052,191.722c-3.336,2.395-2.927,5.568-2.388,7.246c0.54,1.678,2.06,4.495,6.167,4.495h444.338
	c4.108,0,5.627-2.815,6.167-4.495c0.54-1.676,0.948-4.851-2.387-7.246L259.779,32.151C258.38,31.144,256.952,30.933,256,30.933z"/>
<rect x="58.214" y="219.174" style="fill:#CFF09E;" width="81.842" height="205.97"/>
<path style="fill:#507C5C;" d="M153.697,438.782H44.574V205.531h109.123V438.782z M71.854,411.501h54.562V232.812H71.854
	C71.854,232.812,71.854,411.501,71.854,411.501z"/>
<rect x="215.081" y="219.174" style="fill:#CFF09E;" width="81.842" height="205.97"/>
<path style="fill:#507C5C;" d="M310.561,438.782H201.438V205.531h109.123V438.782z M228.719,411.501h54.562V232.812h-54.562V411.501
	z"/>
<rect x="371.946" y="219.174" style="fill:#CFF09E;" width="81.842" height="205.97"/>
<g>
	<path style="fill:#507C5C;" d="M467.426,438.782H358.302V205.531h109.123V438.782z M385.583,411.501h54.562V232.812h-54.562
		V411.501z"/>
	<path style="fill:#507C5C;" d="M478.001,508.348H34c-16.042,0-29.094-13.051-29.094-29.094v-37.297
		c0-16.042,13.051-29.092,29.094-29.092h444.001c16.042,0,29.094,13.05,29.094,29.092v37.297
		C507.094,495.297,494.043,508.348,478.001,508.348z M34,440.146c-0.998,0-1.813,0.813-1.813,1.811v37.297
		c0,0.998,0.814,1.813,1.813,1.813h444.001c0.998,0,1.813-0.814,1.813-1.813v-37.297c0-0.998-0.814-1.811-1.813-1.811H34z"/>
</g>
<g>
</g>
<g>
</g>
<g>
</g>
<g>
</g>
<g>
</g>
<g>
</g>
<g>
</g>
<g>
</g>
<g>
</g>
<g>
</g>
<g>
</g>
<g>
</g>
<g>
</g>
<g>
</g>
<g>
</g>
</svg>
