<?xml version="1.0" encoding="iso-8859-1"?>
<!-- Generator: Adobe Illustrator 19.0.0, SVG Export Plug-In . SVG Version: 6.00 Build 0)  -->
<svg version="1.1" id="Layer_1" xmlns="http://www.w3.org/2000/svg" xmlns:xlink="http://www.w3.org/1999/xlink" x="0px" y="0px"
	 viewBox="0 0 512 512" style="enable-background:new 0 0 512 512;" xml:space="preserve">
<g>
	<path style="fill:#507C5C;" d="M347.148,422.415H164.89l-1.494-11.448c-2.298-17.62-10.388-25.446-23.792-38.41
		c-1.012-0.978-2.039-1.972-3.08-2.987c-22.669-22.088-53.713-52.336-53.713-124.306c0-46.175,18.371-88.236,51.729-118.432
		c31.905-28.88,75.041-44.786,121.462-44.786s89.558,15.905,121.463,44.786c7.228,6.544,13.856,13.758,19.699,21.442
		c3.32,4.368,6.434,8.951,9.258,13.625c1.416,2.342,2.782,4.744,4.064,7.142c2.568,4.807,4.912,9.816,6.967,14.888
		c1.534,3.785,2.944,7.7,4.19,11.636c5.012,15.849,7.551,32.568,7.551,49.699c0,30.038-5.287,55.104-16.162,76.628
		c-0.647,1.278-1.304,2.53-1.976,3.755c-1.92,3.516-4.043,7.012-6.308,10.385c-0.727,1.083-1.462,2.146-2.204,3.187
		c-2.77,3.889-5.751,7.664-9.115,11.542c-6.064,6.991-12.331,13.075-17.862,18.443c-1.107,1.074-2.198,2.126-3.272,3.161
		c-13.374,12.877-21.445,20.65-23.697,38.542L347.148,422.415z M187.169,396.12h137.589c5.359-19.644,17.04-30.89,29.298-42.693
		c1.049-1.01,2.114-2.037,3.196-3.086c5.402-5.245,10.989-10.668,16.312-16.804c2.808-3.24,5.283-6.37,7.561-9.569
		c0.602-0.845,1.199-1.709,1.791-2.59c1.818-2.71,3.524-5.517,5.066-8.339c0.539-0.986,1.066-1.987,1.58-3.007
		c8.973-17.758,13.337-38.946,13.337-64.767c0-14.437-2.129-28.489-6.328-41.768c-1.036-3.278-2.211-6.54-3.488-9.692
		c-1.709-4.218-3.656-8.38-5.789-12.372c-1.064-1.992-2.2-3.988-3.374-5.932c-2.344-3.879-4.932-7.685-7.689-11.312
		c-4.861-6.394-10.384-12.405-16.412-17.861c-27.06-24.495-63.93-37.985-103.817-37.985s-76.757,13.489-103.815,37.985
		c-27.781,25.147-43.08,60.284-43.08,98.936c0,60.877,24.315,84.569,45.769,105.472c1.018,0.991,2.023,1.963,3.012,2.92
		C170.109,365.48,181.759,376.749,187.169,396.12z"/>
	
		<rect x="167.463" y="326.719" transform="matrix(0.4961 0.8682 -0.8682 0.4961 408.8393 -24.7638)" style="fill:#507C5C;" width="116.586" height="26.292"/>
	
		<rect x="273.1" y="281.573" transform="matrix(0.8682 0.4961 -0.4961 0.8682 206.3302 -97.2371)" style="fill:#507C5C;" width="26.292" height="116.586"/>
	<rect x="242.851" style="fill:#507C5C;" width="26.295" height="52.59"/>
	<rect x="453.211" y="184.065" style="fill:#507C5C;" width="46.016" height="26.295"/>
	<rect x="12.773" y="184.065" style="fill:#507C5C;" width="46.016" height="26.295"/>
	
		<rect x="400.623" y="60.302" transform="matrix(0.7071 0.7071 -0.7071 0.7071 176.9758 -269.473)" style="fill:#507C5C;" width="26.295" height="37.181"/>
	
		<rect x="79.648" y="65.747" transform="matrix(0.7071 0.7071 -0.7071 0.7071 84.5602 -46.3571)" style="fill:#507C5C;" width="37.181" height="26.295"/>
</g>
<path style="fill:#CFF09E;" d="M169.32,389.773v45.117c0,8.056,6.53,14.587,14.587,14.587h10.39v34.788
	c0,8.056,6.53,14.587,14.587,14.587h94.235c8.055,0,14.587-6.53,14.587-14.587v-34.788h10.39c8.055,0,14.587-6.53,14.587-14.587
	v-45.117H169.32z"/>
<path style="fill:#507C5C;" d="M303.12,512h-94.235c-15.293,0-27.735-12.441-27.735-27.735v-21.776
	c-14.002-1.388-24.978-13.236-24.978-27.598v-58.265h199.658v58.265c0,14.362-10.974,26.21-24.976,27.598v21.776
	C330.855,499.559,318.413,512,303.12,512z M182.468,402.92v31.97c0,0.794,0.646,1.44,1.44,1.44h23.538v47.935
	c0,0.794,0.646,1.44,1.44,1.44h94.235c0.794,0,1.44-0.646,1.44-1.44v-47.935h23.538c0.794,0,1.438-0.646,1.438-1.44v-31.97H182.468z
	"/>
<g>
</g>
<g>
</g>
<g>
</g>
<g>
</g>
<g>
</g>
<g>
</g>
<g>
</g>
<g>
</g>
<g>
</g>
<g>
</g>
<g>
</g>
<g>
</g>
<g>
</g>
<g>
</g>
<g>
</g>
</svg>
