<?xml version="1.0" encoding="iso-8859-1"?>
<!-- Generator: Adobe Illustrator 19.0.0, SVG Export Plug-In . SVG Version: 6.00 Build 0)  -->
<svg version="1.1" id="Layer_1" xmlns="http://www.w3.org/2000/svg" xmlns:xlink="http://www.w3.org/1999/xlink" x="0px" y="0px"
	 viewBox="0 0 512 512" style="enable-background:new 0 0 512 512;" xml:space="preserve">
<path style="fill:#507C5C;" d="M409.956,512H102.044c-26.86,0-48.711-21.851-48.711-48.711V48.711C53.333,21.851,75.184,0,102.044,0
	h307.911c26.86,0,48.711,21.851,48.711,48.711v414.578C458.667,490.149,436.816,512,409.956,512z M102.044,28.444
	c-11.174,0-20.267,9.092-20.267,20.267v414.578c0,11.174,9.092,20.267,20.267,20.267h307.911c11.174,0,20.267-9.092,20.267-20.267
	V48.711c0-11.174-9.092-20.267-20.267-20.267H102.044z"/>
<path style="fill:#CFF09E;" d="M368.356,156.444H143.644c-8.64,0-15.644-7.004-15.644-15.644V86.756
	c0-8.64,7.004-15.644,15.644-15.644h224.711c8.64,0,15.644,7.004,15.644,15.644V140.8C384,149.44,376.996,156.444,368.356,156.444z"
	/>
<path style="fill:#507C5C;" d="M368.356,170.667H143.644c-16.469,0-29.867-13.397-29.867-29.867V86.756
	c0-16.469,13.397-29.867,29.867-29.867h224.711c16.469,0,29.867,13.397,29.867,29.867V140.8
	C398.222,157.269,384.825,170.667,368.356,170.667z M143.644,85.333c-0.784,0-1.422,0.639-1.422,1.422V140.8
	c0,0.784,0.639,1.422,1.422,1.422h224.711c0.784,0,1.422-0.639,1.422-1.422V86.756c0-0.784-0.639-1.422-1.422-1.422H143.644z"/>
<path style="fill:#CFF09E;" d="M369.778,440.889H142.222c-7.855,0-14.222-6.367-14.222-14.222V241.778
	c0-7.855,6.367-14.222,14.222-14.222h227.556c7.855,0,14.222,6.367,14.222,14.222v184.889
	C384,434.522,377.633,440.889,369.778,440.889z"/>
<g>
	<path style="fill:#507C5C;" d="M369.778,455.111H142.222c-15.684,0-28.444-12.76-28.444-28.444V241.778
		c0-15.684,12.76-28.444,28.444-28.444h227.556c15.684,0,28.444,12.76,28.444,28.444v184.889
		C398.222,442.351,385.462,455.111,369.778,455.111z M142.222,241.778v184.889h227.556c0.013,0,0.018,0,0.018,0l-0.018-184.889
		H142.222z"/>
	<rect x="199.111" y="227.556" style="fill:#507C5C;" width="28.444" height="217.6"/>
	<rect x="284.444" y="227.556" style="fill:#507C5C;" width="28.444" height="217.6"/>
	<rect x="128" y="284.444" style="fill:#507C5C;" width="256" height="28.444"/>
	<rect x="128" y="355.556" style="fill:#507C5C;" width="170.667" height="28.444"/>
</g>
<g>
</g>
<g>
</g>
<g>
</g>
<g>
</g>
<g>
</g>
<g>
</g>
<g>
</g>
<g>
</g>
<g>
</g>
<g>
</g>
<g>
</g>
<g>
</g>
<g>
</g>
<g>
</g>
<g>
</g>
</svg>
