<?xml version="1.0" encoding="iso-8859-1"?>
<!-- Generator: Adobe Illustrator 19.0.0, SVG Export Plug-In . SVG Version: 6.00 Build 0)  -->
<svg version="1.1" id="Layer_1" xmlns="http://www.w3.org/2000/svg" xmlns:xlink="http://www.w3.org/1999/xlink" x="0px" y="0px"
	 viewBox="0 0 512 512" style="enable-background:new 0 0 512 512;" xml:space="preserve">
<path style="fill:#507C5C;" d="M409.956,512H102.044c-26.86,0-48.711-21.851-48.711-48.711V48.711C53.333,21.851,75.184,0,102.044,0
	h307.911c26.86,0,48.711,21.851,48.711,48.711v414.578C458.667,490.149,436.816,512,409.956,512z M102.044,28.444
	c-11.174,0-20.267,9.092-20.267,20.267v414.578c0,11.174,9.092,20.267,20.267,20.267h307.911c11.174,0,20.267-9.092,20.267-20.267
	V48.711c0-11.174-9.092-20.267-20.267-20.267H102.044z"/>
<path style="fill:#CFF09E;" d="M368.356,170.667H143.644c-8.64,0-15.644-7.004-15.644-15.644v-54.044
	c0-8.64,7.004-15.644,15.644-15.644h224.711c8.64,0,15.644,7.004,15.644,15.644v54.044C384,163.662,376.996,170.667,368.356,170.667
	z"/>
<g>
	<path style="fill:#507C5C;" d="M368.356,184.889H143.644c-16.469,0-29.867-13.399-29.867-29.867v-54.044
		c0-16.468,13.397-29.867,29.867-29.867h224.711c16.469,0,29.867,13.399,29.867,29.867v54.044
		C398.222,171.49,384.825,184.889,368.356,184.889z M143.644,99.556c-0.784,0-1.422,0.637-1.422,1.422v54.044
		c0,0.785,0.639,1.422,1.422,1.422h224.711c0.784,0,1.422-0.637,1.422-1.422v-54.044c0-0.785-0.639-1.422-1.422-1.422H143.644z"/>
	<path style="fill:#507C5C;" d="M379.733,427.024h-86.044c-16.469,0-29.867-13.399-29.867-29.867v-147.2
		c0-16.468,13.397-29.867,29.867-29.867h86.044v28.444h-86.044c-0.784,0-1.422,0.637-1.422,1.422v147.2
		c0,0.785,0.639,1.422,1.422,1.422h86.044V427.024z"/>
	<rect x="315.506" y="286.82" style="fill:#507C5C;" width="67.314" height="28.444"/>
	<rect x="315.506" y="331.847" style="fill:#507C5C;" width="67.314" height="28.444"/>
	<rect x="148.622" y="246.528" style="fill:#507C5C;" width="28.444" height="67.314"/>
	<rect x="129.195" y="265.956" style="fill:#507C5C;" width="67.314" height="28.444"/>
	<rect x="129.195" y="386.375" style="fill:#507C5C;" width="67.314" height="28.444"/>
</g>
<g>
</g>
<g>
</g>
<g>
</g>
<g>
</g>
<g>
</g>
<g>
</g>
<g>
</g>
<g>
</g>
<g>
</g>
<g>
</g>
<g>
</g>
<g>
</g>
<g>
</g>
<g>
</g>
<g>
</g>
</svg>
