<?xml version="1.0" encoding="iso-8859-1"?>
<!-- Generator: Adobe Illustrator 19.0.0, SVG Export Plug-In . SVG Version: 6.00 Build 0)  -->
<svg version="1.1" id="Layer_1" xmlns="http://www.w3.org/2000/svg" xmlns:xlink="http://www.w3.org/1999/xlink" x="0px" y="0px"
	 viewBox="0 0 512 512" style="enable-background:new 0 0 512 512;" xml:space="preserve">
<path style="fill:#507C5C;" d="M442.884,512H69.117c-33.045,0-59.931-26.885-59.931-59.931V59.931C9.188,26.885,36.072,0,69.117,0
	h373.766c33.045,0,59.931,26.885,59.931,59.931v392.14C502.815,485.116,475.93,512,442.884,512z M69.117,29.037
	c-17.034,0-30.894,13.858-30.894,30.894v392.14c0,17.034,13.858,30.894,30.894,30.894h373.766c17.034,0,30.894-13.858,30.894-30.894
	V59.931c0-17.034-13.858-30.894-30.894-30.894H69.117z"/>
<path style="fill:#CFF09E;" d="M291.621,162.685v17.38c0,9.457,7.667,17.124,17.125,17.124h102.743
	c9.457,0,17.125-7.667,17.125-17.124v-17.38c0-9.457-7.667-17.124-17.125-17.124H308.745
	C299.287,145.562,291.621,153.228,291.621,162.685z"/>
<path style="fill:#507C5C;" d="M411.487,211.708H308.744c-17.448,0-31.642-14.195-31.642-31.643v-17.38
	c0-17.448,14.195-31.641,31.642-31.641h102.743c17.448,0,31.643,14.195,31.643,31.641v17.38
	C443.13,197.512,428.935,211.708,411.487,211.708z M308.744,160.08c-1.436,0-2.605,1.169-2.605,2.605v17.38
	c0,1.437,1.169,2.606,2.605,2.606h102.743c1.437,0,2.606-1.169,2.606-2.606v-17.38c0-1.436-1.169-2.605-2.606-2.605H308.744z"/>
<path style="fill:#CFF09E;" d="M203.257,145.562h-25.558v-25.558c0-9.457-7.667-17.124-17.124-17.124h-17.379
	c-9.457,0-17.125,7.667-17.125,17.124v25.558h-25.557c-9.457,0-17.124,7.667-17.124,17.124v17.38
	c0,9.457,7.667,17.125,17.124,17.125h25.558v25.558c0,9.457,7.667,17.124,17.124,17.124h17.38c9.457,0,17.124-7.667,17.124-17.124
	v-25.56h25.558c9.457,0,17.124-7.667,17.124-17.124v-17.38C220.382,153.228,212.715,145.562,203.257,145.562z"/>
<path style="fill:#507C5C;" d="M160.576,254.389h-17.38c-17.448,0-31.641-14.195-31.641-31.641v-11.04h-11.04
	c-17.448,0-31.643-14.195-31.643-31.643v-17.38c0-17.448,14.195-31.641,31.643-31.641h11.04v-11.04
	c0-17.448,14.195-31.643,31.641-31.643h17.38c17.448,0,31.643,14.195,31.643,31.643v11.04h11.04
	c17.448,0,31.641,14.195,31.641,31.641v17.38c0,17.448-14.195,31.643-31.641,31.643h-11.04v11.04
	C192.219,240.194,178.023,254.389,160.576,254.389z M100.515,160.08c-1.437,0-2.606,1.169-2.606,2.605v17.38
	c0,1.437,1.169,2.606,2.606,2.606h40.077v40.077c0,1.436,1.169,2.605,2.605,2.605h17.38c1.437,0,2.606-1.169,2.606-2.605v-40.077
	h40.077c1.436,0,2.605-1.169,2.605-2.606v-17.38c0-1.436-1.169-2.605-2.605-2.605h-40.077v-40.077c0-1.437-1.169-2.606-2.606-2.606
	h-17.38c-1.436,0-2.605,1.169-2.605,2.606v40.077C140.591,160.08,100.515,160.08,100.515,160.08z"/>
<path style="fill:#CFF09E;" d="M414.694,367.598l-18.073-18.073l18.073-18.073c6.687-6.687,6.687-17.53,0-24.217l-12.29-12.29
	c-6.687-6.687-17.53-6.687-24.217,0l-18.073,18.073l-18.073-18.073c-6.687-6.687-17.53-6.687-24.217,0l-12.29,12.29
	c-6.687,6.687-6.687,17.53,0,24.217l18.073,18.073l-18.073,18.073c-6.687,6.687-6.687,17.53,0,24.217l12.29,12.29
	c6.687,6.687,17.53,6.687,24.217,0l18.073-18.073l18.073,18.073c6.687,6.687,17.53,6.687,24.217,0l12.29-12.29
	C421.381,385.128,421.381,374.287,414.694,367.598z"/>
<g>
	<path style="fill:#507C5C;" d="M390.297,423.639c-8.451,0-16.397-3.291-22.374-9.267l-7.807-7.807l-7.805,7.807
		c-5.977,5.976-13.923,9.267-22.376,9.267c-8.451,0-16.397-3.291-22.374-9.267l-12.288-12.29
		c-5.976-5.976-9.269-13.922-9.269-22.374s3.293-16.399,9.269-22.376l7.805-7.805l-7.805-7.807
		c-5.976-5.976-9.269-13.922-9.269-22.374c0-8.453,3.293-16.399,9.269-22.374l12.288-12.288c5.977-5.977,13.923-9.269,22.374-9.269
		c8.453,0,16.399,3.291,22.376,9.267l7.805,7.807l7.805-7.807c5.977-5.976,13.923-9.267,22.374-9.267s16.397,3.291,22.374,9.267
		l12.29,12.29c12.338,12.338,12.338,32.412,0,44.75l-7.807,7.805l7.805,7.805c12.338,12.339,12.338,32.412,0,44.749l-12.29,12.29
		C406.694,420.348,398.748,423.639,390.297,423.639z M360.116,365.502l28.339,28.339c0.63,0.632,1.35,0.764,1.842,0.764
		c0.492,0,1.211-0.132,1.842-0.764l12.288-12.29c1.016-1.015,1.016-2.668,0-3.685l-28.339-28.337l28.339-28.339
		c1.016-1.016,1.016-2.668,0-3.685l-12.29-12.29c-0.63-0.632-1.35-0.764-1.842-0.764c-0.492,0-1.211,0.132-1.842,0.764
		l-28.339,28.339l-28.339-28.339c-0.63-0.632-1.35-0.764-1.842-0.764s-1.211,0.132-1.842,0.762l-12.288,12.29
		c-0.632,0.632-0.764,1.35-0.764,1.842c0,0.492,0.132,1.211,0.764,1.842l28.339,28.339l-28.337,28.339
		c-0.632,0.632-0.764,1.35-0.764,1.842c0,0.492,0.132,1.211,0.764,1.842l12.29,12.29c0.63,0.63,1.35,0.762,1.842,0.762
		s1.212-0.132,1.844-0.764L360.116,365.502z"/>
	<rect x="89.462" y="310.68" style="fill:#507C5C;" width="124.859" height="29.037"/>
	<rect x="89.462" y="359.346" style="fill:#507C5C;" width="124.859" height="29.037"/>
</g>
<g>
</g>
<g>
</g>
<g>
</g>
<g>
</g>
<g>
</g>
<g>
</g>
<g>
</g>
<g>
</g>
<g>
</g>
<g>
</g>
<g>
</g>
<g>
</g>
<g>
</g>
<g>
</g>
<g>
</g>
</svg>
