<?xml version="1.0" encoding="iso-8859-1"?>
<!-- Generator: Adobe Illustrator 19.0.0, SVG Export Plug-In . SVG Version: 6.00 Build 0)  -->
<svg version="1.1" id="Layer_1" xmlns="http://www.w3.org/2000/svg" xmlns:xlink="http://www.w3.org/1999/xlink" x="0px" y="0px"
	 viewBox="0 0 512 512" style="enable-background:new 0 0 512 512;" xml:space="preserve">
<path style="fill:#507C5C;" d="M450.677,489.692H61.322C27.509,489.692,0,462.185,0,428.371V141.558
	c0-33.812,27.509-61.322,61.322-61.322h389.357c33.812,0,61.322,27.509,61.322,61.322v286.813
	C511.999,462.185,484.491,489.692,450.677,489.692z M61.322,109.947c-17.431,0-31.611,14.179-31.611,31.611v286.813
	c0,17.43,14.179,31.611,31.611,31.611h389.357c17.43,0,31.611-14.179,31.611-31.611V141.558c0-17.43-14.18-31.611-31.611-31.611
	H61.322z"/>
<path style="fill:#CFF09E;" d="M107.638,137.796H90.386c-11.116,0-20.126-9.011-20.126-20.126V57.289
	c0-11.116,9.011-20.126,20.126-20.126h17.252c11.116,0,20.126,9.011,20.126,20.126v60.381
	C127.764,128.785,118.753,137.796,107.638,137.796z"/>
<path style="fill:#507C5C;" d="M107.638,152.652H90.386c-19.288,0-34.981-15.693-34.981-34.981V57.289
	c0-19.288,15.693-34.981,34.981-34.981h17.252c19.288,0,34.981,15.693,34.981,34.981v60.38
	C142.619,136.959,126.926,152.652,107.638,152.652z M90.386,52.018c-2.907,0-5.271,2.365-5.271,5.271v60.38
	c0,2.907,2.365,5.271,5.271,5.271h17.252c2.907,0,5.271-2.365,5.271-5.271v-60.38c0-2.907-2.365-5.271-5.271-5.271H90.386z"/>
<path style="fill:#CFF09E;" d="M421.612,137.796h-17.252c-11.116,0-20.126-9.011-20.126-20.126V57.289
	c0-11.116,9.011-20.126,20.126-20.126h17.252c11.116,0,20.126,9.011,20.126,20.126v60.381
	C441.74,128.785,432.729,137.796,421.612,137.796z"/>
<path style="fill:#507C5C;" d="M421.614,152.652h-17.252c-19.288,0-34.982-15.693-34.982-34.981V57.289
	c0-19.288,15.693-34.981,34.982-34.981h17.252c19.288,0,34.981,15.693,34.981,34.981v60.38
	C456.595,136.959,440.902,152.652,421.614,152.652z M404.362,52.018c-2.907,0-5.271,2.365-5.271,5.271v60.38
	c0,2.907,2.365,5.271,5.271,5.271h17.252c2.907,0,5.271-2.365,5.271-5.271v-60.38c0-2.907-2.365-5.271-5.271-5.271H404.362z"/>
<path style="fill:#CFF09E;" d="M264.625,137.796h-17.252c-11.116,0-20.126-9.011-20.126-20.126V57.289
	c0-11.116,9.011-20.126,20.126-20.126h17.252c11.116,0,20.126,9.011,20.126,20.126v60.381
	C284.751,128.785,275.741,137.796,264.625,137.796z"/>
<path style="fill:#507C5C;" d="M264.625,152.652h-17.252c-19.288,0-34.981-15.693-34.981-34.981V57.289
	c0-19.288,15.693-34.981,34.981-34.981h17.252c19.288,0,34.982,15.693,34.982,34.981v60.38
	C299.608,136.959,283.915,152.652,264.625,152.652z M247.373,52.018c-2.907,0-5.271,2.365-5.271,5.271v60.38
	c0,2.907,2.365,5.271,5.271,5.271h17.252c2.907,0,5.271-2.365,5.271-5.271v-60.38c0-2.907-2.365-5.271-5.271-5.271H247.373z"/>
<path style="fill:#CFF09E;" d="M497.143,198.711v-57.155c0-25.663-20.803-46.466-46.466-46.466H61.322
	c-25.663,0.001-46.466,20.805-46.466,46.466v57.155H497.143z"/>
<g>
	<path style="fill:#507C5C;" d="M511.999,213.566H0v-72.009c0-33.812,27.509-61.322,61.322-61.322h389.357
		c33.812,0,61.322,27.509,61.322,61.322L511.999,213.566L511.999,213.566z M29.711,183.856h452.577v-42.298
		c0-17.43-14.179-31.611-31.611-31.611H61.322c-17.431,0-31.611,14.179-31.611,31.611V183.856z"/>
	<path style="fill:#507C5C;" d="M94.076,314.024H64.365v-43.249c0-12.603,10.255-22.858,22.858-22.858h51.419v29.711H94.076
		C94.076,277.629,94.076,314.024,94.076,314.024z"/>
	<path style="fill:#507C5C;" d="M197.568,314.024h-29.711v-43.249c0-12.603,10.255-22.858,22.858-22.858h51.419v29.711h-44.566
		L197.568,314.024L197.568,314.024z"/>
	<path style="fill:#507C5C;" d="M301.061,314.024H271.35v-43.249c0-12.603,10.253-22.858,22.858-22.858h51.419v29.711h-44.566
		L301.061,314.024L301.061,314.024z"/>
	<path style="fill:#507C5C;" d="M404.554,314.024h-29.711v-43.249c0-12.603,10.255-22.858,22.858-22.858h51.419v29.711h-44.566
		V314.024z"/>
	<path style="fill:#507C5C;" d="M94.076,420.983H64.365v-43.249c0-12.603,10.255-22.858,22.858-22.858h51.419v29.711H94.076
		C94.076,384.587,94.076,420.983,94.076,420.983z"/>
	<path style="fill:#507C5C;" d="M197.568,420.983h-29.711v-43.249c0-12.603,10.255-22.858,22.858-22.858h51.419v29.711h-44.566
		L197.568,420.983L197.568,420.983z"/>
	<path style="fill:#507C5C;" d="M301.061,420.983H271.35v-43.249c0-12.603,10.253-22.858,22.858-22.858h51.419v29.711h-44.566
		L301.061,420.983L301.061,420.983z"/>
	<path style="fill:#507C5C;" d="M404.554,420.983h-29.711v-43.249c0-12.603,10.255-22.858,22.858-22.858h51.419v29.711h-44.566
		V420.983z"/>
</g>
<g>
</g>
<g>
</g>
<g>
</g>
<g>
</g>
<g>
</g>
<g>
</g>
<g>
</g>
<g>
</g>
<g>
</g>
<g>
</g>
<g>
</g>
<g>
</g>
<g>
</g>
<g>
</g>
<g>
</g>
</svg>
