<?xml version="1.0" encoding="iso-8859-1"?>
<!-- Generator: Adobe Illustrator 19.0.0, SVG Export Plug-In . SVG Version: 6.00 Build 0)  -->
<svg version="1.1" id="Layer_1" xmlns="http://www.w3.org/2000/svg" xmlns:xlink="http://www.w3.org/1999/xlink" x="0px" y="0px"
	 viewBox="0 0 512 512" style="enable-background:new 0 0 512 512;" xml:space="preserve">
<path style="fill:#507C5C;" d="M65.74,443.947c-11.468,0-21.541-7.724-24.495-18.781l-8.14-30.468h-7.799
	C11.353,394.699,0,383.348,0,369.393V175.745c0-13.953,11.353-25.306,25.306-25.306h265.912c13.953,0,25.306,11.353,25.306,25.306
	v193.647c0,13.953-11.353,25.306-25.306,25.306H125.479l-41.906,41.844C78.793,441.318,72.458,443.947,65.74,443.947z
	 M27.462,367.238h26.732l12.619,47.233l47.303-47.233h174.945V177.902H27.462V367.238z"/>
<path style="fill:#CFF09E;" d="M486.694,81.785H220.782c-6.393,0-11.575,5.182-11.575,11.575v193.645
	c0,6.393,5.182,11.575,11.575,11.575h171.421l45.926,45.859c6.305,6.296,17.061,3.405,19.361-5.203l10.861-40.656h18.343
	c6.393,0,11.575-5.182,11.575-11.575V93.359C498.269,86.967,493.087,81.785,486.694,81.785z"/>
<path style="fill:#507C5C;" d="M446.26,361.561c-6.719,0-13.053-2.63-17.834-7.407l-41.906-41.844H220.782
	c-13.953,0-25.306-11.353-25.306-25.306V93.359c0-13.953,11.353-25.306,25.306-25.306h265.912c13.953,0,25.306,11.353,25.306,25.306
	v193.647c0,13.953-11.353,25.306-25.306,25.306h-7.801l-8.14,30.468C467.8,353.837,457.728,361.561,446.26,361.561z M222.938,284.85
	h174.945l47.303,47.233l12.619-47.233h26.731V95.516H222.938V284.85z"/>
<g>
</g>
<g>
</g>
<g>
</g>
<g>
</g>
<g>
</g>
<g>
</g>
<g>
</g>
<g>
</g>
<g>
</g>
<g>
</g>
<g>
</g>
<g>
</g>
<g>
</g>
<g>
</g>
<g>
</g>
</svg>
