<?xml version="1.0" encoding="iso-8859-1"?>
<!-- Generator: Adobe Illustrator 19.0.0, SVG Export Plug-In . SVG Version: 6.00 Build 0)  -->
<svg version="1.1" id="Layer_1" xmlns="http://www.w3.org/2000/svg" xmlns:xlink="http://www.w3.org/1999/xlink" x="0px" y="0px"
	 viewBox="0 0 512 512" style="enable-background:new 0 0 512 512;" xml:space="preserve">
<g>
	<path style="fill:#507C5C;" d="M321.205,505.724H190.794V372.537h130.412V505.724z M218.541,477.976h74.917v-77.692h-74.917
		V477.976z"/>
	<path style="fill:#507C5C;" d="M454.903,427.887H57.097c-31.482,0-57.095-25.613-57.095-57.097V63.372
		c0-31.482,25.613-57.095,57.095-57.095h397.805c31.482,0,57.095,25.613,57.095,57.095v307.419
		C511.999,402.274,486.385,427.887,454.903,427.887z M57.097,34.022c-16.182,0-29.348,13.165-29.348,29.348v307.419
		c0,16.184,13.166,29.35,29.348,29.35h397.805c16.182,0,29.348-13.166,29.348-29.35V63.372c0-16.184-13.166-29.348-29.348-29.348
		H57.097V34.022z"/>
	<path style="fill:#507C5C;" d="M407.839,372.393H104.16c-26.834,0-48.666-21.831-48.666-48.666V110.436
		c0-26.834,21.831-48.666,48.666-48.666h303.679c26.834,0,48.666,21.831,48.666,48.666h-27.747c0-11.534-9.384-20.919-20.919-20.919
		H104.16c-11.534-0.001-20.919,9.383-20.919,20.919v213.291c0,11.534,9.384,20.919,20.919,20.919h303.679
		c11.534,0,20.919-9.384,20.919-20.919v-119.06h27.747v119.06C456.504,350.562,434.673,372.393,407.839,372.393z"/>
</g>
<path style="fill:#CFF09E;" d="M13.874,305.944v64.846c0,23.871,19.351,43.222,43.223,43.222h397.807
	c23.871,0,43.223-19.351,43.223-43.222v-64.846L13.874,305.944L13.874,305.944z"/>
<g>
	<path style="fill:#507C5C;" d="M454.903,427.886H57.097C25.613,427.886,0,402.273,0,370.791v-78.719h512v78.719
		C512,402.273,486.387,427.886,454.903,427.886z M27.747,319.818v50.971c0,16.184,13.166,29.348,29.35,29.348h397.805
		c16.184,0,29.35-13.165,29.35-29.348v-50.971H27.747z"/>
	<rect x="231.023" y="346.104" style="fill:#507C5C;" width="49.945" height="27.747"/>
	<rect x="145.7" y="477.972" style="fill:#507C5C;" width="220.59" height="27.747"/>
</g>
<g>
</g>
<g>
</g>
<g>
</g>
<g>
</g>
<g>
</g>
<g>
</g>
<g>
</g>
<g>
</g>
<g>
</g>
<g>
</g>
<g>
</g>
<g>
</g>
<g>
</g>
<g>
</g>
<g>
</g>
</svg>
