<?xml version="1.0" encoding="iso-8859-1"?>
<!-- Generator: Adobe Illustrator 19.0.0, SVG Export Plug-In . SVG Version: 6.00 Build 0)  -->
<svg version="1.1" id="Layer_1" xmlns="http://www.w3.org/2000/svg" xmlns:xlink="http://www.w3.org/1999/xlink" x="0px" y="0px"
	 viewBox="0 0 512 512" style="enable-background:new 0 0 512 512;" xml:space="preserve">
<g>
	<path style="fill:#507C5C;" d="M256,201.993c5.341,0,10.431,1.084,15.059,3.043V19.781h-30.118v185.255
		C245.569,203.077,250.659,201.993,256,201.993z"/>
	<path style="fill:#507C5C;" d="M256,279.294c-5.341,0-10.431-1.084-15.059-3.043v129.036h30.118V276.251
		C266.431,278.21,261.341,279.294,256,279.294z"/>
	<path style="fill:#507C5C;" d="M256,294.353c-29.616,0-53.71-24.094-53.71-53.709c0-29.616,24.094-53.71,53.71-53.71
		s53.71,24.094,53.71,53.71C309.71,270.259,285.616,294.353,256,294.353z M256,217.052c-13.009,0-23.593,10.583-23.593,23.593
		s10.583,23.591,23.593,23.591s23.593-10.582,23.593-23.591S269.009,217.052,256,217.052z"/>
	<path style="fill:#507C5C;" d="M98.635,201.993c5.341,0,10.431,1.084,15.059,3.043V19.781H83.576v185.255
		C88.204,203.077,93.294,201.993,98.635,201.993z"/>
	<path style="fill:#507C5C;" d="M98.635,279.294c-5.341,0-10.431-1.084-15.059-3.043v129.036h30.118V276.251
		C109.067,278.21,103.977,279.294,98.635,279.294z"/>
	<path style="fill:#507C5C;" d="M98.635,294.353c-29.616,0-53.71-24.094-53.71-53.709c0-29.616,24.094-53.71,53.71-53.71
		s53.71,24.094,53.71,53.71C152.346,270.259,128.251,294.353,98.635,294.353z M98.635,217.052
		c-13.009,0-23.593,10.583-23.593,23.593s10.583,23.591,23.593,23.591s23.593-10.582,23.593-23.591S111.645,217.052,98.635,217.052z
		"/>
	<path style="fill:#507C5C;" d="M471.543,492.225H40.457C18.149,492.225,0,474.076,0,451.768v-27.106
		c0-22.308,18.149-40.457,40.457-40.457h431.086c22.308,0,40.457,18.149,40.457,40.457v27.106
		C512,474.076,493.851,492.225,471.543,492.225z M40.457,414.322c-5.701,0-10.339,4.638-10.339,10.339v27.106
		c0,5.701,4.638,10.339,10.339,10.339h431.086c5.701,0,10.339-4.638,10.339-10.339v-27.106c0-5.701-4.638-10.339-10.339-10.339
		H40.457z"/>
</g>
<circle style="fill:#CFF09E;" cx="98.635" cy="143.258" r="38.651"/>
<path style="fill:#507C5C;" d="M98.635,196.974c-29.616,0-53.71-24.094-53.71-53.71s24.094-53.71,53.71-53.71
	s53.71,24.094,53.71,53.71S128.251,196.974,98.635,196.974z M98.635,119.671c-13.009,0-23.593,10.583-23.593,23.593
	c0,13.009,10.583,23.593,23.593,23.593s23.593-10.583,23.593-23.593C122.228,130.254,111.645,119.671,98.635,119.671z"/>
<circle style="fill:#CFF09E;" cx="98.635" cy="338.028" r="38.651"/>
<path style="fill:#507C5C;" d="M98.635,391.734c-29.616,0-53.71-24.094-53.71-53.71c0-29.615,24.094-53.709,53.71-53.709
	s53.71,24.094,53.71,53.709C152.346,367.64,128.251,391.734,98.635,391.734z M98.635,314.433c-13.009,0-23.593,10.582-23.593,23.591
	c0,13.009,10.583,23.593,23.593,23.593s23.593-10.583,23.593-23.593S111.645,314.433,98.635,314.433z"/>
<circle style="fill:#CFF09E;" cx="256" cy="338.028" r="38.651"/>
<g>
	<path style="fill:#507C5C;" d="M256,391.734c-29.616,0-53.71-24.094-53.71-53.71c0-29.615,24.094-53.709,53.71-53.709
		s53.71,24.094,53.71,53.709C309.71,367.64,285.616,391.734,256,391.734z M256,314.433c-13.009,0-23.593,10.582-23.593,23.591
		c0,13.009,10.583,23.593,23.593,23.593s23.593-10.583,23.593-23.593S269.009,314.433,256,314.433z"/>
	<rect x="398.306" y="19.775" style="fill:#507C5C;" width="30.118" height="385.506"/>
</g>
<circle style="fill:#CFF09E;" cx="413.365" cy="338.028" r="38.651"/>
<path style="fill:#507C5C;" d="M413.365,391.734c-29.616,0-53.71-24.094-53.71-53.71c0-29.615,24.094-53.709,53.71-53.709
	s53.71,24.094,53.71,53.709C467.075,367.64,442.981,391.734,413.365,391.734z M413.365,314.433
	c-13.009,0-23.593,10.582-23.593,23.591c0,13.009,10.583,23.593,23.593,23.593s23.593-10.583,23.593-23.593
	S426.374,314.433,413.365,314.433z"/>
<g>
</g>
<g>
</g>
<g>
</g>
<g>
</g>
<g>
</g>
<g>
</g>
<g>
</g>
<g>
</g>
<g>
</g>
<g>
</g>
<g>
</g>
<g>
</g>
<g>
</g>
<g>
</g>
<g>
</g>
</svg>
