<?xml version="1.0" encoding="iso-8859-1"?>
<!-- Generator: Adobe Illustrator 19.0.0, SVG Export Plug-In . SVG Version: 6.00 Build 0)  -->
<svg version="1.1" id="Layer_1" xmlns="http://www.w3.org/2000/svg" xmlns:xlink="http://www.w3.org/1999/xlink" x="0px" y="0px"
	 viewBox="0 0 512.001 512.001" style="enable-background:new 0 0 512.001 512.001;" xml:space="preserve">
<g>
	<path style="fill:#507C5C;" d="M284.481,358.6c-0.35,0-0.688-0.004-1.031-0.017c-44.53-0.283-86.654-19.883-115.605-53.809
		c-23.621-27.681-36.631-62.997-36.631-99.441c0-31.298,9.373-61.402,27.103-87.055c17.313-25.048,41.37-44.213,69.568-55.419
		c18.021-7.16,37.061-10.79,56.594-10.79c30.252,0,59.525,8.813,84.654,25.485c42.962,28.51,68.611,76.278,68.611,127.78
		c0,5.977-0.353,12.024-1.051,17.977c-3.913,33.575-19.201,65.396-43.046,89.593C364.625,342.37,325.854,358.6,284.481,358.6z
		 M284.481,80.547c-15.916,0-31.418,2.953-46.077,8.778c-47.812,19.003-78.708,64.539-78.708,116.008
		c0,29.673,10.589,58.423,29.814,80.953c23.63,27.687,58.024,43.659,94.366,43.818l0.621,0.014
		c33.679-0.003,65.238-13.216,88.865-37.205c19.418-19.704,31.864-45.597,35.048-72.911c0.57-4.864,0.859-9.796,0.859-14.67
		c0-41.933-20.889-80.831-55.877-104.049C332.943,87.719,309.113,80.547,284.481,80.547z"/>
	<path style="fill:#507C5C;" d="M279.595,410.681c-113.224,0-205.339-92.116-205.339-205.34C74.255,92.116,166.369,0,279.595,0
		v28.48c-97.523,0-176.86,79.339-176.86,176.86S182.073,382.2,279.594,382.2c47.241,0,91.655-18.397,125.059-51.801l20.14,20.14
		C386.008,389.32,334.443,410.681,279.595,410.681z"/>
	<rect x="265.976" y="396.443" style="fill:#507C5C;" width="28.48" height="101.318"/>
	<rect x="181.945" y="483.521" style="fill:#507C5C;" width="196.513" height="28.48"/>
</g>
<path style="fill:#CFF09E;" d="M346.667,134.062c-27.54,16.049-27.54,50.524-41.78,67.355
	c-14.24,16.846-55.052-24.051-53.272-49.712c1.766-25.661-6.536-22.442-11.278-26.458c-3.019-2.549-5.668-28.366-7.191-47.733
	c15.878-6.308,33.208-11.207,51.335-11.207c28.38,0,54.782,9.94,76.782,24.536C362.559,108.173,360.409,126.059,346.667,134.062z"/>
<path style="fill:#507C5C;" d="M296.131,219.609c-15.858,0-30.159-12.789-37.272-20.413c-5.418-5.807-22.978-26.464-21.45-48.475
	c0.417-6.075,0.12-9.302-0.148-10.838c-1.622-0.748-3.868-1.855-6.126-3.768c-4.823-4.071-6.859-10.026-9.068-26.539
	c-1.368-10.227-2.451-22.472-3.116-30.944l-0.824-10.472l9.762-3.879c20.684-8.218,39.196-12.214,56.593-12.214
	c28.848,0,58.121,9.306,84.654,26.909l5.809,3.853l0.518,6.951c2.093,27.97-5.185,47.009-21.629,56.586
	c-12.779,7.446-17.91,21.04-23.344,35.431c-3.822,10.125-7.775,20.593-14.731,28.816
	C310.856,216.413,303.884,219.609,296.131,219.609z M296.131,191.129v14.24V191.129
	C296.132,191.129,296.132,191.129,296.131,191.129L296.131,191.129z M251.816,115.312c11.459,6.21,15.411,16.97,14.007,37.372
	c-0.392,5.659,4.242,16.773,13.861,27.083c6.763,7.248,12.62,10.397,15.335,11.167c3.316-4.598,6.001-11.707,8.827-19.194
	c6.298-16.681,14.136-37.441,35.651-49.981c6.199-3.608,7.852-13.397,7.843-22.86c-20.16-12.027-41.756-18.351-62.86-18.351
	c-11.23,0-22.929,2.109-36.228,6.579C249.633,102.18,250.921,110.946,251.816,115.312z"/>
<path style="fill:#CFF09E;" d="M283.811,342.921c-42.094-0.185-79.773-19.096-105.134-48.815
	c17.102-21.033,47.69-51.521,63.553-33.678c22.784,25.632,27.54,51.264,37.978,50.78
	C285.819,310.952,285.392,326.844,283.811,342.921z"/>
<path style="fill:#507C5C;" d="M296.714,357.218l-12.964-0.057c-44.641-0.197-86.887-19.809-115.904-53.81l-7.701-9.024l7.485-9.203
	c23.91-29.406,45.054-44.317,62.841-44.317c8.748,0,16.493,3.513,22.402,10.16c11.768,13.239,19.11,26.405,24.47,36.019
	c2.038,3.653,4.48,8.033,6.098,10.263c3.617,0.669,6.908,2.509,9.478,5.346c6.106,6.737,7.432,17.655,5.065,41.722L296.714,357.218z
	 M197.8,293.678c19.845,19.16,45.422,31.184,72.777,34.236c0.053-1.911,0.044-3.436,0.004-4.647
	c-7.856-4.017-12.877-13.021-18.113-22.411c-4.983-8.936-11.184-20.057-20.88-30.966c-0.537-0.602-0.637-0.602-1.118-0.602
	C225.023,269.287,212.956,276.989,197.8,293.678z"/>
<path style="fill:#CFF09E;" d="M421.128,221.652c-3.674,31.513-17.9,59.794-39.046,81.254
	c-24.237-4.984-40.641-21.873-40.641-41.923c0-23.98,25.504-43.432,56.96-43.432C407.031,217.551,413.795,219.018,421.128,221.652z"
	/>
<path style="fill:#507C5C;" d="M386.793,318.413l-7.58-1.559c-31.11-6.398-52.012-28.85-52.012-55.871
	c0-31.801,31.94-57.672,71.2-57.672c9.666,0,17.901,1.477,27.542,4.94l10.64,3.822l-1.31,11.23
	c-3.915,33.582-19.203,65.403-43.046,89.6L386.793,318.413z M398.4,231.791c-23.157,0-42.72,13.369-42.72,29.192
	c0,11.173,8.516,20.978,21.84,25.873c13.515-15.677,22.978-34.576,27.414-54.678C402.841,231.912,400.71,231.791,398.4,231.791z"/>
<g>
</g>
<g>
</g>
<g>
</g>
<g>
</g>
<g>
</g>
<g>
</g>
<g>
</g>
<g>
</g>
<g>
</g>
<g>
</g>
<g>
</g>
<g>
</g>
<g>
</g>
<g>
</g>
<g>
</g>
</svg>
