<?xml version="1.0" encoding="iso-8859-1"?>
<!-- Generator: Adobe Illustrator 19.0.0, SVG Export Plug-In . SVG Version: 6.00 Build 0)  -->
<svg version="1.1" id="Layer_1" xmlns="http://www.w3.org/2000/svg" xmlns:xlink="http://www.w3.org/1999/xlink" x="0px" y="0px"
	 viewBox="0 0 512 512" style="enable-background:new 0 0 512 512;" xml:space="preserve">
<path style="fill:#CFF09E;" d="M260.599,270.672L260.599,270.672l-89.271-89.271L20.278,332.452c-6.255,6.255-6.255,16.397,0,22.651
	l107.424,107.424c3.003,3.003,7.078,4.691,11.326,4.691h107.511c10.175,0,19.933-4.041,27.128-11.238l86.121-86.121l0,0
	L260.599,270.672z"/>
<g>
	<path style="fill:#507C5C;" d="M246.539,482.807H139.028c-8.441,0-16.378-3.287-22.347-9.255L9.257,366.126
		C3.287,360.156,0,352.22,0,343.779c0-8.443,3.289-16.379,9.258-22.349l162.07-162.07L381.83,369.862l-97.14,97.143
		C274.499,477.194,260.952,482.807,246.539,482.807z M171.33,203.443L31.3,343.475c-0.048,0.048-0.128,0.126-0.128,0.304
		s0.081,0.257,0.128,0.304l107.424,107.424c0.081,0.083,0.189,0.126,0.304,0.126h107.511c6.085,0,11.806-2.369,16.108-6.671
		l75.102-75.102L171.33,203.443z"/>
	<path style="fill:#507C5C;" d="M359.789,391.904L149.287,181.403L292.241,38.449c5.968-5.968,13.904-9.255,22.347-9.255
		c8.441,0,16.378,3.286,22.347,9.255l165.808,165.808c5.969,5.969,9.257,13.906,9.257,22.347c0,8.443-3.289,16.379-9.258,22.349
		L359.789,391.904z M193.372,181.403L359.789,347.82L480.7,226.908c0.048-0.047,0.126-0.126,0.128-0.304
		c0-0.178-0.081-0.257-0.128-0.304L314.892,60.492c-0.047-0.047-0.126-0.126-0.304-0.126h-0.002c-0.176,0-0.254,0.078-0.301,0.125
		L193.372,181.403z"/>
	<rect x="138.607" y="451.622" style="fill:#507C5C;" width="232.092" height="31.172"/>
	<rect x="399.394" y="451.622" style="fill:#507C5C;" width="49.875" height="31.172"/>
</g>
<g>
</g>
<g>
</g>
<g>
</g>
<g>
</g>
<g>
</g>
<g>
</g>
<g>
</g>
<g>
</g>
<g>
</g>
<g>
</g>
<g>
</g>
<g>
</g>
<g>
</g>
<g>
</g>
<g>
</g>
</svg>
