<?xml version="1.0" encoding="iso-8859-1"?>
<!-- Generator: Adobe Illustrator 19.0.0, SVG Export Plug-In . SVG Version: 6.00 Build 0)  -->
<svg version="1.1" id="Layer_1" xmlns="http://www.w3.org/2000/svg" xmlns:xlink="http://www.w3.org/1999/xlink" x="0px" y="0px"
	 viewBox="0 0 512 512" style="enable-background:new 0 0 512 512;" xml:space="preserve">
<g>
	<path style="fill:#507C5C;" d="M317.946,512H91.254c-19.803,0-35.913-16.11-35.913-35.913V89.202
		c0-19.803,16.11-35.913,35.913-35.913h278.953c19.803,0,35.913,16.11,35.913,35.913v334.625L317.946,512z M91.254,80.272
		c-4.924,0-8.93,4.006-8.93,8.93v386.885c0,4.924,4.006,8.93,8.93,8.93H306.77l72.367-72.368V89.202c0-4.923-4.006-8.93-8.93-8.93
		C370.207,80.272,91.254,80.272,91.254,80.272z"/>
	<path style="fill:#507C5C;" d="M339.512,263.907h-26.983v-55.612H148.933v55.612H121.95v-59.286
		c0-12.852,10.456-23.309,23.309-23.309h170.945c12.852,0,23.309,10.456,23.309,23.309L339.512,263.907L339.512,263.907z"/>
	<rect x="126.173" y="299.511" style="fill:#507C5C;" width="209.118" height="26.983"/>
	<rect x="126.173" y="357.525" style="fill:#507C5C;" width="209.118" height="26.983"/>
	<rect x="126.173" y="415.538" style="fill:#507C5C;" width="121.869" height="26.983"/>
	<path style="fill:#507C5C;" d="M244.167,162.289c-24.733,0-44.853-20.121-44.853-44.853V96.826h26.983v20.611
		c0,9.853,8.017,17.87,17.869,17.87c9.853,0,17.87-8.015,17.87-17.87V58.289c0-17.262-14.043-31.306-31.304-31.306
		c-17.262,0-31.306,14.043-31.306,31.306h-26.983C172.442,26.148,198.59,0,230.73,0s58.289,26.148,58.289,58.289v59.148
		C289.019,142.168,268.898,162.289,244.167,162.289z"/>
</g>
<path style="fill:#CFF09E;" d="M420.746,66.78h-51.042c12.383,0,22.422,10.038,22.422,22.422v329.035l-80.27,80.272h51.042
	l80.27-80.272V89.2C443.168,76.818,433.129,66.78,420.746,66.78z"/>
<path style="fill:#507C5C;" d="M368.485,512h-89.203l99.351-99.351V89.202c0-4.923-4.006-8.93-8.93-8.93V53.289h51.042
	c19.803,0,35.913,16.11,35.913,35.913v334.625L368.485,512z M344.425,485.017h12.883l72.368-72.368V89.202
	c0-4.923-4.006-8.93-8.93-8.93h-16.253c0.734,2.856,1.124,5.847,1.124,8.93v334.625L344.425,485.017z"/>
<g>
</g>
<g>
</g>
<g>
</g>
<g>
</g>
<g>
</g>
<g>
</g>
<g>
</g>
<g>
</g>
<g>
</g>
<g>
</g>
<g>
</g>
<g>
</g>
<g>
</g>
<g>
</g>
<g>
</g>
</svg>
