<?xml version="1.0" encoding="iso-8859-1"?>
<!-- Generator: Adobe Illustrator 19.0.0, SVG Export Plug-In . SVG Version: 6.00 Build 0)  -->
<svg version="1.1" id="Layer_1" xmlns="http://www.w3.org/2000/svg" xmlns:xlink="http://www.w3.org/1999/xlink" x="0px" y="0px"
	 viewBox="0 0 512 512" style="enable-background:new 0 0 512 512;" xml:space="preserve">
<path style="fill:#507C5C;" d="M341.96,512H170.038V55.455C170.038,24.877,194.916,0,225.494,0h61.011
	c30.578,0,55.456,24.877,55.456,55.455L341.96,512L341.96,512z M196.928,485.11H315.07V55.455c0-15.751-12.815-28.565-28.565-28.565
	h-61.011c-15.751,0-28.565,12.814-28.565,28.565V485.11z"/>
<path style="fill:#CFF09E;" d="M270.08,204.864H241.92c-6.842,0-12.388-5.546-12.388-12.388v-83.998
	c0-6.842,5.546-12.388,12.388-12.388h28.161c6.842,0,12.388,5.546,12.388,12.388v83.998
	C282.469,199.318,276.921,204.864,270.08,204.864z"/>
<path style="fill:#507C5C;" d="M270.079,218.309H241.92c-14.245,0-25.833-11.588-25.833-25.833v-83.997
	c0-14.245,11.59-25.835,25.833-25.835h28.159c14.245,0,25.833,11.59,25.833,25.835v83.998
	C295.914,206.72,284.324,218.309,270.079,218.309z M242.976,191.419h26.047v-81.884h-26.047V191.419z"/>
<circle style="fill:#CFF09E;" cx="255.994" cy="405.732" r="25.626"/>
<g>
	<path style="fill:#507C5C;" d="M255.999,444.8c-21.542,0-39.067-17.526-39.067-39.067c0-21.542,17.526-39.069,39.067-39.069
		s39.067,17.526,39.067,39.069C295.067,427.275,277.541,444.8,255.999,444.8z M255.999,393.556c-6.714,0-12.177,5.463-12.177,12.179
		c0,6.716,5.463,12.177,12.177,12.177c6.714,0,12.177-5.463,12.177-12.177C268.177,399.02,262.714,393.556,255.999,393.556z"/>
	<path style="fill:#507C5C;" d="M486.993,512H315.072V165.669c0-30.578,24.877-55.456,55.456-55.456h61.011
		c30.578,0,55.455,24.877,55.455,55.456V512z M341.96,485.11h118.142V165.669c0-15.751-12.814-28.565-28.565-28.565h-61.011
		c-15.751,0-28.565,12.814-28.565,28.565L341.96,485.11L341.96,485.11z"/>
</g>
<path style="fill:#CFF09E;" d="M415.112,286.069h-28.161c-6.842,0-12.388-5.546-12.388-12.388v-54.992
	c0-6.842,5.546-12.388,12.388-12.388h28.161c6.842,0,12.388,5.546,12.388,12.388v54.992
	C427.5,280.523,421.954,286.069,415.112,286.069z"/>
<path style="fill:#507C5C;" d="M415.112,299.516h-28.161c-14.245,0-25.833-11.588-25.833-25.833v-54.992
	c0-14.245,11.588-25.833,25.833-25.833h28.161c14.245,0,25.833,11.588,25.833,25.833v54.992
	C440.946,287.926,429.357,299.516,415.112,299.516z M388.01,272.625h26.047v-52.879H388.01V272.625z"/>
<circle style="fill:#CFF09E;" cx="401.026" cy="405.732" r="25.626"/>
<g>
	<path style="fill:#507C5C;" d="M401.031,444.8c-21.542,0-39.067-17.526-39.067-39.067c0-21.542,17.526-39.069,39.067-39.069
		c21.542,0,39.067,17.526,39.067,39.069C440.1,427.275,422.573,444.8,401.031,444.8z M401.031,393.556
		c-6.714,0-12.177,5.463-12.177,12.179c0,6.716,5.463,12.177,12.177,12.177c6.715,0,12.177-5.463,12.177-12.177
		C413.208,399.02,407.748,393.556,401.031,393.556z"/>
	<path style="fill:#507C5C;" d="M196.928,512H25.006V140.288c0-30.578,24.877-55.455,55.455-55.455h61.011
		c30.578,0,55.455,24.877,55.455,55.455V512z M51.897,485.11h118.142V140.288c0-15.751-12.814-28.565-28.565-28.565H80.462
		c-15.751,0-28.565,12.814-28.565,28.565V485.11z"/>
</g>
<path style="fill:#CFF09E;" d="M125.047,260.689H96.888c-6.842,0-12.388-5.546-12.388-12.388v-54.992
	c0-6.842,5.546-12.388,12.388-12.388h28.161c6.842,0,12.388,5.546,12.388,12.388v54.992
	C137.435,255.143,131.889,260.689,125.047,260.689z"/>
<path style="fill:#507C5C;" d="M125.047,274.134H96.888c-14.245,0-25.833-11.588-25.833-25.833v-54.99
	c0-14.245,11.588-25.833,25.833-25.833h28.161c14.245,0,25.833,11.588,25.833,25.833v54.99
	C150.88,262.544,139.292,274.134,125.047,274.134z M97.945,247.244h26.046v-52.877H97.945V247.244z"/>
<circle style="fill:#CFF09E;" cx="110.962" cy="405.732" r="25.626"/>
<path style="fill:#507C5C;" d="M110.967,444.8c-21.542,0-39.067-17.526-39.067-39.067c0-21.542,17.526-39.069,39.067-39.069
	s39.067,17.526,39.067,39.069C150.035,427.275,132.509,444.8,110.967,444.8z M110.967,393.556c-6.714,0-12.177,5.463-12.177,12.179
	c0,6.716,5.463,12.177,12.177,12.177c6.714,0,12.177-5.463,12.177-12.177C123.145,399.02,117.682,393.556,110.967,393.556z"/>
<g>
</g>
<g>
</g>
<g>
</g>
<g>
</g>
<g>
</g>
<g>
</g>
<g>
</g>
<g>
</g>
<g>
</g>
<g>
</g>
<g>
</g>
<g>
</g>
<g>
</g>
<g>
</g>
<g>
</g>
</svg>
