<?xml version="1.0" encoding="iso-8859-1"?>
<!-- Generator: Adobe Illustrator 19.0.0, SVG Export Plug-In . SVG Version: 6.00 Build 0)  -->
<svg version="1.1" id="Layer_1" xmlns="http://www.w3.org/2000/svg" xmlns:xlink="http://www.w3.org/1999/xlink" x="0px" y="0px"
	 viewBox="0 0 512 512" style="enable-background:new 0 0 512 512;" xml:space="preserve">
<path style="fill:#507C5C;" d="M256,512c-37.688,0-73.995-8.007-107.913-23.8c-44.13-20.525-81.379-53.087-107.713-94.16
	C13.961,352.858,0,305.125,0,256c0-2.352,0.032-4.719,0.096-7.055c1.254-46.101,14.928-90.996,39.544-129.822
	C74.359,64.339,127.858,25.061,190.283,8.528C211.596,2.87,233.71,0,256,0s44.404,2.87,65.726,8.531
	c62.416,16.53,115.915,55.808,150.635,110.595c24.615,38.823,38.29,83.718,39.543,129.824c0.063,2.331,0.096,4.698,0.096,7.051
	c0,50.583-14.743,99.507-42.633,141.484c-26.613,40.099-63.791,71.797-107.508,91.663C328.526,504.311,292.908,512,256,512z
	 M256,30.118c-19.682,0-39.195,2.531-57.998,7.522C142.928,52.226,95.724,86.888,65.08,135.246
	c-21.71,34.244-33.771,73.844-34.876,114.521c-0.057,2.066-0.086,4.158-0.086,6.233c0,43.348,12.314,85.46,35.61,121.782
	c23.246,36.259,56.12,64.997,95.066,83.111c29.913,13.929,61.943,20.989,95.206,20.989c32.575,0,63.999-6.781,93.395-20.153
	c38.581-17.531,71.389-45.508,94.883-80.908c24.603-37.027,37.605-80.187,37.605-124.821c0-2.075-0.029-4.167-0.084-6.228
	c-1.107-40.681-13.166-80.282-34.876-114.522c-30.646-48.361-77.85-83.025-132.915-97.607C295.195,32.649,275.682,30.118,256,30.118
	z"/>
<path style="fill:#CFF09E;" d="M190.36,309.266L174.1,259.221c-5.536-17.039,0.529-35.704,15.023-46.235l42.571-30.929
	c14.494-10.531,34.12-10.531,48.614,0l42.571,30.929c14.494,10.531,20.56,29.196,15.023,46.235l-16.26,50.045
	c-5.536,17.039-21.415,28.576-39.331,28.576h-52.62C211.774,337.842,195.896,326.305,190.36,309.266z"/>
<g>
	<path style="fill:#507C5C;" d="M282.311,352.901h-52.62c-24.514,0-46.075-15.664-53.652-38.98l-16.26-50.045
		c-7.575-23.316,0.66-48.663,20.494-63.072l42.571-30.928c9.701-7.049,21.168-10.775,33.16-10.775
		c11.991,0,23.457,3.727,33.16,10.775l42.57,30.928c19.834,14.408,28.07,39.755,20.494,63.072l-16.264,50.043
		C328.385,337.235,306.824,352.901,282.311,352.901z M256,189.217c-5.59,0-10.934,1.736-15.456,5.022l-42.571,30.928
		c-9.245,6.718-13.083,18.533-9.552,29.401l16.261,50.043c3.531,10.868,13.582,18.168,25.008,18.168h52.62
		c11.427,0,21.477-7.302,25.008-18.17l16.259-50.042c3.531-10.869-0.307-22.683-9.552-29.401l-42.57-30.928
		C266.934,190.955,261.59,189.217,256,189.217z"/>
	<rect x="240.941" y="15.059" style="fill:#507C5C;" width="30.118" height="159.096"/>
	
		<rect x="399.606" y="127.832" transform="matrix(0.3327 0.943 -0.943 0.3327 471.9517 -252.8794)" style="fill:#507C5C;" width="30.115" height="158.429"/>
	
		<rect x="26.195" y="191.998" transform="matrix(0.9431 0.3326 -0.3326 0.9431 74.8666 -23.275)" style="fill:#507C5C;" width="158.454" height="30.119"/>
	
		<rect x="281.828" y="373.311" transform="matrix(0.6679 0.7443 -0.7443 0.6679 409.4135 -140.7337)" style="fill:#507C5C;" width="161.135" height="30.119"/>
	
		<rect x="143.057" y="307.807" transform="matrix(0.7443 0.6679 -0.6679 0.7443 299.8203 -6.2841)" style="fill:#507C5C;" width="30.119" height="161.135"/>
</g>
<path style="fill:#CFF09E;" d="M317.862,26.097l-37.557,24.275c-14.487,10.526-34.123,10.526-48.61,0l-37.557-24.275
	c19.742-5.24,40.478-11.038,61.862-11.038C277.384,15.059,298.12,20.856,317.862,26.097z"/>
<path style="fill:#507C5C;" d="M256,73.324c-11.847,0-23.177-3.634-32.798-10.511l-65.815-42.54l35.643-9.464
	C212.997,5.495,233.642,0,256,0s43.004,5.495,62.97,10.809l35.643,9.464l-65.815,42.54C279.177,69.691,267.847,73.324,256,73.324z
	 M231.831,32.53l8.716,5.661c4.518,3.283,9.862,5.018,15.453,5.018c5.591,0,10.936-1.735,15.453-5.018l0.678-0.465l8.038-5.195
	c-8.062-1.467-16.143-2.412-24.169-2.412C247.974,30.118,239.893,31.063,231.831,32.53z"/>
<path style="fill:#CFF09E;" d="M455.319,387.644c-24.847,37.436-59.904,67.524-101.195,86.287l13.432-48.821
	c4.126-17.423,19.004-30.223,36.864-31.684L455.319,387.644z"/>
<path style="fill:#507C5C;" d="M331.073,500.947l21.899-79.592c5.721-23.624,25.746-40.826,49.965-42.916l82.81-9.407l-17.881,26.94
	c-26.618,40.105-63.795,71.803-107.512,91.669L331.073,500.947z M421.466,406.645l-15.818,1.789
	c-11.388,0.932-20.807,9.028-23.439,20.146l-0.134,0.524l-3.994,14.515C394.041,433.181,408.612,420.763,421.466,406.645z"/>
<path style="fill:#CFF09E;" d="M155.949,473.043c-41.638-19.366-76.8-50.281-101.391-88.636c5-0.723,8.674,0.979,13.809,2.199
	l51.2,12.122c17.438,4.126,30.223,19.019,31.684,36.864L155.949,473.043z"/>
<path style="fill:#507C5C;" d="M174.279,498.176l-24.681-11.479c-44.136-20.528-81.384-53.09-107.717-94.163l-12.622-19.688
	l23.147-3.345c1.504-0.217,3.03-0.327,4.537-0.327c4.816,0,8.787,1.108,11.976,2.001c0.928,0.259,1.893,0.533,2.93,0.78
	l51.186,12.118c23.737,5.615,41.056,25.66,43.193,49.94L174.279,498.176z M91.318,407.514c13.579,14.759,29.047,27.636,46.039,38.31
	l-1.116-9.004c-0.932-11.389-9.026-20.808-20.141-23.438L91.318,407.514z"/>
<path style="fill:#CFF09E;" d="M493.839,249.359c-0.557-0.407,1.928-0.828,1.4-1.28l-40.192-33.958
	c-13.688-11.55-18.372-30.615-11.61-47.194l13.192-39.74C479.142,162.696,492.619,204.499,493.839,249.359z"/>
<path style="fill:#507C5C;" d="M479.714,282.654l-0.809-28.661l-33.577-28.369c-18.59-15.687-25.002-41.299-16.038-63.883
	l23.051-69.438l17.004,26.821c18.921,29.844,31.396,63.334,36.712,98.173l1.89-1.745l0.724,25.684
	c1.458,2.802,2.01,5.999,1.531,9.214c-0.157,1.053-0.473,2.4-1.098,3.846l0.977,26.041l-4.436-3.748l-10.833-7.889L479.714,282.654z
	 M459.866,165.23l-2.486,7.383c-4.314,10.579-1.349,22.633,7.377,29.999l9.535,8.056
	C471.102,195.049,466.265,179.811,459.866,165.23z"/>
<path style="fill:#CFF09E;" d="M56.952,214.121L16.76,248.079c-0.527,0.452,1.958,0.873,1.4,1.28
	c1.22-44.86,14.697-86.664,37.21-122.172l13.192,39.74C75.324,183.507,70.641,202.571,56.952,214.121z"/>
<path style="fill:#507C5C;" d="M32.286,282.654l-15.101-13.957l-10.833,7.889l-4.436,3.748l0.979-26.044
	c-0.628-1.446-0.943-2.79-1.099-3.843c-0.482-3.23,0.078-6.442,1.531-9.237l0.724-25.659l1.89,1.745
	c5.316-34.84,17.79-68.329,36.712-98.173l17.004-26.821l23.051,69.438c8.965,22.584,2.552,48.196-16.045,63.889l-33.569,28.363
	L32.286,282.654z M52.134,165.23c-6.398,14.583-11.234,29.821-14.428,45.438l9.528-8.05c8.736-7.371,11.701-19.424,7.386-30.005
	l-0.348-0.943L52.134,165.23z"/>
<g>
</g>
<g>
</g>
<g>
</g>
<g>
</g>
<g>
</g>
<g>
</g>
<g>
</g>
<g>
</g>
<g>
</g>
<g>
</g>
<g>
</g>
<g>
</g>
<g>
</g>
<g>
</g>
<g>
</g>
</svg>
