<?xml version="1.0" encoding="iso-8859-1"?>
<!-- Generator: Adobe Illustrator 19.0.0, SVG Export Plug-In . SVG Version: 6.00 Build 0)  -->
<svg version="1.1" id="Layer_1" xmlns="http://www.w3.org/2000/svg" xmlns:xlink="http://www.w3.org/1999/xlink" x="0px" y="0px"
	 viewBox="0 0 512 512" style="enable-background:new 0 0 512 512;" xml:space="preserve">
<circle style="fill:#CFF09E;" cx="137.682" cy="331.21" r="97.155"/>
<g>
	<path style="fill:#507C5C;" d="M137.677,442.351c-61.281,0-111.136-49.855-111.136-111.136s49.855-111.134,111.136-111.134
		s111.134,49.855,111.134,111.134S198.958,442.351,137.677,442.351z M137.677,248.032c-45.869,0-83.185,37.316-83.185,83.184
		c0,45.869,37.316,83.185,83.185,83.185c45.868,0,83.184-37.316,83.184-83.185C220.862,285.348,183.546,248.032,137.677,248.032z"/>
	<path style="fill:#507C5C;" d="M106.199,331.216h-27.95c0-32.769,26.659-59.426,59.428-59.426v27.95
		C120.32,299.739,106.199,313.86,106.199,331.216z"/>
</g>
<circle style="fill:#CFF09E;" cx="374.323" cy="331.21" r="97.155"/>
<g>
	<path style="fill:#507C5C;" d="M374.321,442.351c-61.281,0-111.134-49.855-111.134-111.136s49.855-111.134,111.134-111.134
		s111.136,49.855,111.136,111.134S435.602,442.351,374.321,442.351z M374.321,248.032c-45.868,0-83.184,37.316-83.184,83.184
		c0,45.869,37.316,83.185,83.184,83.185c45.869,0,83.185-37.316,83.185-83.185C457.507,285.348,420.19,248.032,374.321,248.032z"/>
	<path style="fill:#507C5C;" d="M342.845,331.216h-27.95c0-32.769,26.659-59.426,59.426-59.426v27.95
		C356.966,299.739,342.845,313.86,342.845,331.216z"/>
	<rect x="229.569" y="317.235" style="fill:#507C5C;" width="52.854" height="27.95"/>
	<path style="fill:#507C5C;" d="M51.67,349.151H29.644c-8.993,0-17.393-4.011-23.048-11.005c-5.653-6.995-7.815-16.049-5.931-24.842
		l37.775-176.28c3.611-23.591,22.652-67.374,69.657-67.374c38.529,0,69.875,31.346,69.875,69.875h-27.95
		c0-23.118-18.808-41.925-41.925-41.925c-34.914,0-41.804,42.198-42.079,43.994l-0.157,0.859L27.995,319.161
		c-0.112,0.523,0.001,0.998,0.338,1.413c0.335,0.415,0.777,0.626,1.311,0.626h22.028L51.67,349.151L51.67,349.151z"/>
	<path style="fill:#507C5C;" d="M482.356,349.151h-22.028v-27.95h22.028c0.534,0,0.975-0.211,1.311-0.626
		c0.335-0.415,0.45-0.89,0.338-1.413L446.042,142l-0.067-0.458c-0.268-1.744-7.157-43.942-42.071-43.942
		c-23.118,0-41.925,18.808-41.925,41.925h-27.95c0-38.529,31.346-69.875,69.875-69.875c47.004,0,66.045,43.784,69.657,67.374
		l37.773,176.282c1.885,8.793-0.277,17.848-5.931,24.841C499.749,345.139,491.349,349.151,482.356,349.151z"/>
</g>
<g>
</g>
<g>
</g>
<g>
</g>
<g>
</g>
<g>
</g>
<g>
</g>
<g>
</g>
<g>
</g>
<g>
</g>
<g>
</g>
<g>
</g>
<g>
</g>
<g>
</g>
<g>
</g>
<g>
</g>
</svg>
