<?xml version="1.0" encoding="iso-8859-1"?>
<!-- Generator: Adobe Illustrator 19.0.0, SVG Export Plug-In . SVG Version: 6.00 Build 0)  -->
<svg version="1.1" id="Layer_1" xmlns="http://www.w3.org/2000/svg" xmlns:xlink="http://www.w3.org/1999/xlink" x="0px" y="0px"
	 viewBox="0 0 512 512" style="enable-background:new 0 0 512 512;" xml:space="preserve">
<path style="fill:#507C5C;" d="M466.977,507.713H45.023C20.197,507.713,0,487.516,0,462.691V275.459
	c0-9.661,3.026-18.884,8.749-26.669l66.199-90.029c8.448-11.493,22.008-18.353,36.272-18.353h289.558
	c14.264,0,27.824,6.86,36.274,18.354l66.197,90.026c5.724,7.787,8.75,17.009,8.75,26.67v187.231
	C512,487.516,491.803,507.713,466.977,507.713z M111.22,172.21c-4.188,0-8.17,2.015-10.65,5.389l-66.199,90.029
	c-1.681,2.285-2.57,4.994-2.57,7.831v187.231c0,7.29,5.931,13.22,13.221,13.22h421.955c7.29,0,13.221-5.929,13.221-13.22V275.459
	c0-2.837-0.889-5.546-2.571-7.834l-66.197-90.026c-2.482-3.376-6.462-5.39-10.652-5.39L111.22,172.21L111.22,172.21z"/>
<path style="fill:#CFF09E;" d="M425.256,157.9H86.744c-16.732,0-30.297-13.565-30.297-30.297V50.484
	c0-16.732,13.565-30.297,30.297-30.297h338.511c16.732,0,30.297,13.565,30.297,30.297v77.118
	C455.553,144.335,441.988,157.9,425.256,157.9z"/>
<g>
	<path style="fill:#507C5C;" d="M425.256,173.8H86.744c-25.474,0-46.198-20.723-46.198-46.198V50.484
		c0-25.474,20.723-46.198,46.198-46.198h338.513c25.474,0,46.198,20.723,46.198,46.198v77.118
		C471.453,153.077,450.73,173.8,425.256,173.8z M86.744,36.088c-7.938,0-14.396,6.459-14.396,14.396v77.118
		c0,7.938,6.459,14.396,14.396,14.396h338.513c7.938,0,14.396-6.459,14.396-14.396V50.484c0-7.938-6.459-14.396-14.396-14.396
		H86.744z"/>
	<path style="fill:#507C5C;" d="M256,432.98H0V272.384h151.851v31.801H31.801v96.994H256c8.768,0,15.901-7.133,15.901-15.901
		v-65.193c0-8.768-7.133-15.901-15.901-15.901h-43.992v-31.801H256c26.303,0,47.702,21.399,47.702,47.702v65.193
		C303.702,411.581,282.303,432.98,256,432.98z"/>
</g>
<g>
</g>
<g>
</g>
<g>
</g>
<g>
</g>
<g>
</g>
<g>
</g>
<g>
</g>
<g>
</g>
<g>
</g>
<g>
</g>
<g>
</g>
<g>
</g>
<g>
</g>
<g>
</g>
<g>
</g>
</svg>
