<?xml version="1.0" encoding="iso-8859-1"?>
<!-- Generator: Adobe Illustrator 19.0.0, SVG Export Plug-In . SVG Version: 6.00 Build 0)  -->
<svg version="1.1" id="Layer_1" xmlns="http://www.w3.org/2000/svg" xmlns:xlink="http://www.w3.org/1999/xlink" x="0px" y="0px"
	 viewBox="0 0 511.999 511.999" style="enable-background:new 0 0 511.999 511.999;" xml:space="preserve">
<g>
	<path style="fill:#507C5C;" d="M371.437,384.14h-71.241V127.031H168.333V54.434H327.99c23.957,0,43.447,19.491,43.447,43.447
		V384.14z M327.36,356.977h16.916V97.88c0-8.979-7.305-16.284-16.284-16.284H195.499v18.272h110.146
		c11.975,0,21.717,9.742,21.717,21.717L327.36,356.977L327.36,356.977z"/>
	<path style="fill:#507C5C;" d="M491.293,497.127H454.33v-27.163h30.508v-26.375h-29.162l-19.89-59.667H239.028l-19.89,59.667
		H183.71v26.375h202.113v27.163H177.255c-11.418,0-20.707-9.29-20.707-20.707v-39.285c0-11.418,9.29-20.707,20.707-20.707h22.306
		l15.063-45.188c2.731-8.67,10.638-14.479,19.749-14.479h206.068c9.11,0,17.017,5.807,19.749,14.478l15.063,45.189h16.04
		c11.418,0,20.707,9.29,20.707,20.707v39.285C512.001,487.837,502.711,497.127,491.293,497.127z"/>
	<path style="fill:#507C5C;" d="M198.378,294.158c-6.989,0-13.977-2.659-19.296-7.979l-14.908-14.908l19.208-19.208l14.907,14.908
		c0.049,0.05,0.13,0.05,0.179,0l9.138-9.138c0.05-0.05,0.05-0.13,0-0.179L36.503,86.55c-0.049-0.05-0.13-0.052-0.179,0l-9.138,9.138
		c-0.05,0.05-0.05,0.13,0,0.179L164.813,232.99l-19.171,19.242L7.996,115.092C-2.662,104.435-2.662,87.121,7.979,76.48l9.138-9.138
		c10.64-10.64,27.953-10.641,38.594,0l171.102,171.103c10.64,10.64,10.64,27.953,0,38.594l-9.138,9.138
		C212.356,291.497,205.367,294.158,198.378,294.158z"/>
</g>
<path style="fill:#CFF09E;" d="M235.057,59.099C192.66,16.702,121.121,18.394,75.953,63.563L54.296,85.219L208.937,239.86
	l0.242-0.242l21.414-21.414l0,0C275.762,173.035,277.454,101.497,235.057,59.099z"/>
<g>
	<path style="fill:#507C5C;" d="M208.951,259.08L35.09,85.219L66.348,53.96c25.207-25.206,58.317-39.087,93.234-39.087
		c32.537,0,62.751,12.297,85.078,34.624c23.201,23.201,35.481,54.624,34.578,88.478c-0.898,33.65-14.764,65.554-39.042,89.832
		L208.951,259.08z M73.503,85.219l135.434,135.434l12.052-12.052c19.34-19.341,30.384-44.68,31.096-71.351
		c0.702-26.327-8.756-50.671-26.633-68.548c-17.197-17.198-40.589-26.668-65.869-26.668c-27.661,0-53.952,11.057-74.028,31.131
		L73.503,85.219z"/>
	<path style="fill:#507C5C;" d="M114.042,94.822L94.835,75.614c33.447-33.445,86.616-34.696,118.527-2.787l-19.208,19.208
		C172.836,70.715,136.898,71.966,114.042,94.822z"/>
	<path style="fill:#507C5C;" d="M97.048,270.335c-19.56,0-37.948-7.616-51.779-21.448c-28.551-28.551-28.551-75.007,0-103.558
		l19.208,19.208c-17.96,17.96-17.96,47.183,0,65.142c17.96,17.961,47.183,17.961,65.143,0l19.208,19.208
		C134.995,262.717,116.607,270.335,97.048,270.335z"/>
</g>
<g>
</g>
<g>
</g>
<g>
</g>
<g>
</g>
<g>
</g>
<g>
</g>
<g>
</g>
<g>
</g>
<g>
</g>
<g>
</g>
<g>
</g>
<g>
</g>
<g>
</g>
<g>
</g>
<g>
</g>
</svg>
