<?xml version="1.0" encoding="iso-8859-1"?>
<!-- Generator: Adobe Illustrator 19.0.0, SVG Export Plug-In . SVG Version: 6.00 Build 0)  -->
<svg version="1.1" id="Layer_1" xmlns="http://www.w3.org/2000/svg" xmlns:xlink="http://www.w3.org/1999/xlink" x="0px" y="0px"
	 viewBox="0 0 512 512" style="enable-background:new 0 0 512 512;" xml:space="preserve">
<g>
	<path style="fill:#507C5C;" d="M478.812,388.704H33.189V109.517c0-24.944,20.293-45.238,45.237-45.238h355.149
		c24.944,0,45.237,20.294,45.237,45.238v279.187H478.812z M60.792,361.101h390.416V109.517c0-9.723-7.91-17.634-17.633-17.634
		H78.426c-9.723,0-17.633,7.911-17.633,17.634V361.101z"/>
	<path style="fill:#507C5C;" d="M423.605,388.704H88.396V150.854c0-17.296,14.071-31.369,31.369-31.369h272.474
		c17.296,0,31.369,14.071,31.369,31.369h-27.603c0-2.076-1.689-3.765-3.765-3.765H119.763c-2.076,0-3.765,1.689-3.765,3.765v210.247
		h280.003V206.359h27.603L423.605,388.704L423.605,388.704z"/>
</g>
<path style="fill:#CFF09E;" d="M483.099,433.919H28.902c-8.34,0-15.1-6.76-15.1-15.1v-28.81c0-8.34,6.76-15.1,15.1-15.1h454.197
	c8.34,0,15.1,6.76,15.1,15.1v28.81C498.2,427.157,491.438,433.919,483.099,433.919z"/>
<path style="fill:#507C5C;" d="M483.098,447.721H28.902C12.967,447.721,0,434.754,0,418.818V390.01
	c0-15.937,12.967-28.902,28.902-28.902h454.196c15.937,0,28.902,12.967,28.902,28.902v28.808
	C512.001,434.754,499.035,447.721,483.098,447.721z M28.902,388.71c-0.718,0-1.299,0.582-1.299,1.299v28.808
	c0,0.718,0.582,1.299,1.299,1.299h454.196c0.718,0,1.299-0.582,1.299-1.299v-28.808c0-0.718-0.582-1.299-1.299-1.299L28.902,388.71
	L28.902,388.71z"/>
<g>
</g>
<g>
</g>
<g>
</g>
<g>
</g>
<g>
</g>
<g>
</g>
<g>
</g>
<g>
</g>
<g>
</g>
<g>
</g>
<g>
</g>
<g>
</g>
<g>
</g>
<g>
</g>
<g>
</g>
</svg>
