<?xml version="1.0" encoding="iso-8859-1"?>
<!-- Generator: Adobe Illustrator 19.0.0, SVG Export Plug-In . SVG Version: 6.00 Build 0)  -->
<svg version="1.1" id="Layer_1" xmlns="http://www.w3.org/2000/svg" xmlns:xlink="http://www.w3.org/1999/xlink" x="0px" y="0px"
	 viewBox="0 0 512 512" style="enable-background:new 0 0 512 512;" xml:space="preserve">
<g>
	<path style="fill:#507C5C;" d="M331.273,268.446H180.727c-32.505,0-58.95-26.446-58.95-58.951V58.951
		C121.778,26.446,148.222,0,180.727,0h150.544c32.505,0,58.95,26.446,58.95,58.951v150.544
		C390.222,242,363.778,268.446,331.273,268.446z M180.727,27.575c-17.301,0-31.375,14.076-31.375,31.376v150.544
		c0,17.301,14.074,31.376,31.375,31.376h150.544c17.301,0,31.375-14.076,31.375-31.376V58.951c0-17.301-14.074-31.376-31.375-31.376
		H180.727z"/>
	<path style="fill:#507C5C;" d="M242.361,68.793h27.277l47.736,130.861h-30.964l-10.137-29.305h-40.732l-9.953,29.305h-30.964
		L242.361,68.793z M271.297,149.521L256,103.258l-15.667,46.262H271.297z"/>
</g>
<path style="fill:#CFF09E;" d="M210.176,498.211H59.632c-24.943,0-45.164-20.221-45.164-45.164V302.505
	c0-24.943,20.221-45.164,45.164-45.164h150.544c24.943,0,45.164,20.221,45.164,45.164v150.544
	C255.34,477.992,235.119,498.211,210.176,498.211z"/>
<g>
	<path style="fill:#507C5C;" d="M210.176,512H59.632c-32.505,0-58.951-26.446-58.951-58.951V302.504
		c0-32.505,26.446-58.951,58.951-58.951h150.544c32.505,0,58.951,26.446,58.951,58.951v150.544
		C269.127,485.554,242.681,512,210.176,512z M59.632,271.128c-17.301,0-31.376,14.076-31.376,31.376v150.544
		c0,17.301,14.074,31.376,31.376,31.376h150.544c17.301,0,31.376-14.076,31.376-31.376V302.504
		c0-17.301-14.074-31.376-31.376-31.376H59.632z"/>
	<path style="fill:#507C5C;" d="M188.998,409.663c0,5.653-1.169,10.568-3.502,14.746c-2.336,4.178-5.53,7.649-9.584,10.414
		c-4.055,2.764-8.787,4.855-14.193,6.266c-5.409,1.413-11.122,2.121-17.141,2.121H80.81V312.348h72.802
		c4.544,0,8.663,0.986,12.348,2.949c3.687,1.967,6.819,4.517,9.4,7.649c2.581,3.134,4.576,6.699,5.989,10.691
		c1.412,3.996,2.12,8.081,2.12,12.256c0,6.268-1.566,12.166-4.7,17.695c-3.134,5.529-7.834,9.708-14.1,12.533
		c7.493,2.211,13.423,6.146,17.786,11.797C186.816,393.567,188.998,400.815,188.998,409.663z M111.036,338.15v27.094h29.673
		c3.317,0,6.266-1.106,8.847-3.317c2.58-2.211,3.87-5.65,3.87-10.323c0-4.298-1.137-7.616-3.41-9.952
		c-2.275-2.334-5.008-3.503-8.202-3.503h-30.779V338.15z M158.219,403.58c0-4.053-1.169-7.493-3.502-10.321
		c-2.336-2.825-5.285-4.24-8.847-4.24h-34.834v28.569h33.545c3.931,0,7.187-1.291,9.768-3.87
		C156.929,411.137,158.219,407.76,158.219,403.58z"/>
	<path style="fill:#507C5C;" d="M452.368,512H301.824c-32.505,0-58.951-26.446-58.951-58.951V302.504
		c0-32.505,26.446-58.951,58.951-58.951h150.544c32.505,0,58.951,26.446,58.951,58.951v150.544
		C511.318,485.554,484.873,512,452.368,512z M301.824,271.128c-17.301,0-31.376,14.076-31.376,31.376v150.544
		c0,17.301,14.074,31.376,31.376,31.376h150.544c17.301,0,31.376-14.076,31.376-31.376V302.504
		c0-17.301-14.074-31.376-31.376-31.376H301.824z"/>
	<path style="fill:#507C5C;" d="M317.471,376.486c0-7.862,1.474-15.694,4.423-23.499c2.949-7.801,7.249-14.775,12.902-20.918
		c5.65-6.142,12.533-11.12,20.643-14.93c8.11-3.808,17.324-5.714,27.647-5.714c12.286,0,22.946,2.644,31.977,7.926
		c9.031,5.285,15.759,12.163,20.182,20.643l-23.222,16.22c-1.474-3.439-3.35-6.295-5.623-8.57c-2.275-2.272-4.762-4.116-7.465-5.529
		c-2.705-1.41-5.47-2.395-8.295-2.949c-2.828-0.553-5.592-0.829-8.295-0.829c-5.777,0-10.813,1.169-15.112,3.502
		c-4.303,2.337-7.864,5.345-10.691,9.032c-2.828,3.685-4.915,7.864-6.266,12.533c-1.353,4.671-2.027,9.399-2.027,14.191
		c0,5.161,0.798,10.138,2.396,14.93c1.595,4.793,3.899,9.031,6.912,12.716c3.01,3.688,6.635,6.607,10.874,8.755
		c4.24,2.152,8.999,3.226,14.285,3.226c2.701,0,5.497-0.336,8.386-1.013c2.886-0.674,5.65-1.719,8.294-3.134
		c2.64-1.41,5.068-3.254,7.28-5.529c2.212-2.272,3.991-5.07,5.345-8.386l24.697,14.561c-1.967,4.793-4.885,9.093-8.755,12.901
		c-3.87,3.811-8.325,7.004-13.363,9.584c-5.039,2.58-10.385,4.547-16.035,5.898c-5.653,1.351-11.183,2.028-16.588,2.028
		c-9.464,0-18.154-1.936-26.079-5.806c-7.925-3.87-14.746-8.999-20.459-15.39c-5.714-6.388-10.137-13.64-13.27-21.748
		C319.038,393.074,317.471,384.844,317.471,376.486z"/>
</g>
<g>
</g>
<g>
</g>
<g>
</g>
<g>
</g>
<g>
</g>
<g>
</g>
<g>
</g>
<g>
</g>
<g>
</g>
<g>
</g>
<g>
</g>
<g>
</g>
<g>
</g>
<g>
</g>
<g>
</g>
</svg>
