<?xml version="1.0" encoding="iso-8859-1"?>
<!-- Generator: Adobe Illustrator 19.0.0, SVG Export Plug-In . SVG Version: 6.00 Build 0)  -->
<svg version="1.1" id="Layer_1" xmlns="http://www.w3.org/2000/svg" xmlns:xlink="http://www.w3.org/1999/xlink" x="0px" y="0px"
	 viewBox="0 0 512 512" style="enable-background:new 0 0 512 512;" xml:space="preserve">
<path style="fill:#CFF09E;" d="M492.033,344.532l-54.622-54.622l54.622-54.622c6.441-6.441,6.441-16.885,0-23.326l-29.155-29.155
	c-6.441-6.441-16.885-6.441-23.326,0l-54.622,54.622l-54.622-54.622c-6.441-6.441-16.885-6.441-23.326,0l-29.155,29.155
	c-6.441,6.441-6.441,16.885,0,23.326l54.622,54.622l-54.622,54.622c-6.441,6.441-6.441,16.885,0,23.326l29.155,29.155
	c6.441,6.441,16.885,6.441,23.326,0l54.622-54.622l54.622,54.622c6.441,6.441,16.885,6.441,23.326,0l29.155-29.155
	C498.474,361.417,498.474,350.974,492.033,344.532z"/>
<g>
	<path style="fill:#507C5C;" d="M451.216,416.981c-8.449,0-16.392-3.291-22.366-9.264l-43.919-43.919l-43.919,43.919
		c-5.974,5.973-13.917,9.264-22.366,9.264c-8.449,0-16.392-3.291-22.366-9.264l-29.155-29.155
		c-5.974-5.974-9.264-13.918-9.264-22.366c0-8.449,3.291-16.393,9.265-22.366l43.918-43.919l-43.919-43.919
		c-5.974-5.974-9.264-13.918-9.264-22.366c0-8.449,3.291-16.393,9.265-22.366l29.155-29.155c5.973-5.973,13.917-9.264,22.364-9.264
		c8.449,0,16.393,3.291,22.366,9.265l43.919,43.918l43.919-43.919c5.973-5.973,13.917-9.264,22.366-9.264s16.393,3.291,22.366,9.265
		l29.153,29.153c5.974,5.973,9.265,13.917,9.265,22.366c0,8.448-3.289,16.392-9.264,22.364l-43.919,43.921l43.919,43.919
		c5.973,5.973,9.264,13.917,9.264,22.366c0,8.448-3.291,16.392-9.265,22.364l-29.153,29.156
		C467.607,413.69,459.663,416.981,451.216,416.981z M384.931,320.984l65.325,65.325c0.527,0.527,1.391,0.527,1.919,0l29.153-29.156
		c0.265-0.263,0.398-0.586,0.398-0.958c0-0.374-0.133-0.696-0.397-0.96l-65.325-65.325l65.325-65.325
		c0.263-0.263,0.398-0.587,0.398-0.96s-0.133-0.696-0.397-0.96l-29.155-29.155c-0.528-0.53-1.391-0.528-1.919-0.002l-65.327,65.328
		l-65.325-65.325c-0.527-0.528-1.388-0.528-1.918-0.002l-29.156,29.156c-0.263,0.263-0.397,0.587-0.397,0.96
		c0,0.372,0.133,0.696,0.398,0.961l65.325,65.324l-65.324,65.325c-0.265,0.263-0.398,0.586-0.398,0.96
		c0,0.372,0.133,0.696,0.398,0.961l29.153,29.153c0.527,0.527,1.391,0.527,1.919,0L384.931,320.984z"/>
	<path style="fill:#507C5C;" d="M147.551,416.984c-13.225,0-24.712-7.765-29.659-20.257l-33.856-85.486
		c-2.127-5.372-7.232-8.841-13.008-8.841H0v-30.273h71.026c18.273,0,34.427,10.977,41.155,27.968l33.858,85.487
		c0.191,0.48,0.48,1.193,1.773,1.122c1.294-0.086,1.483-0.845,1.609-1.346l63.99-256.779c4.924-19.761,22.585-33.563,42.952-33.563
		h247.214v30.273H256.363c-6.438,0-12.02,4.362-13.578,10.609l-63.99,256.777c-3.433,13.779-14.807,23.289-28.975,24.232
		C149.059,416.958,148.302,416.984,147.551,416.984z"/>
</g>
<g>
</g>
<g>
</g>
<g>
</g>
<g>
</g>
<g>
</g>
<g>
</g>
<g>
</g>
<g>
</g>
<g>
</g>
<g>
</g>
<g>
</g>
<g>
</g>
<g>
</g>
<g>
</g>
<g>
</g>
</svg>
