<?xml version="1.0" encoding="iso-8859-1"?>
<!-- Generator: Adobe Illustrator 19.0.0, SVG Export Plug-In . SVG Version: 6.00 Build 0)  -->
<svg version="1.1" id="Layer_1" xmlns="http://www.w3.org/2000/svg" xmlns:xlink="http://www.w3.org/1999/xlink" x="0px" y="0px"
	 viewBox="0 0 511.999 511.999" style="enable-background:new 0 0 511.999 511.999;" xml:space="preserve">
<path style="fill:#CFF09E;" d="M174.183,325.843l-35.834-83.099l-23.991,21.251c-14.158,12.542-30.79,20.605-48.133,24.347
	l74.702,172.46c5.665,13.025,20.816,18.99,33.84,13.326l30.162-13.118c13.025-5.665,18.99-20.816,13.326-33.842l-20.915-48.085
	c4.059-1.168,7.935-3.203,11.307-6.19c12.111-10.728,13.233-29.242,2.505-41.352C201.648,320.81,186.043,318.725,174.183,325.843z"
	/>
<g>
	<path style="fill:#507C5C;" d="M164.525,490.908c-0.001,0-0.001,0-0.003,0c-16.077-0.001-30.608-9.527-37.02-24.268L45.701,277.792
		l17.436-3.761c15.402-3.323,29.758-10.583,41.514-20.996l39.131-34.662l38.475,89.226c2.298-0.37,4.633-0.558,6.98-0.558
		c12.564,0,24.544,5.392,32.871,14.79c16.062,18.135,14.377,45.957-3.755,62.018c-0.711,0.631-1.441,1.236-2.187,1.814
		l15.512,35.665c8.876,20.404-0.505,44.227-20.911,53.103l-30.163,13.118C175.488,489.78,170.076,490.908,164.525,490.908z
		 M86.226,297.689l68.135,157.295c1.752,4.029,5.745,6.645,10.163,6.646l0,0c1.509,0,2.991-0.312,4.404-0.927l30.163-13.118
		c5.601-2.436,8.176-8.977,5.74-14.578l-27.569-63.381l16.029-4.613c2.134-0.613,4.036-1.65,5.651-3.08
		c6.046-5.357,6.608-14.638,1.25-20.688c-2.773-3.128-6.765-4.923-10.953-4.923c-2.66,0-5.261,0.717-7.523,2.074l-14.35,8.611
		l-34.452-79.893l-8.85,7.839C112.955,284.793,100.093,292.497,86.226,297.689z"/>
	<path style="fill:#507C5C;" d="M394.536,359.93l-81.419-34.823c-18.847-8.06-53.563-12.877-76.238-12.877H121.721
		C54.604,312.23,0,257.626,0,190.511S54.604,68.79,121.721,68.79h115.161c22.675,0,57.391-4.816,76.239-12.877l81.417-34.823V359.93
		H394.536z M121.721,98.069c-50.973,0-92.442,41.469-92.442,92.442s41.469,92.442,92.442,92.442h115.161
		c25.903,0,64.364,5.234,87.752,15.235l40.626,17.376V65.458l-40.624,17.376c-23.389,10.002-61.849,15.235-87.752,15.235H121.721z"
		/>
	<rect x="415.378" y="63.703" style="fill:#507C5C;" width="67.341" height="29.279"/>
	<rect x="444.657" y="175.877" style="fill:#507C5C;" width="67.341" height="29.279"/>
	<rect x="415.378" y="288.044" style="fill:#507C5C;" width="67.341" height="29.279"/>
</g>
<path style="fill:#CFF09E;" d="M189.933,83.429h-68.212c-58.894,0-107.081,48.187-107.081,107.081l0,0
	c0,58.894,48.186,107.08,107.08,107.08h68.212V83.429H189.933z"/>
<path style="fill:#507C5C;" d="M204.573,312.23h-82.852C54.604,312.23,0,257.626,0,190.511S54.604,68.79,121.721,68.79h82.853
	v243.44H204.573z M121.721,98.069c-50.973,0-92.442,41.469-92.442,92.442s41.469,92.442,92.442,92.442h53.574V98.069H121.721z"/>
<g>
</g>
<g>
</g>
<g>
</g>
<g>
</g>
<g>
</g>
<g>
</g>
<g>
</g>
<g>
</g>
<g>
</g>
<g>
</g>
<g>
</g>
<g>
</g>
<g>
</g>
<g>
</g>
<g>
</g>
</svg>
