<?xml version="1.0" encoding="iso-8859-1"?>
<!-- Generator: Adobe Illustrator 19.0.0, SVG Export Plug-In . SVG Version: 6.00 Build 0)  -->
<svg version="1.1" id="Layer_1" xmlns="http://www.w3.org/2000/svg" xmlns:xlink="http://www.w3.org/1999/xlink" x="0px" y="0px"
	 viewBox="0 0 512 512" style="enable-background:new 0 0 512 512;" xml:space="preserve">
<path style="fill:#507C5C;" d="M453.346,467.16H58.654C26.313,467.16,0,440.849,0,408.506V103.494
	C0,71.151,26.313,44.84,58.654,44.84h394.692c32.342,0,58.654,26.313,58.654,58.654v305.013
	C512.002,440.849,485.688,467.16,453.346,467.16z M58.654,76.379c-14.951,0-27.113,12.164-27.113,27.114v305.013
	c0,14.949,12.162,27.113,27.113,27.113h394.692c14.949,0,27.113-12.164,27.113-27.113V103.494c0-14.949-12.164-27.113-27.113-27.113
	L58.654,76.379L58.654,76.379z"/>
<path style="fill:#CFF09E;" d="M345.212,345.211L345.212,345.211c-29.594,29.594-78.019,29.594-107.612,0L166.788,274.4
	c-29.594-29.594-29.594-78.019,0-107.612l0,0c29.594-29.594,78.019-29.594,107.612,0l70.811,70.812
	C374.805,267.192,374.805,315.619,345.212,345.211z"/>
<g>
	<path style="fill:#507C5C;" d="M291.406,383.176c-24.597,0-47.665-9.522-64.956-26.813l-70.812-70.812
		c-17.291-17.291-26.813-40.36-26.813-64.956c0-24.599,9.522-47.668,26.815-64.957c17.291-17.291,40.36-26.813,64.956-26.813
		s47.665,9.522,64.957,26.813l70.812,70.812c35.817,35.818,35.817,94.097,0,129.915
		C339.071,373.653,316.003,383.176,291.406,383.176z M220.594,160.364c-16.171,0-31.32,6.242-42.655,17.576
		c-11.334,11.334-17.576,26.482-17.576,42.655c0,16.171,6.242,31.319,17.576,42.653l70.812,70.812
		c11.334,11.334,26.482,17.576,42.653,17.576c16.173,0,31.32-6.242,42.655-17.576c23.52-23.519,23.52-61.789,0-85.308
		l-70.812-70.812C251.915,166.606,236.765,160.364,220.594,160.364z"/>
	
		<rect x="241.023" y="182.435" transform="matrix(0.7105 0.7037 -0.7037 0.7105 254.4924 -106.5917)" style="fill:#507C5C;" width="31.541" height="147.14"/>
	
		<rect x="194.945" y="195.347" transform="matrix(0.7071 0.7071 -0.7071 0.7071 211.1149 -87.4423)" style="fill:#507C5C;" width="32.329" height="31.541"/>
</g>
<g>
</g>
<g>
</g>
<g>
</g>
<g>
</g>
<g>
</g>
<g>
</g>
<g>
</g>
<g>
</g>
<g>
</g>
<g>
</g>
<g>
</g>
<g>
</g>
<g>
</g>
<g>
</g>
<g>
</g>
</svg>
