<?xml version="1.0" encoding="iso-8859-1"?>
<!-- Generator: Adobe Illustrator 19.0.0, SVG Export Plug-In . SVG Version: 6.00 Build 0)  -->
<svg version="1.1" id="Layer_1" xmlns="http://www.w3.org/2000/svg" xmlns:xlink="http://www.w3.org/1999/xlink" x="0px" y="0px"
	 viewBox="0 0 512 512" style="enable-background:new 0 0 512 512;" xml:space="preserve">
<path style="fill:#507C5C;" d="M234.725,412.715h-85.102V97.105c0-11.619,7.829-21.695,19.066-24.577l133.544-36.581L444.375,0.749
	C446.384,0.252,448.442,0,450.496,0c13.978,0,25.35,11.384,25.35,25.379v344.785h-85.102V101.702l-81.398,20.155l-74.621,21.898
	L234.725,412.715L234.725,412.715z M177.99,384.348h28.367V141.504c0-11.57,7.763-21.609,18.922-24.54l76.955-22.569l85.407-21.148
	c2.007-0.498,4.066-0.749,6.122-0.749c13.977,0,25.349,11.384,25.349,25.379v243.92h28.367V29.205L309.223,63.44L177.99,99.392
	V384.348z"/>
<circle style="fill:#CFF09E;" cx="135.439" cy="412.715" r="85.102"/>
<path style="fill:#507C5C;" d="M135.439,512c-54.746,0-99.285-44.539-99.285-99.285s44.539-99.285,99.285-99.285
	s99.285,44.539,99.285,99.285S190.185,512,135.439,512z M135.439,341.797c-39.104,0-70.918,31.814-70.918,70.918
	s31.814,70.918,70.918,70.918s70.918-31.814,70.918-70.918S174.545,341.797,135.439,341.797z"/>
<circle style="fill:#CFF09E;" cx="376.561" cy="370.164" r="85.102"/>
<path style="fill:#507C5C;" d="M376.561,469.449c-54.746,0-99.285-44.539-99.285-99.285s44.539-99.285,99.285-99.285
	s99.285,44.539,99.285,99.285S431.307,469.449,376.561,469.449z M376.561,299.246c-39.104,0-70.918,31.814-70.918,70.918
	s31.814,70.918,70.918,70.918s70.918-31.814,70.918-70.918S415.666,299.246,376.561,299.246z"/>
<g>
</g>
<g>
</g>
<g>
</g>
<g>
</g>
<g>
</g>
<g>
</g>
<g>
</g>
<g>
</g>
<g>
</g>
<g>
</g>
<g>
</g>
<g>
</g>
<g>
</g>
<g>
</g>
<g>
</g>
</svg>
