<?xml version="1.0" encoding="iso-8859-1"?>
<!-- Generator: Adobe Illustrator 19.0.0, SVG Export Plug-In . SVG Version: 6.00 Build 0)  -->
<svg version="1.1" id="Layer_1" xmlns="http://www.w3.org/2000/svg" xmlns:xlink="http://www.w3.org/1999/xlink" x="0px" y="0px"
	 viewBox="0 0 512 512" style="enable-background:new 0 0 512 512;" xml:space="preserve">
<g>
	<path style="fill:#507C5C;" d="M332.315,413.456H221.808c-14.419,0-26.152-11.73-26.152-26.151v-34.622h28.499v32.272h105.81
		v-29.924h-78.553v-28.499h80.902c14.419,0,26.151,11.73,26.151,26.151v34.622C358.464,401.726,346.732,413.456,332.315,413.456z"/>
	<path style="fill:#507C5C;" d="M434.106,512H120.017c-32.787,0-59.46-26.674-59.46-59.46V59.46C60.557,26.674,87.229,0,120.017,0
		h314.09c32.785,0,59.459,26.674,59.459,59.46V452.54C493.565,485.326,466.891,512,434.106,512z M120.017,28.499
		c-17.071,0-30.961,13.889-30.961,30.961V452.54c0,17.071,13.889,30.961,30.961,30.961h314.09c17.071,0,30.96-13.889,30.96-30.961
		V59.46c0-17.071-13.888-30.961-30.96-30.961H120.017z"/>
	<rect x="18.434" y="75.209" style="fill:#507C5C;" width="113.283" height="28.499"/>
	<rect x="18.434" y="158.483" style="fill:#507C5C;" width="113.283" height="28.499"/>
	<rect x="18.434" y="241.757" style="fill:#507C5C;" width="113.283" height="28.499"/>
	<rect x="18.434" y="325.017" style="fill:#507C5C;" width="113.283" height="28.499"/>
	<rect x="18.434" y="408.291" style="fill:#507C5C;" width="113.283" height="28.499"/>
</g>
<path style="fill:#CFF09E;" d="M362.093,227.5H192.025c-8.52,0-15.425-6.907-15.425-15.425v-72.459
	c0-8.52,6.907-15.425,15.425-15.425h170.068c8.52,0,15.425,6.907,15.425,15.425v72.459C377.52,220.595,370.614,227.5,362.093,227.5z
	"/>
<path style="fill:#507C5C;" d="M362.093,241.75H192.025c-16.363,0-29.675-13.312-29.675-29.675v-72.459
	c0-16.363,13.312-29.675,29.675-29.675h170.068c16.363,0,29.675,13.312,29.675,29.675v72.459
	C391.771,228.438,378.459,241.75,362.093,241.75z M192.027,138.441c-0.648,0-1.176,0.527-1.176,1.176v72.459
	c0,0.648,0.527,1.176,1.176,1.176h170.068c0.648,0,1.176-0.527,1.176-1.176v-72.459c0-0.648-0.527-1.176-1.176-1.176
	C362.095,138.441,192.027,138.441,192.027,138.441z"/>
<g>
</g>
<g>
</g>
<g>
</g>
<g>
</g>
<g>
</g>
<g>
</g>
<g>
</g>
<g>
</g>
<g>
</g>
<g>
</g>
<g>
</g>
<g>
</g>
<g>
</g>
<g>
</g>
<g>
</g>
</svg>
