<?xml version="1.0" encoding="iso-8859-1"?>
<!-- Generator: Adobe Illustrator 19.0.0, SVG Export Plug-In . SVG Version: 6.00 Build 0)  -->
<svg version="1.1" id="Layer_1" xmlns="http://www.w3.org/2000/svg" xmlns:xlink="http://www.w3.org/1999/xlink" x="0px" y="0px"
	 viewBox="0 0 512 512" style="enable-background:new 0 0 512 512;" xml:space="preserve">
<g>
	<path style="fill:#507C5C;" d="M368.407,512H85.262c-22.103,0-40.085-17.982-40.085-40.085V40.085C45.176,17.982,63.158,0,85.262,0
		h341.477c22.103,0,40.085,17.982,40.085,40.085v373.496L368.407,512z M85.262,30.118c-5.496,0-9.967,4.472-9.967,9.967v431.83
		c0,5.495,4.471,9.967,9.967,9.967H355.93l80.776-80.777V40.085c0-5.495-4.471-9.967-9.967-9.967H85.262z"/>
	<rect x="287.322" y="293.105" style="fill:#507C5C;" width="101.481" height="30.118"/>
	<path style="fill:#507C5C;" d="M260.578,322.721H230.46v-66.59h-76.243v66.59H124.1v-70.691c0-14.345,11.671-26.016,26.017-26.016
		h84.444c14.345,0,26.017,11.671,26.017,26.016L260.578,322.721L260.578,322.721z"/>
</g>
<path style="fill:#CFF09E;" d="M360.614,190.705H153.806c-8.09,0-14.648-6.558-14.648-14.648V98.515
	c0-8.09,6.558-14.648,14.648-14.648h206.807c8.09,0,14.648,6.558,14.648,14.648v77.544
	C375.261,184.148,368.703,190.705,360.614,190.705z"/>
<g>
	<path style="fill:#507C5C;" d="M360.614,205.765H153.806c-16.379,0-29.707-13.327-29.707-29.707V98.515
		c0-16.379,13.326-29.707,29.707-29.707h206.807c16.379,0,29.707,13.327,29.707,29.707v77.544
		C390.32,192.438,376.993,205.765,360.614,205.765z M154.217,175.648h205.985V98.926H154.217V175.648z"/>
	<rect x="287.322" y="232.87" style="fill:#507C5C;" width="101.481" height="30.118"/>
	<rect x="124.1" y="413.079" style="fill:#507C5C;" width="101.481" height="30.118"/>
	<rect x="123.181" y="353.837" style="fill:#507C5C;" width="265.623" height="30.118"/>
</g>
<g>
</g>
<g>
</g>
<g>
</g>
<g>
</g>
<g>
</g>
<g>
</g>
<g>
</g>
<g>
</g>
<g>
</g>
<g>
</g>
<g>
</g>
<g>
</g>
<g>
</g>
<g>
</g>
<g>
</g>
</svg>
