<?xml version="1.0" encoding="iso-8859-1"?>
<!-- Generator: Adobe Illustrator 19.0.0, SVG Export Plug-In . SVG Version: 6.00 Build 0)  -->
<svg version="1.1" id="Layer_1" xmlns="http://www.w3.org/2000/svg" xmlns:xlink="http://www.w3.org/1999/xlink" x="0px" y="0px"
	 viewBox="0 0 512 512" style="enable-background:new 0 0 512 512;" xml:space="preserve">
<g>
	<path style="fill:#507C5C;" d="M319.566,512H43.326c-22.103,0-40.085-17.982-40.085-40.085V40.085C3.239,17.982,21.222,0,43.326,0
		H377.9c22.103,0,40.085,17.982,40.085,40.085v77.062h-30.118V40.085c0-5.495-4.472-9.967-9.967-9.967H43.326
		c-5.496,0-9.967,4.471-9.967,9.967v431.83c0,5.496,4.471,9.967,9.967,9.967h263.766l80.776-80.776V237.594h30.118v175.989
		L319.566,512z"/>
	<rect x="87.067" y="120.471" style="fill:#507C5C;" width="131.072" height="30.118"/>
	<rect x="87.067" y="240.941" style="fill:#507C5C;" width="131.072" height="30.118"/>
	<rect x="87.067" y="361.412" style="fill:#507C5C;" width="131.072" height="30.118"/>
</g>
<path style="fill:#CFF09E;" d="M227.461,298.123l-28.461,68.843c-4.224,10.216,4.6,19.04,14.816,14.816l68.843-28.461
	c3.851-1.592,5.311-6.454,2.717-9.047l-48.867-48.867C233.916,292.811,229.052,294.272,227.461,298.123z"/>
<path style="fill:#507C5C;" d="M208.625,397.923L208.625,397.923c-8.678,0-16.688-4.232-21.427-11.318
	c-4.881-7.297-5.671-16.789-2.116-25.391l28.461-68.844c3.295-7.971,11.214-13.329,19.704-13.329c5.283,0,10.223,2.031,13.908,5.718
	l48.867,48.866c4.643,4.643,6.629,11.348,5.316,17.94c-1.405,7.049-6.239,12.908-12.931,15.675l-68.841,28.46
	C216.001,397.175,212.317,397.923,208.625,397.923z M236.204,316.395l-19.864,48.05l48.05-19.864L236.204,316.395z"/>
<path style="fill:#CFF09E;" d="M286.875,349.557L455.153,181.28l-27.826-27.826l-27.826-27.826L231.225,293.906
	C231.079,294.054,286.729,349.705,286.875,349.557z"/>
<path style="fill:#507C5C;" d="M293.058,364.671l-6.314-0.054c-6.135-0.053-9.264-3.128-12.89-6.686
	c-1.551-1.524-3.75-3.7-6.382-6.313c-5.225-5.189-12.168-12.112-19.107-19.051c-29.78-29.78-29.78-29.78-31.08-32.955l-3.792-9.272
	L399.5,104.332l76.949,76.948L293.058,364.671z M252.431,293.998c9.785,9.841,24.513,24.568,34.354,34.354L433.857,181.28
	l-34.354-34.354L252.431,293.998z"/>
<path style="fill:#CFF09E;" d="M455.195,181.239l33.41-33.41c6.796-6.795,6.796-17.813,0-24.608l-15.521-15.521l-15.521-15.523
	c-6.795-6.795-17.813-6.796-24.608,0l-33.41,33.41C399.49,125.642,455.141,181.293,455.195,181.239z"/>
<path style="fill:#507C5C;" d="M461.062,196.667l-6.748-0.395c-5.71-0.334-8.555-3.159-12.154-6.736
	c-1.535-1.522-3.718-3.698-6.335-6.31c-5.221-5.207-12.172-12.152-19.122-19.102c-6.95-6.95-13.898-13.905-19.113-19.134
	c-10.954-10.982-10.954-10.982-12.121-14.048l-3.465-9.111l40.302-40.302c6.132-6.13,14.282-9.507,22.953-9.507
	c8.669,0,16.819,3.376,22.95,9.507l31.044,31.044c6.13,6.13,9.507,14.282,9.507,22.953c0,8.669-3.376,16.821-9.507,22.953
	L461.062,196.667z M420.805,125.622c9.832,9.853,24.501,24.522,34.354,34.354l22.796-22.796c0.568-0.566,0.687-1.214,0.687-1.655
	c0-0.443-0.119-1.089-0.687-1.656l-31.042-31.044c-0.566-0.566-1.214-0.687-1.655-0.687c-0.443,0-1.09,0.119-1.658,0.687
	L420.805,125.622z"/>
<g>
</g>
<g>
</g>
<g>
</g>
<g>
</g>
<g>
</g>
<g>
</g>
<g>
</g>
<g>
</g>
<g>
</g>
<g>
</g>
<g>
</g>
<g>
</g>
<g>
</g>
<g>
</g>
<g>
</g>
</svg>
