<?xml version="1.0" encoding="iso-8859-1"?>
<!-- Generator: Adobe Illustrator 19.0.0, SVG Export Plug-In . SVG Version: 6.00 Build 0)  -->
<svg version="1.1" id="Layer_1" xmlns="http://www.w3.org/2000/svg" xmlns:xlink="http://www.w3.org/1999/xlink" x="0px" y="0px"
	 viewBox="0 0 512 512" style="enable-background:new 0 0 512 512;" xml:space="preserve">
<g>
	<path style="fill:#507C5C;" d="M354.533,270.089h-27.701V111.152c0-3.118-2.537-5.655-5.655-5.655h-77.91V77.795h77.91
		c18.392,0,33.357,14.964,33.357,33.357L354.533,270.089L354.533,270.089z"/>
	<path style="fill:#507C5C;" d="M257.431,512h-51.725c-26.599,0-48.238-21.64-48.238-48.239v-308.17H305.67v308.17
		C305.67,490.36,284.03,512,257.431,512z M185.169,183.292v280.469c0,11.324,9.212,20.538,20.536,20.538h51.725
		c11.324,0,20.538-9.214,20.538-20.538V183.292H185.169z"/>
</g>
<path style="fill:#CFF09E;" d="M291.819,169.441H171.318V48.239c0-18.992,15.396-34.389,34.389-34.389h51.725
	c18.992,0,34.389,15.396,34.389,34.389v121.202H291.819z"/>
<g>
	<path style="fill:#507C5C;" d="M305.67,183.292H157.467V48.239C157.467,21.64,179.108,0,205.707,0h51.725
		c26.599,0,48.239,21.64,48.239,48.239v135.053H305.67z M185.169,155.591h92.8V48.239c0-11.326-9.212-20.538-20.538-20.538h-51.725
		c-11.324,0-20.536,9.212-20.536,20.538V155.591z"/>
	<rect x="217.719" y="172.898" style="fill:#507C5C;" width="27.701" height="325.256"/>
</g>
<g>
</g>
<g>
</g>
<g>
</g>
<g>
</g>
<g>
</g>
<g>
</g>
<g>
</g>
<g>
</g>
<g>
</g>
<g>
</g>
<g>
</g>
<g>
</g>
<g>
</g>
<g>
</g>
<g>
</g>
</svg>
