<?xml version="1.0" encoding="iso-8859-1"?>
<!-- Generator: Adobe Illustrator 19.0.0, SVG Export Plug-In . SVG Version: 6.00 Build 0)  -->
<svg version="1.1" id="Layer_1" xmlns="http://www.w3.org/2000/svg" xmlns:xlink="http://www.w3.org/1999/xlink" x="0px" y="0px"
	 viewBox="0 0 512 512" style="enable-background:new 0 0 512 512;" xml:space="preserve">
<path style="fill:#CFF09E;" d="M70.167,57.753L52.508,75.412c-11.129,11.129-11.129,29.176,0,40.306l55.914,55.914l37.812-37.812
	l37.812-37.812l-55.913-55.916c-11.129-11.129-29.176-11.129-40.306,0L70.167,57.753z"/>
<path style="fill:#507C5C;" d="M108.42,192.723l-66.46-66.459c-8.2-8.2-12.716-19.104-12.716-30.699
	c0-11.596,4.516-22.5,12.716-30.701l35.32-35.318c8.2-8.199,19.103-12.715,30.699-12.715l0,0c11.596,0,22.499,4.516,30.699,12.715
	l66.462,66.462L108.42,192.723z M107.979,46.659c-3.63,0-7.041,1.412-9.605,3.979l-35.32,35.32c-5.298,5.298-5.298,13.916,0,19.213
	l45.366,45.368l54.533-54.533l-45.368-45.368C115.02,48.072,111.609,46.659,107.979,46.659z"/>
<path style="fill:#CFF09E;" d="M411.097,398.682l-34.923,34.923c-2.297,2.297-1.057,6.227,2.14,6.792l84.812,14.967
	c2.744,0.485,5.135-1.906,4.65-4.65L452.809,365.9c-0.564-3.198-4.495-4.437-6.792-2.14L411.097,398.682z"/>
<g>
	<path style="fill:#507C5C;" d="M463.837,470.341C463.836,470.341,463.837,470.341,463.837,470.341c-1.102,0-2.21-0.097-3.299-0.288
		l-84.816-14.969c-6.973-1.227-12.63-6.188-14.761-12.945s-0.345-14.068,4.664-19.078l69.849-69.849
		c3.574-3.575,8.322-5.548,13.365-5.548c9.211,0,17.06,6.576,18.661,15.637l14.966,84.819c0.975,5.52-0.529,11.153-4.133,15.449
		C474.722,467.873,469.439,470.341,463.837,470.341z M401.525,429.347l48.859,8.622l-8.621-48.861L401.525,429.347z"/>
	<polygon style="fill:#507C5C;" points="368.042,452.345 76.525,160.828 173.243,64.111 464.759,355.626 443.666,376.72 
		173.243,106.296 118.711,160.828 389.135,431.253 	"/>
	<path style="fill:#507C5C;" d="M120.956,512c-5.268,0-10.223-2.051-13.951-5.775L5.779,405c-7.693-7.695-7.693-20.214,0-27.909
		l20.195-20.195c3.727-3.727,8.683-5.779,13.953-5.779c5.271,0,10.227,2.052,13.954,5.779l7.653,7.654l11.319-11.317l-7.654-7.656
		c-3.727-3.726-5.779-8.682-5.779-13.951c0-5.271,2.052-10.227,5.779-13.954l33.699-33.699c3.727-3.727,8.683-5.779,13.954-5.779
		c5.269,0,10.226,2.052,13.953,5.779l6.494,6.494l11.317-11.319l-6.494-6.494c-7.693-7.695-7.693-20.214,0-27.909l32.253-32.253
		l129.129,129.129L134.909,506.221C131.182,509.948,126.227,512,120.956,512z M34.012,391.045l86.944,86.944l136.365-136.366
		l-86.943-86.943l-4.021,4.02l20.448,20.448l-53.504,53.504l-20.447-20.448l-19.421,19.421l21.606,21.607l-53.502,53.504
		L39.93,385.127L34.012,391.045z"/>
	<path style="fill:#507C5C;" d="M354.039,287.091L224.911,157.964l19.837-19.84c3.727-3.729,8.683-5.781,13.954-5.781
		c5.271,0,10.226,2.052,13.953,5.779l6.494,6.494l11.317-11.317l-6.494-6.494c-3.727-3.727-5.779-8.682-5.779-13.953
		c0-5.271,2.052-10.226,5.779-13.953l33.699-33.7c3.727-3.727,8.682-5.779,13.953-5.779c5.272,0,10.227,2.052,13.954,5.779
		l7.653,7.654l11.319-11.319l-7.653-7.653c-3.729-3.727-5.781-8.682-5.781-13.953s2.052-10.227,5.78-13.954L377.09,5.782
		C380.815,2.055,385.771,0,391.047,0c5.272,0,10.229,2.055,13.957,5.785l101.216,101.216c7.693,7.695,7.693,20.213,0,27.907
		L354.039,287.091z M287.543,178.409l66.496,66.496l123.95-123.95l-86.944-86.943l-5.917,5.915l21.609,21.607l-53.504,53.502
		l-21.606-21.606l-19.421,19.421l20.448,20.447L287.543,178.409z"/>
</g>
<g>
</g>
<g>
</g>
<g>
</g>
<g>
</g>
<g>
</g>
<g>
</g>
<g>
</g>
<g>
</g>
<g>
</g>
<g>
</g>
<g>
</g>
<g>
</g>
<g>
</g>
<g>
</g>
<g>
</g>
</svg>
