<?xml version="1.0" encoding="iso-8859-1"?>
<!-- Generator: Adobe Illustrator 19.0.0, SVG Export Plug-In . SVG Version: 6.00 Build 0)  -->
<svg version="1.1" id="Layer_1" xmlns="http://www.w3.org/2000/svg" xmlns:xlink="http://www.w3.org/1999/xlink" x="0px" y="0px"
	 viewBox="0 0 512 512" style="enable-background:new 0 0 512 512;" xml:space="preserve">
<path style="fill:#CFF09E;" d="M256,498.519h22.574c14.228,0,25.761-11.533,25.761-25.761v-71.474H256h-48.336v71.474
	c0,14.228,11.533,25.761,25.761,25.761H256z"/>
<path style="fill:#507C5C;" d="M278.573,512h-45.149c-21.639,0-39.241-17.605-39.241-39.243v-84.955h123.633v84.955
	C317.815,494.396,300.212,512,278.573,512z M221.144,414.765v57.993c0,6.77,5.508,12.28,12.279,12.28h45.149
	c6.77,0,12.279-5.51,12.279-12.28v-57.993H221.144z"/>
<path style="fill:#CFF09E;" d="M256,84.512h44.641c2.935,0,4.656-3.304,2.973-5.709l-44.641-63.773c-1.444-2.064-4.5-2.064-5.945,0
	l-44.642,63.773c-1.684,2.405,0.036,5.709,2.973,5.709H256z"/>
<g>
	<path style="fill:#507C5C;" d="M300.639,97.993h-89.283c-6.404,0-12.218-3.528-15.177-9.209c-2.956-5.68-2.512-12.468,1.159-17.713
		l44.641-63.773C245.181,2.727,250.421,0,256,0c5.58,0,10.82,2.729,14.019,7.301l44.638,63.771
		c3.672,5.246,4.117,12.033,1.159,17.713C312.857,94.465,307.043,97.993,300.639,97.993z M230.28,71.03h51.434l-25.717-36.739
		L230.28,71.03z"/>
	<polygon style="fill:#507C5C;" points="317.815,428.574 194.181,428.574 194.181,77.732 221.144,77.732 221.144,401.611 
		290.852,401.611 290.852,77.732 317.815,77.732 	"/>
</g>
<path style="fill:#CFF09E;" d="M422.969,498.519h22.574c14.228,0,25.761-11.533,25.761-25.761v-71.474h-48.336h-48.336v71.474
	c0,14.228,11.533,25.761,25.761,25.761H422.969z"/>
<path style="fill:#507C5C;" d="M445.542,512h-45.148c-21.639,0-39.241-17.605-39.241-39.243v-84.955h123.633v84.955
	C484.786,494.396,467.181,512,445.542,512z M388.116,414.765v57.993c0,6.77,5.508,12.28,12.279,12.28h45.148
	c6.77,0,12.28-5.51,12.28-12.28v-57.993H388.116z"/>
<path style="fill:#CFF09E;" d="M422.969,224.487h44.641c2.935,0,4.656-3.304,2.973-5.709l-44.641-63.773
	c-1.444-2.064-4.5-2.064-5.945,0l-44.642,63.773c-1.684,2.405,0.036,5.709,2.973,5.709H422.969z"/>
<g>
	<path style="fill:#507C5C;" d="M467.609,237.969h-89.284c-6.404,0-12.218-3.528-15.176-9.208
		c-2.956-5.681-2.512-12.469,1.159-17.714l44.641-63.773c3.199-4.57,8.439-7.297,14.017-7.297s10.817,2.727,14.017,7.297
		l44.641,63.773c3.672,5.246,4.117,12.033,1.159,17.713C479.829,234.44,474.013,237.969,467.609,237.969z M397.252,211.007h51.434
		l-25.717-36.739L397.252,211.007z"/>
	<polygon style="fill:#507C5C;" points="484.786,428.574 361.153,428.574 361.153,217.707 388.116,217.707 388.116,401.611 
		457.823,401.611 457.823,217.707 484.786,217.707 	"/>
</g>
<path style="fill:#CFF09E;" d="M89.03,498.519h22.574c14.228,0,25.761-11.533,25.761-25.761v-71.474H89.03H40.695v71.474
	c0,14.228,11.533,25.761,25.761,25.761H89.03z"/>
<path style="fill:#507C5C;" d="M111.604,512H66.457c-21.639,0-39.243-17.605-39.243-39.243v-84.955h123.633v84.955
	C150.847,494.396,133.243,512,111.604,512z M54.177,414.765v57.993c0,6.77,5.51,12.28,12.28,12.28h45.148
	c6.77,0,12.279-5.51,12.279-12.28v-57.993H54.177z"/>
<path style="fill:#CFF09E;" d="M89.03,175.869h44.641c2.935,0,4.656-3.304,2.973-5.709l-44.641-63.772
	c-1.444-2.064-4.5-2.064-5.945,0l-44.641,63.773c-1.684,2.405,0.036,5.709,2.973,5.709H89.03V175.869z"/>
<g>
	<path style="fill:#507C5C;" d="M133.672,189.35H44.388c-6.405,0-12.219-3.529-15.177-9.21c-2.958-5.681-2.512-12.468,1.162-17.714
		l44.641-63.769c3.196-4.57,8.438-7.299,14.017-7.299s10.819,2.729,14.018,7.301l44.638,63.771
		c3.672,5.243,4.117,12.029,1.159,17.71C145.887,185.821,140.076,189.35,133.672,189.35z M63.314,162.388h51.433L89.03,125.65
		L63.314,162.388z"/>
	<polygon style="fill:#507C5C;" points="150.847,428.574 27.214,428.574 27.214,169.089 54.177,169.089 54.177,401.611 
		123.884,401.611 123.884,169.089 150.847,169.089 	"/>
</g>
<g>
</g>
<g>
</g>
<g>
</g>
<g>
</g>
<g>
</g>
<g>
</g>
<g>
</g>
<g>
</g>
<g>
</g>
<g>
</g>
<g>
</g>
<g>
</g>
<g>
</g>
<g>
</g>
<g>
</g>
</svg>
