<?xml version="1.0" encoding="iso-8859-1"?>
<!-- Generator: Adobe Illustrator 19.0.0, SVG Export Plug-In . SVG Version: 6.00 Build 0)  -->
<svg version="1.1" id="Layer_1" xmlns="http://www.w3.org/2000/svg" xmlns:xlink="http://www.w3.org/1999/xlink" x="0px" y="0px"
	 viewBox="0 0 512 512" style="enable-background:new 0 0 512 512;" xml:space="preserve">
<path style="fill:#CFF09E;" d="M265.514,403.396h-19.03c-4.735,0-8.573-3.838-8.573-8.573V96.908h36.174v297.915
	C274.087,399.558,270.247,403.396,265.514,403.396z"/>
<path style="fill:#507C5C;" d="M265.514,416.877h-19.029c-12.161,0-22.054-9.893-22.054-22.053V83.426h63.137v311.397
	C287.568,406.985,277.674,416.877,265.514,416.877z M251.393,389.915h9.212V110.389h-9.212L251.393,389.915L251.393,389.915z"/>
<path style="fill:#CFF09E;" d="M245.886,13.481h-22.574c-14.228,0-25.761,11.533-25.761,25.761v71.474h48.336h68.558V39.243
	c0-14.228-11.533-25.761-25.761-25.761H245.886z"/>
<g>
	<path style="fill:#507C5C;" d="M327.926,124.198H184.07V39.243C184.07,17.605,201.676,0,223.313,0h65.37
		c21.639,0,39.243,17.605,39.243,39.243L327.926,124.198L327.926,124.198z M211.033,97.235h89.93V39.243
		c0-6.77-5.508-12.28-12.28-12.28h-65.37c-6.77,0-12.28,5.51-12.28,12.28L211.033,97.235L211.033,97.235z"/>
	<path style="fill:#507C5C;" d="M255.997,512c-9.728,0-17.088-1.224-21.342-7.172l-41.304-57.092
		c-0.398-0.549-0.839-1.118-1.29-1.705c-3.182-4.135-7.992-10.385-7.992-18.631V83.426h143.855v343.973
		c0,8.248-4.809,14.496-7.992,18.631c-0.452,0.588-0.892,1.155-1.29,1.707l-41.309,57.099C273.081,510.777,265.724,512,255.997,512z
		 M253.579,484.982c1.391,0.066,3.451,0.066,4.84,0l38.381-53.05c0.547-0.756,1.147-1.541,1.767-2.346
		c0.725-0.941,1.856-2.412,2.397-3.315V110.389h-89.93v315.883c0.539,0.902,1.672,2.374,2.396,3.315
		c0.62,0.806,1.221,1.591,1.767,2.344L253.579,484.982z"/>
	<rect x="184.072" y="83.426" style="fill:#507C5C;" width="143.859" height="31.02"/>
</g>
<path style="fill:#CFF09E;" d="M219.383,460.466l26.228,36.503c1.444,2.064,19.329,2.064,20.775,0l26.228-36.503H219.383z"/>
<path style="fill:#507C5C;" d="M255.999,512c-9.744,0-17.11-1.228-21.361-7.199l-41.54-57.816H318.9l-41.539,57.812
	C273.11,510.772,265.743,512,255.999,512z M253.599,484.983c1.38,0.066,3.416,0.066,4.799,0l7.928-11.036h-20.656L253.599,484.983z"
	/>
<g>
</g>
<g>
</g>
<g>
</g>
<g>
</g>
<g>
</g>
<g>
</g>
<g>
</g>
<g>
</g>
<g>
</g>
<g>
</g>
<g>
</g>
<g>
</g>
<g>
</g>
<g>
</g>
<g>
</g>
</svg>
