<?xml version="1.0" encoding="iso-8859-1"?>
<!-- Generator: Adobe Illustrator 19.0.0, SVG Export Plug-In . SVG Version: 6.00 Build 0)  -->
<svg version="1.1" id="Layer_1" xmlns="http://www.w3.org/2000/svg" xmlns:xlink="http://www.w3.org/1999/xlink" x="0px" y="0px"
	 viewBox="0 0 512 512" style="enable-background:new 0 0 512 512;" xml:space="preserve">
<g>
	<path style="fill:#507C5C;" d="M267.205,469.826H70.402C31.582,469.826,0,438.244,0,399.424V233.818
		c0-38.82,31.582-70.402,70.402-70.402h196.803c38.82,0,70.402,31.582,70.402,70.402v165.606
		C337.607,438.244,306.026,469.826,267.205,469.826z M70.402,194.41c-21.73,0-39.408,17.678-39.408,39.408v165.606
		c0,21.729,17.678,39.408,39.408,39.408h196.803c21.729,0,39.408-17.678,39.408-39.408V233.818
		c0-21.729-17.678-39.408-39.408-39.408C267.205,194.41,70.402,194.41,70.402,194.41z"/>
	<path style="fill:#507C5C;" d="M147.116,393.777c-0.377,0-0.753-0.006-1.133-0.019c-8.32-0.288-16.204-3.746-22.197-9.737
		l-0.659-0.7l-58.497-66.246l23.232-20.515l58.043,65.73c0.473,0.391,0.914,0.485,1.148,0.493l102.61-117.989l23.388,20.34
		L169.296,384.437l-0.381,0.381C163.115,390.622,155.41,393.777,147.116,393.777z"/>
</g>
<path style="fill:#CFF09E;" d="M440.939,57.671h-25.95c-16.356,0-29.613,13.258-29.613,29.614v82.161h55.564h55.564V87.285
	c0-16.356-13.258-29.614-29.614-29.614C466.889,57.671,440.939,57.671,440.939,57.671z"/>
<path style="fill:#507C5C;" d="M512,184.943H369.88v-97.66c0-24.875,20.236-45.109,45.109-45.109h51.898
	c24.874,0,45.111,20.236,45.111,45.109L512,184.943L512,184.943z M400.874,153.949h80.131V87.283
	c0-7.783-6.334-14.115-14.116-14.115h-51.898c-7.783,0-14.115,6.332-14.115,14.115L400.874,153.949L400.874,153.949z"/>
<path style="fill:#CFF09E;" d="M440.939,372.677h-51.316c-3.374,0-5.353,3.798-3.417,6.563l51.316,73.309
	c1.66,2.373,5.173,2.373,6.834,0l51.317-73.309c1.936-2.765-0.042-6.563-3.417-6.563H440.939z"/>
<g>
	<path style="fill:#507C5C;" d="M440.938,469.826c-6.411,0-12.433-3.135-16.111-8.389l-51.316-73.311
		c-4.221-6.027-4.733-13.828-1.333-20.359s10.084-10.588,17.445-10.588h102.635c7.361,0,14.045,4.056,17.445,10.585
		c3.4,6.529,2.889,14.33-1.331,20.362l-51.317,73.311C453.374,466.691,447.35,469.826,440.938,469.826z M411.377,388.175
		l29.562,42.231l29.562-42.231L411.377,388.175L411.377,388.175z"/>
	<polygon style="fill:#507C5C;" points="512,380.472 481.006,380.472 481.006,169.068 400.874,169.068 400.874,380.472 
		369.88,380.472 369.88,138.074 512,138.074 	"/>
</g>
<g>
</g>
<g>
</g>
<g>
</g>
<g>
</g>
<g>
</g>
<g>
</g>
<g>
</g>
<g>
</g>
<g>
</g>
<g>
</g>
<g>
</g>
<g>
</g>
<g>
</g>
<g>
</g>
<g>
</g>
</svg>
