<?xml version="1.0" encoding="iso-8859-1"?>
<!-- Generator: Adobe Illustrator 19.0.0, SVG Export Plug-In . SVG Version: 6.00 Build 0)  -->
<svg version="1.1" id="Layer_1" xmlns="http://www.w3.org/2000/svg" xmlns:xlink="http://www.w3.org/1999/xlink" x="0px" y="0px"
	 viewBox="0 0 512 512" style="enable-background:new 0 0 512 512;" xml:space="preserve">
<g>
	<path style="fill:#507C5C;" d="M296.85,512h-81.698c-49.114,0-89.073-39.957-89.073-89.071V128h259.841v294.929
		C385.921,472.043,345.962,512,296.85,512z M154.211,156.132v266.797c0,33.602,27.339,60.939,60.941,60.939h81.698
		c33.602,0,60.941-27.339,60.941-60.939V156.132H154.211z"/>
	<path style="fill:#507C5C;" d="M241.665,459.175c-37.49,0-67.991-30.501-67.991-67.991V279.912h28.132v111.273
		c0,21.978,17.881,39.859,39.859,39.859V459.175z"/>
</g>
<path style="fill:#CFF09E;" d="M345.36,142.066v-98.19c0-16.464-13.347-29.81-29.81-29.81h-59.55h-59.55
	c-16.464,0-29.81,13.347-29.81,29.81v98.19H345.36z"/>
<g>
	<path style="fill:#507C5C;" d="M359.426,156.132H152.575V43.876C152.575,19.682,172.258,0,196.451,0h119.1
		c24.193,0,43.876,19.682,43.876,43.876L359.426,156.132L359.426,156.132z M180.706,128h150.589V43.876
		c0-8.681-7.063-15.744-15.744-15.744h-119.1c-8.681,0-15.744,7.063-15.744,15.744L180.706,128L180.706,128z"/>
	<rect x="206.529" y="69.387" style="fill:#507C5C;" width="30.007" height="28.132"/>
	<rect x="275.452" y="69.387" style="fill:#507C5C;" width="30.007" height="28.132"/>
</g>
<g>
</g>
<g>
</g>
<g>
</g>
<g>
</g>
<g>
</g>
<g>
</g>
<g>
</g>
<g>
</g>
<g>
</g>
<g>
</g>
<g>
</g>
<g>
</g>
<g>
</g>
<g>
</g>
<g>
</g>
</svg>
