<?xml version="1.0" encoding="iso-8859-1"?>
<!-- Generator: Adobe Illustrator 19.0.0, SVG Export Plug-In . SVG Version: 6.00 Build 0)  -->
<svg version="1.1" id="Layer_1" xmlns="http://www.w3.org/2000/svg" xmlns:xlink="http://www.w3.org/1999/xlink" x="0px" y="0px"
	 viewBox="0 0 512 512" style="enable-background:new 0 0 512 512;" xml:space="preserve">
<g>
	<path style="fill:#507C5C;" d="M436.947,265.483H75.051V35.096c0-17.169,13.97-31.14,31.14-31.14H405.81
		c17.169,0,31.138,13.97,31.138,31.14L436.947,265.483L436.947,265.483z M105.604,234.93h300.791V35.096
		c0-0.324-0.263-0.587-0.585-0.587H106.191c-0.324,0-0.587,0.263-0.587,0.587V234.93z"/>
	<path style="fill:#507C5C;" d="M105.604,248.382H34.489V65.649c0-17.169,13.97-31.14,31.14-31.14h39.976V248.382z M65.042,217.829
		h10.009V65.062h-9.423c-0.324,0-0.587,0.263-0.587,0.587V217.829z"/>
	<path style="fill:#507C5C;" d="M477.511,248.382h-71.117V34.509h39.977c17.169,0,31.14,13.97,31.14,31.14V248.382z
		 M436.947,217.829h10.011V65.649c0-0.324-0.263-0.587-0.587-0.587h-9.424V217.829z"/>
	<path style="fill:#507C5C;" d="M405.81,508.044H106.191c-17.169,0-31.14-13.97-31.14-31.14V261.835h361.898v215.068
		C436.947,494.074,422.98,508.044,405.81,508.044z M105.604,292.388v184.514c0,0.324,0.263,0.587,0.587,0.587H405.81
		c0.322,0,0.585-0.263,0.585-0.587V292.388H105.604z"/>
	<path style="fill:#507C5C;" d="M105.604,477.532H65.628c-17.169,0-31.14-13.97-31.14-31.14V263.659h71.116V477.532z
		 M65.042,294.212v152.18c0,0.324,0.263,0.587,0.587,0.587h9.423V294.212L65.042,294.212L65.042,294.212z"/>
	<path style="fill:#507C5C;" d="M446.371,477.532h-39.977V263.659h71.117v182.733C477.511,463.562,463.542,477.532,446.371,477.532z
		 M436.947,446.979h9.424c0.324,0,0.587-0.263,0.587-0.587v-152.18h-10.011V446.979z"/>
</g>
<path style="fill:#CFF09E;" d="M486.803,123.795H256H25.197c-5.478,0-9.921,4.441-9.921,9.921v203.128
	c0,5.478,4.441,9.921,9.921,9.921h65.13v-69.649H256h165.672v69.649h65.13c5.478,0,9.921-4.441,9.921-9.921V133.713
	C496.723,128.234,492.282,123.795,486.803,123.795z"/>
<path style="fill:#507C5C;" d="M486.803,362.039h-80.409V292.39h-300.79v69.649H25.197C11.303,362.039,0,350.736,0,336.84V133.713
	c0-13.894,11.303-25.196,25.197-25.196h461.605c13.894,0,25.197,11.302,25.197,25.196V336.84
	C512,350.736,500.697,362.039,486.803,362.039z M436.947,331.486h44.499V139.072H30.553v192.414h44.498v-69.649h361.898
	L436.947,331.486L436.947,331.486z"/>
<g>
</g>
<g>
</g>
<g>
</g>
<g>
</g>
<g>
</g>
<g>
</g>
<g>
</g>
<g>
</g>
<g>
</g>
<g>
</g>
<g>
</g>
<g>
</g>
<g>
</g>
<g>
</g>
<g>
</g>
</svg>
