<?xml version="1.0" encoding="iso-8859-1"?>
<!-- Generator: Adobe Illustrator 19.0.0, SVG Export Plug-In . SVG Version: 6.00 Build 0)  -->
<svg version="1.1" id="Layer_1" xmlns="http://www.w3.org/2000/svg" xmlns:xlink="http://www.w3.org/1999/xlink" x="0px" y="0px"
	 viewBox="0 0 512 512" style="enable-background:new 0 0 512 512;" xml:space="preserve">
<path style="fill:#507C5C;" d="M448.849,512H198.723c-26.914,0-48.809-21.895-48.809-48.809V183.165
	c0-26.914,21.895-48.809,48.809-48.809h250.127c26.914,0,48.809,21.895,48.809,48.809v110.172l-21.386-12.371
	c-8.848-5.117-19.209-7.308-29.577-6.236c-23.117,2.387-41.759,21.714-43.363,44.959c-0.946,13.703,3.661,26.746,12.974,36.723
	c9.321,9.987,21.973,15.486,35.625,15.486c8.548,0,16.963-2.256,24.339-6.523l21.387-12.372v110.188
	C497.658,490.105,475.762,512,448.849,512z M198.723,162.858c-11.197,0-20.307,9.11-20.307,20.307v280.026
	c0,11.197,9.11,20.307,20.307,20.307h250.127c11.197,0,20.307-9.11,20.307-20.307v-64.741c-5.628,1.288-11.408,1.948-17.225,1.948
	c-21.325,0-41.904-8.944-56.461-24.54c-14.761-15.815-22.067-36.46-20.574-58.133c2.547-36.885,32.154-67.557,68.869-71.347
	c8.546-0.881,17.149-0.363,25.389,1.521v-64.735c0-11.197-9.11-20.307-20.307-20.307L198.723,162.858L198.723,162.858z"/>
<path style="fill:#CFF09E;" d="M319.316,14.406c-30.216,2.085-55.043,25.988-58.154,56.115
	c-1.927,18.653,4.298,35.866,15.545,48.515c7.343,8.261,11.443,18.727,12.14,29.572h70.058c0.789-10.957,4.912-21.523,12.27-29.922
	c9.702-11.076,15.583-25.583,15.583-41.464C386.756,40.965,356.116,11.865,319.316,14.406z"/>
<path style="fill:#507C5C;" d="M372.165,162.858H275.48l-0.856-13.337c-0.507-7.908-3.55-15.371-8.569-21.015
	c-14.564-16.383-21.336-37.496-19.07-59.448c3.792-36.715,34.467-66.323,71.349-68.869C320.146,0.063,321.98,0,323.787,0
	c42.58,0,77.22,34.642,77.22,77.222c0,18.724-6.789,36.785-19.116,50.855c-5.146,5.877-8.181,13.332-8.773,21.556L372.165,162.858z
	 M300.797,134.357h46.162c2.575-9.294,7.135-17.801,13.493-25.06c7.774-8.874,12.055-20.264,12.055-32.075
	c0-26.865-21.856-48.72-48.719-48.72c-1.156,0-2.329,0.04-3.489,0.121c-23.244,1.605-42.574,20.246-44.961,43.363
	c-1.436,13.902,2.833,27.249,12.02,37.582C293.631,116.625,298.218,125.15,300.797,134.357z"/>
<path style="fill:#CFF09E;" d="M28.75,326.935c2.085,30.216,25.988,55.043,56.115,58.154c18.653,1.927,35.866-4.298,48.515-15.545
	c8.261-7.343,18.727-11.443,29.572-12.14v-70.058c-10.957-0.789-21.523-4.912-29.922-12.27
	c-11.076-9.702-25.583-15.583-41.464-15.583C55.311,259.495,26.211,290.137,28.75,326.935z"/>
<path style="fill:#507C5C;" d="M91.569,399.688c-0.001,0-0.001,0-0.003,0c-2.705,0-5.452-0.143-8.164-0.422
	c-36.715-3.792-66.323-34.467-68.868-71.349c-1.496-21.671,5.81-42.316,20.571-58.131c14.557-15.596,35.136-24.541,56.463-24.541
	c18.724,0,36.784,6.789,50.855,19.116c5.878,5.146,13.332,8.181,21.554,8.773l13.227,0.953v96.685l-13.339,0.856
	c-7.906,0.507-15.371,3.55-21.014,8.569C128.712,392.764,110.498,399.688,91.569,399.688z M91.567,273.746
	c-13.652,0-26.304,5.499-35.627,15.486c-9.311,9.977-13.92,23.018-12.974,36.723c1.605,23.244,20.247,42.574,43.363,44.961
	c13.758,1.416,27.373-2.943,37.583-12.02c7.056-6.273,15.582-10.862,24.789-13.441v-46.161c-9.294-2.575-17.801-7.137-25.06-13.494
	C114.769,278.027,103.378,273.746,91.567,273.746z"/>
<g>
</g>
<g>
</g>
<g>
</g>
<g>
</g>
<g>
</g>
<g>
</g>
<g>
</g>
<g>
</g>
<g>
</g>
<g>
</g>
<g>
</g>
<g>
</g>
<g>
</g>
<g>
</g>
<g>
</g>
</svg>
