<?xml version="1.0" encoding="iso-8859-1"?>
<!-- Generator: Adobe Illustrator 19.0.0, SVG Export Plug-In . SVG Version: 6.00 Build 0)  -->
<svg version="1.1" id="Layer_1" xmlns="http://www.w3.org/2000/svg" xmlns:xlink="http://www.w3.org/1999/xlink" x="0px" y="0px"
	 viewBox="0 0 512 512" style="enable-background:new 0 0 512 512;" xml:space="preserve">
<path style="fill:#507C5C;" d="M175.882,511.662c-62.419,0-118.727-14.372-140.12-35.762
	c-21.987-21.988-36.35-79.862-35.743-144.015c0.066-7.175,0.321-14.405,0.756-21.482c0.522-8.678,1.357-17.612,2.484-26.525
	c8.756-68.94,44.324-143.387,90.617-189.68C140.157,47.913,214.603,12.35,283.525,3.596c8.825-1.113,17.754-1.943,26.553-2.474
	c7.154-0.442,14.389-0.7,21.472-0.766c63.93-0.605,122.158,13.916,143.999,35.757c22.474,22.477,37.113,80.421,36.428,144.185
	c-0.062,6.923-0.328,14.136-0.792,21.41c-0.543,8.82-1.402,17.78-2.55,26.594c-8.913,68.637-44.702,143.018-91.173,189.489
	c-46.296,46.295-120.743,81.864-189.666,90.615c-8.953,1.128-17.885,1.966-26.566,2.487c-7.015,0.432-14.244,0.686-21.458,0.754
	C178.476,511.658,177.171,511.662,175.882,511.662z M335.442,35.008c-1.184,0-2.375,0.005-3.566,0.017
	c-6.483,0.059-13.106,0.296-19.686,0.702c-8.079,0.485-16.247,1.246-24.311,2.264c-61.762,7.842-128.296,39.531-169.487,80.724
	c-41.204,41.2-72.896,107.739-80.741,169.519c-1.028,8.152-1.792,16.325-2.271,24.277c-0.4,6.502-0.633,13.119-0.692,19.695
	c-0.607,63.951,14.599,108.19,25.591,119.18c10.633,10.635,53.53,25.608,115.604,25.608c1.182,0,2.377-0.005,3.567-0.017
	c6.616-0.061,13.236-0.293,19.678-0.69c7.956-0.477,16.131-1.243,24.32-2.276c61.76-7.842,128.301-39.536,169.503-80.736
	c41.403-41.403,73.319-107.913,81.308-169.446c1.047-8.045,1.832-16.214,2.328-24.29c0.426-6.682,0.671-13.259,0.726-19.586
	c0.643-59.805-13.058-106.108-26.275-119.327C440.397,49.99,397.5,35.008,335.442,35.008z"/>
<path style="fill:#CFF09E;" d="M493.887,200.605c-45.719-3.285-90.507-22.406-125.465-57.364
	c-34.786-34.786-53.894-79.316-57.302-124.815c6.949-0.428,13.838-0.674,20.591-0.735c62.194-0.589,114.494,13.594,131.581,30.68
	c17.797,17.797,32.016,69.94,31.354,131.74C494.584,186.84,494.327,193.691,493.887,200.605z"/>
<path style="fill:#507C5C;" d="M510.075,219.146l-17.431-1.252c-51.469-3.697-99.939-25.856-136.479-62.395
	c-36.362-36.364-58.496-84.582-62.331-135.777L292.522,2.21l17.527-1.083c7.183-0.445,14.417-0.704,21.501-0.77
	c63.93-0.605,122.158,13.916,143.999,35.757c22.474,22.477,37.113,80.421,36.428,144.185c-0.062,6.923-0.328,14.134-0.792,21.41
	L510.075,219.146z M330.656,35.037c6.41,36.171,23.809,69.734,50.023,95.949c26.388,26.388,60.186,43.831,96.619,50.15
	c0.005-0.395,0.009-0.787,0.012-1.18c0.643-59.805-13.058-106.108-26.275-119.327C440.397,49.99,397.5,35.01,335.44,35.01
	c-1.184,0-2.375,0.005-3.566,0.017C331.47,35.029,331.063,35.032,330.656,35.037z"/>
<path style="fill:#CFF09E;" d="M200.193,493.587c-6.949,0.428-13.826,0.662-20.579,0.723
	c-62.192,0.588-114.507-13.581-131.593-30.668s-31.255-69.399-30.668-131.593c0.061-6.753,0.295-13.63,0.723-20.579
	c45.499,3.408,90.029,22.517,124.815,57.302S196.785,448.09,200.193,493.587z"/>
<g>
	<path style="fill:#507C5C;" d="M175.882,511.662c-62.419,0-118.727-14.372-140.12-35.762
		C13.775,453.913-0.59,396.039,0.019,331.886c0.066-7.173,0.321-14.405,0.756-21.482l1.082-17.53l17.515,1.312
		c51.197,3.834,99.417,25.97,135.777,62.331s58.494,84.581,62.329,135.777l1.312,17.515l-17.53,1.082
		c-7.043,0.433-14.271,0.686-21.486,0.756C178.476,511.658,177.171,511.662,175.882,511.662z M34.699,331.011
		c-0.005,0.397-0.009,0.797-0.012,1.194c-0.607,63.951,14.599,108.19,25.591,119.18c10.633,10.635,53.53,25.608,115.604,25.608
		c1.182,0,2.377-0.005,3.567-0.017c0.4-0.004,0.803-0.007,1.203-0.012c-6.41-36.17-23.807-69.724-50.018-95.935
		C104.421,354.818,70.867,337.421,34.699,331.011z"/>
	
		<rect x="249.165" y="185.352" transform="matrix(0.7071 0.7071 -0.7071 0.7071 233.8153 -159.1071)" style="fill:#507C5C;" width="119.603" height="34.668"/>
	
		<rect x="195.859" y="238.668" transform="matrix(0.7071 0.7071 -0.7071 0.7071 255.9017 -105.7981)" style="fill:#507C5C;" width="119.603" height="34.668"/>
	
		<rect x="142.545" y="291.993" transform="matrix(0.7071 0.7071 -0.7071 0.7071 277.9931 -52.481)" style="fill:#507C5C;" width="119.603" height="34.668"/>
	
		<rect x="238.311" y="96.535" transform="matrix(0.7071 0.7071 -0.7071 0.7071 255.9021 -105.7852)" style="fill:#507C5C;" width="34.668" height="318.947"/>
</g>
<g>
</g>
<g>
</g>
<g>
</g>
<g>
</g>
<g>
</g>
<g>
</g>
<g>
</g>
<g>
</g>
<g>
</g>
<g>
</g>
<g>
</g>
<g>
</g>
<g>
</g>
<g>
</g>
<g>
</g>
</svg>
