<?xml version="1.0" encoding="iso-8859-1"?>
<!-- Generator: Adobe Illustrator 19.0.0, SVG Export Plug-In . SVG Version: 6.00 Build 0)  -->
<svg version="1.1" id="Layer_1" xmlns="http://www.w3.org/2000/svg" xmlns:xlink="http://www.w3.org/1999/xlink" x="0px" y="0px"
	 viewBox="0 0 512 512" style="enable-background:new 0 0 512 512;" xml:space="preserve">
<g>
	<path style="fill:#507C5C;" d="M442.753,405.501H69.246V107.062c0-26.329,21.421-47.75,47.748-47.75h278.009
		c26.329,0,47.748,21.421,47.748,47.75v298.439L442.753,405.501L442.753,405.501z M97.188,377.559h317.62V107.062
		c0-10.921-8.884-19.807-19.806-19.807H116.996c-10.921,0-19.806,8.884-19.806,19.807L97.188,377.559L97.188,377.559z"/>
	<path style="fill:#507C5C;" d="M350.59,346.183H161.41c-18.111,0-32.845-14.736-32.845-32.846v-161.86
		c0-18.111,14.734-32.845,32.845-32.845h189.18c18.111,0,32.845,14.734,32.845,32.845h-27.943c0-2.703-2.199-4.903-4.903-4.903
		H161.41c-2.703,0-4.903,2.199-4.903,4.903v161.861c0,2.705,2.199,4.904,4.903,4.904h189.18c2.703,0,4.903-2.199,4.903-4.904
		V211.114h27.943v102.224C383.435,331.448,368.701,346.183,350.59,346.183z"/>
</g>
<path style="fill:#CFF09E;" d="M141.864,391.08l-56.63,86.032c-6.645,9.48,2.409,20.915,16.559,20.915h35.687
	c6.934,0,13.302-2.903,16.559-7.549l65.914-99.399L141.864,391.08L141.864,391.08z"/>
<path style="fill:#507C5C;" d="M137.48,512h-35.687c-13.105,0-24.549-6.347-29.864-16.566c-4.393-8.441-3.742-18.196,1.727-26.143
	l60.677-92.181h111.647L165.48,498.501C159.553,506.954,149.086,512,137.48,512z M97.894,483.292
	c0.842,0.394,2.125,0.766,3.901,0.766h35.687c2.892,0,4.693-1.111,5.093-1.566l51.351-77.44h-44.531L97.894,483.292z"/>
<path style="fill:#CFF09E;" d="M370.136,391.08h-78.09l65.914,99.399c3.257,4.645,9.625,7.549,16.559,7.549h35.687
	c14.15,0,23.205-11.435,16.559-20.915L370.136,391.08z"/>
<path style="fill:#507C5C;" d="M410.207,512h-35.688c-11.609,0-22.076-5.048-28-13.503l-0.203-0.296l-80.3-121.092h111.649
	l60.676,92.181c5.47,7.947,6.121,17.703,1.728,26.145C434.754,505.653,423.312,512,410.207,512z M369.43,482.497
	c0.39,0.447,2.194,1.561,5.088,1.561h35.688c1.776,0,3.057-0.372,3.899-0.766l-51.5-78.241h-44.532L369.43,482.497z"/>
<path style="fill:#CFF09E;" d="M282.512,73.284V30.196c0-8.961-7.264-16.225-16.225-16.225h-20.574
	c-8.961,0-16.225,7.264-16.225,16.225v43.087H282.512z"/>
<g>
	<path style="fill:#507C5C;" d="M296.483,87.255h-80.968V30.196C215.517,13.545,229.062,0,245.713,0h20.574
		c16.651,0,30.196,13.545,30.196,30.196V87.255z M243.459,59.312h25.083V30.196c0-1.243-1.012-2.254-2.254-2.254h-20.576
		c-1.243,0-2.254,1.012-2.254,2.254L243.459,59.312L243.459,59.312z"/>
	<rect x="38.747" y="377.56" style="fill:#507C5C;" width="434.507" height="27.943"/>
</g>
<g>
</g>
<g>
</g>
<g>
</g>
<g>
</g>
<g>
</g>
<g>
</g>
<g>
</g>
<g>
</g>
<g>
</g>
<g>
</g>
<g>
</g>
<g>
</g>
<g>
</g>
<g>
</g>
<g>
</g>
</svg>
