<?xml version="1.0" encoding="iso-8859-1"?>
<!-- Generator: Adobe Illustrator 19.0.0, SVG Export Plug-In . SVG Version: 6.00 Build 0)  -->
<svg version="1.1" id="Layer_1" xmlns="http://www.w3.org/2000/svg" xmlns:xlink="http://www.w3.org/1999/xlink" x="0px" y="0px"
	 viewBox="0 0 512.001 512.001" style="enable-background:new 0 0 512.001 512.001;" xml:space="preserve">
<path style="fill:#507C5C;" d="M478.543,383.644H33.457V64.63c0-27.785,22.605-50.39,50.39-50.39h344.307
	c27.785,0,50.39,22.605,50.39,50.39V383.644z M61.846,355.255h388.308V64.63c0-12.131-9.87-22-22-22H83.846c-12.131,0-22,9.87-22,22
	V355.255z"/>
<path style="fill:#CFF09E;" d="M110.494,368.968l-60.681,92.187c-7.12,10.158,2.581,22.412,17.743,22.412h38.24
	c7.431,0,14.254-3.11,17.743-8.088l70.63-106.511H110.494z"/>
<path style="fill:#507C5C;" d="M105.797,497.761h-38.24c-13.752,0-25.751-6.642-31.312-17.333
	c-4.572-8.788-3.892-18.947,1.806-27.223l64.793-98.434h117.772l-85.45,128.852C128.961,492.477,117.982,497.761,105.797,497.761z
	 M62.271,468.047c0.94,0.608,2.657,1.326,5.286,1.326h38.24c3.221,0,5.489-1.256,6.072-1.98l55.856-84.231h-49.582L62.271,468.047z"
	/>
<path style="fill:#CFF09E;" d="M401.506,368.968H317.83l70.63,106.511c3.489,4.978,10.314,8.088,17.743,8.088h38.24
	c15.163,0,24.865-12.254,17.743-22.412L401.506,368.968z"/>
<g>
	<path style="fill:#507C5C;" d="M444.443,497.761h-38.24c-12.185,0-23.163-5.285-29.366-14.136l-0.207-0.302l-85.245-128.551
		h117.772l64.793,98.434c5.699,8.275,6.378,18.433,1.806,27.223C470.194,491.12,458.197,497.761,444.443,497.761z M400.13,467.393
		c0.583,0.724,2.853,1.98,6.073,1.98h38.24c2.629,0,4.346-0.718,5.286-1.326l-55.873-84.885h-49.582L400.13,467.393z"/>
	<rect y="355.25" style="fill:#507C5C;" width="512.001" height="28.389"/>
	<rect x="242.743" y="165.141" style="fill:#507C5C;" width="28.389" height="67.183"/>
	<rect x="223.353" y="184.531" style="fill:#507C5C;" width="67.183" height="28.389"/>
	<path style="fill:#507C5C;" d="M105.845,257.598c0-6.348,0.471-12.021,1.418-17.022c0.944-4.997,2.564-9.556,4.863-13.678
		c2.295-4.119,5.401-7.935,9.322-11.449c3.916-3.512,8.846-6.957,14.792-10.335c6.348-3.512,11.652-6.415,15.908-8.714
		c4.256-2.295,7.63-4.322,10.132-6.08c2.497-1.753,4.287-3.343,5.37-4.761c1.079-1.418,1.621-3.072,1.621-4.965
		c0-3.78-1.353-6.821-4.053-9.119c-2.704-2.295-6.555-3.445-11.55-3.445c-5.675,0-10.608,1.387-14.794,4.153
		c-4.189,2.771-8.241,6.383-12.158,10.842l-20.67-23.911c2.16-2.432,5.066-4.794,8.714-7.093c3.647-2.295,7.766-4.358,12.361-6.18
		c4.592-1.824,9.627-3.273,15.096-4.356c5.472-1.08,11.178-1.621,17.123-1.621c14.591,0,25.768,3.175,33.536,9.525
		c7.767,6.351,11.652,14.929,11.652,25.735c0,4.459-0.708,8.444-2.128,11.955c-1.418,3.515-3.276,6.656-5.573,9.422
		c-2.298,2.771-4.863,5.202-7.701,7.295c-2.836,2.097-5.743,4.021-8.713,5.776c-2.026,1.216-4.459,2.635-7.295,4.256
		c-2.836,1.621-5.641,3.278-8.409,4.965c-2.771,1.691-5.34,3.378-7.701,5.066c-2.365,1.691-4.155,3.211-5.37,4.559h55.118v29.18
		H105.845V257.598z"/>
	<path style="fill:#507C5C;" d="M305.241,257.598c0-6.348,0.471-12.021,1.418-17.022c0.944-4.997,2.564-9.556,4.863-13.678
		c2.295-4.119,5.401-7.935,9.322-11.449c3.916-3.512,8.846-6.957,14.792-10.335c6.348-3.512,11.652-6.415,15.908-8.714
		c4.256-2.295,7.63-4.322,10.132-6.08c2.497-1.753,4.287-3.343,5.37-4.761c1.079-1.418,1.621-3.072,1.621-4.965
		c0-3.78-1.353-6.821-4.053-9.119c-2.704-2.295-6.555-3.445-11.55-3.445c-5.675,0-10.608,1.387-14.794,4.153
		c-4.189,2.771-8.241,6.383-12.158,10.842l-20.67-23.911c2.16-2.432,5.066-4.794,8.714-7.093c3.647-2.295,7.766-4.358,12.361-6.18
		c4.592-1.824,9.627-3.273,15.096-4.356c5.472-1.08,11.178-1.621,17.123-1.621c14.591,0,25.768,3.175,33.536,9.525
		c7.767,6.351,11.652,14.929,11.652,25.735c0,4.459-0.708,8.444-2.128,11.955c-1.418,3.515-3.276,6.656-5.573,9.422
		c-2.298,2.771-4.863,5.202-7.701,7.295c-2.836,2.097-5.743,4.021-8.713,5.776c-2.026,1.216-4.459,2.635-7.295,4.256
		c-2.836,1.621-5.642,3.278-8.409,4.965c-2.771,1.691-5.34,3.378-7.701,5.066c-2.365,1.691-4.155,3.211-5.37,4.559h55.118v29.18
		H305.24L305.241,257.598L305.241,257.598z"/>
</g>
<g>
</g>
<g>
</g>
<g>
</g>
<g>
</g>
<g>
</g>
<g>
</g>
<g>
</g>
<g>
</g>
<g>
</g>
<g>
</g>
<g>
</g>
<g>
</g>
<g>
</g>
<g>
</g>
<g>
</g>
</svg>
