<?xml version="1.0" encoding="iso-8859-1"?>
<!-- Generator: Adobe Illustrator 19.0.0, SVG Export Plug-In . SVG Version: 6.00 Build 0)  -->
<svg version="1.1" id="Layer_1" xmlns="http://www.w3.org/2000/svg" xmlns:xlink="http://www.w3.org/1999/xlink" x="0px" y="0px"
	 viewBox="0 0 512 512" style="enable-background:new 0 0 512 512;" xml:space="preserve">
<path style="fill:#CFF09E;" d="M346.223,253.919H165.777c-12.627,0-22.861-10.236-22.861-22.861v-78.976
	c0-12.627,10.236-22.861,22.861-22.861h180.446c12.627,0,22.861,10.236,22.861,22.861v78.976
	C369.084,243.683,358.848,253.919,346.223,253.919z"/>
<g>
	<path style="fill:#507C5C;" d="M346.222,267.794H165.777c-20.257,0-36.736-16.48-36.736-36.738v-78.976
		c0-20.257,16.48-36.736,36.736-36.736h180.445c20.258,0,36.738,16.48,36.738,36.736v78.976
		C382.959,251.314,366.48,267.794,346.222,267.794z M165.777,143.096c-4.955,0-8.986,4.031-8.986,8.986v78.976
		c0,4.955,4.031,8.987,8.986,8.987h180.445c4.955,0,8.987-4.031,8.987-8.987v-78.976c0-4.954-4.031-8.986-8.987-8.986
		C346.222,143.096,165.777,143.096,165.777,143.096z"/>
	<path style="fill:#507C5C;" d="M394.494,458.856H117.506c-24.84,0-45.048-20.208-45.048-45.048V87.786
		c0-24.838,20.208-45.048,45.048-45.048h276.988c24.838,0,45.048,20.208,45.048,45.048V413.81
		C439.542,438.648,419.334,458.856,394.494,458.856z M117.506,70.489c-9.538,0-17.297,7.759-17.297,17.297V413.81
		c0,9.538,7.759,17.297,17.297,17.297h276.988c9.538,0,17.297-7.759,17.297-17.297V87.786c0-9.538-7.759-17.297-17.297-17.297
		C394.494,70.489,117.506,70.489,117.506,70.489z"/>
</g>
<path style="fill:#CFF09E;" d="M164.423,498.125h-19.425c-13.028,0-23.588-10.561-23.588-23.588v-29.556h66.602v29.556
	C188.011,487.563,177.45,498.125,164.423,498.125z"/>
<path style="fill:#507C5C;" d="M164.423,512h-19.425c-20.658,0-37.463-16.806-37.463-37.463v-43.431h94.352v43.431
	C201.886,495.194,185.08,512,164.423,512z M135.285,458.856v15.681c0,5.355,4.357,9.713,9.713,9.713h19.425
	c5.356,0,9.713-4.358,9.713-9.713v-15.681H135.285z"/>
<path style="fill:#CFF09E;" d="M367.003,498.125h-19.425c-13.028,0-23.588-10.561-23.588-23.588v-29.556h66.602v29.556
	C390.591,487.563,380.03,498.125,367.003,498.125z"/>
<g>
	<path style="fill:#507C5C;" d="M367.003,512h-19.425c-20.658,0-37.463-16.806-37.463-37.463v-43.431h94.352v43.431
		C404.466,495.194,387.66,512,367.003,512z M337.865,458.856v15.681c0,5.355,4.358,9.713,9.713,9.713h19.425
		c5.354,0,9.713-4.358,9.713-9.713v-15.681H337.865z"/>
	<path style="fill:#507C5C;" d="M172.792,392.947c-20.912,0-37.925-17.014-37.925-37.925c0-20.913,17.014-37.927,37.925-37.927
		c20.913,0,37.925,17.014,37.925,37.927C210.719,375.934,193.705,392.947,172.792,392.947z M172.792,344.845
		c-5.61,0-10.175,4.565-10.175,10.176c0,5.61,4.565,10.175,10.175,10.175c5.611,0,10.175-4.565,10.175-10.175
		C182.969,349.41,178.404,344.845,172.792,344.845z"/>
	<path style="fill:#507C5C;" d="M339.208,392.947c-20.913,0-37.927-17.014-37.927-37.925c0-20.913,17.014-37.927,37.927-37.927
		c20.912,0,37.925,17.014,37.925,37.927S360.119,392.947,339.208,392.947z M339.208,344.845c-5.611,0-10.176,4.565-10.176,10.176
		c0,5.61,4.565,10.175,10.176,10.175c5.61,0,10.175-4.565,10.175-10.175C349.382,349.41,344.817,344.845,339.208,344.845z"/>
</g>
<path style="fill:#CFF09E;" d="M339.484,56.614H172.516V33.301c0-10.728,8.697-19.425,19.425-19.425h128.115
	c10.728,0,19.425,8.697,19.425,19.425L339.484,56.614L339.484,56.614z"/>
<g>
	<path style="fill:#507C5C;" d="M353.359,70.489H158.641V33.301C158.641,14.94,173.58,0,191.942,0h128.115
		c18.361,0,33.301,14.94,33.301,33.301L353.359,70.489L353.359,70.489z M186.392,42.739h139.215v-9.438
		c0-3.061-2.489-5.55-5.55-5.55H191.942c-3.061,0-5.55,2.489-5.55,5.55L186.392,42.739L186.392,42.739z"/>
	<path style="fill:#507C5C;" d="M497.431,202.58H469.68v-29.138c0-5.354-4.358-9.713-9.713-9.713h-34.301v-27.751h34.301
		c20.658,0,37.463,16.806,37.463,37.463V202.58z"/>
	<path style="fill:#507C5C;" d="M42.32,202.58H14.569v-29.138c0-20.658,16.806-37.463,37.463-37.463h34.301v27.751H52.033
		c-5.356,0-9.713,4.358-9.713,9.713V202.58z"/>
</g>
<g>
</g>
<g>
</g>
<g>
</g>
<g>
</g>
<g>
</g>
<g>
</g>
<g>
</g>
<g>
</g>
<g>
</g>
<g>
</g>
<g>
</g>
<g>
</g>
<g>
</g>
<g>
</g>
<g>
</g>
</svg>
