<?xml version="1.0" encoding="iso-8859-1"?>
<!-- Generator: Adobe Illustrator 19.0.0, SVG Export Plug-In . SVG Version: 6.00 Build 0)  -->
<svg version="1.1" id="Layer_1" xmlns="http://www.w3.org/2000/svg" xmlns:xlink="http://www.w3.org/1999/xlink" x="0px" y="0px"
	 viewBox="0 0 512 512" style="enable-background:new 0 0 512 512;" xml:space="preserve">
<g>
	<path style="fill:#507C5C;" d="M133.971,423.271c-1.389,0-2.765-0.014-4.136-0.041c-45.081-0.89-76.981-15.729-92.25-42.913
		c-17.585-31.303-9.431-73.575,22.959-119.028c30.222-42.409,78.588-83.585,136.189-115.941s117.928-52.239,169.87-55.983
		c55.666-4.016,96.011,11.016,113.596,42.32c14.315,25.484,11.692,58.114-7.588,94.363c-17.486,32.874-47.475,66.572-86.727,97.45
		c-3.21,2.526-6.5,5.044-9.781,7.488l-16.85-22.617c3.084-2.297,6.178-4.666,9.196-7.04c35.676-28.066,63.825-59.504,79.261-88.526
		c10.141-19.067,19.744-46.22,7.9-67.305c-11.76-20.934-43.462-31.143-86.979-28.004c-47.884,3.452-104.028,22.077-158.085,52.443
		c-54.057,30.366-99.172,68.621-127.033,107.719c-25.32,35.531-33.099,67.916-21.339,88.849
		c9.957,17.723,34.183,27.855,68.216,28.527c36.748,0.723,82.251-9.601,128.251-29.072l10.995,25.973
		C221.738,412.208,173.763,423.271,133.971,423.271z"/>
	<path style="fill:#507C5C;" d="M383.811,423.275c-5.556,0-11.296-0.212-17.207-0.637c-51.941-3.744-112.268-23.626-169.87-55.983
		S90.765,293.122,60.545,250.713c-32.391-45.453-40.544-87.725-22.959-119.028c13.634-24.269,40.99-38.869,79.116-42.218
		l2.468,28.095c-19.822,1.74-45.797,8-56.994,27.934c-11.76,20.933-3.981,53.318,21.339,88.849
		c27.861,39.099,72.976,77.354,127.033,107.719c54.057,30.367,110.199,48.991,158.085,52.444
		c43.51,3.132,75.221-7.069,86.979-28.002c11.76-20.933,3.982-53.318-21.338-88.849c-27.862-39.098-72.977-77.353-127.034-107.719
		l13.813-24.591c57.602,32.357,105.969,73.533,136.189,115.941c32.391,45.453,40.544,87.725,22.959,119.03
		C464.482,408.296,430.584,423.275,383.811,423.275z"/>
	<path style="fill:#507C5C;" d="M258.892,509.834c-35.905,0-68.766-27.812-92.531-78.313
		c-22.175-47.12-34.386-109.453-34.386-175.521s12.211-128.402,34.386-175.521c23.766-50.502,56.626-78.313,92.531-78.313
		s68.766,27.812,92.531,78.313C373.598,127.6,385.809,189.933,385.809,256s-12.211,128.402-34.386,175.521
		C327.659,482.022,294.797,509.834,258.892,509.834z M258.892,30.37c-24.01,0-48.436,22.642-67.014,62.119
		c-20.442,43.441-31.7,101.51-31.7,163.511s11.258,120.072,31.7,163.511c18.578,39.477,43.002,62.119,67.014,62.119
		c24.011,0,48.436-22.642,67.014-62.119c20.442-43.441,31.7-101.51,31.7-163.511s-11.258-120.072-31.7-163.511
		C307.328,53.012,282.902,30.37,258.892,30.37z"/>
</g>
<circle style="fill:#CFF09E;" cx="258.897" cy="256.006" r="49.978"/>
<path style="fill:#507C5C;" d="M258.892,320.08c-35.334,0-64.079-28.747-64.079-64.08s28.747-64.08,64.079-64.08
	c35.335,0,64.08,28.747,64.08,64.08S294.227,320.08,258.892,320.08z M258.892,220.123c-19.782,0-35.875,16.094-35.875,35.877
	s16.093,35.877,35.875,35.877s35.877-16.094,35.877-35.877S278.674,220.123,258.892,220.123z"/>
<circle style="fill:#CFF09E;" cx="469.353" cy="143.191" r="28.546"/>
<path style="fill:#507C5C;" d="M469.353,185.833c-23.516,0-42.648-19.132-42.648-42.648s19.132-42.648,42.648-42.648
	c23.516,0,42.647,19.132,42.647,42.648S492.869,185.833,469.353,185.833z M469.353,128.74c-7.965,0-14.445,6.48-14.445,14.445
	s6.48,14.445,14.445,14.445c7.963,0,14.443-6.48,14.443-14.445S477.318,128.74,469.353,128.74z"/>
<circle style="fill:#CFF09E;" cx="42.644" cy="381.512" r="28.546"/>
<path style="fill:#507C5C;" d="M42.647,424.155C19.131,424.155,0,405.023,0,381.507s19.131-42.648,42.647-42.648
	s42.648,19.132,42.648,42.648S66.163,424.155,42.647,424.155z M42.647,367.062c-7.963,0-14.443,6.48-14.443,14.445
	s6.48,14.445,14.443,14.445c7.965,0,14.445-6.48,14.445-14.445S50.613,367.062,42.647,367.062z"/>
<g>
</g>
<g>
</g>
<g>
</g>
<g>
</g>
<g>
</g>
<g>
</g>
<g>
</g>
<g>
</g>
<g>
</g>
<g>
</g>
<g>
</g>
<g>
</g>
<g>
</g>
<g>
</g>
<g>
</g>
</svg>
