<?xml version="1.0" encoding="iso-8859-1"?>
<!-- Generator: Adobe Illustrator 19.0.0, SVG Export Plug-In . SVG Version: 6.00 Build 0)  -->
<svg version="1.1" id="Layer_1" xmlns="http://www.w3.org/2000/svg" xmlns:xlink="http://www.w3.org/1999/xlink" x="0px" y="0px"
	 viewBox="0 0 512 512" style="enable-background:new 0 0 512 512;" xml:space="preserve">
<path style="fill:#CFF09E;" d="M446.116,153.117L403.681,18.532c-1.521-4.824-7.909-5.823-10.829-1.692L256.002,251.623
	L119.15,16.841c-2.92-4.13-9.308-3.133-10.829,1.692L65.886,153.117c-0.795,2.52,0.118,5.266,2.265,6.807L256,372.607
	l187.85-212.683C445.997,158.383,446.91,155.637,446.116,153.117z"/>
<g>
	<path style="fill:#507C5C;" d="M256,394.136L58.225,170.218c-5.996-5.289-8.378-13.632-5.933-21.387L94.727,14.247
		C97.415,5.725,105.231,0,114.179,0c6.587,0,12.796,3.22,16.608,8.611l0.677,1.05L256,223.321L380.853,9.121l0.362-0.512
		C385.027,3.218,391.236,0,397.824,0c8.946,0,16.764,5.725,19.449,14.247l42.435,134.585c2.446,7.753,0.063,16.099-5.933,21.387
		L256,394.136z M80.914,152.846L256,351.079l175.087-198.233L395.626,40.381L256,279.924L116.375,40.381L80.914,152.846z"/>
	<path style="fill:#507C5C;" d="M351.229,512c-58.325,0-105.776-47.452-105.776-105.776s47.452-105.776,105.776-105.776
		s105.776,47.452,105.776,105.776S409.553,512,351.229,512z M351.229,328.953c-42.609,0-77.272,34.663-77.272,77.272
		s34.663,77.272,77.272,77.272s77.272-34.663,77.272-77.272S393.837,328.953,351.229,328.953z"/>
	<path style="fill:#507C5C;" d="M351.229,461.719c-30.6,0-55.494-24.895-55.494-55.496h28.505c0,14.882,12.107,26.991,26.99,26.991
		c14.881,0,26.99-12.107,26.99-26.991c0-14.884-12.107-26.991-26.99-26.991v-28.505c30.6,0,55.494,24.895,55.494,55.496
		S381.828,461.719,351.229,461.719z"/>
	<path style="fill:#507C5C;" d="M160.772,512c-58.325,0-105.776-47.452-105.776-105.776s47.452-105.776,105.776-105.776
		s105.776,47.452,105.776,105.776S219.097,512,160.772,512z M160.772,328.953c-42.609,0-77.272,34.663-77.272,77.272
		s34.664,77.272,77.272,77.272s77.272-34.663,77.272-77.272S203.379,328.953,160.772,328.953z"/>
	<path style="fill:#507C5C;" d="M160.772,461.719c-30.6,0-55.496-24.895-55.496-55.496h28.505c0,14.882,12.107,26.991,26.991,26.991
		c14.881,0,26.99-12.107,26.99-26.991c0-14.884-12.107-26.991-26.99-26.991v-28.505c30.6,0,55.494,24.895,55.494,55.496
		S191.37,461.719,160.772,461.719z"/>
</g>
<g>
</g>
<g>
</g>
<g>
</g>
<g>
</g>
<g>
</g>
<g>
</g>
<g>
</g>
<g>
</g>
<g>
</g>
<g>
</g>
<g>
</g>
<g>
</g>
<g>
</g>
<g>
</g>
<g>
</g>
</svg>
