<?xml version="1.0" encoding="iso-8859-1"?>
<!-- Generator: Adobe Illustrator 19.0.0, SVG Export Plug-In . SVG Version: 6.00 Build 0)  -->
<svg version="1.1" id="Layer_1" xmlns="http://www.w3.org/2000/svg" xmlns:xlink="http://www.w3.org/1999/xlink" x="0px" y="0px"
	 viewBox="0 0 512 512" style="enable-background:new 0 0 512 512;" xml:space="preserve">
<path style="fill:#507C5C;" d="M382.113,512H129.89c-35.763,0-64.859-29.096-64.859-64.86v-76.928l5.958-4.061
	c27.313-18.618,43.62-49.429,43.62-82.423c0-32.993-16.308-63.805-43.622-82.426l-5.958-4.061v-90.568
	c0-35.765,29.096-64.86,64.859-64.86H382.11c11.891,0,23.525,3.251,33.644,9.4c13.401,8.142,31.217,22.184,31.217,50.004v96.025
	l-5.958,4.061c-1.637,1.116-3.262,2.297-4.832,3.508c-0.79,0.61-1.566,1.228-2.331,1.858c-3.826,3.144-7.451,6.601-10.771,10.274
	c-0.662,0.733-1.319,1.483-1.966,2.243c-1.285,1.51-2.54,3.077-3.725,4.653c-0.602,0.798-1.187,1.599-1.758,2.409
	c-1.147,1.621-2.258,3.294-3.305,4.98c-0.525,0.847-1.041,1.702-1.54,2.566c-7.775,13.398-12.214,28.049-13.192,43.547
	c-0.134,2.109-0.201,4.256-0.201,6.388c0,2.131,0.068,4.278,0.201,6.384c0.978,15.5,5.417,30.152,13.189,43.547
	c0.502,0.866,1.016,1.721,1.543,2.567c1.048,1.687,2.159,3.362,3.301,4.976c1.713,2.424,3.56,4.802,5.489,7.07
	c2.564,3.013,5.339,5.905,8.243,8.596c1.45,1.344,2.96,2.661,4.491,3.918c2.303,1.891,4.71,3.695,7.161,5.366l5.96,4.061v76.928
	c0,5.484-0.688,10.934-2.043,16.201c-0.527,2.049-1.165,4.102-1.895,6.099C433.71,494.897,409.228,512,382.113,512z M92.312,384.377
	v62.762c0,20.72,16.857,37.579,37.578,37.579h252.221c15.716,0,29.901-9.91,35.302-24.657c0.42-1.15,0.788-2.335,1.093-3.518
	c0.786-3.05,1.183-6.213,1.183-9.404v-62.765c-1.067-0.821-2.121-1.659-3.156-2.51c-1.945-1.597-3.867-3.274-5.713-4.983
	c-3.693-3.42-7.22-7.099-10.483-10.932c-2.455-2.886-4.804-5.912-6.983-8.992c-1.454-2.056-2.87-4.19-4.205-6.34
	c-0.67-1.079-1.326-2.169-1.964-3.268c-9.774-16.842-15.59-36.04-16.819-55.515c-0.171-2.675-0.256-5.403-0.256-8.105
	c0-2.704,0.086-5.433,0.256-8.109c1.229-19.472,7.045-38.672,16.822-55.515c0.637-1.098,1.292-2.188,1.962-3.267
	c1.335-2.151,2.751-4.286,4.208-6.344c0.73-1.031,1.479-2.058,2.243-3.071c1.505-1.997,3.098-3.99,4.735-5.913
	c0.82-0.963,1.651-1.91,2.495-2.847c4.229-4.68,8.836-9.074,13.702-13.072c0.979-0.805,1.97-1.596,2.972-2.369
	c0.06-0.046,0.121-0.093,0.183-0.142v-81.862c0-11.439-4.907-18.671-18.103-26.689c-5.849-3.553-12.584-5.432-19.476-5.432H129.89
	c-20.72,0-37.578,16.857-37.578,37.579v76.405c31.177,23.987,49.579,61.083,49.579,100.648
	C141.891,323.294,123.49,360.39,92.312,384.377z"/>
<path style="fill:#CFF09E;" d="M300.754,123.711h-44.753h-44.753c-14.401,0-26.074,11.674-26.074,26.074v127.122
	c0-12.974,5.821-24.582,14.986-32.378c0.046-0.04,0.091-0.08,0.138-0.12c0.427-0.36,0.862-0.708,1.303-1.052
	c0.082-0.063,0.162-0.128,0.244-0.191c0.416-0.319,0.84-0.627,1.269-0.932c0.115-0.082,0.228-0.164,0.342-0.244
	c0.408-0.284,0.823-0.558,1.241-0.828c0.142-0.091,0.284-0.184,0.427-0.274c0.402-0.252,0.809-0.497,1.219-0.735
	c0.169-0.098,0.337-0.196,0.507-0.292c0.396-0.222,0.794-0.438,1.198-0.648c0.194-0.101,0.389-0.201,0.584-0.299
	c0.389-0.195,0.78-0.385,1.176-0.569c0.22-0.101,0.439-0.201,0.66-0.299c0.381-0.169,0.764-0.334,1.151-0.492
	c0.243-0.1,0.488-0.194,0.734-0.289c0.374-0.145,0.749-0.286,1.128-0.422c0.267-0.095,0.537-0.184,0.808-0.273
	c0.366-0.121,0.731-0.241,1.101-0.353c0.292-0.089,0.588-0.169,0.883-0.251c0.356-0.1,0.711-0.199,1.069-0.288
	c0.319-0.08,0.641-0.15,0.963-0.222c0.342-0.078,0.685-0.157,1.031-0.226c0.348-0.07,0.698-0.127,1.049-0.187
	c0.329-0.057,0.655-0.117,0.985-0.168c0.382-0.057,0.768-0.1,1.153-0.146c0.306-0.037,0.608-0.08,0.915-0.11
	c0.441-0.044,0.887-0.071,1.333-0.101c0.256-0.018,0.512-0.042,0.771-0.056c0.683-0.034,1.371-0.052,2.061-0.052
	c0.023,0,0.045-0.001,0.068-0.001c11.735,0,22.359,4.757,30.049,12.447c0.48,0.48,0.949,0.973,1.408,1.476
	c0.914,1.007,1.781,2.057,2.597,3.147c5.302,7.09,8.442,15.891,8.442,25.426c0,1.466-0.074,2.916-0.22,4.345
	c-0.145,1.428-0.361,2.836-0.644,4.219c-0.142,0.692-0.3,1.378-0.475,2.056c-0.349,1.357-0.764,2.689-1.241,3.991
	c-0.477,1.303-1.015,2.574-1.612,3.813c-0.895,1.858-1.922,3.641-3.068,5.336c-0.764,1.131-1.581,2.222-2.446,3.271
	c-0.865,1.049-1.781,2.057-2.743,3.017c-1.442,1.442-2.987,2.781-4.623,4.005c-1.091,0.816-2.222,1.58-3.39,2.29
	c-2.92,1.775-6.071,3.207-9.398,4.242c-1.33,0.413-2.69,0.764-4.073,1.048c-2.766,0.566-5.631,0.863-8.565,0.863
	c-0.715,0-1.425-0.019-2.131-0.055c-0.251-0.012-0.498-0.037-0.746-0.055c-0.453-0.03-0.907-0.059-1.356-0.102
	c-0.301-0.03-0.6-0.072-0.9-0.109c-0.39-0.046-0.782-0.09-1.168-0.149c-0.329-0.049-0.653-0.11-0.979-0.166
	c-0.352-0.061-0.704-0.119-1.053-0.188c-0.346-0.07-0.687-0.149-1.031-0.226c-0.322-0.072-0.644-0.142-0.963-0.222
	c-0.359-0.09-0.713-0.19-1.069-0.288c-0.295-0.082-0.589-0.162-0.883-0.251c-0.371-0.112-0.738-0.233-1.105-0.355
	c-0.267-0.089-0.536-0.177-0.801-0.271c-0.382-0.135-0.758-0.278-1.135-0.424c-0.243-0.094-0.487-0.188-0.727-0.286
	c-0.389-0.158-0.773-0.325-1.157-0.495c-0.22-0.097-0.438-0.195-0.655-0.296c-0.398-0.184-0.791-0.375-1.183-0.572
	c-0.192-0.097-0.385-0.195-0.576-0.295c-0.406-0.211-0.808-0.428-1.206-0.653c-0.168-0.094-0.333-0.191-0.499-0.286
	c-0.413-0.24-0.823-0.486-1.226-0.739c-0.142-0.089-0.281-0.18-0.423-0.27c-0.419-0.27-0.835-0.546-1.244-0.829
	c-0.115-0.081-0.228-0.162-0.342-0.244c-0.428-0.304-0.853-0.612-1.269-0.932c-0.082-0.063-0.162-0.128-0.244-0.192
	c-0.441-0.342-0.876-0.692-1.303-1.052c-0.046-0.04-0.093-0.08-0.139-0.12c-0.456-0.387-0.906-0.783-1.344-1.189l0,0
	c-8.386-7.763-13.641-18.86-13.641-31.188v127.121c0,14.401,11.674,26.074,26.074,26.074h89.504
	c14.401,0,26.074-11.674,26.074-26.074V149.786C326.828,135.384,315.154,123.711,300.754,123.711z"/>
<g>
	<path style="fill:#507C5C;" d="M227.671,333.043c-0.938,0-1.873-0.025-2.8-0.07c-0.331-0.018-0.606-0.038-0.88-0.06l-0.304-0.023
		c-0.528-0.034-1.057-0.072-1.58-0.124c-0.361-0.035-0.671-0.075-0.981-0.115l-0.389-0.046c-0.456-0.055-0.913-0.11-1.365-0.177
		c-0.375-0.056-0.719-0.116-1.061-0.176l-0.484-0.086c-0.385-0.065-0.768-0.134-1.149-0.209c-0.408-0.082-0.795-0.168-1.181-0.255
		l-0.187-0.042c-0.487-0.109-0.863-0.195-1.236-0.286c-0.543-0.136-1.016-0.266-1.488-0.398c-0.435-0.12-0.812-0.226-1.184-0.34
		c-0.447-0.135-0.94-0.295-1.434-0.46c-0.295-0.096-0.652-0.216-1.007-0.341c-0.548-0.196-1.035-0.378-1.52-0.565l-0.921-0.363
		c-0.593-0.244-1.099-0.461-1.603-0.685c-0.282-0.125-0.577-0.258-0.872-0.394c-0.486-0.225-1.008-0.479-1.525-0.738l-0.786-0.402
		c-0.531-0.276-1.068-0.566-1.6-0.868l-0.543-0.312c-0.641-0.371-1.183-0.698-1.717-1.033l-0.514-0.33
		c-0.608-0.392-1.162-0.758-1.705-1.138l-0.364-0.256c-0.629-0.446-1.181-0.85-1.726-1.266l-0.356-0.278
		c-0.563-0.438-1.136-0.899-1.7-1.374l-0.217-0.187c-0.591-0.503-1.173-1.018-1.743-1.545
		c-11.449-10.598-18.015-25.613-18.015-41.198c0-16.471,7.202-32.049,19.76-42.745l0.124-0.108c0.648-0.547,1.215-1.001,1.79-1.45
		l0.359-0.281c0.544-0.416,1.097-0.82,1.656-1.217l0.458-0.323c0.536-0.372,1.087-0.739,1.645-1.098l0.503-0.323
		c0.574-0.36,1.105-0.678,1.641-0.992l0.675-0.387c0.539-0.303,1.06-0.587,1.589-0.862l0.765-0.39
		c0.512-0.258,1.034-0.51,1.562-0.756c0.321-0.149,0.619-0.284,0.917-0.415c0.457-0.203,0.963-0.422,1.472-0.63l0.934-0.37
		c0.561-0.216,1.046-0.398,1.535-0.573c0.374-0.132,0.73-0.251,1.086-0.37c0.472-0.156,0.951-0.312,1.435-0.458
		c0.417-0.125,0.814-0.236,1.213-0.346c0.528-0.145,0.962-0.265,1.4-0.372c0.364-0.091,0.764-0.183,1.164-0.271l0.28-0.063
		c0.387-0.087,0.775-0.175,1.168-0.254c0.417-0.085,0.835-0.157,1.254-0.228l0.321-0.056c0.372-0.065,0.745-0.131,1.12-0.187
		c0.464-0.068,0.899-0.121,1.334-0.173l0.442-0.055c0.316-0.04,0.633-0.079,0.951-0.11c0.546-0.053,1.052-0.089,1.556-0.124
		l0.341-0.025c0.31-0.026,0.619-0.046,0.93-0.061c0.783-0.04,1.623-0.063,2.473-0.067l0.288-0.003
		c14.994,0,29.092,5.84,39.695,16.443c0.636,0.636,1.254,1.284,1.858,1.948c1.198,1.318,2.35,2.715,3.424,4.15
		c7.303,9.764,11.162,21.383,11.162,33.599c0,1.907-0.097,3.834-0.289,5.724c-0.19,1.866-0.476,3.743-0.851,5.576
		c-0.186,0.91-0.397,1.82-0.628,2.719c-0.46,1.784-1.012,3.562-1.644,5.284c-0.623,1.702-1.341,3.399-2.131,5.039
		c-1.173,2.435-2.537,4.807-4.054,7.052c-0.998,1.48-2.084,2.931-3.226,4.316c-1.138,1.379-2.357,2.72-3.624,3.986
		c-1.896,1.899-3.95,3.676-6.1,5.283c-1.43,1.069-2.937,2.088-4.471,3.021c-3.9,2.368-8.081,4.256-12.429,5.609
		c-1.766,0.55-3.583,1.016-5.398,1.387C235.273,332.66,231.471,333.043,227.671,333.043z M209.162,299.035
		c0.266,0.222,0.539,0.438,0.812,0.652l0.216,0.171c0.224,0.169,0.517,0.383,0.814,0.595l0.177,0.127
		c0.349,0.246,0.627,0.427,0.908,0.608l0.297,0.191c0.255,0.16,0.532,0.326,0.81,0.487l0.295,0.171
		c0.331,0.187,0.597,0.33,0.868,0.472l0.405,0.206c0.237,0.119,0.503,0.25,0.771,0.372l0.465,0.21
		c0.277,0.123,0.54,0.236,0.808,0.345l0.484,0.191c0.236,0.09,0.505,0.194,0.776,0.289l0.475,0.158
		c0.304,0.101,0.544,0.181,0.787,0.255l0.573,0.161c0.297,0.085,0.535,0.15,0.776,0.211l2.713,0.54
		c0.164,0.025,0.357,0.044,0.551,0.067l0.883,0.109c0.184,0.019,0.431,0.031,0.678,0.049l0.808,0.06
		c0.381,0.018,0.869,0.03,1.359,0.03c1.967,0,3.929-0.198,5.829-0.587c0.929-0.19,1.852-0.427,2.753-0.708
		c2.229-0.694,4.372-1.661,6.37-2.875c0.786-0.477,1.561-1,2.3-1.554c1.113-0.831,2.169-1.746,3.15-2.727
		c0.657-0.656,1.284-1.345,1.867-2.054c0.591-0.715,1.151-1.465,1.666-2.228c0.78-1.155,1.48-2.372,2.082-3.62
		c0.405-0.84,0.772-1.709,1.091-2.582c0.323-0.881,0.606-1.791,0.84-2.701c0.117-0.457,0.225-0.919,0.319-1.386
		c0.194-0.945,0.341-1.908,0.438-2.87c0.1-0.979,0.15-1.975,0.15-2.965c0-6.28-1.981-12.248-5.726-17.258
		c-0.552-0.738-1.147-1.458-1.765-2.138c-0.314-0.346-0.634-0.681-0.962-1.008c-5.409-5.407-12.586-8.404-20.227-8.45l-0.246,0.001
		c-0.442,0.001-0.908,0.012-1.37,0.035l-0.743,0.055c-0.247,0.018-0.495,0.031-0.739,0.056l-0.814,0.101
		c-0.196,0.025-0.391,0.045-0.585,0.075l-0.87,0.151c-0.158,0.027-0.315,0.05-0.472,0.083l-1.342,0.303
		c-0.228,0.056-0.424,0.113-0.621,0.168l-0.149,0.041c-0.192,0.052-0.385,0.104-0.576,0.161c-0.232,0.071-0.484,0.154-0.738,0.239
		l-0.555,0.187c-0.248,0.087-0.513,0.191-0.779,0.292l-0.501,0.198c-0.22,0.09-0.482,0.203-0.741,0.319l-0.475,0.213
		c-0.237,0.11-0.498,0.237-0.756,0.367l-0.408,0.209c-0.281,0.146-0.557,0.295-0.829,0.449l-0.374,0.216
		c-0.231,0.135-0.514,0.304-0.794,0.479l-0.254,0.164c-0.326,0.21-0.603,0.393-0.876,0.582l-0.236,0.169
		c-0.278,0.198-0.554,0.397-0.824,0.602l-0.293,0.231c-0.191,0.15-0.482,0.379-0.768,0.621l-0.186,0.16
		c-6.406,5.448-10.117,13.462-10.117,21.932c0,8.126,3.292,15.646,9.265,21.176c0.28,0.258,0.565,0.509,0.853,0.756L209.162,299.035
		z"/>
	<path style="fill:#507C5C;" d="M300.753,443.744h-89.504c-21.899,0-39.715-17.818-39.715-39.715V149.786
		c0-21.899,17.816-39.715,39.715-39.715h89.504c21.899,0,39.715,17.818,39.715,39.715v254.243
		C340.469,425.927,322.653,443.744,300.753,443.744z M211.249,137.351c-6.856,0-12.434,5.578-12.434,12.434v254.243
		c0,6.856,5.578,12.434,12.434,12.434h89.504c6.856,0,12.434-5.578,12.434-12.434V149.786c0-6.856-5.578-12.434-12.434-12.434
		L211.249,137.351L211.249,137.351z"/>
	<path style="fill:#507C5C;" d="M371.266,69.094H140.737V39.899C140.737,17.898,158.636,0,180.636,0h150.73
		c22,0,39.899,17.898,39.899,39.899V69.094z M168.019,41.813h175.966v-1.914c0-6.958-5.66-12.618-12.618-12.618h-150.73
		c-6.958,0-12.618,5.66-12.618,12.618C168.019,39.899,168.019,41.813,168.019,41.813z"/>
</g>
<g>
</g>
<g>
</g>
<g>
</g>
<g>
</g>
<g>
</g>
<g>
</g>
<g>
</g>
<g>
</g>
<g>
</g>
<g>
</g>
<g>
</g>
<g>
</g>
<g>
</g>
<g>
</g>
<g>
</g>
</svg>
