<?xml version="1.0" encoding="iso-8859-1"?>
<!-- Generator: Adobe Illustrator 19.0.0, SVG Export Plug-In . SVG Version: 6.00 Build 0)  -->
<svg version="1.1" id="Layer_1" xmlns="http://www.w3.org/2000/svg" xmlns:xlink="http://www.w3.org/1999/xlink" x="0px" y="0px"
	 viewBox="0 0 512 512" style="enable-background:new 0 0 512 512;" xml:space="preserve">
<g>
	<path style="fill:#507C5C;" d="M423.506,299.3H110.242V198.717h345.444v68.401C455.687,284.865,441.25,299.3,423.506,299.3z
		 M138.381,271.161h285.123c2.229,0,4.042-1.814,4.042-4.042v-40.262H138.381V271.161z"/>
	<path style="fill:#507C5C;" d="M469.145,432.597H33.034c-18.144,0-32.905-14.761-32.905-32.905V234.938h121.834v87.964
		c0,2.627,2.139,4.765,4.765,4.765h342.418c18.144,0,32.906,14.761,32.906,32.905v39.121
		C502.051,417.836,487.291,432.597,469.145,432.597z M28.269,263.078v136.614c0,2.627,2.139,4.765,4.765,4.765h436.112
		c2.628,0,4.767-2.139,4.767-4.765v-39.121c0-2.627-2.139-4.765-4.767-4.765H126.727c-18.144,0-32.905-14.761-32.905-32.905v-59.824
		L28.269,263.078L28.269,263.078z"/>
</g>
<path style="fill:#CFF09E;" d="M14.07,231.434c53.465-27.93,278.122-137.962,384.199-137.962c39.508,0,67,11.47,83.501,34.061
	c21.182,28.933,16.801,66.872,13.314,81.988L14.07,290.497V231.434z"/>
<path style="fill:#507C5C;" d="M0,307.134V222.91l7.555-3.947c8.284-4.328,83.54-43.342,173.577-80.014
	c97.007-39.512,170.062-59.546,217.137-59.546c43.643,0,75.559,13.4,94.862,39.831c26.938,36.795,17.773,84.302,15.662,93.451
	l-2.112,9.152L0,307.134z M28.139,240.03v33.832l454.835-76.569c1.883-14.284,2.614-40.723-12.559-61.45
	c-13.912-19.048-37.508-28.301-72.147-28.301C294.064,107.541,71.896,217.788,28.139,240.03z"/>
<g>
</g>
<g>
</g>
<g>
</g>
<g>
</g>
<g>
</g>
<g>
</g>
<g>
</g>
<g>
</g>
<g>
</g>
<g>
</g>
<g>
</g>
<g>
</g>
<g>
</g>
<g>
</g>
<g>
</g>
</svg>
