<?xml version="1.0" encoding="iso-8859-1"?>
<!-- Generator: Adobe Illustrator 19.0.0, SVG Export Plug-In . SVG Version: 6.00 Build 0)  -->
<svg version="1.1" id="Layer_1" xmlns="http://www.w3.org/2000/svg" xmlns:xlink="http://www.w3.org/1999/xlink" x="0px" y="0px"
	 viewBox="0 0 512 512" style="enable-background:new 0 0 512 512;" xml:space="preserve">
<circle style="fill:#CFF09E;" cx="166.49" cy="369.164" r="73.502"/>
<g>
	<path style="fill:#507C5C;" d="M166.492,456.457c-48.136,0-87.299-39.162-87.299-87.299s39.162-87.299,87.299-87.299
		s87.299,39.162,87.299,87.299S214.629,456.457,166.492,456.457z M166.492,309.459c-32.918,0-59.698,26.78-59.698,59.698
		s26.78,59.698,59.698,59.698s59.698-26.78,59.698-59.698S199.41,309.459,166.492,309.459z"/>
	<path style="fill:#507C5C;" d="M145.91,369.158h-27.601c0-26.569,21.616-48.185,48.183-48.185v27.601
		C155.143,348.574,145.91,357.808,145.91,369.158z"/>
</g>
<circle style="fill:#CFF09E;" cx="345.51" cy="369.164" r="73.502"/>
<g>
	<path style="fill:#507C5C;" d="M345.508,456.457c-48.138,0-87.299-39.162-87.299-87.299s39.162-87.299,87.299-87.299
		s87.299,39.162,87.299,87.299S393.645,456.457,345.508,456.457z M345.508,309.459c-32.918,0-59.698,26.78-59.698,59.698
		s26.78,59.698,59.698,59.698s59.698-26.78,59.698-59.698S378.426,309.459,345.508,309.459z"/>
	<path style="fill:#507C5C;" d="M324.924,369.158h-27.601c0-26.569,21.616-48.185,48.185-48.185v27.601
		C334.158,348.574,324.924,357.808,324.924,369.158z"/>
	<rect x="236.003" y="355.364" style="fill:#507C5C;" width="39.983" height="27.601"/>
	<path style="fill:#507C5C;" d="M438.29,276.352h-26.881l-4.128-4.774c-17.338-20.047-42.444-31.544-68.88-31.544
		c-26.436,0-51.544,11.497-68.88,31.544l-4.128,4.774h-18.787l-4.128-4.774c-17.338-20.047-42.444-31.544-68.88-31.544
		c-14.95,0-29.188,3.508-42.319,10.426l-12.866-24.417c16.896-8.903,35.979-13.609,55.186-13.609
		c30.879,0,60.358,12.029,82.402,33.32c22.044-21.291,51.523-33.32,82.402-33.32c26.369,0,51.719,8.772,72.287,24.593V132.774
		H101.311v129.778H73.71V105.173h364.58L438.29,276.352L438.29,276.352z"/>
</g>
<path style="fill:#CFF09E;" d="M486.611,118.973H25.389c-6.401,0-11.588-5.189-11.588-11.588V80.933
	c0-6.401,5.189-11.588,11.588-11.588H486.61c6.401,0,11.588,5.189,11.588,11.588v26.451
	C498.199,113.784,493.01,118.973,486.611,118.973z"/>
<g>
	<path style="fill:#507C5C;" d="M486.611,132.774H25.389C11.39,132.774,0,121.384,0,107.385V80.933
		c0-14.001,11.39-25.39,25.389-25.39H486.61c14.001,0,25.39,11.39,25.39,25.39v26.451C512,121.384,500.61,132.774,486.611,132.774z
		 M27.601,105.173h456.798V83.144H27.601V105.173z"/>
	<rect x="463.008" y="124.55" style="fill:#507C5C;" width="27.601" height="227.419"/>
</g>
<g>
</g>
<g>
</g>
<g>
</g>
<g>
</g>
<g>
</g>
<g>
</g>
<g>
</g>
<g>
</g>
<g>
</g>
<g>
</g>
<g>
</g>
<g>
</g>
<g>
</g>
<g>
</g>
<g>
</g>
</svg>
