<?xml version="1.0" encoding="iso-8859-1"?>
<!-- Generator: Adobe Illustrator 19.0.0, SVG Export Plug-In . SVG Version: 6.00 Build 0)  -->
<svg version="1.1" id="Layer_1" xmlns="http://www.w3.org/2000/svg" xmlns:xlink="http://www.w3.org/1999/xlink" x="0px" y="0px"
	 viewBox="0 0 512 512" style="enable-background:new 0 0 512 512;" xml:space="preserve">
<g>
	<path style="fill:#507C5C;" d="M412.875,512H99.125c-31.328,0-56.817-25.488-56.817-56.818V56.818C42.309,25.488,67.797,0,99.125,0
		h313.749c31.328,0,56.817,25.488,56.817,56.818v398.364C469.691,486.512,444.203,512,412.875,512z M99.125,27.233
		c-16.312,0-29.584,13.272-29.584,29.585v398.364c0,16.312,13.272,29.585,29.584,29.585h313.749
		c16.312,0,29.584-13.272,29.584-29.585V56.818c0-16.312-13.272-29.585-29.584-29.585H99.125z"/>
	<path style="fill:#507C5C;" d="M380.599,406.373H142.293c-24.669,0-44.739-20.07-44.739-44.739V99.986
		c0-24.669,20.07-44.739,44.739-44.739h238.306c12.991,0,23.169,5.854,28.658,16.483c4.597,8.902,5.188,19.776,5.188,28.257v261.648
		c0,8.48-0.59,19.354-5.188,28.257C403.768,400.519,393.59,406.373,380.599,406.373z M142.293,82.478
		c-9.653,0-17.506,7.854-17.506,17.506v261.648c0,9.654,7.854,17.506,17.506,17.506h238.306c3.559,0,3.977-0.81,4.462-1.747
		c1.427-2.764,2.151-8.066,2.151-15.759V99.986c0-7.693-0.723-12.995-2.151-15.76c-0.485-0.937-0.903-1.747-4.462-1.747
		L142.293,82.478L142.293,82.478z"/>
</g>
<path style="fill:#CFF09E;" d="M412.875,13.618H99.125c-23.858,0-43.2,19.342-43.2,43.2v398.364c0,23.858,19.342,43.2,43.2,43.2
	h313.749c23.858,0,43.2-19.342,43.2-43.2V56.818C456.075,32.958,436.733,13.618,412.875,13.618z M400.828,361.634
	c0,17.189-3.041,31.123-20.23,31.123H142.293c-17.189,0-31.123-13.934-31.123-31.123V99.984c0-17.189,13.934-31.123,31.123-31.123
	h238.306c17.189,0,20.23,13.934,20.23,31.123V361.634z"/>
<g>
	<path style="fill:#507C5C;" d="M412.875,512H99.125c-31.328,0-56.817-25.488-56.817-56.818V56.818
		c0-31.328,25.488-56.817,56.817-56.817h313.749c31.328,0,56.817,25.488,56.817,56.817v398.364
		C469.691,486.512,444.203,512,412.875,512z M99.125,27.234c-16.312,0-29.584,13.27-29.584,29.584v398.364
		c0,16.312,13.272,29.585,29.584,29.585h313.749c16.312,0,29.584-13.272,29.584-29.585V56.818c0-16.312-13.272-29.584-29.584-29.584
		C412.875,27.234,99.125,27.234,99.125,27.234z M380.599,406.373H142.293c-24.669,0-44.739-20.07-44.739-44.739V99.986
		c0-24.669,20.07-44.739,44.739-44.739h238.306c12.991,0,23.169,5.854,28.658,16.483c4.597,8.902,5.188,19.776,5.188,28.257v261.648
		c0,8.48-0.59,19.354-5.188,28.257C403.768,400.519,393.59,406.373,380.599,406.373z M142.293,82.478
		c-9.653,0-17.506,7.854-17.506,17.506v261.648c0,9.654,7.854,17.506,17.506,17.506h238.306c3.559,0,3.977-0.81,4.462-1.747
		c1.427-2.764,2.151-8.066,2.151-15.759V99.986c0-7.693-0.723-12.995-2.151-15.76c-0.485-0.937-0.903-1.747-4.462-1.747
		L142.293,82.478L142.293,82.478z"/>
	<rect x="159.324" y="123.527" style="fill:#507C5C;" width="138.886" height="27.233"/>
	<rect x="159.324" y="187.061" style="fill:#507C5C;" width="193.351" height="27.233"/>
	<rect x="159.324" y="314.155" style="fill:#507C5C;" width="193.351" height="27.233"/>
	<rect x="159.324" y="250.608" style="fill:#507C5C;" width="138.886" height="27.233"/>
	<path style="fill:#507C5C;" d="M300.253,469.376H273.02v-19.971H238.98v19.971h-27.233V448.27c0-14.39,11.707-26.098,26.098-26.098
		h36.311c14.39,0,26.098,11.709,26.098,26.098L300.253,469.376L300.253,469.376z"/>
</g>
<g>
</g>
<g>
</g>
<g>
</g>
<g>
</g>
<g>
</g>
<g>
</g>
<g>
</g>
<g>
</g>
<g>
</g>
<g>
</g>
<g>
</g>
<g>
</g>
<g>
</g>
<g>
</g>
<g>
</g>
</svg>
