<?xml version="1.0" encoding="iso-8859-1"?>
<!-- Generator: Adobe Illustrator 19.0.0, SVG Export Plug-In . SVG Version: 6.00 Build 0)  -->
<svg version="1.1" id="Layer_1" xmlns="http://www.w3.org/2000/svg" xmlns:xlink="http://www.w3.org/1999/xlink" x="0px" y="0px"
	 viewBox="0 0 512 512" style="enable-background:new 0 0 512 512;" xml:space="preserve">
<g>
	<path style="fill:#507C5C;" d="M415.506,333.72H96.508l-0.197-14.556c-0.008-0.54-0.017-1.079-0.017-1.622
		c0-88.063,71.644-159.706,159.706-159.706c88.063,0,159.706,71.643,159.706,159.706c0,0.528-0.009,1.054-0.017,1.579
		L415.506,333.72z M125.18,305.391h261.638C380.664,238.628,324.343,186.166,256,186.166S131.335,238.628,125.18,305.391z"/>
	<rect x="298.902" y="111.631" style="fill:#507C5C;" width="28.329" height="75.384"/>
	<rect x="184.763" y="111.631" style="fill:#507C5C;" width="28.329" height="75.384"/>
	<path style="fill:#507C5C;" d="M352.804,125.803H159.195c-21.247,0-38.533-17.285-38.533-38.532V38.533
		C120.663,17.286,137.948,0,159.195,0h193.607c21.247,0,38.533,17.286,38.533,38.533v48.737
		C391.337,108.518,374.049,125.803,352.804,125.803z M159.195,28.329c-5.626,0-10.204,4.577-10.204,10.204v48.737
		c0,5.626,4.577,10.203,10.204,10.203h193.607c5.628,0,10.204-4.577,10.204-10.203V38.533c0-5.628-4.577-10.204-10.204-10.204
		H159.195z"/>
</g>
<path style="fill:#CFF09E;" d="M293.335,319.554l-33.518,174.814c-0.712,4.622-7.371,4.622-8.084,0l-33.518-174.814H293.335z"/>
<path style="fill:#507C5C;" d="M255.776,512c-8.956,0-16.466-6.343-17.985-15.132L201.08,305.39h109.394l-36.713,191.478
	C272.24,505.657,264.731,512,255.776,512z M235.357,333.72l20.421,106.505l20.421-106.505H235.357L235.357,333.72z"/>
<g>
</g>
<g>
</g>
<g>
</g>
<g>
</g>
<g>
</g>
<g>
</g>
<g>
</g>
<g>
</g>
<g>
</g>
<g>
</g>
<g>
</g>
<g>
</g>
<g>
</g>
<g>
</g>
<g>
</g>
</svg>
