<?xml version="1.0" encoding="iso-8859-1"?>
<!-- Generator: Adobe Illustrator 19.0.0, SVG Export Plug-In . SVG Version: 6.00 Build 0)  -->
<svg version="1.1" id="Layer_1" xmlns="http://www.w3.org/2000/svg" xmlns:xlink="http://www.w3.org/1999/xlink" x="0px" y="0px"
	 viewBox="0 0 512 512" style="enable-background:new 0 0 512 512;" xml:space="preserve">
<path style="fill:#507C5C;" d="M318.357,450.964L318.357,450.964c-51.724,0-100.352-20.143-136.926-56.717l-23.336-23.337
	c-11.625-11.625-18.028-27.101-18.029-43.577c0-16.475,6.402-31.95,18.025-43.574c11.625-11.626,27.101-18.028,43.577-18.028
	s31.952,6.403,43.577,18.028c1.109,1.109,2.418,1.274,3.099,1.274c0.682,0,1.99-0.165,3.099-1.273
	c1.711-1.71,1.712-4.492,0.003-6.201l-70.015-70.015c-24.026-24.027-24.026-63.122,0-87.149
	c36.575-36.574,85.203-56.717,136.926-56.717c51.727,0.003,100.353,20.146,136.926,56.717c36.572,36.572,56.715,85.2,56.717,136.926
	c-0.003,51.727-20.146,100.355-56.717,136.926C418.71,430.818,370.084,450.96,318.357,450.964z M201.668,293.956
	c-8.936,0-17.324,3.468-23.618,9.762c-6.293,6.292-9.759,14.679-9.759,23.615s3.468,17.324,9.762,23.618l23.337,23.337
	c31.243,31.243,72.782,48.45,116.966,48.45c44.186-0.003,85.727-17.209,116.967-48.451c31.241-31.241,48.447-72.781,48.45-116.967
	c-0.003-44.185-17.209-85.725-48.451-116.967c-31.241-31.241-72.781-48.447-116.967-48.45c-44.184,0-85.722,17.207-116.966,48.45
	c-13.022,13.022-13.022,34.21,0,47.232l70.015,70.015c12.714,12.714,12.713,33.403-0.003,46.118
	c-6.153,6.152-14.342,9.54-23.058,9.54c-8.716,0-16.905-3.389-23.058-9.54C218.991,297.423,210.604,293.956,201.668,293.956z"/>
<path style="fill:#CFF09E;" d="M387.378,325.82c-11.94-11.94-31.366-11.94-43.306,0c-11.94,11.94-11.94,31.366,0,43.306
	c11.94,11.94,31.366,11.94,43.306,0C399.318,357.186,399.318,337.759,387.378,325.82L387.378,325.82z"/>
<path style="fill:#507C5C;" d="M365.726,392.192c-11.958,0-23.192-4.647-31.633-13.087c-17.441-17.442-17.441-45.822,0-63.264
	c8.44-8.44,19.674-13.087,31.633-13.087c11.959,0,23.193,4.647,31.633,13.088c17.441,17.441,17.441,45.822,0,63.264
	C388.918,387.544,377.684,392.192,365.726,392.192z M365.726,330.978c-4.419,0-8.564,1.712-11.673,4.821
	c-6.437,6.437-6.437,16.909,0,23.346c3.109,3.109,7.254,4.821,11.673,4.821c4.419,0,8.564-1.712,11.673-4.821
	c6.437-6.437,6.437-16.91,0-23.346C374.29,332.69,370.143,330.978,365.726,330.978z"/>
<path style="fill:#CFF09E;" d="M329.143,126.214c-7.9-2.117-16.152-1.027-23.238,3.061c-7.08,4.089-12.15,10.692-14.265,18.594
	c-2.825,10.533,0.215,21.872,7.933,29.591c3.785,3.785,8.528,6.52,13.718,7.913c7.902,2.114,16.152,1.027,23.238-3.061
	c7.083-4.091,12.15-10.692,14.265-18.595c2.823-10.535-0.215-21.872-7.933-29.591C339.075,130.341,334.329,127.604,329.143,126.214
	L329.143,126.214z"/>
<path style="fill:#507C5C;" d="M321.263,200.54L321.263,200.54c-3.906,0-7.816-0.517-11.621-1.534
	c-7.587-2.035-14.518-6.035-20.05-11.568c-11.273-11.273-15.712-27.836-11.583-43.225c3.085-11.532,10.486-21.181,20.838-27.159
	c10.232-5.902,22.553-7.525,33.949-4.472c7.581,2.034,14.511,6.032,20.046,11.566c11.269,11.271,15.709,27.832,11.584,43.222
	c-3.088,11.536-10.489,21.185-20.839,27.163C336.773,198.464,329.056,200.54,321.263,200.54z M321.174,139.271
	c-2.889,0-5.654,0.749-8.217,2.228c-3.815,2.203-6.546,5.762-7.683,10.017c-1.526,5.686,0.114,11.8,4.279,15.963
	c2.035,2.036,4.592,3.51,7.395,4.262c4.254,1.138,8.688,0.562,12.528-1.654c3.815-2.203,6.546-5.762,7.685-10.019
	c1.524-5.686-0.116-11.8-4.279-15.963c-2.036-2.037-4.592-3.51-7.394-4.262C324.068,139.465,322.615,139.271,321.174,139.271z"/>
<path style="fill:#CFF09E;" d="M431.965,208.702c-7.718-7.718-19.058-10.758-29.591-7.933
	c-16.312,4.369-26.024,21.193-21.652,37.501c1.387,5.188,4.127,9.93,7.913,13.718c7.718,7.718,19.055,10.761,29.588,7.934
	c16.31-4.369,26.024-21.192,21.655-37.504C438.487,217.234,435.752,212.49,431.965,208.702L431.965,208.702z"/>
<path style="fill:#507C5C;" d="M410.34,275.074h-0.001c-11.806,0-23.353-4.777-31.682-13.107
	c-5.542-5.542-9.542-12.476-11.567-20.052c-3.088-11.52-1.497-23.573,4.482-33.93c5.98-10.356,15.622-17.76,27.152-20.849
	c3.755-1.008,7.639-1.519,11.54-1.519c11.807,0,23.354,4.776,31.682,13.104c5.532,5.534,9.532,12.465,11.564,20.04
	c6.382,23.834-7.81,48.412-31.636,54.794C418.12,274.563,414.238,275.074,410.34,275.074z M410.262,213.844
	c-1.432,0-2.855,0.186-4.231,0.556c-4.252,1.139-7.807,3.873-10.017,7.7c-2.209,3.826-2.799,8.27-1.66,12.517
	c0.748,2.799,2.221,5.352,4.261,7.392c3.075,3.075,7.349,4.839,11.725,4.839l0,0c1.43,0,2.852-0.186,4.227-0.556
	c8.797-2.355,14.034-11.427,11.678-20.223c-0.749-2.796-2.223-5.352-4.261-7.388C418.912,215.607,414.639,213.844,410.262,213.844z"
	/>
<path style="fill:#CFF09E;" d="M123.178,151.472c0-43.025-54.533-77.904-54.533-77.904s-54.533,34.879-54.533,77.904
	c0,24.202,7.725,45.826,19.844,60.114c6.733,7.939,14.823,13.612,23.697,16.207c3.549,1.037,7.226,1.582,10.99,1.582
	c0.689,0,1.37-0.038,2.052-0.075l0,0C99.864,227.758,123.178,193.515,123.178,151.472z"/>
<g>
	<path style="fill:#507C5C;" d="M68.646,243.49c-5.04,0-10.071-0.724-14.95-2.149c-11.316-3.308-21.862-10.438-30.501-20.623
		C8.454,203.337,0,178.099,0,151.472c0-50.175,58.549-88.199,61.042-89.794l7.604-4.863l7.604,4.863
		c2.492,1.593,61.042,39.618,61.042,89.794c0,49.592-28.925,89.969-65.848,91.922C70.472,243.448,69.564,243.49,68.646,243.49z
		 M68.646,90.876c-15.732,12.124-40.42,36.301-40.42,60.596c0,20.043,6.012,38.627,16.495,50.986
		c5.055,5.958,10.897,10.036,16.895,11.79c2.707,0.792,5.507,1.114,8.255,0.965c21.649-1.146,39.195-29.738,39.195-63.741
		C109.065,127.184,84.387,103.009,68.646,90.876z"/>
	<path style="fill:#507C5C;" d="M70.583,455.185h-3.877c-19.805,0-35.918-16.113-35.918-35.919V229.377h75.712v189.889
		C106.501,439.072,90.388,455.185,70.583,455.185z M59.015,257.603v161.663c0,4.241,3.451,7.693,7.692,7.693h3.877
		c4.241,0,7.692-3.451,7.692-7.693V257.603H59.015z"/>
	<rect x="25.488" y="227.925" style="fill:#507C5C;" width="86.315" height="28.226"/>
</g>
<g>
</g>
<g>
</g>
<g>
</g>
<g>
</g>
<g>
</g>
<g>
</g>
<g>
</g>
<g>
</g>
<g>
</g>
<g>
</g>
<g>
</g>
<g>
</g>
<g>
</g>
<g>
</g>
<g>
</g>
</svg>
