<?xml version="1.0" encoding="iso-8859-1"?>
<!-- Generator: Adobe Illustrator 19.0.0, SVG Export Plug-In . SVG Version: 6.00 Build 0)  -->
<svg version="1.1" id="Layer_1" xmlns="http://www.w3.org/2000/svg" xmlns:xlink="http://www.w3.org/1999/xlink" x="0px" y="0px"
	 viewBox="0 0 512 512" style="enable-background:new 0 0 512 512;" xml:space="preserve">
<path style="fill:#CFF09E;" d="M418.658,475.598c32.137,0,58.19-40.732,58.19-40.732s-26.052-40.732-58.19-40.732
	c-18.078,0-34.229,5.77-44.902,14.822c-5.929,5.029-10.167,11.072-12.106,17.701c-0.775,2.651-1.182,5.397-1.182,8.209
	c0,0.515,0.028,1.024,0.055,1.533l0,0C361.677,458.183,387.255,475.598,418.658,475.598z"/>
<g>
	<path style="fill:#507C5C;" d="M418.658,489.82c-38.999,0-70.773-23.135-72.336-52.669c-0.043-0.805-0.075-1.54-0.075-2.285
		c0-4.117,0.59-8.223,1.755-12.203c2.671-9.142,8.397-17.633,16.555-24.553c13.636-11.565,33.355-18.199,54.103-18.199
		c38.804,0,67.075,42.452,70.171,47.292l4.901,7.663l-4.901,7.663C485.733,447.37,457.461,489.82,418.658,489.82z M418.658,408.356
		c-13.905,0-27.253,4.279-35.703,11.446c-3.9,3.308-6.546,7.059-7.653,10.844c-0.407,1.388-0.612,2.807-0.612,4.22
		c0,0.237,0.02,0.471,0.031,0.705c0.661,12.501,18.472,25.805,43.935,25.805c15.57,0,31.622-15.528,40.572-26.519
		C450.2,423.713,434.288,408.356,418.658,408.356z"/>
	<path style="fill:#507C5C;" d="M364.149,466.823H51.44c-16.823,0-30.51-13.687-30.51-30.509v-2.894
		c0-16.823,13.687-30.51,30.51-30.51h312.708V466.823z M51.44,431.353c-1.139,0-2.065,0.926-2.065,2.065v2.894
		c0,1.139,0.926,2.065,2.065,2.065h284.264v-7.024H51.44z"/>
	<rect x="336.782" y="394.126" style="fill:#507C5C;" width="28.444" height="85.333"/>
	<path style="fill:#507C5C;" d="M463.289,369.557H48.711C21.851,369.557,0,347.705,0,320.846V70.891
		C0,44.031,21.851,22.18,48.711,22.18h414.578c26.86,0,48.711,21.851,48.711,48.711v249.956
		C512,347.705,490.149,369.557,463.289,369.557z M48.711,50.624c-11.174,0-20.267,9.092-20.267,20.267v249.956
		c0,11.174,9.092,20.267,20.267,20.267h414.578c11.174,0,20.267-9.092,20.267-20.267V70.891c0-11.174-9.092-20.267-20.267-20.267
		H48.711z"/>
</g>
<circle style="fill:#CFF09E;" cx="110.222" cy="127.772" r="42.667"/>
<g>
	<path style="fill:#507C5C;" d="M110.222,184.668c-31.369,0-56.889-25.52-56.889-56.889s25.52-56.889,56.889-56.889
		s56.889,25.52,56.889,56.889S141.591,184.668,110.222,184.668z M110.222,99.335c-15.684,0-28.444,12.76-28.444,28.444
		s12.76,28.444,28.444,28.444s28.444-12.76,28.444-28.444S125.906,99.335,110.222,99.335z"/>
	<path style="fill:#507C5C;" d="M252.444,184.668c-31.369,0-56.889-25.52-56.889-56.889s25.52-56.889,56.889-56.889
		s56.889,25.52,56.889,56.889S283.813,184.668,252.444,184.668z M252.444,99.335c-15.684,0-28.444,12.76-28.444,28.444
		s12.76,28.444,28.444,28.444s28.444-12.76,28.444-28.444S268.129,99.335,252.444,99.335z"/>
</g>
<circle style="fill:#CFF09E;" cx="394.667" cy="127.772" r="42.667"/>
<path style="fill:#507C5C;" d="M394.667,184.668c-31.369,0-56.889-25.52-56.889-56.889s25.52-56.889,56.889-56.889
	s56.889,25.52,56.889,56.889S426.035,184.668,394.667,184.668z M394.667,99.335c-15.684,0-28.444,12.76-28.444,28.444
	s12.76,28.444,28.444,28.444c15.684,0,28.444-12.76,28.444-28.444S410.351,99.335,394.667,99.335z"/>
<circle style="fill:#CFF09E;" cx="110.222" cy="266.439" r="42.667"/>
<path style="fill:#507C5C;" d="M110.222,323.335c-31.369,0-56.889-25.52-56.889-56.889s25.52-56.889,56.889-56.889
	s56.889,25.52,56.889,56.889S141.591,323.335,110.222,323.335z M110.222,238.002c-15.684,0-28.444,12.76-28.444,28.444
	s12.76,28.444,28.444,28.444s28.444-12.76,28.444-28.444S125.906,238.002,110.222,238.002z"/>
<circle style="fill:#CFF09E;" cx="252.444" cy="266.439" r="42.667"/>
<g>
	<path style="fill:#507C5C;" d="M252.444,323.335c-31.369,0-56.889-25.52-56.889-56.889s25.52-56.889,56.889-56.889
		s56.889,25.52,56.889,56.889S283.813,323.335,252.444,323.335z M252.444,238.002c-15.684,0-28.444,12.76-28.444,28.444
		s12.76,28.444,28.444,28.444s28.444-12.76,28.444-28.444S268.129,238.002,252.444,238.002z"/>
	<path style="fill:#507C5C;" d="M394.667,323.335c-31.369,0-56.889-25.52-56.889-56.889s25.52-56.889,56.889-56.889
		s56.889,25.52,56.889,56.889S426.035,323.335,394.667,323.335z M394.667,238.002c-15.684,0-28.444,12.76-28.444,28.444
		s12.76,28.444,28.444,28.444c15.684,0,28.444-12.76,28.444-28.444S410.351,238.002,394.667,238.002z"/>
</g>
<g>
</g>
<g>
</g>
<g>
</g>
<g>
</g>
<g>
</g>
<g>
</g>
<g>
</g>
<g>
</g>
<g>
</g>
<g>
</g>
<g>
</g>
<g>
</g>
<g>
</g>
<g>
</g>
<g>
</g>
</svg>
